<?xml version="1.0" encoding="UTF-8" standalone="no"?>
<!-- Created with Inkscape (http://www.inkscape.org/) -->

<svg
   xmlns:dc="http://purl.org/dc/elements/1.1/"
   xmlns:cc="http://creativecommons.org/ns#"
   xmlns:rdf="http://www.w3.org/1999/02/22-rdf-syntax-ns#"
   xmlns:svg="http://www.w3.org/2000/svg"
   xmlns="http://www.w3.org/2000/svg"
   xmlns:sodipodi="http://sodipodi.sourceforge.net/DTD/sodipodi-0.dtd"
   xmlns:inkscape="http://www.inkscape.org/namespaces/inkscape"
   version="1.1"
   id="svg869"
   width="346.80176mm"
   height="168.13733mm"
   viewBox="0 0 1310.7468 635.47968"
   sodipodi:docname="_port_.svg"
   inkscape:version="0.92.2 5c3e80d, 2017-08-06">
  <metadata
     id="metadata875">
    <rdf:RDF>
      <cc:Work
         rdf:about="">
        <dc:format>image/svg+xml</dc:format>
        <dc:type
           rdf:resource="http://purl.org/dc/dcmitype/StillImage" />
        <dc:title></dc:title>
      </cc:Work>
    </rdf:RDF>
  </metadata>
  <defs
     id="defs873" />
  <sodipodi:namedview
     pagecolor="#ffffff"
     bordercolor="#666666"
     borderopacity="1"
     objecttolerance="10"
     gridtolerance="10"
     guidetolerance="10"
     inkscape:pageopacity="0"
     inkscape:pageshadow="2"
     inkscape:window-width="2528"
     inkscape:window-height="1330"
     id="namedview871"
     showgrid="false"
     fit-margin-top="0"
     fit-margin-left="0"
     fit-margin-right="0"
     fit-margin-bottom="0"
     inkscape:zoom="0.7765625"
     inkscape:cx="195.04363"
     inkscape:cy="191.69035"
     inkscape:window-x="0"
     inkscape:window-y="0"
     inkscape:window-maximized="0"
     inkscape:current-layer="svg869"
     units="mm" />
  <g
     id="g879"
     transform="matrix(0.54172651,0,0,0.5214317,-68.694045,-3.7955888)">
    <path
       style="opacity:0.78947365;fill:#fce7a5;fill-opacity:0.37647059"
       d="m 927,1274.4517 c -21.62353,-6.0407 -37.02474,-21.7557 -42.57792,-43.4454 -2.2275,-8.7001 -1.49769,-24.0179 1.55936,-32.7291 6.04046,-17.2125 20.48585,-31.1878 37.9176,-36.6838 4.1942,-1.3224 8.09981,-3.2121 8.79146,-4.2538 0.68449,-1.0309 3.7262,-14.0165 6.75934,-28.857 7.33737,-35.8999 19.19992,-90.4657 19.79696,-91.0627 1.20161,-1.2016 131.9768,-30.1003 207.2532,-45.79884 22.55,-4.70268 60.575,-12.63149 84.5,-17.61958 23.925,-4.98808 59.475,-12.41462 79,-16.50342 36.0289,-7.54493 121.0887,-25.30064 177.5,-37.05202 17.05,-3.55178 32.575,-6.80775 34.5,-7.23547 2.4103,-0.53557 3.591,-1.40307 3.7923,-2.78645 0.1608,-1.10481 -3.284,-12.11471 -7.6551,-24.46644 C 1533.7661,873.60596 1505.1184,792.85 1474.4755,706.5 1411.1253,527.9826 1405,510.29681 1405,505.90222 c 0,-3.89455 5.147,-9.14764 10.733,-10.95417 2.0719,-0.67003 64.742,-25.53981 139.267,-55.26618 123.8568,-49.4037 136.0087,-54.05369 141.4206,-54.1149 l 5.9206,-0.067 9.2085,19.57507 c 9.002,19.13625 19.3886,44.67455 117.3046,288.42493 38.6823,96.29504 48.1696,119.05455 49.7244,119.28593 1.0567,0.15726 9.3463,-2.82483 18.4213,-6.62686 9.075,-3.80203 50.25,-21.09111 91.5,-38.42017 145.415,-61.08863 238.6716,-100.25821 300.9592,-126.40872 34.6275,-14.53786 63.5502,-26.92299 64.2725,-27.52251 0.7715,-0.64022 1.0508,-1.96027 0.6769,-3.19885 -0.7417,-2.45737 -110.0511,-313.77811 -113.7553,-323.98281 -1.3703,-3.77534 -2.9856,-7.3583 -3.5894,-7.96213 -0.6506,-0.65059 -5.6744,-1.14818 -12.3309,-1.22135 -13.1646,-0.14471 -22.1897,-2.07971 -32.2347,-6.91117 -19.3714,-9.31725 -34.0718,-27.37289 -39.1283,-48.05899 -2.2354,-9.14534 -2.2354,-24.7994 0,-33.94474 6.3011,-25.77776 27.3799,-46.8565 53.1576,-53.15759 9.1454,-2.23548 24.7994,-2.23548 33.9448,0 36.3808,8.8929 60.4211,45.12009 54.1056,81.53382 -2.907,16.76102 -9.6403,29.32364 -22.322,41.64709 -5.6717,5.51137 -7.256,7.67518 -7.256,9.90976 0,1.57235 4.9133,16.84942 10.9185,33.94905 6.0052,17.09963 31.2234,88.91524 56.0405,159.59024 24.8171,70.675 45.7265,130.075 46.4654,132 2.4086,6.27542 8.5756,28.71216 8.5756,31.19997 0,4.72461 -4.9156,7.5567 -35.0991,20.22202 -54.3656,22.8124 -310.9753,130.59869 -354.9009,149.07249 -83.3776,35.06616 -110.6116,46.30946 -123.9263,51.16192 -9.2636,3.37601 -9.4592,3.4025 -11.3279,1.53389 -2.1666,-2.16665 -2.6897,-3.44198 -63.2481,-154.19029 -24.6354,-61.325 -59.238,-147.4511 -76.8947,-191.39133 -17.6566,-43.94024 -32.8374,-80.35446 -33.7351,-80.9205 -1.2669,-0.7989 -28.8918,9.83639 -123.4743,47.53638 -78.8456,31.42733 -122.2601,49.22013 -123.0264,50.42049 -0.9855,1.5438 0.1309,5.54541 6.655,23.85496 4.3115,12.1 32.6488,91.975 62.9718,177.5 30.3229,85.525 58.4218,164.725 62.4419,176 9.1697,25.71786 9.1878,25.80157 6.7652,31.27826 -2.2438,5.07255 -5.0919,6.68879 -20.4191,11.58758 -10.2719,3.28302 -15.1021,4.34636 -102.782,22.62681 -30.525,6.36417 -71.475,14.91748 -91,19.00735 -19.525,4.08987 -60.475,12.64516 -91,19.01177 -30.525,6.36666 -67.2,14.02446 -81.5,17.01746 -28.4976,5.9646 -103.904,21.7023 -168,35.0625 -30.13779,6.2819 -41.3974,9.009 -42.5,10.2935 -1.89075,2.2028 -19.49227,96.0841 -18.62189,99.3237 0.38724,1.4414 2.86104,3.5702 6.67008,5.74 11.76208,6.7002 21.58216,18.6693 26.1401,31.8607 1.91549,5.5437 2.31171,8.7471 2.31171,18.6904 0,9.9433 -0.39622,13.1467 -2.31171,18.6904 -5.84422,16.9141 -19.72284,30.9347 -36.46551,36.8387 -8.26162,2.9133 -25.74623,3.6509 -33.72278,1.4226 z m 814.9671,-47.9913 c -2.0801,-2.5064 -106.9031,-259.4635 -106.3905,-260.7995 0.248,-0.6461 23.2484,-10.52685 51.112,-21.95721 41.9316,-17.20139 50.8884,-20.55529 51.9796,-19.46403 0.7252,0.72514 16.1188,37.53037 34.208,81.78944 18.0893,44.259 41.7173,102.013 52.5067,128.3421 10.7894,26.3292 19.6171,48.6616 19.6171,49.6276 0,0.966 -0.5625,2.2112 -1.25,2.7672 -0.9133,0.7385 -86.1325,35.8432 -98.8398,40.7155 -0.8902,0.3413 -2.1853,-0.108 -2.9431,-1.0211 z M 1396,1207.024 c -41.525,-9.8038 -80,-18.9047 -85.5,-20.2242 l -10,-2.3991 0.2662,-3.9504 c 0.9064,-13.4501 20.4259,-178.0424 21.2072,-178.8237 1.4394,-1.4394 201.1853,-40.86791 202.1501,-39.90313 1.0941,1.09415 -44.8601,259.41833 -46.4233,260.96073 -0.6601,0.6513 -2.3252,1.4048 -3.7002,1.6745 -1.3857,0.2718 -36.1515,-7.4546 -78,-17.3347 z m -963.47884,-60.6783 c -56.08835,-16.7575 -102.2707,-30.9404 -102.62743,-31.5176 -0.35673,-0.5772 -0.46869,-1.7872 -0.2488,-2.6888 0.21989,-0.9016 7.58678,-34.0138 16.37087,-73.5827 8.78409,-39.56893 16.38936,-72.36176 16.90059,-72.87299 0.57269,-0.57269 2.20673,-0.0317 4.25657,1.40922 22.49598,15.81351 170.93085,122.76567 172.66522,124.41097 l 2.33819,2.218 -1.17177,40.3891 c -0.64448,22.214 -1.34504,40.9516 -1.5568,41.6391 -0.21177,0.6875 -1.41165,1.2081 -2.66642,1.1569 -1.25476,-0.051 -48.17186,-13.8038 -104.26022,-30.5612 z m 713.55094,2.0632 c -56.8853,-13.4015 -103.7177,-24.8355 -104.072,-25.4088 -0.8025,-1.2985 8.5203,-66.9283 9.6659,-68.0451 0.6582,-0.6418 222.1219,-44.955 224.6707,-44.955 0.3648,0 0.6633,1.469 0.6633,3.2644 0,3.5055 -21.6657,155.0645 -22.5844,157.9856 -0.3207,1.0196 -1.4613,1.7031 -2.733,1.6376 -1.2004,-0.062 -48.7251,-11.0773 -105.6105,-24.4787 z m 759.6145,10.1349 c -0.7382,-0.7382 -9.152,-20.3317 -18.6974,-43.5411 -13.4713,-32.7555 -17.1241,-42.5653 -16.3225,-43.836 1.2702,-2.0138 90.0175,-38.3634 92.6738,-37.9579 1.5032,0.2294 5.604,9.2832 19.3342,42.6862 9.5845,23.3173 17.2912,43.3309 17.1258,44.4748 -0.2509,1.7366 -7.4781,5.0097 -43.8005,19.8368 -52.5229,21.4403 -48.6293,20.0212 -50.3134,18.3372 z M 786.78542,1118.4494 c -36.82589,-5.7342 -70.18165,-30.3079 -87.19476,-64.2379 -10.83692,-21.6126 -14.74931,-46.3134 -11.13416,-70.29536 7.11576,-47.20403 41.24009,-84.97023 88.23032,-97.64654 9.03116,-2.43629 11.36714,-2.64748 29.31318,-2.65019 18.17237,-0.003 20.18084,0.1839 29.5,2.7415 42.46442,11.65412 75.01697,44.68343 85.5882,86.84168 3.00232,11.97331 3.73436,36.13711 1.46317,48.29741 -4.55678,24.3977 -14.77236,44.4025 -31.65379,61.9866 -26.80081,27.9163 -65.62772,40.9551 -104.11216,34.9628 z M 269,1100.8291 c -7.425,-1.6422 -42.525,-9.2798 -78,-16.9725 -35.475,-7.6926 -64.90862,-14.3884 -65.40805,-14.8796 -0.96829,-0.9523 57.92932,-242.5258 59.66647,-244.727 0.54256,-0.6875 1.94387,-1.24999 3.11402,-1.24997 1.33439,2e-5 26.35999,19.96481 67.12756,53.55267 35.75,29.45394 66.32602,54.86361 67.94672,56.46592 l 2.94672,2.91328 -18.1983,83.2841 c -10.00907,45.8062 -18.19759,83.6215 -18.19672,84.034 0.003,1.4247 -7.54648,0.5543 -20.99842,-2.4209 z M 2077.2123,1082.25 c -2.1472,-5.0144 -57.0805,-138.64614 -86.224,-209.75 -21.9867,-53.64266 -20.4321,-49.16794 -17.6957,-50.93591 1.2141,-0.78438 30.2861,-12.96243 64.6045,-27.06233 51.5721,-21.18868 62.6244,-25.40766 63.7077,-24.31897 C 2102.8826,771.46704 2210,1031.2255 2210,1033.04 c 0,0.5027 -1.0125,1.575 -2.25,2.3831 -3.292,2.1496 -124.8212,51.5769 -126.8144,51.5769 -1.0632,0 -2.4432,-1.7606 -3.7233,-4.75 z m 242.0186,3.5 c -0.5577,-0.6875 -12.1084,-26.1541 -25.6682,-56.5924 -18.3578,-41.20861 -24.3815,-55.67106 -23.5862,-56.62931 1.4131,-1.70264 59.3516,-27.52829 61.7584,-27.52829 1.2763,0 2.5131,1.50484 3.9039,4.75 1.1197,2.6125 12.234,27.74003 24.6985,55.839 12.4645,28.0989 22.6627,51.8098 22.6627,52.6909 0,0.8812 -0.5625,1.9595 -1.25,2.3964 -3.2313,2.0532 -58.4302,26.3237 -59.8687,26.3237 -0.9,0 -2.0927,-0.5625 -2.6504,-1.25 z m 100.3856,-46.5247 c -0.7891,-1.526 -3.4438,-7.2635 -5.8993,-12.75 -2.4555,-5.4864 -13.3147,-29.31124 -24.1317,-52.94407 -10.817,-23.63282 -19.5364,-43.81771 -19.3764,-44.85531 0.2216,-1.43696 8.83,-5.6927 36.1214,-17.85734 19.7068,-8.78392 36.3856,-15.75775 37.0641,-15.4974 1.1963,0.45906 49.5247,109.13142 50.3456,113.20812 0.4841,2.4044 3.3523,0.9417 -38.2569,19.5096 -17.2072,7.6786 -31.9936,13.9611 -32.8588,13.9611 -0.8652,0 -2.2188,-1.2486 -3.008,-2.7747 z M 531.71305,1021.3457 C 474.25249,953.53424 380.04406,840.17081 380.24221,839.07696 c 0.28372,-1.56618 11.10066,-9.26413 31.99267,-22.76782 7.4959,-4.84503 24.89875,-16.13162 38.673,-25.08131 13.77425,-8.94969 25.6578,-16.50767 26.40789,-16.79551 0.75009,-0.28784 1.82593,0.0596 2.39076,0.77217 0.56482,0.71253 17.52569,38.7188 37.69082,84.45837 l 36.66388,83.16286 -6.539,42.79552 c -3.59645,23.53756 -6.9383,43.19486 -7.42634,43.68286 -0.51646,0.5165 -4.02025,-2.8099 -8.38284,-7.9584 z M 1842.1369,1016.25 c -3.2143,-6.0257 -48.1929,-117.72089 -47.938,-119.04434 0.4535,-2.35458 94.4417,-40.92214 96.5245,-39.60831 1.6522,1.04216 49.2766,116.69945 49.2766,119.66964 0,1.2624 -1.654,2.57327 -5.25,4.16079 -14.6921,6.48615 -88.8739,36.57222 -90.1744,36.57222 -0.8279,0 -1.9253,-0.7875 -2.4387,-1.75 z m -794.9614,-23.53856 c -1.1391,-1.37249 -40.9462,-76.42518 -42.8573,-80.80353 -0.6223,-1.42565 -0.8359,-3.03687 -0.4748,-3.5805 0.3611,-0.54363 38.0066,-21.60465 83.6566,-46.80227 45.65,-25.19762 91.775,-50.66518 102.5,-56.59457 10.725,-5.9294 42.6693,-23.58434 70.9873,-39.23321 28.318,-15.64887 51.9613,-28.27056 52.5408,-28.0482 0.5795,0.22237 1.5212,1.62977 2.0927,3.12757 0.5715,1.4978 20.4656,36.62177 44.2091,78.05328 23.7436,41.43151 43.1701,75.89926 43.1701,76.59501 0,0.69575 -0.7875,1.9484 -1.75,2.78365 C 1399.7714,899.49183 1052.5951,994 1049.3601,994 c -0.6134,0 -1.5964,-0.57985 -2.1846,-1.28856 z M 2250.869,926.25 c -19.0622,-42.22395 -20.007,-44.54052 -18.688,-45.81856 C 2233.851,878.81327 2355.4445,824 2357.3641,824 c 0.782,0 1.6568,0.5625 1.944,1.25 0.2871,0.6875 5.2852,11.78451 11.107,24.66002 5.8217,12.87551 10.5849,24.18291 10.5849,25.12755 0,0.94465 -0.5625,2.14662 -1.25,2.67104 -2.0052,1.52961 -123.1172,55.30421 -124.5418,55.29749 -0.7105,-0.003 -2.6631,-3.0436 -4.3392,-6.7561 z m -1300.02652,-13 C 947.03977,908.71525 937.79011,891.7438 874.94948,774 843.98116,715.975 791.74115,618.1 758.86057,556.5 725.97999,494.9 698.45676,444.36828 697.69783,444.20729 696.33563,443.91833 567.34992,511.09628 547,522.69329 c -5.775,3.29105 -71.475,39.8671 -146,81.28012 -74.525,41.41301 -136.22697,75.92565 -137.11548,76.69474 -1.18109,1.02234 -1.76041,3.8767 -2.15444,10.6151 -1.55456,26.5849 -19.31289,45.97149 -45.51236,49.6854 -20.13864,2.85475 -42.37152,-8.49303 -51.88353,-26.48164 -10.77487,-20.37687 -7.4795,-45.00517 8.16581,-61.02807 19.17384,-19.63658 47.69274,-21.38883 70.30102,-4.31941 2.9315,2.21329 5.9299,3.79397 6.66313,3.5126 0.73322,-0.28136 45.36625,-25.00316 99.18449,-54.93731 C 402.46689,567.78066 464.95,533.04933 487.5,520.53408 c 22.55,-12.51525 42.72721,-23.86295 44.83824,-25.21712 3.52581,-2.26171 113.03358,-59.85598 139.66176,-73.45339 6.325,-3.2298 16,-8.33907 21.5,-11.35394 11.38442,-6.24045 15.74914,-6.95388 19.94239,-3.25963 1.40465,1.2375 5.3903,7.875 8.857,14.75 3.4667,6.875 41.18401,77.75 83.81625,157.5 42.63224,79.75 95.70919,179.11216 117.94876,220.80479 36.13263,67.73799 40.6642,75.76258 42.58374,75.40814 1.18147,-0.21815 62.83146,-33.18733 136.99996,-73.26483 74.1686,-40.0775 149.9259,-81.01303 168.3497,-90.96783 18.8578,-10.18933 33.6275,-18.77302 33.7945,-19.6404 0.2615,-1.35789 -25.9717,-51.18535 -175.7605,-333.83987 -19.091,-36.025 -51.4906,-97.225 -71.9993,-136 -20.5086,-38.775 -38.3748,-72.4125 -39.7026,-74.75 -2.2366,-3.93736 -2.7238,-4.25128 -6.6221,-4.26736 -13.69184,-0.0565 -28.07858,-6.12651 -37.7078,-15.90956 -10.34325,-10.5085 -14.96631,-21.81053 -14.98813,-36.641579 -0.0346,-23.509487 15.71714,-44.003109 38.48813,-50.0746 7.5705,-2.018532 21.1061,-1.722364 28.7168,0.628341 24.6062,7.600078 40.4892,33.804846 35.5832,58.707231 -1.891,9.598317 -5.6323,17.559117 -11.4621,24.388867 -2.3858,2.79508 -4.3379,6.01541 -4.3379,7.15628 0,1.14087 32.8034,63.99162 72.8964,139.66834 40.093,75.67672 106.7558,201.49404 148.1396,279.59404 41.3838,78.1 75.6756,143.54948 76.204,145.44329 1.197,4.28991 -0.3087,9.83712 -3.4732,12.79607 -2.4731,2.31248 -12.7215,8.07454 -58.2668,32.75993 C 1228.9025,770.00696 1003.947,891.42235 992,897.75135 977.11283,905.63793 956.59018,915 954.18914,915 c -1.03354,0 -2.53954,-0.7875 -3.34666,-1.75 z m -338.5602,-31.45449 c -0.98207,-1.22552 -126.04125,-230.73543 -144.78062,-265.7029 -6.15902,-11.49266 -8.5246,-16.82956 -7.89726,-17.81676 1.34732,-2.12021 81.56715,-47.24039 84.02316,-47.25939 1.17015,-0.009 2.57547,0.54604 3.12292,1.23354 2.084,2.61711 147.61837,282.22868 148.03736,284.42051 0.30534,1.59724 -0.13163,2.51632 -1.42364,2.99434 -1.02531,0.37935 -18.75285,10.03614 -39.39452,21.45952 -20.64168,11.42339 -38.23209,21.03909 -39.08979,21.36823 -0.8577,0.32913 -2.02663,0.0154 -2.59761,-0.69709 z M 1615.0785,861.75 c -12.8438,-33.14107 -58.0242,-150.84179 -58.4842,-152.35882 -0.3712,-1.22401 -0.1055,-2.54506 0.6331,-3.14855 0.6999,-0.57185 38.3863,-15.30672 83.7476,-32.74416 60.0023,-23.06564 82.8905,-31.44694 84,-30.75945 0.8387,0.51974 14.9354,35.73964 31.3258,78.26644 25.0104,64.89218 29.5839,77.53837 28.4515,78.67078 C 1783.0489,801.37971 1620.6682,864 1617.9544,864 c -1.1531,0 -2.3741,-0.9553 -2.8759,-2.25 z M 1692,799.6025 c 28.9764,-11.18292 47.6098,-18.88515 47.7817,-19.75086 0.2359,-1.18845 -7.3732,-21.46856 -31.7426,-84.60164 -2.2221,-5.75683 -3.6878,-8.25 -4.8502,-8.25 -0.9161,0 -22.9334,8.17426 -48.9273,18.16503 C 1613.6855,720.7605 1607,723.61344 1607,725.33338 c 0,1.56858 32.94,88.84747 34.6903,91.91662 0.2353,0.4125 0.9637,0.73521 1.6187,0.71712 0.6551,-0.0181 22.566,-8.28216 48.691,-18.36462 z M 970.64332,851.75 C 958.81869,830.35687 911,739.52858 911,738.46165 911,737.03279 974.27029,703 976.92668,703 c 1.17678,0 10.68369,17.08079 32.61712,58.60222 17.0259,32.23121 31.0863,59.56871 31.2453,60.75 0.2523,1.87428 -3.7251,4.2807 -31.2353,18.89778 -17.3384,9.2125 -32.40899,16.75 -33.49016,16.75 -1.37618,0 -3.00187,-1.87453 -5.42032,-6.25 z m 1455.73348,4.55594 c -1.5468,-0.53442 -32.7177,-69.97555 -32.115,-71.54413 0.6232,-1.62163 117.4246,-53.08271 120.714,-53.1849 2.3017,-0.0715 3.5503,2.314 17.7563,33.92309 8.4043,18.7 15.1652,34.89905 15.0242,35.99788 -0.2069,1.61244 -11.3496,6.96093 -57.7563,27.72288 -61.2831,27.41754 -61.9006,27.68039 -63.6232,27.08518 z m -214.134,-16.6033 c -0.5078,-0.66145 -10.2897,-22.07981 -21.7373,-47.59635 -14.8995,-33.2105 -20.5522,-46.80874 -19.8927,-47.85426 0.5067,-0.80331 28.7504,-13.86778 62.7637,-29.03216 47.5605,-21.20426 62.2112,-27.33896 63.4394,-26.56419 1.8425,1.16218 42.0601,89.81547 42.1346,92.87896 0.042,1.72808 -8.7269,6.06814 -58.2005,28.80563 -68.6356,31.54408 -67.2786,30.96245 -68.5072,29.36237 z M 691.77321,688.75 C 628.65935,569.64676 603.51737,520.70009 604.34489,518.54362 604.87893,517.15194 689.53097,469 691.44353,469 c 0.68557,0 1.92014,0.7875 2.74348,1.75 0.82334,0.9625 10.28018,18.625 21.0152,39.25 10.73502,20.625 43.91038,84.21222 73.72302,141.30494 29.81265,57.09271 54.06305,104.22955 53.88979,104.74852 C 842.43556,757.19009 756.21489,805 754.54456,805 c -0.6432,0 -28.89031,-52.3125 -62.77135,-116.25 z m 388.47139,112 c -0.5501,-0.6875 -15.261,-27.52814 -32.6908,-59.64587 -26.2169,-48.30952 -31.4629,-58.62306 -30.3722,-59.7112 2.4433,-2.43759 75.016,-40.50153 76.6282,-40.19104 0.9745,0.18766 13.8213,23.62828 32.9816,60.17868 25.9781,49.55627 31.1547,60.09147 30.047,61.14938 C 1155.1,764.19011 1083.7044,802 1082.308,802 c -0.5847,0 -1.5132,-0.5625 -2.0634,-1.25 z M 326.92301,777.26997 C 318.35566,766.94649 303.10845,748.6722 293.04033,736.66045 275.27295,715.46313 274.79001,714.76876 276.61732,713.04747 278.64283,711.13949 409.50278,629.48426 412,628.57011 c 0.825,-0.302 2.0232,-0.21406 2.66268,0.19544 1.66622,1.067 41.44289,91.49015 40.88827,92.95011 -0.63159,1.66253 -108.54895,73.55933 -111.05095,73.98445 -1.54582,0.26266 -5.53734,-3.92259 -17.57699,-18.43014 z m 2054.95819,-21.4919 c -4.9526,-9.25398 -38.8978,-86.65468 -38.6702,-88.17444 0.2265,-1.51216 12.832,-7.52576 58.2823,-27.80422 31.8963,-14.23111 58.882,-25.74529 59.9681,-25.58708 2.8242,0.41138 42.406,88.17378 40.8795,90.6396 -1.0831,1.74967 -114.64,53.05737 -117.5557,53.11448 -0.9432,0.0185 -2.2499,-0.96628 -2.904,-2.18834 z M 1914.7326,744.75 C 1905.8291,722.31185 1857,589.93765 1857,588.23849 c 0,-2.36576 0.084,-2.40074 50.5389,-21.10358 16.5214,-6.1242 30.7538,-11.13491 31.6276,-11.13491 0.8737,0 2.0268,0.5625 2.5625,1.25 0.5356,0.6875 13.2368,34.1 28.2249,74.25 35.5308,95.17928 32.7119,87.23419 31.4113,88.5348 -1.4055,1.40553 -80.0697,30.9652 -82.4045,30.9652 -1.213,0 -2.5071,-1.91292 -4.2281,-6.25 z M 1159.6375,684.54757 C 1142.7869,651.84873 1129,624.26172 1129,623.2431 c 0,-2.55007 92.6513,-51.95281 94.8421,-50.57089 2.4923,1.57209 63.2155,116.57589 62.9225,119.169 -0.2257,1.99667 -7.1717,6.00679 -47.2008,27.25 C 1213.7489,732.79104 1192.0983,744 1191.4513,744 c -0.6469,0 -14.9631,-26.75359 -31.8138,-59.45243 z M 891.23716,694.75 c -0.55425,-0.6875 -7.18901,-12.87926 -14.74392,-27.09281 -11.62207,-21.86537 -13.52511,-26.0523 -12.36472,-27.20394 2.37466,-2.35675 130.29839,-70.47902 131.83196,-70.20348 1.27412,0.22892 10.92732,17.49845 25.57322,45.75023 4.1538,8.01259 4.3078,8.5949 2.6864,10.15494 C 1022.3997,627.90639 894.57088,696 893.10334,696 c -0.47215,0 -1.31193,-0.5625 -1.86618,-1.25 z M 2087.077,682.14389 c -0.5463,-1.02086 -10.0542,-26.10836 -21.1285,-55.75 -11.0743,-29.64164 -29.1141,-77.92706 -40.0885,-107.30092 -10.9744,-29.37387 -19.7471,-53.94484 -19.4948,-54.60216 0.5795,-1.51036 60.1267,-23.73531 62.4138,-23.29486 1.2559,0.24188 12.0616,28.0389 41.8932,107.76792 22.1104,59.09308 40.4142,108.25857 40.6752,109.25664 0.261,0.99807 -0.1197,2.40897 -0.8461,3.13534 -1.7028,1.70281 -57.457,22.64415 -60.2878,22.64415 -1.1787,0 -2.5901,-0.83525 -3.1365,-1.85611 z m -543.8361,-14.98136 c -1.6746,-1.05311 -60.3245,-153.12241 -59.9964,-155.5604 0.1405,-1.04383 0.9305,-2.28882 1.7555,-2.76664 0.825,-0.47782 38.3726,-15.05118 83.4391,-32.38525 77.9897,-29.99743 82.0185,-31.43054 83.5859,-29.73336 0.9057,0.98072 14.8532,36.13936 30.9944,78.13033 21.6028,56.19903 29.093,76.75107 28.3824,77.87757 -0.6948,1.10145 -152.7798,60.63007 -165.4018,64.74102 -0.825,0.2687 -2.0666,0.13223 -2.7591,-0.30327 z m 75.4463,-64.30788 c 25.9657,-9.97993 47.403,-18.64734 47.6385,-19.2609 0.2354,-0.61356 -7.5374,-21.81066 -17.273,-47.10466 -15.4712,-40.19577 -17.959,-45.98083 -19.7485,-45.92348 -3.266,0.10465 -95.4753,35.80239 -96.0183,37.17237 -0.3756,0.94767 18.821,52.30834 33.4561,89.51202 0.8638,2.19597 2.1506,3.75 3.1049,3.75 0.8964,0 22.8745,-8.16541 48.8403,-18.14535 z m 573.3951,41.19619 c -1.3772,-0.85115 -0.9375,0.29832 -46.0328,-120.3418 -19.8992,-53.23503 -36.0347,-97.56003 -35.8567,-98.5 0.469,-2.47607 60.3483,-24.98826 62.6327,-23.54732 0.9218,0.58148 18.8549,47.13552 42.0857,109.25431 31.6575,84.65133 40.252,108.60536 39.4359,109.91253 -0.5903,0.94562 -13.377,6.31502 -29.4453,12.36476 -32.0756,12.0765 -31.2755,11.8118 -32.8195,10.85752 z m -1140.115,-80.66737 c -10.707,-20.1391 -19.6032,-37.18922 -19.7693,-37.88916 -0.3369,-1.41984 -0.051,-1.57555 75.2063,-40.94108 43.7058,-22.86167 53.1328,-27.44467 54.2187,-26.3588 0.7229,0.72292 9.9284,17.4954 20.4567,37.27218 13.5935,25.53448 18.8822,36.37019 18.2449,37.38051 C 1199.0488,534.86967 1076.0808,600 1073.5379,600 c -1.745,0 -5.4194,-6.23735 -21.5706,-36.61653 z M 836.18757,591.75 c -2.17388,-3.9875 -14.20179,-26.54903 -26.72868,-50.13674 -16.33434,-30.757 -22.51917,-43.2921 -21.86752,-44.31998 1.29668,-2.04534 130.36562,-70.44821 132.24525,-70.08623 1.63133,0.31417 53.13727,96.07028 53.15406,98.82018 0.006,0.98875 -16.80195,10.68496 -47.67013,27.5 -64.7009,35.24498 -83.69791,45.4674 -84.5005,45.47031 -0.37398,0.001 -2.45859,-3.26004 -4.63248,-7.24754 z M 1844.2933,555.20725 c -0.6637,-0.42446 -12.9587,-32.25723 -27.3223,-70.7395 -37.3752,-100.13392 -35.3537,-94.48502 -34.2186,-95.62016 0.5539,-0.55388 19.1236,-7.75516 41.2661,-16.00285 34.9929,-13.03428 40.4469,-14.80792 41.6954,-13.55945 1.6308,1.63088 61.2861,160.97432 61.2861,163.69963 0,0.9736 -0.5625,2.21548 -1.25,2.75972 -0.902,0.71402 -70.057,26.80336 -79.25,29.89775 -0.55,0.18513 -1.543,-0.0107 -2.2067,-0.43514 z M 1017.8163,495.25 c -3.0744,-3.602 -49.81687,-93.08381 -49.30584,-94.38898 0.29309,-0.74856 28.26925,-16.07629 62.16924,-34.06163 46.2286,-24.52614 62.05,-32.47923 63.2911,-31.81501 2.2982,1.22996 51.1687,93.48858 50.4769,95.29129 C 1143.9422,431.59302 1022.0843,497 1020.1354,497 c -0.454,0 -1.4976,-0.7875 -2.3191,-1.75 z m 435.2622,-30.5 c -12.8438,-33.14107 -58.0242,-150.84179 -58.4842,-152.35882 -0.3712,-1.22401 -0.1055,-2.54506 0.6331,-3.14855 0.6999,-0.57185 38.3863,-15.30672 83.7476,-32.74416 60.0023,-23.06564 82.8905,-31.44694 84,-30.75945 0.8387,0.51974 14.9354,35.73964 31.3258,78.26644 25.0104,64.89218 29.5839,77.53837 28.4515,78.67078 C 1621.0489,404.37971 1458.6682,467 1455.9544,467 c -1.1531,0 -2.3741,-0.9553 -2.8759,-2.25 z M 1530,402.6025 c 28.9764,-11.18292 47.6098,-18.88515 47.7817,-19.75086 0.2359,-1.18845 -7.3732,-21.46856 -31.7426,-84.60164 -2.2221,-5.75683 -3.6878,-8.25 -4.8502,-8.25 -0.9161,0 -22.9334,8.17426 -48.9273,18.16503 C 1451.6855,323.7605 1445,326.61344 1445,328.33338 c 0,1.56858 32.94,88.84747 34.6903,91.91662 0.2353,0.4125 0.9637,0.73521 1.6187,0.71712 0.6551,-0.0181 22.566,-8.28216 48.691,-18.36462 z m 455.2743,16.58821 c -0.6741,-0.42827 -8.7429,-20.94213 -17.9307,-45.58637 -12.1432,-32.57139 -16.4437,-45.2221 -15.7479,-46.32518 1.1357,-1.80038 171.0362,-65.34774 173.8131,-65.01078 1.5517,0.18829 5.0875,8.70836 18.9007,45.54522 14.5579,38.8228 16.7912,45.51319 15.5912,46.70702 -0.7704,0.76638 -15.3507,6.62206 -32.4007,13.01263 -44.2006,16.56697 -140.5838,52.46961 -140.8097,52.45144 -0.1047,-0.008 -0.7419,-0.36572 -1.416,-0.79398 z M 1694.0785,308.75 c -12.8438,-33.14107 -58.0242,-150.84179 -58.4842,-152.35882 -0.3712,-1.22401 -0.1055,-2.54506 0.6331,-3.14855 0.6999,-0.57185 38.3863,-15.30672 83.7476,-32.74416 60.0023,-23.065643 82.8905,-31.446941 84,-30.75945 0.8387,0.519737 14.9354,35.73964 31.3258,78.26644 25.0104,64.89218 29.5839,77.53837 28.4515,78.67078 C 1862.0489,248.37971 1699.6682,311 1696.9544,311 c -1.1531,0 -2.3741,-0.9553 -2.8759,-2.25 z M 1771,246.6025 c 28.9764,-11.18292 47.6098,-18.88515 47.7817,-19.75086 0.2359,-1.18845 -7.3732,-21.46856 -31.7426,-84.60164 -2.2221,-5.75683 -3.6878,-8.25 -4.8502,-8.25 -0.9161,0 -22.9334,8.17426 -48.9273,18.16503 C 1692.6855,167.7605 1686,170.61344 1686,172.33338 c 0,1.56858 32.94,88.84747 34.6903,91.91662 0.2353,0.4125 0.9637,0.73521 1.6187,0.71712 0.6551,-0.0181 22.566,-8.28216 48.691,-18.36462 z M 1378.0785,262.75 c -12.8438,-33.14107 -58.0242,-150.84179 -58.4842,-152.35882 -0.3712,-1.22401 -0.1055,-2.54506 0.6331,-3.14855 0.6999,-0.57185 38.3863,-15.306725 83.7476,-32.74416 60.0023,-23.065643 82.8905,-31.446941 84,-30.75945 0.8387,0.519737 14.9354,35.739637 31.3258,78.26644 25.0104,64.89218 29.5839,77.53837 28.4515,78.67078 C 1546.0489,202.37971 1383.6682,265 1380.9544,265 c -1.1531,0 -2.3741,-0.9553 -2.8759,-2.25 z M 1455,200.6025 c 28.9764,-11.18292 47.6098,-18.88515 47.7817,-19.75086 0.2359,-1.18845 -7.3732,-21.46856 -31.7426,-84.60164 -2.2221,-5.756832 -3.6878,-8.25 -4.8502,-8.25 -0.9161,0 -22.9334,8.174263 -48.9273,18.16503 C 1376.6855,121.7605 1370,124.61344 1370,126.33338 c 0,1.56858 32.94,88.84747 34.6903,91.91662 0.2353,0.4125 0.9637,0.73521 1.6187,0.71712 0.6551,-0.0181 22.566,-8.28216 48.691,-18.36462 z m 461.0785,24.1475 c -12.8438,-33.14107 -58.0242,-150.841793 -58.4842,-152.358817 -0.3712,-1.224009 -0.1055,-2.545065 0.6331,-3.148551 0.6999,-0.571854 38.3863,-15.306727 83.7476,-32.744162 60.0023,-23.065643 82.8905,-31.4469407 84,-30.75945 0.8387,0.5197373 14.9354,35.739637 31.3258,78.266445 25.0104,64.892175 29.5839,77.538365 28.4515,78.670775 C 2084.0489,164.37971 1921.6682,227 1918.9544,227 c -1.1531,0 -2.3741,-0.9553 -2.8759,-2.25 z M 1993,162.6025 c 28.9764,-11.18292 47.6098,-18.88515 47.7817,-19.75086 0.2359,-1.18845 -7.3732,-21.46856 -31.7426,-84.60164 -2.2221,-5.756832 -3.6878,-8.25 -4.8502,-8.25 -0.9161,0 -22.9334,8.174263 -48.9273,18.165029 C 1914.6855,83.760496 1908,86.613443 1908,88.333385 c 0,1.56858 32.94,88.847465 34.6903,91.916615 0.2353,0.4125 0.9637,0.73521 1.6187,0.71712 0.6551,-0.0181 22.566,-8.28216 48.691,-18.36462 z"
       id="path887"
       inkscape:connector-curvature="0" />
    <path
       style="opacity:0.79876158;fill:#fef2d1;fill-opacity:0.37647059"
       d="m 1741.9671,1226.4604 c -2.0801,-2.5064 -106.9031,-259.4635 -106.3905,-260.7995 0.248,-0.6461 23.2484,-10.52685 51.112,-21.95721 41.9316,-17.20139 50.8884,-20.55529 51.9796,-19.46403 0.7252,0.72514 16.1188,37.53037 34.208,81.78944 18.0893,44.259 41.7173,102.013 52.5067,128.3421 10.7894,26.3292 19.6171,48.6616 19.6171,49.6276 0,0.966 -0.5625,2.2112 -1.25,2.7672 -0.9133,0.7385 -86.1325,35.8432 -98.8398,40.7155 -0.8902,0.3413 -2.1853,-0.108 -2.9431,-1.0211 z M 1396,1207.024 c -41.525,-9.8038 -80,-18.9047 -85.5,-20.2242 l -10,-2.3991 0.2662,-3.9504 c 0.9064,-13.4501 20.4259,-178.0424 21.2072,-178.8237 1.4394,-1.4394 201.1853,-40.86791 202.1501,-39.90313 1.0941,1.09415 -44.8601,259.41833 -46.4233,260.96073 -0.6601,0.6513 -2.3252,1.4048 -3.7002,1.6745 -1.3857,0.2718 -36.1515,-7.4546 -78,-17.3347 z m -963.47884,-60.6783 c -56.08835,-16.7575 -102.2707,-30.9404 -102.62743,-31.5176 -0.35673,-0.5772 -0.46869,-1.7872 -0.2488,-2.6888 0.21989,-0.9016 7.58678,-34.0138 16.37087,-73.5827 8.78409,-39.56893 16.38936,-72.36176 16.90059,-72.87299 0.57269,-0.57269 2.20673,-0.0317 4.25657,1.40922 22.49598,15.81351 170.93085,122.76567 172.66522,124.41097 l 2.33819,2.218 -1.17177,40.3891 c -0.64448,22.214 -1.34504,40.9516 -1.5568,41.6391 -0.21177,0.6875 -1.41165,1.2081 -2.66642,1.1569 -1.25476,-0.051 -48.17186,-13.8038 -104.26022,-30.5612 z m 713.55094,2.0632 c -56.8853,-13.4015 -103.7177,-24.8355 -104.072,-25.4088 -0.8025,-1.2985 8.5203,-66.9283 9.6659,-68.0451 0.6582,-0.6418 222.1219,-44.955 224.6707,-44.955 0.3648,0 0.6633,1.469 0.6633,3.2644 0,3.5055 -21.6657,155.0645 -22.5844,157.9856 -0.3207,1.0196 -1.4613,1.7031 -2.733,1.6376 -1.2004,-0.062 -48.7251,-11.0773 -105.6105,-24.4787 z m 759.6145,10.1349 c -0.7382,-0.7382 -9.152,-20.3317 -18.6974,-43.5411 -13.4713,-32.7555 -17.1241,-42.5653 -16.3225,-43.836 1.2702,-2.0138 90.0175,-38.3634 92.6738,-37.9579 1.5032,0.2294 5.604,9.2832 19.3342,42.6862 9.5845,23.3173 17.2912,43.3309 17.1258,44.4748 -0.2509,1.7366 -7.4781,5.0097 -43.8005,19.8368 -52.5229,21.4403 -48.6293,20.0212 -50.3134,18.3372 z M 786.78542,1118.4494 c -36.82589,-5.7342 -70.18165,-30.3079 -87.19476,-64.2379 -10.83692,-21.6126 -14.74931,-46.3134 -11.13416,-70.29536 7.11576,-47.20403 41.24009,-84.97023 88.23032,-97.64654 9.03116,-2.43629 11.36714,-2.64748 29.31318,-2.65019 18.17237,-0.003 20.18084,0.1839 29.5,2.7415 42.46442,11.65412 75.01697,44.68343 85.5882,86.84168 3.00232,11.97331 3.73436,36.13711 1.46317,48.29741 -4.55678,24.3977 -14.77236,44.4025 -31.65379,61.9866 -26.80081,27.9163 -65.62772,40.9551 -104.11216,34.9628 z M 269,1100.8291 c -7.425,-1.6422 -42.525,-9.2798 -78,-16.9725 -35.475,-7.6926 -64.90862,-14.3884 -65.40805,-14.8796 -0.96829,-0.9523 57.92932,-242.5258 59.66647,-244.727 0.54256,-0.6875 1.94387,-1.24999 3.11402,-1.24997 1.33439,2e-5 26.35999,19.96481 67.12756,53.55267 35.75,29.45394 66.32602,54.86361 67.94672,56.46592 l 2.94672,2.91328 -18.1983,83.2841 c -10.00907,45.8062 -18.19759,83.6215 -18.19672,84.034 0.003,1.4247 -7.54648,0.5543 -20.99842,-2.4209 z M 2077.2123,1082.25 c -2.1472,-5.0144 -57.0805,-138.64614 -86.224,-209.75 -21.9867,-53.64266 -20.4321,-49.16794 -17.6957,-50.93591 1.2141,-0.78438 30.2861,-12.96243 64.6045,-27.06233 51.5721,-21.18868 62.6244,-25.40766 63.7077,-24.31897 C 2102.8826,771.46704 2210,1031.2255 2210,1033.04 c 0,0.5027 -1.0125,1.575 -2.25,2.3831 -3.292,2.1496 -124.8212,51.5769 -126.8144,51.5769 -1.0632,0 -2.4432,-1.7606 -3.7233,-4.75 z m 242.0186,3.5 c -0.5577,-0.6875 -12.1084,-26.1541 -25.6682,-56.5924 -18.3578,-41.20861 -24.3815,-55.67106 -23.5862,-56.62931 1.4131,-1.70264 59.3516,-27.52829 61.7584,-27.52829 1.2763,0 2.5131,1.50484 3.9039,4.75 1.1197,2.6125 12.234,27.74003 24.6985,55.839 12.4645,28.0989 22.6627,51.8098 22.6627,52.6909 0,0.8812 -0.5625,1.9595 -1.25,2.3964 -3.2313,2.0532 -58.4302,26.3237 -59.8687,26.3237 -0.9,0 -2.0927,-0.5625 -2.6504,-1.25 z m 100.3856,-46.5247 c -0.7891,-1.526 -3.4438,-7.2635 -5.8993,-12.75 -2.4555,-5.4864 -13.3147,-29.31124 -24.1317,-52.94407 -10.817,-23.63282 -19.5364,-43.81771 -19.3764,-44.85531 0.2216,-1.43696 8.83,-5.6927 36.1214,-17.85734 19.7068,-8.78392 36.3856,-15.75775 37.0641,-15.4974 1.1963,0.45906 49.5247,109.13142 50.3456,113.20812 0.4841,2.4044 3.3523,0.9417 -38.2569,19.5096 -17.2072,7.6786 -31.9936,13.9611 -32.8588,13.9611 -0.8652,0 -2.2188,-1.2486 -3.008,-2.7747 z M 531.71305,1021.3457 C 474.25249,953.53424 380.04406,840.17081 380.24221,839.07696 c 0.28372,-1.56618 11.10066,-9.26413 31.99267,-22.76782 7.4959,-4.84503 24.89875,-16.13162 38.673,-25.08131 13.77425,-8.94969 25.6578,-16.50767 26.40789,-16.79551 0.75009,-0.28784 1.82593,0.0596 2.39076,0.77217 0.56482,0.71253 17.52569,38.7188 37.69082,84.45837 l 36.66388,83.16286 -6.539,42.79552 c -3.59645,23.53756 -6.9383,43.19486 -7.42634,43.68286 -0.51646,0.5165 -4.02025,-2.8099 -8.38284,-7.9584 z M 1842.1369,1016.25 c -3.2143,-6.0257 -48.1929,-117.72089 -47.938,-119.04434 0.4535,-2.35458 94.4417,-40.92214 96.5245,-39.60831 1.6522,1.04216 49.2766,116.69945 49.2766,119.66964 0,1.2624 -1.654,2.57327 -5.25,4.16079 -14.6921,6.48615 -88.8739,36.57222 -90.1744,36.57222 -0.8279,0 -1.9253,-0.7875 -2.4387,-1.75 z m -794.9614,-23.53856 c -1.1391,-1.37249 -40.9462,-76.42518 -42.8573,-80.80353 -0.6223,-1.42565 -0.8359,-3.03687 -0.4748,-3.5805 0.3611,-0.54363 38.0066,-21.60465 83.6566,-46.80227 45.65,-25.19762 91.775,-50.66518 102.5,-56.59457 10.725,-5.9294 42.6693,-23.58434 70.9873,-39.23321 28.318,-15.64887 51.9613,-28.27056 52.5408,-28.0482 0.5795,0.22237 1.5212,1.62977 2.0927,3.12757 0.5715,1.4978 20.4656,36.62177 44.2091,78.05328 23.7436,41.43151 43.1701,75.89926 43.1701,76.59501 0,0.69575 -0.7875,1.9484 -1.75,2.78365 C 1399.7714,899.49183 1052.5951,994 1049.3601,994 c -0.6134,0 -1.5964,-0.57985 -2.1846,-1.28856 z M 2250.869,926.25 c -19.0622,-42.22395 -20.007,-44.54052 -18.688,-45.81856 C 2233.851,878.81327 2355.4445,824 2357.3641,824 c 0.782,0 1.6568,0.5625 1.944,1.25 0.2871,0.6875 5.2852,11.78451 11.107,24.66002 5.8217,12.87551 10.5849,24.18291 10.5849,25.12755 0,0.94465 -0.5625,2.14662 -1.25,2.67104 -2.0052,1.52961 -123.1172,55.30421 -124.5418,55.29749 -0.7105,-0.003 -2.6631,-3.0436 -4.3392,-6.7561 z m -1300.02652,-13 C 947.03977,908.71525 937.79011,891.7438 874.94948,774 843.98116,715.975 791.74115,618.1 758.86057,556.5 725.97999,494.9 698.45676,444.36828 697.69783,444.20729 696.33563,443.91833 567.34992,511.09628 547,522.69329 c -5.775,3.29105 -71.475,39.8671 -146,81.28012 -74.525,41.41301 -136.22697,75.92565 -137.11548,76.69474 -1.18109,1.02234 -1.76041,3.8767 -2.15444,10.6151 -1.55456,26.5849 -19.31289,45.97149 -45.51236,49.6854 -20.13864,2.85475 -42.37152,-8.49303 -51.88353,-26.48164 -10.77487,-20.37687 -7.4795,-45.00517 8.16581,-61.02807 19.17384,-19.63658 47.69274,-21.38883 70.30102,-4.31941 2.9315,2.21329 5.9299,3.79397 6.66313,3.5126 0.73322,-0.28136 45.36625,-25.00316 99.18449,-54.93731 C 402.46689,567.78066 464.95,533.04933 487.5,520.53408 c 22.55,-12.51525 42.72721,-23.86295 44.83824,-25.21712 3.52581,-2.26171 113.03358,-59.85598 139.66176,-73.45339 6.325,-3.2298 16,-8.33907 21.5,-11.35394 11.38442,-6.24045 15.74914,-6.95388 19.94239,-3.25963 1.40465,1.2375 5.3903,7.875 8.857,14.75 3.4667,6.875 41.18401,77.75 83.81625,157.5 42.63224,79.75 95.70919,179.11216 117.94876,220.80479 36.13263,67.73799 40.6642,75.76258 42.58374,75.40814 1.18147,-0.21815 62.83146,-33.18733 136.99996,-73.26483 74.1686,-40.0775 149.9259,-81.01303 168.3497,-90.96783 18.8578,-10.18933 33.6275,-18.77302 33.7945,-19.6404 0.2615,-1.35789 -25.9717,-51.18535 -175.7605,-333.83987 -19.091,-36.025 -51.4906,-97.225 -71.9993,-136 -20.5086,-38.775 -38.3748,-72.4125 -39.7026,-74.75 -2.2366,-3.93736 -2.7238,-4.25128 -6.6221,-4.26736 -13.69184,-0.0565 -28.07858,-6.12651 -37.7078,-15.90956 -10.34325,-10.5085 -14.96631,-21.81053 -14.98813,-36.641579 -0.0346,-23.509487 15.71714,-44.003109 38.48813,-50.0746 7.5705,-2.018532 21.1061,-1.722364 28.7168,0.628341 24.6062,7.600078 40.4892,33.804846 35.5832,58.707231 -1.891,9.598317 -5.6323,17.559117 -11.4621,24.388867 -2.3858,2.79508 -4.3379,6.01541 -4.3379,7.15628 0,1.14087 32.8034,63.99162 72.8964,139.66834 40.093,75.67672 106.7558,201.49404 148.1396,279.59404 41.3838,78.1 75.6756,143.54948 76.204,145.44329 1.197,4.28991 -0.3087,9.83712 -3.4732,12.79607 -2.4731,2.31248 -12.7215,8.07454 -58.2668,32.75993 C 1228.9025,770.00696 1003.947,891.42235 992,897.75135 977.11283,905.63793 956.59018,915 954.18914,915 c -1.03354,0 -2.53954,-0.7875 -3.34666,-1.75 z m -338.5602,-31.45449 c -0.98207,-1.22552 -126.04125,-230.73543 -144.78062,-265.7029 -6.15902,-11.49266 -8.5246,-16.82956 -7.89726,-17.81676 1.34732,-2.12021 81.56715,-47.24039 84.02316,-47.25939 1.17015,-0.009 2.57547,0.54604 3.12292,1.23354 2.084,2.61711 147.61837,282.22868 148.03736,284.42051 0.30534,1.59724 -0.13163,2.51632 -1.42364,2.99434 -1.02531,0.37935 -18.75285,10.03614 -39.39452,21.45952 -20.64168,11.42339 -38.23209,21.03909 -39.08979,21.36823 -0.8577,0.32913 -2.02663,0.0154 -2.59761,-0.69709 z M 1615.0785,861.75 c -12.8438,-33.14107 -58.0242,-150.84179 -58.4842,-152.35882 -0.3712,-1.22401 -0.1055,-2.54506 0.6331,-3.14855 0.6999,-0.57185 38.3863,-15.30672 83.7476,-32.74416 60.0023,-23.06564 82.8905,-31.44694 84,-30.75945 0.8387,0.51974 14.9354,35.73964 31.3258,78.26644 25.0104,64.89218 29.5839,77.53837 28.4515,78.67078 C 1783.0489,801.37971 1620.6682,864 1617.9544,864 c -1.1531,0 -2.3741,-0.9553 -2.8759,-2.25 z M 1692,799.6025 c 28.9764,-11.18292 47.6098,-18.88515 47.7817,-19.75086 0.2359,-1.18845 -7.3732,-21.46856 -31.7426,-84.60164 -2.2221,-5.75683 -3.6878,-8.25 -4.8502,-8.25 -0.9161,0 -22.9334,8.17426 -48.9273,18.16503 C 1613.6855,720.7605 1607,723.61344 1607,725.33338 c 0,1.56858 32.94,88.84747 34.6903,91.91662 0.2353,0.4125 0.9637,0.73521 1.6187,0.71712 0.6551,-0.0181 22.566,-8.28216 48.691,-18.36462 z M 970.64332,851.75 C 958.81869,830.35687 911,739.52858 911,738.46165 911,737.03279 974.27029,703 976.92668,703 c 1.17678,0 10.68369,17.08079 32.61712,58.60222 17.0259,32.23121 31.0863,59.56871 31.2453,60.75 0.2523,1.87428 -3.7251,4.2807 -31.2353,18.89778 -17.3384,9.2125 -32.40899,16.75 -33.49016,16.75 -1.37618,0 -3.00187,-1.87453 -5.42032,-6.25 z m 1455.73348,4.55594 c -1.5468,-0.53442 -32.7177,-69.97555 -32.115,-71.54413 0.6232,-1.62163 117.4246,-53.08271 120.714,-53.1849 2.3017,-0.0715 3.5503,2.314 17.7563,33.92309 8.4043,18.7 15.1652,34.89905 15.0242,35.99788 -0.2069,1.61244 -11.3496,6.96093 -57.7563,27.72288 -61.2831,27.41754 -61.9006,27.68039 -63.6232,27.08518 z m -214.134,-16.6033 c -0.5078,-0.66145 -10.2897,-22.07981 -21.7373,-47.59635 -14.8995,-33.2105 -20.5522,-46.80874 -19.8927,-47.85426 0.5067,-0.80331 28.7504,-13.86778 62.7637,-29.03216 47.5605,-21.20426 62.2112,-27.33896 63.4394,-26.56419 1.8425,1.16218 42.0601,89.81547 42.1346,92.87896 0.042,1.72808 -8.7269,6.06814 -58.2005,28.80563 -68.6356,31.54408 -67.2786,30.96245 -68.5072,29.36237 z M 691.77321,688.75 C 628.65935,569.64676 603.51737,520.70009 604.34489,518.54362 604.87893,517.15194 689.53097,469 691.44353,469 c 0.68557,0 1.92014,0.7875 2.74348,1.75 0.82334,0.9625 10.28018,18.625 21.0152,39.25 10.73502,20.625 43.91038,84.21222 73.72302,141.30494 29.81265,57.09271 54.06305,104.22955 53.88979,104.74852 C 842.43556,757.19009 756.21489,805 754.54456,805 c -0.6432,0 -28.89031,-52.3125 -62.77135,-116.25 z m 388.47139,112 c -0.5501,-0.6875 -15.261,-27.52814 -32.6908,-59.64587 -26.2169,-48.30952 -31.4629,-58.62306 -30.3722,-59.7112 2.4433,-2.43759 75.016,-40.50153 76.6282,-40.19104 0.9745,0.18766 13.8213,23.62828 32.9816,60.17868 25.9781,49.55627 31.1547,60.09147 30.047,61.14938 C 1155.1,764.19011 1083.7044,802 1082.308,802 c -0.5847,0 -1.5132,-0.5625 -2.0634,-1.25 z M 326.92301,777.26997 C 318.35566,766.94649 303.10845,748.6722 293.04033,736.66045 275.27295,715.46313 274.79001,714.76876 276.61732,713.04747 278.64283,711.13949 409.50278,629.48426 412,628.57011 c 0.825,-0.302 2.0232,-0.21406 2.66268,0.19544 1.66622,1.067 41.44289,91.49015 40.88827,92.95011 -0.63159,1.66253 -108.54895,73.55933 -111.05095,73.98445 -1.54582,0.26266 -5.53734,-3.92259 -17.57699,-18.43014 z m 2054.95819,-21.4919 c -4.9526,-9.25398 -38.8978,-86.65468 -38.6702,-88.17444 0.2265,-1.51216 12.832,-7.52576 58.2823,-27.80422 31.8963,-14.23111 58.882,-25.74529 59.9681,-25.58708 2.8242,0.41138 42.406,88.17378 40.8795,90.6396 -1.0831,1.74967 -114.64,53.05737 -117.5557,53.11448 -0.9432,0.0185 -2.2499,-0.96628 -2.904,-2.18834 z M 1914.7326,744.75 C 1905.8291,722.31185 1857,589.93765 1857,588.23849 c 0,-2.36576 0.084,-2.40074 50.5389,-21.10358 16.5214,-6.1242 30.7538,-11.13491 31.6276,-11.13491 0.8737,0 2.0268,0.5625 2.5625,1.25 0.5356,0.6875 13.2368,34.1 28.2249,74.25 35.5308,95.17928 32.7119,87.23419 31.4113,88.5348 -1.4055,1.40553 -80.0697,30.9652 -82.4045,30.9652 -1.213,0 -2.5071,-1.91292 -4.2281,-6.25 z M 1159.6375,684.54757 C 1142.7869,651.84873 1129,624.26172 1129,623.2431 c 0,-2.55007 92.6513,-51.95281 94.8421,-50.57089 2.4923,1.57209 63.2155,116.57589 62.9225,119.169 -0.2257,1.99667 -7.1717,6.00679 -47.2008,27.25 C 1213.7489,732.79104 1192.0983,744 1191.4513,744 c -0.6469,0 -14.9631,-26.75359 -31.8138,-59.45243 z M 891.23716,694.75 c -0.55425,-0.6875 -7.18901,-12.87926 -14.74392,-27.09281 -11.62207,-21.86537 -13.52511,-26.0523 -12.36472,-27.20394 2.37466,-2.35675 130.29839,-70.47902 131.83196,-70.20348 1.27412,0.22892 10.92732,17.49845 25.57322,45.75023 4.1538,8.01259 4.3078,8.5949 2.6864,10.15494 C 1022.3997,627.90639 894.57088,696 893.10334,696 c -0.47215,0 -1.31193,-0.5625 -1.86618,-1.25 z M 2087.077,682.14389 c -0.5463,-1.02086 -10.0542,-26.10836 -21.1285,-55.75 -11.0743,-29.64164 -29.1141,-77.92706 -40.0885,-107.30092 -10.9744,-29.37387 -19.7471,-53.94484 -19.4948,-54.60216 0.5795,-1.51036 60.1267,-23.73531 62.4138,-23.29486 1.2559,0.24188 12.0616,28.0389 41.8932,107.76792 22.1104,59.09308 40.4142,108.25857 40.6752,109.25664 0.261,0.99807 -0.1197,2.40897 -0.8461,3.13534 -1.7028,1.70281 -57.457,22.64415 -60.2878,22.64415 -1.1787,0 -2.5901,-0.83525 -3.1365,-1.85611 z m -543.8361,-14.98136 c -1.6746,-1.05311 -60.3245,-153.12241 -59.9964,-155.5604 0.1405,-1.04383 0.9305,-2.28882 1.7555,-2.76664 0.825,-0.47782 38.3726,-15.05118 83.4391,-32.38525 77.9897,-29.99743 82.0185,-31.43054 83.5859,-29.73336 0.9057,0.98072 14.8532,36.13936 30.9944,78.13033 21.6028,56.19903 29.093,76.75107 28.3824,77.87757 -0.6948,1.10145 -152.7798,60.63007 -165.4018,64.74102 -0.825,0.2687 -2.0666,0.13223 -2.7591,-0.30327 z m 75.4463,-64.30788 c 25.9657,-9.97993 47.403,-18.64734 47.6385,-19.2609 0.2354,-0.61356 -7.5374,-21.81066 -17.273,-47.10466 -15.4712,-40.19577 -17.959,-45.98083 -19.7485,-45.92348 -3.266,0.10465 -95.4753,35.80239 -96.0183,37.17237 -0.3756,0.94767 18.821,52.30834 33.4561,89.51202 0.8638,2.19597 2.1506,3.75 3.1049,3.75 0.8964,0 22.8745,-8.16541 48.8403,-18.14535 z m 573.3951,41.19619 c -1.3772,-0.85115 -0.9375,0.29832 -46.0328,-120.3418 -19.8992,-53.23503 -36.0347,-97.56003 -35.8567,-98.5 0.469,-2.47607 60.3483,-24.98826 62.6327,-23.54732 0.9218,0.58148 18.8549,47.13552 42.0857,109.25431 31.6575,84.65133 40.252,108.60536 39.4359,109.91253 -0.5903,0.94562 -13.377,6.31502 -29.4453,12.36476 -32.0756,12.0765 -31.2755,11.8118 -32.8195,10.85752 z m -1140.115,-80.66737 c -10.707,-20.1391 -19.6032,-37.18922 -19.7693,-37.88916 -0.3369,-1.41984 -0.051,-1.57555 75.2063,-40.94108 43.7058,-22.86167 53.1328,-27.44467 54.2187,-26.3588 0.7229,0.72292 9.9284,17.4954 20.4567,37.27218 13.5935,25.53448 18.8822,36.37019 18.2449,37.38051 C 1199.0488,534.86967 1076.0808,600 1073.5379,600 c -1.745,0 -5.4194,-6.23735 -21.5706,-36.61653 z M 836.18757,591.75 c -2.17388,-3.9875 -14.20179,-26.54903 -26.72868,-50.13674 -16.33434,-30.757 -22.51917,-43.2921 -21.86752,-44.31998 1.29668,-2.04534 130.36562,-70.44821 132.24525,-70.08623 1.63133,0.31417 53.13727,96.07028 53.15406,98.82018 0.006,0.98875 -16.80195,10.68496 -47.67013,27.5 -64.7009,35.24498 -83.69791,45.4674 -84.5005,45.47031 -0.37398,0.001 -2.45859,-3.26004 -4.63248,-7.24754 z M 1844.2933,555.20725 c -0.6637,-0.42446 -12.9587,-32.25723 -27.3223,-70.7395 -37.3752,-100.13392 -35.3537,-94.48502 -34.2186,-95.62016 0.5539,-0.55388 19.1236,-7.75516 41.2661,-16.00285 34.9929,-13.03428 40.4469,-14.80792 41.6954,-13.55945 1.6308,1.63088 61.2861,160.97432 61.2861,163.69963 0,0.9736 -0.5625,2.21548 -1.25,2.75972 -0.902,0.71402 -70.057,26.80336 -79.25,29.89775 -0.55,0.18513 -1.543,-0.0107 -2.2067,-0.43514 z M 1017.8163,495.25 c -3.0744,-3.602 -49.81687,-93.08381 -49.30584,-94.38898 0.29309,-0.74856 28.26925,-16.07629 62.16924,-34.06163 46.2286,-24.52614 62.05,-32.47923 63.2911,-31.81501 2.2982,1.22996 51.1687,93.48858 50.4769,95.29129 C 1143.9422,431.59302 1022.0843,497 1020.1354,497 c -0.454,0 -1.4976,-0.7875 -2.3191,-1.75 z m 435.2622,-30.5 c -12.8438,-33.14107 -58.0242,-150.84179 -58.4842,-152.35882 -0.3712,-1.22401 -0.1055,-2.54506 0.6331,-3.14855 0.6999,-0.57185 38.3863,-15.30672 83.7476,-32.74416 60.0023,-23.06564 82.8905,-31.44694 84,-30.75945 0.8387,0.51974 14.9354,35.73964 31.3258,78.26644 25.0104,64.89218 29.5839,77.53837 28.4515,78.67078 C 1621.0489,404.37971 1458.6682,467 1455.9544,467 c -1.1531,0 -2.3741,-0.9553 -2.8759,-2.25 z M 1530,402.6025 c 28.9764,-11.18292 47.6098,-18.88515 47.7817,-19.75086 0.2359,-1.18845 -7.3732,-21.46856 -31.7426,-84.60164 -2.2221,-5.75683 -3.6878,-8.25 -4.8502,-8.25 -0.9161,0 -22.9334,8.17426 -48.9273,18.16503 C 1451.6855,323.7605 1445,326.61344 1445,328.33338 c 0,1.56858 32.94,88.84747 34.6903,91.91662 0.2353,0.4125 0.9637,0.73521 1.6187,0.71712 0.6551,-0.0181 22.566,-8.28216 48.691,-18.36462 z m 455.2743,16.58821 c -0.6741,-0.42827 -8.7429,-20.94213 -17.9307,-45.58637 -12.1432,-32.57139 -16.4437,-45.2221 -15.7479,-46.32518 1.1357,-1.80038 171.0362,-65.34774 173.8131,-65.01078 1.5517,0.18829 5.0875,8.70836 18.9007,45.54522 14.5579,38.8228 16.7912,45.51319 15.5912,46.70702 -0.7704,0.76638 -15.3507,6.62206 -32.4007,13.01263 -44.2006,16.56697 -140.5838,52.46961 -140.8097,52.45144 -0.1047,-0.008 -0.7419,-0.36572 -1.416,-0.79398 z M 1694.0785,308.75 c -12.8438,-33.14107 -58.0242,-150.84179 -58.4842,-152.35882 -0.3712,-1.22401 -0.1055,-2.54506 0.6331,-3.14855 0.6999,-0.57185 38.3863,-15.30672 83.7476,-32.74416 60.0023,-23.065643 82.8905,-31.446941 84,-30.75945 0.8387,0.519737 14.9354,35.73964 31.3258,78.26644 25.0104,64.89218 29.5839,77.53837 28.4515,78.67078 C 1862.0489,248.37971 1699.6682,311 1696.9544,311 c -1.1531,0 -2.3741,-0.9553 -2.8759,-2.25 z M 1771,246.6025 c 28.9764,-11.18292 47.6098,-18.88515 47.7817,-19.75086 0.2359,-1.18845 -7.3732,-21.46856 -31.7426,-84.60164 -2.2221,-5.75683 -3.6878,-8.25 -4.8502,-8.25 -0.9161,0 -22.9334,8.17426 -48.9273,18.16503 C 1692.6855,167.7605 1686,170.61344 1686,172.33338 c 0,1.56858 32.94,88.84747 34.6903,91.91662 0.2353,0.4125 0.9637,0.73521 1.6187,0.71712 0.6551,-0.0181 22.566,-8.28216 48.691,-18.36462 z M 1378.0785,262.75 c -12.8438,-33.14107 -58.0242,-150.84179 -58.4842,-152.35882 -0.3712,-1.22401 -0.1055,-2.54506 0.6331,-3.14855 0.6999,-0.57185 38.3863,-15.306725 83.7476,-32.74416 60.0023,-23.065643 82.8905,-31.446941 84,-30.75945 0.8387,0.519737 14.9354,35.739637 31.3258,78.26644 25.0104,64.89218 29.5839,77.53837 28.4515,78.67078 C 1546.0489,202.37971 1383.6682,265 1380.9544,265 c -1.1531,0 -2.3741,-0.9553 -2.8759,-2.25 z M 1455,200.6025 c 28.9764,-11.18292 47.6098,-18.88515 47.7817,-19.75086 0.2359,-1.18845 -7.3732,-21.46856 -31.7426,-84.60164 -2.2221,-5.756832 -3.6878,-8.25 -4.8502,-8.25 -0.9161,0 -22.9334,8.174263 -48.9273,18.16503 C 1376.6855,121.7605 1370,124.61344 1370,126.33338 c 0,1.56858 32.94,88.84747 34.6903,91.91662 0.2353,0.4125 0.9637,0.73521 1.6187,0.71712 0.6551,-0.0181 22.566,-8.28216 48.691,-18.36462 z m 461.0785,24.1475 c -12.8438,-33.14107 -58.0242,-150.841793 -58.4842,-152.358817 -0.3712,-1.224009 -0.1055,-2.545065 0.6331,-3.148551 0.6999,-0.571854 38.3863,-15.306727 83.7476,-32.744162 60.0023,-23.065643 82.8905,-31.4469407 84,-30.75945 0.8387,0.5197373 14.9354,35.739637 31.3258,78.266445 25.0104,64.892175 29.5839,77.538365 28.4515,78.670775 C 2084.0489,164.37971 1921.6682,227 1918.9544,227 c -1.1531,0 -2.3741,-0.9553 -2.8759,-2.25 z M 1993,162.6025 c 28.9764,-11.18292 47.6098,-18.88515 47.7817,-19.75086 0.2359,-1.18845 -7.3732,-21.46856 -31.7426,-84.60164 -2.2221,-5.756832 -3.6878,-8.25 -4.8502,-8.25 -0.9161,0 -22.9334,8.174263 -48.9273,18.165029 C 1914.6855,83.760496 1908,86.613443 1908,88.333385 c 0,1.56858 32.94,88.847465 34.6903,91.916615 0.2353,0.4125 0.9637,0.73521 1.6187,0.71712 0.6551,-0.0181 22.566,-8.28216 48.691,-18.36462 z"
       id="path885"
       inkscape:connector-curvature="0" />
    <path
       style="opacity:0.50199998;fill:#fffbf1;fill-opacity:0.51658768"
       d="m 1742.2996,1224.75 c -1.2732,-1.6836 -104.5611,-254.66713 -105.0769,-257.36524 -0.3082,-1.61252 0.2792,-2.36416 2.4355,-3.11606 1.563,-0.54501 23.7933,-9.60343 49.4006,-20.12981 C 1714.6662,933.6125 1736.1379,925 1736.7736,925 c 0.6358,0 1.5749,0.7875 2.0868,1.75 0.5119,0.9625 16.0122,38.65 34.445,83.75 18.4329,45.1 41.8799,102.4172 52.1045,127.3716 10.2245,24.9544 18.5901,45.9297 18.5901,46.6117 0,1.0819 -97.1845,41.5167 -99.7848,41.5167 -0.5337,0 -1.3957,-0.5625 -1.9156,-1.25 z M 1385,1203.1134 c -76.4039,-18.0292 -83.4826,-19.8698 -83.2954,-21.6585 3.9681,-37.9046 20.6618,-178.2077 21.2776,-178.8292 0.4765,-0.4809 6.188,-1.9208 12.6921,-3.19981 6.5041,-1.27903 50.5497,-9.9981 97.879,-19.3757 47.3294,-9.3776 86.8169,-17.05019 87.75,-17.05019 0.9332,0 1.6967,0.76605 1.6967,1.70233 0,0.93628 -8.8096,51.22377 -19.5768,111.74997 -10.7673,60.5262 -20.9292,117.6961 -22.582,127.044 -1.6529,9.348 -3.4734,17.5605 -4.0456,18.25 -0.5723,0.6896 -2.6729,1.2125 -4.668,1.1622 -1.9952,-0.05 -41.2026,-8.9581 -87.1276,-19.7951 z m -917.5,-47.6737 c -37.4,-11.1871 -83.4125,-24.938 -102.25,-30.5575 -25.10107,-7.488 -34.25,-10.6152 -34.25,-11.7071 0,-0.8193 7.2,-33.8179 16,-73.3302 8.8,-39.5122 16,-72.06644 16,-72.34267 0,-2.0772 -2.56117,-3.87804 128,90.00067 22.825,16.4121 43.16502,31.0005 45.20004,32.4186 2.03502,1.4182 3.9303,3.1329 4.21173,3.8106 0.57371,1.3814 -1.20085,68.8347 -2.02618,77.0179 -0.31882,3.1611 -0.99823,5.2062 -1.70755,5.14 -0.64792,-0.061 -31.77804,-9.2632 -69.17804,-20.4503 z m 782,15.8378 c -1.1,-0.2698 -47.8663,-11.2464 -103.9251,-24.3924 -56.0588,-13.1461 -102.1767,-24.1535 -102.4842,-24.4611 -0.7707,-0.7707 8.5831,-65.52 9.5949,-66.4179 0.4479,-0.3975 20.3894,-4.5905 44.3144,-9.3178 23.925,-4.7273 73.1346,-14.466 109.3546,-21.6417 36.2201,-7.1756 66.7076,-13.0466 67.75,-13.0466 1.0425,0 1.8954,0.5788 1.8954,1.2861 0,2.2523 -21.9748,155.059 -22.567,156.9249 -0.3123,0.984 -0.875,1.7368 -1.2504,1.673 -0.3754,-0.064 -1.5826,-0.3367 -2.6826,-0.6065 z m 655.6377,-15.4144 c -0.4943,-1.2997 -8.3871,-20.5624 -17.5396,-42.806 -13.3907,-32.5442 -16.3925,-40.6839 -15.3694,-41.6763 2.296,-2.2273 90.8043,-37.7514 91.6761,-36.7956 1.613,1.7687 35.1804,84.7504 34.7434,85.8891 -0.4331,1.1288 -85.9869,36.4494 -90.38,37.3131 -1.6488,0.3242 -2.4665,-0.1784 -3.1305,-1.9243 z M 796,1118.43 c -1.375,-0.24 -5.875,-0.9294 -10,-1.5321 -41.36883,-6.0445 -78.86849,-38.4373 -91.91521,-79.3979 -4.15334,-13.0396 -5.53242,-22.3047 -5.50733,-37 0.043,-25.17228 7.77264,-48.69723 22.50613,-68.49658 37.66776,-50.61919 107.33661,-63.04164 159.57788,-28.45386 16.96941,11.23507 33.42971,30.42905 41.74707,48.6803 20.14479,44.20483 10.91448,97.01594 -22.91447,131.10494 -16.87432,17.0041 -36.17203,27.5957 -59.6632,32.7463 -8.3659,1.8344 -28.69246,3.2456 -33.83087,2.3489 z m -548.5,-23.4965 c -19.8,-4.316 -54.9,-11.9626 -78,-16.9924 -23.1,-5.0298 -42.30857,-9.4366 -42.68572,-9.7931 -0.37715,-0.3564 11.82328,-51.498 27.11206,-113.648 15.28877,-62.15 28.59012,-116.375 29.55854,-120.5 1.96203,-8.35733 3.27337,-10.41373 5.9787,-9.3756 1.00026,0.38384 27.51766,21.89508 58.92754,47.80276 31.40988,25.90768 61.24016,50.47267 66.28951,54.58886 5.04935,4.11619 9.40514,8.00065 9.67954,8.63215 0.2744,0.63149 -6.61843,33.70649 -15.31739,73.50003 -8.69897,39.7935 -16.84238,77.1893 -18.09647,83.1018 -2.19906,10.3676 -2.37203,10.7461 -4.86324,10.6405 -1.42069,-0.06 -18.78307,-3.6409 -38.58307,-7.957 z m 1831.6313,-11.0715 c -0.4974,-1.2991 -19.5815,-47.812 -42.4092,-103.362 -57.8787,-140.84514 -63.7235,-155.22013 -63.7119,-156.69752 0.012,-1.55339 125.3625,-53.25719 127.3072,-52.51094 0.7159,0.27475 15.4229,34.85905 32.6821,76.854 17.2592,41.99495 41.3626,100.65445 53.5631,130.35445 12.2005,29.70001 22.0049,54.46351 21.7875,55.03001 -0.3407,0.888 -121.566,50.9292 -126.5055,52.2209 -1.2312,0.322 -2.0978,-0.2813 -2.7133,-1.8889 z m 241.1273,0.888 c -2.1911,-2.7769 -49.4031,-109.93099 -48.9527,-111.10478 0.4319,-1.12558 58.442,-27.64522 60.4722,-27.64522 0.8279,0 50.2294,110.6968 50.213,112.5151 -0.01,0.8387 -58.3389,27.5137 -60.1187,27.4924 -0.3451,0 -1.0714,-0.57 -1.6138,-1.2575 z m 99.8701,-47.5 c -1.0515,-2.0625 -3.9356,-8.25 -6.4091,-13.75 -2.4734,-5.5 -13.1198,-28.83218 -23.6586,-51.8493 -10.5388,-23.01711 -19.0174,-42.28142 -18.8414,-42.80957 0.1761,-0.52815 16.2862,-8.11319 35.8003,-16.85564 27.0665,-12.12601 35.7358,-15.60963 36.5584,-14.69042 0.593,0.66271 2.9145,5.47993 5.1588,10.70493 2.2443,5.225 13.1498,30.14927 24.2344,55.38728 11.0847,25.238 19.7882,46.20202 19.3412,46.58672 -0.9863,0.8489 -68.7045,31.026 -69.6231,31.026 -0.3569,0 -1.5093,-1.6875 -2.5609,-3.75 z m -1925.39242,-62 C 428.95896,896.71172 400.3617,862.60398 390.2208,850.59514 c -6.16434,-7.2998 -8.90229,-11.27399 -8.28197,-12.02143 1.08887,-1.31202 18.43495,-13.02393 47.06117,-31.77528 34.80574,-22.79919 47.94756,-30.98258 49.12505,-30.59008 1.89419,0.6314 73.87495,164.76333 73.87495,168.4511 0,2.69109 -9.60742,68.03585 -11.62842,79.09055 -0.32679,1.7875 -0.97655,3.25 -1.44392,3.25 -0.46736,0 -20.35348,-23.2875 -44.19138,-51.75 z m 1348.39962,40 c -3.5705,-6.6864 -48.0808,-117.70083 -47.4412,-118.3242 0.4429,-0.43159 21.7063,-9.37435 47.252,-19.87281 37.0095,-15.20971 46.6857,-18.83056 47.6226,-17.82055 1.0628,1.14567 47.0684,112.85642 48.1924,117.02065 0.3628,1.34424 -0.851,2.33872 -5.2049,4.26419 -7.7638,3.43352 -88.3837,36.48272 -88.9956,36.48272 -0.27,0 -0.9114,-0.7875 -1.4253,-1.75 z M 1026.6705,952.02409 C 1014.7517,929.48734 1005,910.46648 1005,909.75551 1005,908.56274 1310.6589,739 1312.809,739 c 0.5268,0 1.1654,0.79418 1.4193,1.76484 0.2538,0.97066 20.1485,36.12841 44.2105,78.12832 42.2228,73.69941 43.6847,76.42447 41.9051,78.11174 -1.1897,1.12799 -63.7602,18.46748 -176.3563,48.87168 C 1128.0058,971.79446 1049.22,993 1048.9081,993 c -0.3119,0 -10.3189,-18.43916 -22.2376,-40.97591 z m 1216.951,-45.07608 c -5.9375,-13.2286 -10.5816,-24.60949 -10.3202,-25.29088 0.2615,-0.68138 12.5632,-6.68091 27.3371,-13.33228 14.7739,-6.65137 42.5363,-19.15823 61.6944,-27.79303 19.158,-8.63479 35.0361,-15.49621 35.2848,-15.2476 0.9296,0.92964 22.3824,48.91099 22.3824,50.06059 C 2380,876.65426 2259.1201,931 2256.2075,931 c -1.3716,0 -4.3153,-5.62548 -12.586,-24.05199 z M 610.1814,875.75 C 608.55043,872.8625 593.38299,845.075 576.47597,814 559.56894,782.925 534.83082,737.475 521.50237,713 479.32867,635.55656 472.39946,622.78293 466.06348,610.80133 l -6.18637,-11.69866 3.81145,-2.38081 c 7.86166,-4.91075 77.51583,-43.96255 79.19759,-44.40234 0.96446,-0.25221 2.23438,0.13522 2.82204,0.86096 0.58766,0.72573 14.45472,26.96952 30.8157,58.31952 16.36098,31.35 48.18119,92.325 70.71157,135.5 22.53039,43.175 42.26938,80.94241 43.86444,83.92758 1.59505,2.98517 2.9001,5.76471 2.9001,6.17676 0,0.41205 -1.27086,1.38316 -2.82412,2.15803 -1.55327,0.77488 -19.24032,10.48284 -39.30456,21.57325 C 631.80708,871.92603 614.88596,881 614.26883,881 c -0.61713,0 -2.45647,-2.3625 -4.08743,-5.25 z m 1006.4823,-13.5 c -1.905,-3.14488 -58.7037,-152.80398 -58.4642,-154.04756 0.4686,-2.43323 164.8684,-65.52457 166.5035,-63.89867 1.3139,1.30657 59.297,151.24968 59.297,153.34095 0,0.7067 -0.7875,1.70484 -1.75,2.21809 C 1779.56,801.29726 1619.0745,863 1618.0336,863 c -0.5036,0 -1.12,-0.3375 -1.3699,-0.75 z m 76.1995,-61.60837 c 26.0498,-10.06222 47.7283,-18.94712 48.1743,-19.74422 0.806,-1.44023 -33.815,-93.07492 -35.985,-95.24491 -1.2303,-1.2303 -99.0337,36.13494 -99.7983,38.12737 -0.2736,0.71301 7.0607,20.96672 16.2983,45.00825 21.2822,55.3881 19.0453,50.21796 21.7109,50.18017 1.2301,-0.0175 23.5501,-8.26444 49.5998,-18.32666 z m -718.48943,55.15412 c -4.15416,-6.72157 -61.37089,-115.57361 -61.36234,-116.73884 0.007,-1.018 10.78264,-7.26826 31.12928,-18.05691 17.1148,-9.075 31.67285,-16.63359 32.35121,-16.79687 0.71681,-0.17254 6.26528,9.25122 13.24745,22.5 6.60773,12.53828 20.61953,39.09612 31.13733,59.01743 C 1031.3945,805.64188 1040,822.33102 1040,822.80755 1040,823.73266 977.87098,857 976.14326,857 c -0.56387,0 -1.36014,-0.54191 -1.76949,-1.20425 z M 2410.6739,820.26427 c -8.5813,-19.10465 -15.2749,-35.06322 -14.8747,-35.4635 0.4003,-0.40027 20.2967,-9.3228 44.2143,-19.82784 23.9176,-10.50504 50.5996,-22.23222 59.2933,-26.0604 8.6938,-3.82817 16.1666,-6.73796 16.6064,-6.46619 1.6343,1.01005 31.2801,68.76011 30.4483,69.58404 C 2545.066,803.31359 2429.2244,855 2427.6439,855 c -0.831,0 -7.4885,-13.6272 -16.97,-34.73573 z M 2211.5249,835.75 c -0.7552,-1.7875 -10.1675,-22.82371 -20.9161,-46.74712 -15.0789,-33.56107 -19.2651,-43.7513 -18.326,-44.60981 0.6695,-0.61197 28.6492,-13.32767 62.1773,-28.2571 48.515,-21.60289 61.2064,-26.88837 62.167,-25.8902 1.3035,1.35445 41.3729,90.00555 41.3729,91.53496 0,0.50817 -5.9625,3.64112 -13.25,6.96209 -7.2875,3.32098 -34.9435,15.98743 -61.4578,28.14766 C 2236.7778,829.05072 2214.5924,839 2213.9911,839 c -0.6012,0 -1.711,-1.4625 -2.4662,-3.25 z M 753.81993,802.25478 C 752.99565,801.28965 745.77012,788.125 737.7632,773 729.75627,757.875 705.66603,712.425 684.22933,672 624.68309,559.70858 605.27327,521.68018 606.15521,519.03438 c 0.22084,-0.66254 19.46133,-12.00625 42.75664,-25.20824 40.82365,-23.13571 42.41787,-23.93714 44.09085,-22.16488 0.95466,1.01131 18.73694,34.46374 39.51619,74.33874 20.77925,39.875 52.94731,101.525 71.48458,137 18.53727,35.475 34.65444,66.36423 35.81593,68.64274 l 2.1118,4.14273 -40.2156,22.30582 c -22.11858,12.2682 -41.60641,23.11862 -43.30629,24.11204 -2.94481,1.72098 -3.16142,1.72341 -4.58938,0.0514 z M 1079.6966,797.25 c -6.8985,-11.10963 -61.7779,-113.59585 -61.3815,-114.62872 0.2577,-0.67148 17.2277,-10.12189 37.7111,-21.00091 30.5739,-16.23817 37.4649,-19.54192 38.4838,-18.4502 0.6826,0.7314 11.9286,21.80483 24.9911,46.82983 13.0625,25.025 26.731,51.20713 30.3744,58.18252 4.4131,8.44885 6.2907,13.01551 5.6245,13.68002 -0.9123,0.91003 -72.3459,39.13746 -73.1341,39.13746 -0.1874,0 -1.3886,-1.6875 -2.6693,-3.75 z M 334.98663,784.7988 C 330.31899,779.1576 315.35736,761.27303 301.73858,745.0553 288.1198,728.83756 277.12791,715.1031 277.31215,714.53425 277.80438,713.01453 410.99253,630 412.93855,630 c 1.21714,0 6.76257,11.53881 21.02579,43.75 10.65495,24.0625 19.5357,44.875 19.735,46.25 0.33293,2.29689 -4.03551,5.42473 -53.77047,38.5 -29.77306,19.8 -54.65546,36.12499 -55.29422,36.27775 -0.63876,0.15277 -4.98037,-4.33776 -9.64802,-9.97895 z M 2382.9833,754.96874 c -3.9891,-7.45359 -38.9523,-86.60703 -38.6285,-87.45103 0.6787,-1.76855 116.6013,-52.96199 117.6175,-51.94193 0.7877,0.79063 36.655,79.82098 39.107,86.16875 1.3037,3.37485 9.6035,-0.72109 -75.2242,37.12274 -22.3547,9.973 -40.9014,18.13273 -41.2148,18.13273 -0.3135,0 -1.0591,-0.91407 -1.657,-2.03126 z M 1916.8998,747.25 c -17.2196,-45.0694 -58.937,-158.69023 -58.5836,-159.5572 0.2674,-0.65604 18.5675,-7.88997 40.6667,-16.07541 33.7789,-12.51151 40.3817,-14.66233 41.4434,-13.5 1.6427,1.79822 59.5737,157.14669 59.5737,159.75341 0,1.47814 -1.3415,2.48939 -5.25,3.9574 -58.4306,21.94652 -75.2096,28.1718 -75.9314,28.1718 -0.4774,0 -1.3409,-1.2375 -1.9188,-2.75 z M 1181.2452,723.8127 C 1147.6044,658.74981 1130,624.24393 1130,623.36839 c 0,-1.39331 90.8467,-49.54512 92.7708,-49.17162 1.7696,0.34351 63.4003,115.4886 62.9882,117.68129 -0.1928,1.02603 -86.7368,48.08859 -93.3936,50.78736 -0.6574,0.26654 -5.3341,-7.66201 -11.1202,-18.85272 z M 889.20655,688.75 c -10.50207,-18.7522 -24.32169,-46.00758 -23.89352,-47.12337 0.28028,-0.73038 8.762,-5.74027 18.84828,-11.1331 10.08628,-5.39284 39.22224,-21.01042 64.74658,-34.70574 37.52016,-20.13179 46.63716,-24.6504 47.60508,-23.59419 C 998.24755,574.08639 1024,623.00008 1024,624.40191 1024,625.70174 896.09561,694 893.66137,694 c -0.83303,0 -2.83769,-2.3625 -4.45482,-5.25 z m 1198.93965,-7.5 c -0.5083,-0.9625 -11.6043,-30.325 -24.6577,-65.25 -13.0534,-34.925 -30.8784,-82.59439 -39.611,-105.93198 C 2015.1449,486.73043 2008,466.8697 2008,465.93307 c 0,-1.31816 6.8037,-4.23485 30.1101,-12.90792 16.5606,-6.16272 30.4779,-10.82699 30.9274,-10.36505 0.6979,0.71713 27.2175,71.16644 70.1027,186.22776 6.0243,16.16332 10.8198,30.04519 10.6566,30.84859 -0.2691,1.32463 -56.3065,23.2184 -59.5116,23.25114 -0.6682,0.007 -1.6307,-0.77509 -2.139,-1.73759 z m -545.4176,-16.5 c -43.8186,-112.8372 -58.8401,-153.05719 -57.5904,-154.19712 0.749,-0.68314 38.0007,-15.32402 82.7816,-32.53529 56.0387,-21.53817 81.8611,-31.01479 82.8356,-30.40007 0.7788,0.49123 14.6653,35.28673 30.859,77.32334 23.5798,61.20994 29.1885,76.66485 28.1644,77.60853 C 1708.2099,603.99505 1546.9711,666 1544.7806,666 c -0.8616,0 -1.7851,-0.5625 -2.052,-1.25 z m 77.1325,-60.99225 c 26.0486,-9.99526 47.5914,-18.77336 47.8729,-19.50688 0.2815,-0.73352 -7.5738,-22.35254 -17.456,-48.04227 -16.4912,-42.87007 -18.1655,-46.72838 -20.3729,-46.94924 -1.3228,-0.13236 -23.7801,8.02276 -49.9051,18.12247 -43.2255,16.71064 -47.5247,18.57706 -47.7741,20.74064 -0.3246,2.81678 34.142,92.85701 35.9987,94.04228 0.7014,0.44783 1.9504,0.57844 2.7754,0.29023 0.825,-0.28821 22.8125,-8.70196 48.8611,-18.69723 z M 2190.1717,637.75 c -50.4782,-134.38875 -79.1614,-212.16034 -78.4936,-212.82808 0.4666,-0.46662 14.0921,-5.8242 30.2788,-11.90574 23.5987,-8.86628 29.669,-10.80558 30.634,-9.78676 0.6619,0.69882 9.8481,24.44558 20.4137,52.77058 10.5656,28.325 28.6322,76.66361 40.1479,107.41913 17.0979,45.66382 20.7003,56.15308 19.6427,57.19478 -1.4553,1.43337 -56.823,22.38609 -59.1554,22.38609 -0.8878,0 -2.2979,-2.13469 -3.4681,-5.25 z M 1053.4719,563.39632 c -10.4345,-19.58202 -19.1068,-36.38949 -19.2718,-37.34992 -0.2178,-1.26823 1.5615,-2.71267 6.5,-5.27678 3.74,-1.9418 31.9117,-16.67318 62.6038,-32.73639 30.6922,-16.06321 56.3853,-28.98275 57.0958,-28.71009 1.7085,0.65561 38.7659,70.59789 38.3909,72.45904 -0.2818,1.39831 -122.8675,67.21782 -125.19,67.21782 -0.6362,0 -9.6941,-16.02166 -20.1287,-35.60368 z M 814.20859,547.76273 c -20.43084,-38.45024 -25.8938,-49.49272 -24.93561,-50.40327 2.27851,-2.1652 129.83037,-69.41362 130.67203,-68.89345 0.84651,0.52318 51.31141,95.01209 51.84588,97.07464 0.16,0.61741 -9.065,6.21424 -20.5,12.4374 -11.43499,6.22317 -40.48348,22.04894 -64.55219,35.1684 C 862.66998,586.2659 842.391,597 841.6743,597 c -0.71669,0 -13.07626,-22.15677 -27.46571,-49.23727 z M 1831.7114,520.25 c -6.9267,-18.5625 -20.5288,-55.01028 -30.227,-80.99508 -9.6981,-25.98479 -17.487,-47.95543 -17.3087,-48.82365 0.2218,-1.07945 12.6002,-6.14005 39.1488,-16.00492 C 1844.678,366.49186 1862.8158,360 1863.6307,360 c 2.0147,0 1.4328,-1.47182 33.9194,85.80194 24.5836,66.04304 28.5689,77.49607 27.3623,78.63483 -1.6151,1.52418 -76.5771,29.57873 -79.0097,29.56937 -1.1813,-0.005 -4.8775,-8.79645 -14.1913,-33.75614 z m -814.0606,-27.5 C 1013.644,486.2888 970,402.9982 970,401.81285 970,400.19192 1089.3779,336.5 1092.416,336.5 c 1.5962,0 6.7425,8.92207 26.2448,45.5 13.3425,25.025 24.2772,46.2219 24.2992,47.10421 0.028,1.11434 -18.4314,11.42052 -60.4491,33.75 C 1049.242,480.5344 1021.3523,495 1020.534,495 c -0.8183,0 -2.1158,-1.0125 -2.8832,-2.25 z m 437.0225,-27.5 c -1.9652,-3.31374 -58.7137,-152.80167 -58.4757,-154.03765 0.4683,-2.43151 164.8654,-65.52482 166.5054,-63.90243 1.3123,1.29822 59.297,151.23958 59.297,153.3348 0,0.7067 -0.7875,1.70484 -1.75,2.21809 C 1617.56,404.29726 1457.0745,466 1456.0336,466 c -0.5036,0 -1.1157,-0.3375 -1.3603,-0.75 z m 76.1899,-61.60837 c 26.0498,-10.06222 47.7283,-18.94712 48.1743,-19.74422 0.806,-1.44023 -33.815,-93.07492 -35.985,-95.24491 -1.2303,-1.2303 -99.0337,36.13494 -99.7983,38.12737 -0.2736,0.71301 7.0607,20.96672 16.2983,45.00825 21.2822,55.3881 19.0453,50.21796 21.7109,50.18017 1.2301,-0.0174 23.5501,-8.26444 49.5998,-18.32666 z m 437.7888,-30.34775 c -13.2053,-35.41795 -16.4069,-44.94595 -15.4102,-45.86051 2.1316,-1.95581 171.9672,-64.6289 172.7666,-63.75468 1.5456,1.69036 33.1201,87.41555 32.8032,89.06115 -0.3933,2.04194 5.7992,-0.38713 -92.7303,36.37479 C 2023.5011,405.00158 1987.9106,418 1986.9915,418 c -1.2882,0 -5.4921,-10.24788 -18.3395,-44.70612 z M 1695.6733,309.25 c -1.9652,-3.31374 -58.7137,-152.80167 -58.4757,-154.03765 0.4683,-2.43151 164.8654,-65.524819 166.5054,-63.902426 1.3123,1.29822 59.297,151.239576 59.297,153.334796 0,0.7067 -0.7875,1.70484 -1.75,2.21809 C 1858.56,248.29726 1698.0745,310 1697.0336,310 c -0.5036,0 -1.1157,-0.3375 -1.3603,-0.75 z m 76.1899,-61.60837 c 26.0498,-10.06222 47.7283,-18.94712 48.1743,-19.74422 0.806,-1.44023 -33.815,-93.07492 -35.985,-95.24491 -1.2303,-1.2303 -99.0337,36.13494 -99.7983,38.12737 -0.2736,0.71301 7.0607,20.96672 16.2983,45.00825 21.2822,55.3881 19.0453,50.21796 21.7109,50.18017 1.2301,-0.0174 23.5501,-8.26444 49.5998,-18.32666 z M 1379.6733,263.25 c -1.9652,-3.31374 -58.7137,-152.80167 -58.4757,-154.03765 0.4683,-2.43151 164.8654,-65.524819 166.5054,-63.902426 1.3123,1.29822 59.297,151.239576 59.297,153.334796 0,0.7067 -0.7875,1.70484 -1.75,2.21809 C 1542.56,202.29726 1382.0745,264 1381.0336,264 c -0.5036,0 -1.1157,-0.3375 -1.3603,-0.75 z m 76.1899,-61.60837 c 26.0498,-10.06222 47.7283,-18.94712 48.1743,-19.74422 0.806,-1.44023 -33.815,-93.074921 -35.985,-95.244909 -1.2303,-1.230304 -99.0337,36.134939 -99.7983,38.127369 -0.2736,0.71301 7.0607,20.96672 16.2983,45.00825 21.2822,55.3881 19.0453,50.21796 21.7109,50.18017 1.2301,-0.0174 23.5501,-8.26444 49.5998,-18.32666 z M 1917.6733,225.25 C 1915.7081,221.93626 1858.9596,72.448325 1859.1976,71.212348 1859.6659,68.780838 2024.063,5.6875313 2025.703,7.3099238 2027.0153,8.6081435 2085,158.5495 2085,160.64472 c 0,0.7067 -0.7875,1.70484 -1.75,2.21809 C 2080.56,164.29726 1920.0745,226 1919.0336,226 c -0.5036,0 -1.1157,-0.3375 -1.3603,-0.75 z m 76.1899,-61.60837 c 26.0498,-10.06222 47.7283,-18.94712 48.1743,-19.74422 0.806,-1.44023 -33.815,-93.074921 -35.985,-95.244909 -1.2303,-1.230304 -99.0337,36.134939 -99.7983,38.127374 -0.2736,0.713004 7.0607,20.966715 16.2983,45.008245 21.2822,55.3881 19.0453,50.21796 21.7109,50.18017 1.2301,-0.0174 23.5501,-8.26444 49.5998,-18.32666 z"
       id="path881"
       inkscape:connector-curvature="0" />
  </g>
</svg>
