<svg xmlns="http://www.w3.org/2000/svg" width="230.2" height="234.8"><path fill="#f8f8f7" d="M17.1 233.6c-.3-.3-.2-215.4 0-215.6.2 0 27-.2 59.7-.2h59.4l4.3 3.5A7708.3 7708.3 0 0 1 159 36.5c.3 0 25.8-30.9 26.2-31.9.6-1.2 3.4-4.3 4.2-4.6 1.3-.5 2.2-.3 6.5 1.8 4.2 2 11 6.8 12.8 9 2 2.2 3 4 4 6 .7 2 .7 2.2-1.3 4.7L194.6 42a302.4 302.4 0 0 0-11.3 14.4l3.7 3.3 3.6 3V148c0 47 0 85.3-.2 85.5-.2.3-173 .4-173.3 0zM86.3-26.8c-.3-.6 0-1 .6-1 .3 0 .5.1.4.5 0 .8-.8 1-1 .5zm3.4-7.2c-.5-.6-.2-1 .6-1 .5 0 1 .3 1 .5 0 .5-1.2.8-1.6.5z"/><path fill="#b5bdcf" d="M32.7 213l-2.5-.2v-3.6h2.6l2.6-.2.7-3.3c.8-3.8 1-4 1.4-4 .6 0 8.6 5.8 8.8 6.3 0 .4-.3.7-1 1a279.5 279.5 0 0 0-10 4.2zM63 199a5.2 5.2 0 0 0-4-3c-1.7-.4-2-.7-2.2-2.3-.3-2-1.5-4-3.2-5a9.8 9.8 0 0 0-5.3-1.5c-.8.2-1.6-.3-1.6-1 0-1.6-1.7-3.3-3.7-3.8-2.4-.6-2.9.1 6.5-11.3l5.8-7.3-1-2-1-1.7H41.6l-11.3-.2v-3.5l10.1-.2a67 67 0 0 0 10-.4l-1.2-3.2c-1.6-3.8-3-8.6-3.8-13.5l-.6-4-6.9-.3h-6.9V131H38l6.7-.3.1-4.6c0-4.6.7-9.8 1.5-13.2.2-1 .3-1.9.2-2l-8.4-.3h-8V107h8.6a51 51 0 0 0 9.1-.5 69.7 69.7 0 0 1 11-19.4c.2-.4-2-.5-14.6-.5H29.3V83h33.5l2.2-2a65 65 0 0 1 46.5-16.4 69.2 69.2 0 0 1 22 3.7 17 17 0 0 0 3.2-3.8c0-.2-.3-.3-.6-.3-.4 0-.8-.3-1-.6a986 986 0 0 1 0-45.5c.4-.5.2-.7 12.7 9.7 6 5 11.2 9 11.5 9 .5 0 26-31 26.3-31.9.4-1.2 3.5-4.6 4.4-4.8 1.3-.2 7.4 2.5 11 5 6.4 4.4 9 7 11 11 1.1 2.4 1 3-1.4 6l-27.8 34.2c0 .1 1.5 1.7 3.6 3.4 3.8 3.1 4.4 3.7 4 4.2 0 .1-3.3.3-7 .3h-7l-7.5 9-7.4 9.3c0 .3 2.3.4 7.6.4 5.5 0 7.7 0 8 .3.4.5.4 2.2 0 3-.3.5-.7.5-9.3.5-5 0-9 .1-9 .2l1.1 2c2.7 3.7 5.1 8.8 7 14.6l1.2 3.3h4.6c2.7.1 4.7.3 5 .5.4.4.5 2.1 0 3-.3.4-.7.5-4.4.5l-4.2.1.2 2.5c.6 3.5 1.1 11.3 1 14.6v2.8l4 .1c2.4 0 4.3.2 4.6.4.4.4.5 2.2 0 3-.2.5-.6.5-4.7.5-3.3 0-4.5.1-4.6.4l-.7 3.7A73 73 0 0 1 163 156c0 .2 3.5.2 7.5.2 5.4 0 7.5.1 7.8.4.4.4.5 2.1 0 3-.3.5-.7.5-9.2.5h-8.8l-.7 1c-.4.6-1 1.2-1.3 1.2l-16.5.1h-16l-.3-1-.4-1-5-.2h-4.9l-2.7 1c-3.8 1.4-7.6 2-11.8 1.8l-4.2-.4c-.7-.2-1.2.4-5.9 6-2.8 3.5-5 6.5-5 6.7.3.8 8 3 12.8 3.8a97 97 0 0 0 32.7-1.7c1.8-.4 3.3-.6 3.5-.5.1.2.3 1.4.3 2.8v2.5l21.5.1c15.2 0 21.5.2 21.8.4.5.4.6 2.1.1 3-.3.5-.8.5-21.7.5-21 0-21.4 0-21.8.6-.5.7-3.7 1.4-10.4 2.3-4.8.6-19 1-23.6.4-4.2-.4-8.6-1.3-12.2-2.3-2.3-.7-3.2-.8-7.4-.9-2.6 0-4.9 0-5 .2-.2 0-3 3.3-6 7a63 63 0 0 1-6 7c-.4 0-.8-.5-1.3-1.6zm61.1-43.2c.3-.9-.4-1.2-1.3-.6-.4.2-.7.6-.6.7.3.5 1.7.4 2 0zM69.1 147l6.4-7.7-.4-2.2-.4-2.3-9.2.1-9.2.1v1.5c.2 2.1 1.5 7.8 2.6 10.8 1.2 3.3 3.2 7.4 3.6 7.4.2 0 3.2-3.4 6.6-7.7zm85.3 5.1a57 57 0 0 0 4.4-16v-1h-11.3l-11.4-.3V154h17.4zm-44-1.4c2.4-.6 8-3 10.8-5l2.2-1.5v-4.7l.1-4.7h-2.4c-2.3 0-2.5.1-3.2 1a299.2 299.2 0 0 0-12.6 15.4c.2.3 2.3 0 5-.5zm-35.9-24.2a43.6 43.6 0 0 1 3-15.4c0-.2-2.8-.3-9.6-.3-8.9 0-9.6 0-9.9.5a47.9 47.9 0 0 0-2 19.3c.1.3 2.2.4 9.2.3h9.1zm49 3.5c0-.4 0-.8-.2-.8-.4 0-1.3 1.4-1 1.6.3.4 1 0 1.2-.8zm35.8.6c.8-.7.3-11.4-.8-17l-.5-2.7H138.3l-1 1.2-1.2 1.3v8.6c0 4.7 0 8.7.2 8.8 0 .1 5.2.2 11.4.2 8.3 0 11.3 0 11.6-.4zm-65.9-13.2c2.8-3.3 5-6.2 5-6.3 0-.2-1.4-.3-3-.3h-3.2l-.9 1.4a24.9 24.9 0 0 0-3.2 9.7c-.2 1.1 0 1.7 0 1.6a53 53 0 0 0 5.3-6zm-13-11l2.4-3c3.5-4.5 9.4-8.3 14.5-9.8 3.8-1 7.7-1.4 12.2-1 4 .4 4 .4 4.5-.2 3.5-4.3 4.2-5.3 4-5.5 0 0-10-.2-22-.2H74l-3.4 3.4a51.5 51.5 0 0 0-10.9 16.4c0 .4 1.1.4 10 .4 10 0 10 0 10.5-.6zm22.7-.8c.7-.8 1-1.5 1-1.6-.6-.5-7.2 2-7.2 2.6 0 .2 1 .3 2.5.3h2.6zm53.5.7c0-1.2-4.4-10.6-5.2-11a90 90 0 0 0-9.5 11.3c0 .2 1.6.3 7.3.3 7.2 0 7.4 0 7.4-.6zm-34.8-23.7c.6-.3 4.5-5 4.5-5.4 0 0-.6-.4-1.3-.6l-2.3-.6a56 56 0 0 0-10-1 56 56 0 0 0-26.5 4.3c-3.4 1.5-5.9 3-5.7 3.3.2.3 41 .3 41.3 0zM30.5 185.8v-3.3h5.2c3.6 0 5.3 0 5.4.2v2l-.5 1.4h-5c-4 .1-5 0-5-.3zM30 62.6v-3.3h94.7v1.1a7 7 0 0 1 0 2l-.2.6H77.2C37.4 63 30 63 30 62.6zM30 39v-3.3h94.7V37a7 7 0 0 1 0 1.8l-.2.7H77.2c-39.8 0-47.2 0-47.3-.4z"/><path fill="#9199aa" d="M33 212.7l-2.5-.2v-3H33c1.3 0 2.5-.3 2.7-.4.2-.2.6-1.8 1-3.7.4-1.9.8-3.4 1-3.4a58 58 0 0 1 8.4 6c0 .2-.3.4-.5.6a188 188 0 0 1-10 4.3 48 48 0 0 0-2.6-.2zm30.3-14c-.8-1.7-2.5-3-4.4-3.2-1.5-.2-1.6-.3-1.8-2-.4-3.6-3.5-6.3-7.7-6.6-1 0-2-.3-2.2-.5-.4-.5-.4-.5 14.8-19A81618.5 81618.5 0 0 0 190.6 9.1l-2.3-2A10 10 0 0 1 186 5c0-.2.8-1.3 1.7-2.4 1.5-1.8 1.8-2 2.8-2 2.6 0 12 5.4 16.4 9.5 2.3 2 5.4 7 5.4 8.4 0 .8 0 .8-16.3 20.8a820 820 0 0 0-13.7 17.1c0 .2 1.7 1.8 4 3.5 2 1.8 3.6 3.3 3.6 3.5 0 .2-2.5.3-6.8.4-5.8 0-6.8.1-7.3.6-1 1-14.8 18-14.8 18.3 0 .2 2.2.3 8 .4h7.8v3.2l-9.3.1c-7.6.2-9.2.3-9 .6a54.5 54.5 0 0 1 8 16l1.3 4 4.8.2h5l-.2 1.6v1.5l-4.3.1a22 22 0 0 0-4.3.3c-.2.2 0 1.6.2 3.2.3 1.7.6 6 .7 10.1l.2 7.1 4.4.1 4.4.1v1.6l-.2 1.5-4.6.2-4.5.1-.7 3.4a66 66 0 0 1-6.2 18c.2.4 1.6.4 8 .4h7.6v1.6l-.2 1.5-9 .1-9 .1-.6 1c-.4.6-1 1.2-1.3 1.2-.4.1-7.7.2-16.2.1h-15.6l-.4-1-.4-1H120c-5.5 0-5.7 0-7.6.7a33 33 0 0 1-15.5 1.6h-1.2l-5.3 6.3-5.3 6.6c0 .7 6.2 2.8 11.2 3.8 3.7.7 9 1.2 13 1.2 6.3 0 16-1 21.7-2.4 4-.9 3.7-1 3.8 2v2.6h21.8l21.7.2v1.5l-.2 1.6h-21.5c-20.7.1-21.6.2-21.8.7-.7 1.2-11.7 2.6-22 3-10 .2-16.7-.6-24-2.7-2.8-.8-3.4-.9-7.8-.9h-5l-5.8 7.2-6 7c-.2 0-.6-.6-1-1.4zm61-42.6c.3-.6 0-2-.5-2-.6 0-2.8 2-2.6 2.2.3.4 3 .3 3.1-.2zm30.3-3.4a51.8 51.8 0 0 0 4.5-16.5v-1.5H136v19.5c.1.2 2 .2 9 .2h8.8zm-43.9-1.7c2.3-.5 8.5-3.5 11.1-5.3l2-1.2v-9.8h-2.9l-2.7-.2-6.7 8.2a113 113 0 0 0-6.8 8.7c0 .4.4.4 2 .3 1 0 2.8-.4 4-.7zm13-21.3l.1-1.5-1 1c-1.4 1.5-1.5 2.2 0 2 1 0 1 0 1-1.5zm36 1.2c.8-.8.1-13.5-1-18.6l-.4-1.7h-19.9c-.4.1-1 .8-1.6 1.5l-1 1.3v8.7c0 4.8 0 9 .2 9a354.8 354.8 0 0 0 23.6-.2zm-2.9-24c.3 0 .3-.6-.3-2.2a43 43 0 0 0-5-9.9c-.4 0-2.2 2-5 5.3-5.5 6.7-5.3 6.5-5 6.8.2.4 14.7.4 15.3 0zM31 185.6V183h10v.7c0 .5 0 1.3-.3 1.7l-.3.7h-4.6c-3.7 0-4.7 0-4.8-.4zm24-23.3l-1-1.7-.5-.7H42.1l-11.3-.2v-2.9l10.1-.2c11.8 0 10.8.3 9-4a57.4 57.4 0 0 1-4.5-16.6l-.2-1.2h-6.9l-6.8-.3v-3h6.7l6.7-.3.2-5.6a65.3 65.3 0 0 1 1.6-14v-.9h-8.2l-8.3-.3v-2.9H39a51 51 0 0 0 9.1-.5c.2-.2.6-.8.8-1.4a71 71 0 0 1 9-16c1-1.5 1.6-2.7 1.5-2.8-.2 0-7-.3-15-.3H29.6v-3l16.8-.2 16.7-.2 2.4-2a67.4 67.4 0 0 1 67.7-12s-1.2 2-2.9 4c-2.6 3.2-3 3.6-3.7 3.5l-4.5-.9a62 62 0 0 0-29.4 1C88 78 79.1 82.2 79.5 83c.2.2 7.8.3 21 .3 17 0 21 0 21 .4 0 .2-.6 1-1 1.6l-1 1.2H73.6l-3 3A48 48 0 0 0 59.3 107c.2.4 20.4.4 21 .1l1-1.3c1.3-1.9 4-4.8 6.1-6.4a27.4 27.4 0 0 1 18.8-6.4c5 0 6.4.2 6.4 1 0 .2-1.6 2.4-3.6 5-3.6 4.3-3.6 4.3-5 4.5-3.2.4-8.4 2.7-8 3.4.2.2 1.5.3 3 .3 1.8 0 2.8.1 2.8.3 0 .2-.5 1-1 1.7l-1.2 1.3h-4l-3.8.1-1 1.7a30.2 30.2 0 0 0-3.2 10.2l-.4 3-5.5 6.6a42 42 0 0 1-5.7 6.4 6 6 0 0 1-.6-1.8c0-.9-.3-1.7-.5-1.9-.2 0-4-.2-9.6-.2l-9.3.1v1.8c.2 4 2.3 11.1 5 16.4 1.1 2.4 1.2 2.8 1 3.3a91 91 0 0 1-6.2 7.2c-.2 0-.6-.5-1-1.2zm20-32.7a55.6 55.6 0 0 1 3.2-18.7c0-.2-4-.3-10-.3H57.8l-.3.7a54.4 54.4 0 0 0-2 19.4l.2.7h9.4l9.4-.2zm60.7-66.2a611 611 0 0 1-.2-22.6c0-20 0-22 .5-22A339 339 0 0 1 159.1 38c0 .2-4.8 6.1-10.6 13.2C138.3 63.6 138 64 137 64c-.7 0-1-.2-1.3-.6zm-105.2-.8l-.2-1.7v-1.4h47l47.2.2v3h-47zm0-23.5l-.2-1.6V36l47 .1h47.2v3.1h-94z"/><path fill="#7282a3" d="M32.6 212.4h-2V211c0-1.5.3-1.6 3-1.6 2.4 0 2.4 0 3.2-4.2.3-1.6.7-2.8 1-2.8.4 0 8 5.3 8 5.6a69 69 0 0 1-10.8 4.6zm30.6-14c-.9-1.8-2-2.6-4.3-3l-1.4-.5-.2-1.6c-.2-1.9-.6-2.7-2.2-4.3a8.9 8.9 0 0 0-6-2.5c-.9 0-1.6 0-1.6-.3l10.2-12.6A59123 59123 0 0 0 191.1 9.4c0-.2-1-1.2-2.3-2.2-1.4-1-2.5-2-2.5-2.3 0-.8 2.8-4 3.6-4.2 1-.2 1.8 0 5.5 1.7 4.3 2 11 7 13.2 9.5 1.6 2 3.2 4.7 3.6 6.2.2 1 1.5-.7-16.2 21-7.6 9.2-13.8 17-13.8 17.3 0 .2 1.6 1.8 3.6 3.5s3.8 3.2 3.8 3.4c0 .2-2.3.3-6.6.3-4.9 0-6.8 0-7.2.3a445 445 0 0 0-15.2 19c0 .2 2.3.3 7.6.3 8.5 0 8.7 0 8.6 1.8v1l-9.3.1-9.3.3c-.3.2 0 1 1.3 2.6 2.2 3.1 5.2 9.3 6.8 14l1.4 4.2h4.3c5 0 5.5.2 5.4 1.8v1l-4.4.1c-3 0-4.2.2-4.3.5a105.4 105.4 0 0 1 1 14l.1 6.7h4c4.4 0 5 .2 4.8 1.8v1h-4c-5.6.2-5.3 0-5.7 2.7a67.8 67.8 0 0 1-6.8 19.6l7.5.1c8.3 0 8.6 0 8.4 1.8v1l-8.8.1-8.8.1-1.2 1.3-1.3 1.4h-15.6c-16.9 0-16 0-16.6-1.7l-.3-.9H115l-2.8 1.2a24.3 24.3 0 0 1-11.3 1.6l-4.6-.3a158 158 0 0 0-11.3 13c-.5 1.2 8.7 4 16 4.8a99 99 0 0 0 30.3-2c1.5-.3 3-.5 3.1-.4.2 0 .3 1.3.3 2.7v2.5H156c17 0 21.3 0 21.7.4.4.2.6.6.5 1.4v1h-21.6l-21.4.1-.6.8c-.6.6-1.2.8-5 1.4a111 111 0 0 1-19.8 1.5c-9.2 0-14.7-.7-21.8-2.8a38.4 38.4 0 0 0-11.4-.7c-.4.1-3 3-6.4 7.1l-5.9 7-1-1.6zm61.4-42.8c-.4-1.9-.8-1.9-2.7-.3l-1.3 1.2h4.2zm29.7-2.3a51 51 0 0 0 5-18.6c-.2-.4-1.3-.4-11.7-.4-8.5 0-11.5 0-11.8.3-.5.5-.5 19 0 19.5.3.3 2.6.3 9.1.3h8.8zm-44-2a40.4 40.4 0 0 0 13.7-7c.3-.6.2-9.3-.2-9.7-.3-.2-1.4-.3-2.8-.3-2 0-2.5 0-3 .6a270 270 0 0 0-13.5 16.5c0 .6 2.8.5 5.7-.2zm13.8-21.5c.1-2-.4-2.2-1.9-.3-1.2 1.4-1 1.8.5 1.7h1.3zm36-.7c0-6.2-.4-11.5-1.3-16.2-.4-2-.6-2.4-1-2.6h-19.9l-.6.8c-2 2.3-1.8 1.8-1.8 11.1 0 4.8 0 8.8.2 9l12.2.1h12zm-3-22.8c-.6-2.9-5-11.8-5.9-11.8-.4 0-10 11.6-10.2 12.3 0 .4 1 .4 8.1.4h8.2zm-126 78c0-.9 0-1.3.4-1.5.8-.3 8-.2 8.7.2.3.1.5.4.5.6l-.3 1.2-.2.8H31zm23.5-22.5c-1.4-2.5-.3-2.3-12.6-2.3H31v-1.3c0-1 0-1.4.4-1.5.2 0 5-.2 10.2-.2h9.8l-.8-2a64 64 0 0 1-4.8-16.7 9.3 9.3 0 0 0-.9-3.3c-.2 0-3.3-.2-6.9-.2h-6.5V133c0-.9.1-1.3.5-1.4.3 0 3.3-.2 6.7-.2H45v-3.5a71.5 71.5 0 0 1 2-17.3c-.2 0-4-.2-8.5-.2h-8.2v-2.8l9-.3h8.8l1.2-2.9A67.5 67.5 0 0 1 58.1 89c1-1.3 1.6-2.4 1.5-2.5 0 0-6.8-.3-15-.3H29.8v-1.4c0-1 .1-1.3.5-1.5H63l2.1-2a65 65 0 0 1 35-15.8 72.7 72.7 0 0 1 30 2.2c3.6 1 3.6 1 .2 5-2 2.6-3.2 3.6-3.7 3.6a68.5 68.5 0 0 0-29.3-1c-3.3.7-9 2.6-12 4-3.3 1.6-6 3.2-6 3.6 0 .2 8.1.3 20.6.3 11.5 0 20.8 0 21 .2.4.3.3.5-.5 1.5l-1 1.2H74l-3.5 3.5a52.4 52.4 0 0 0-11.3 17.2c0 .4 1.3.4 10.3.5H80l.7-.8 2.6-3A29 29 0 0 1 104 93c4.4 0 8.2.2 8.5.7 0 .2-1.6 2.5-3.7 5l-3.7 4.5-2 .4c-2 .4-7 2.6-7.3 3.3 0 .2.5.3 2.4.3 1.4 0 2.7.1 3 .3.2.1 0 .5-.7 1.4l-1 1.3H96c-4.2 0-4.2 0-6 3.6a28.4 28.4 0 0 0-2.4 9l-.2 2-5.5 6.7A91 91 0 0 1 76 138s-.3-.6-.4-1.4c-.4-2.5.3-2.3-9.6-2.4l-9.5.1c-1 .2-1 1.5 0 5.6a53.6 53.6 0 0 0 5.4 15.3c0 .5-5.7 7.5-6.3 7.7 0 0-.6-.5-1-1.2zM75 130a49.2 49.2 0 0 1 2.6-16.9c.7-2 .8-2.3.4-2.5-.6-.4-19.3-.4-20 0a51.3 51.3 0 0 0-2.6 20.6c.2.1 4.7.2 10 .1H75zm60.8-66.5a927 927 0 0 1 0-44.7c.5 0 23 18.7 23 19A480.3 480.3 0 0 1 137 63.5h-1zM30.3 62.2c-.4-.4-.3-2 .1-2.4.3-.3 11-.4 46.6-.4 25.4 0 46.4 0 46.6.2.4.1.5.6.5 1.5v1.3H77.3c-25.8 0-47 0-47-.2zm0-23.4c-.3-.4-.3-2 .1-2.5.3-.3 11-.4 46.6-.4 25.4 0 46.4.1 46.6.2.4.1.5.6.5 1.5V39H30.4z"/><path fill="#2ccc88" d="M33.2 212.4H31v-2.7h2.3c1.4 0 2.3 0 2.5-.4a587.6 587.6 0 0 1 1.5-6c0-.4.3-.7.5-.7.5 0 7.6 5 7.5 5.4 0 .2-1.6 1-3.4 1.8-6.6 2.8-6.3 2.7-8.7 2.6zm30.3-14c-.7-1.6-2.2-2.8-4.4-3.3l-1.5-.5A68455 68455 0 0 1 185.1 38.4l17-20.8a26 26 0 0 0-4.4-3.7 78.2 78.2 0 0 1-11.4-9c0-.8 2.8-4 3.6-4.2 1-.2 1.8 0 5.7 1.8 4.7 2.3 11 7 13.4 10 1 1.2 2.2 3.1 2.6 4.2l.8 2-1 1.7c-.8 1-1.6 1.7-1.9 1.8a1053.3 1053.3 0 0 1-14.2 17.3 176.3 176.3 0 0 0-13.2 17c0 .4 1.5 1.8 3.5 3.5 2 1.5 3.4 3 3.4 3 0 .1-2.8.3-6.3.3-5.9.1-6.5.2-7 .7a345 345 0 0 0-15.2 18.8c0 .5.7.5 8 .7l8 .1V86l-9.3.1c-7.5.2-9.2.3-9 .6a64.2 64.2 0 0 1 8.1 16.2l1.5 4.5 4.6.1 4.6.2v2.3l-4.2.1c-5 .1-4.5-.4-3.8 4.4.3 1.6.6 6.1.7 10l.1 7 4.2.1 4.2.1v2.4l-4.4.2-4.5.1-.5 2.8a67.1 67.1 0 0 1-6.7 19.4c0 .1 3.5.3 7.7.3h7.8v2.5H169l-8.6.1-1.2 1.4-1.2 1.3h-15.6a103 103 0 0 1-16-.4l-.6-1.4-.4-1h-4.9c-4.7 0-5 0-7 1a23.5 23.5 0 0 1-10.7 2c-2.6 0-5.4-.2-6-.3l-1.4-.2-5.3 6.5c-3 3.5-5.4 6.6-5.4 6.8 0 .7 4.7 2.4 10 3.6a91 91 0 0 0 36.5-.9c1.5-.3 3-.5 3.1-.4.2 0 .3 1.3.3 2.8v2.7h21.6l21.5.1v2.4h-21.5c-19.7 0-21.6 0-21.6.5 0 .8-.7 1.1-5.2 1.8a110 110 0 0 1-19.9 1.5 70 70 0 0 1-23-3.2c-2.2-.5-3-.6-6.6-.5h-4l-5.5 6.7-5.8 7c-.3.3-.5.1-1-1zm61-42.7c-.3-2-.7-2-2.7-.2l-1.5 1.3h4.5l-.2-1zM154 154a49 49 0 0 0 5.4-17.6l.1-2h-11.8c-10.5 0-11.8 0-12 .4a140 140 0 0 0 .2 19.4c.3.3 2.7.4 9 .4 8 0 8.7 0 9.1-.6zm-43.7-2.7a40.4 40.4 0 0 0 13.7-7c.3-.4.3-8.8 0-9.5 0-.4-.7-.4-3-.4h-2.8l-7 8.3c-3.8 4.7-6.9 8.6-6.9 8.8 0 .6 3.2.5 6-.2zm13.7-20c.3-.8.3-2.7 0-3-.3-.4-.4-.4-.8 0-1.2 1.1-2 2.5-2 3 .3.6 2.6.5 2.8 0zm36 0a58 58 0 0 0-1.5-20.1l-.3-1h-10c-9.9.1-10 .1-10.8.8-2 1.8-1.9 1.4-1.9 11 0 4.8.1 9 .2 9.2.2.4 1.8.5 12.1.5 8 0 12 0 12.1-.3zm-2.7-24.3c0-1.6-3.9-10-5.5-12l-.6-.9-.7.8-9 11.1c-.5.6-.7 1.1-.6 1.3.1.2 2.8.3 8.3.3 8 0 8.1 0 8.1-.6zM31.3 184.3V183h4.4l4.5.1v1.3l-.2 1-4.3.2h-4.4zm23.5-22.2l-1.2-1.9-.6-.8H42.1l-10.8.1v-2.7h10.1c6.3 0 10.1 0 10.1-.3l-.8-2a64 64 0 0 1-5.2-18.8v-1.4H31.8v-2.7h13.2V128a72 72 0 0 1 2-17l.2-.7H30.7v-2.7h17.4l1-2.6a70 70 0 0 1 9-16l2-2.6h-15l-15-.2v-2.6h32.6l2.3-2a64.9 64.9 0 0 1 34.8-16 72.7 72.7 0 0 1 30 2.2c3.7 1 3.7 1 .3 5-2 2.6-3.2 3.6-3.7 3.6a68.5 68.5 0 0 0-29.3-1c-3.4.7-9 2.6-12.2 4.2a18.6 18.6 0 0 0-6 3.7c0 .2 7 .3 20.7.3 16.7 0 20.8 0 20.8.3s-.4 1-.9 1.4l-.9 1h-22a406 406 0 0 0-22.7.2c-1.2.6-6.8 6.7-8.9 9.6a57 57 0 0 0-5.8 10.6l-.3 1H80l1.3-1.8c2.3-3 4-4.8 6.5-6.8 5-3.8 10-5.7 16.1-6 4.4 0 8.2.2 8.5.7 0 .2-1.6 2.5-3.7 5l-3.7 4.5-2 .4c-3 .5-7.7 2.8-7.7 3.6 0 .2 1.3.3 2.8.3 1.5 0 2.7.1 2.7.3 0 0-.4.7-1 1.3l-.9 1.1h-3.2c-2.9 0-3.2 0-3.9.6a24 24 0 0 0-4.3 12l-.2 2-5.5 6.7a80 80 0 0 1-5.8 6.6l-.4-1.2a70 70 0 0 0-.4-2v-.8h-9.8l-9.6.2v1.3a49.7 49.7 0 0 0 6.1 19.7 55 55 0 0 1-6.3 7.7s-.5-.4-.8-.9zM75 130.8v-1.4a55 55 0 0 1 2.6-16.6l.8-2.5h-10c-6 0-10.3 0-10.4.2a54.2 54.2 0 0 0-2.5 20.6c.1.4 1.3.5 9.8.5h9.6zm60.8-89.7c0-12.4 0-22 .2-22 .6.2 22.4 18.4 22.4 18.7L148 50.6c-9.4 11.5-10.4 12.7-11.2 12.7h-1zm-105.2 21v-2.2h46.7l46.6-.2v2.7H77.2c-39.8 0-46.6 0-46.7-.4zm0-23.6v-2h46.7l46.6-.3V39H77.2c-39.8 0-46.6 0-46.7-.4z"/><path fill="#546284" d="M33.2 212.4H31v-2.7h2.3c1.4 0 2.3 0 2.5-.4a587.6 587.6 0 0 1 1.5-6c0-.4.3-.7.5-.7.5 0 7.6 5 7.5 5.4 0 .2-1.6 1-3.4 1.8-6.6 2.8-6.3 2.7-8.7 2.6zm30.3-14c-.7-1.6-2.2-2.8-4.4-3.3l-1.5-.5A68455 68455 0 0 1 167.3 60.2l35-42.7a44 44 0 0 1 6.7 5l-13.5 16.8a179.7 179.7 0 0 0-13.4 17.2c0 .4 1.5 1.8 3.5 3.5 2 1.5 3.4 3 3.4 3 0 .1-2.8.3-6.3.3-5.9.1-6.5.2-7 .7a345 345 0 0 0-15.2 18.8c0 .5.7.5 8 .7l8 .1V86l-9 .1c-5.4.1-9.4.3-9.7.5-.3.1-1.8 2-3.5 4-1.6 2-3 3.6-3.2 3.6-.2 0-2 2-4 4.6-5.6 6.8-6.5 8-6.3 8.3 0 .2 3 .3 8.3.4l8.2.2.4 1c.2.7.3 1.2.2 1.3 0 .1-4.6.2-10 .2h-10l-1 1.2a191 191 0 0 1-13.3 16.4c-.9.4-2.6 2.8-2.4 3.3 0 .3.6.5 1.4.5h1.2v2.7h-5.7l-6.7 8a177 177 0 0 0-7.2 9c-.6 1.2-8.3 10.6-8.6 10.6a185.7 185.7 0 0 0-14 17.2c-1.5 2-2.8 3.6-2.8 3.8 0 .1 1 .7 2.3 1.3 1.2.6 2.2 1.1 2 1.2 0 .2-1.8.2-3.7.2h-3.6l-5.5 6.6-5.8 7c-.3.4-.5.2-1-.9zm-32.2-14V183h4.4l4.5.1v1.3l-.2 1-4.3.2h-4.4v-1.3zm103.4 1l-.2-1.3v-1h43.1v2.4h-42.9zM31.3 158.2v-1.4h20.2l.6 1 .6 1.4c0 .2-4.2.3-10.7.3H31.3zm85.2 1l2-1.4c1.7-1 2-1 4-1h2.2l.3 1.2c.1.7.2 1.2.1 1.3-.3.3-8.6.2-8.6 0zm44.3.1s0-.7.4-1.3l.6-1.2 8 .1h7.8v2.5h-16.8zM32 133v-1.3h13.2v2.7H32zm23.8 1.2l-.2-1.4v-1h19.2l.2 1v1.3c-.2.3-18.9.3-19.2 0zm80-1.2v-1.3h24v.8c0 2 .7 2-12.2 2H136zm33.8.7c0-.4 0-1 .2-1.4.1-.6.2-.6 4.3-.6l4.2.1v2.4h-4.4c-4.3.2-4.3.2-4.3-.5zM30.7 109v-1.4h8.6c4.7 0 8.5.1 8.5.2l-.3 1.3-.4 1.2H30.7zm27.8 0l.4-1.4h10.4a97 97 0 0 1 10.4.2l-.6 1.3-.6 1.2H58zm34.3 1c-.2 0 .3-.7 1-1.3l1.2-1.2h3c1.5.1 2.8.3 2.8.4l-.9 1.2-1 1.1h-3c-1.6 0-3 0-3-.2zm75.6 0l-.3-1.3-.2-1h9.1v2.4l-4.2.1h-4.4zM30.1 85v-1.3h16l16.1.1-1 1.4-.9 1.1H30.1zm45 1s.7-.7 1.6-1.3l1.6-1.2h21c16.8.2 21.1.2 21.1.5s-.4 1-.9 1.4l-.9 1H97a479 479 0 0 1-21.8-.3zm60.7-44.7c0-12.4 0-22 .2-22 .6.2 22.4 18.4 22.4 18.7L148 50.6c-9.4 11.5-10.4 12.7-11.2 12.7h-1zM30.5 62v-2l46.7-.2h46.6v2.6H77.2c-39.8 0-46.6 0-46.7-.4zm0-23.5v-2h46.7l46.6-.3V39H77.2c-39.8 0-46.6 0-46.7-.4z"/><path fill="#4f5c7e" d="M33 212.2L31 212l.1-1 .2-1h2a6 6 0 0 0 2.3-.4c.3-.2.7-1.5 1.1-3.5l1-3.3c.1-.3 7.1 4.7 7.1 5.1a55 55 0 0 1-9.7 4.4H33zm30.7-14.4c-.6-1.2-2-2.2-3.9-2.8-.6-.2-1-.5-1.2-.7l2-2.5 3-3.8a11324.1 11324.1 0 0 1 71-86.7A1532.7 1532.7 0 0 0 169.2 59a4172.3 4172.3 0 0 0 29.4-36l4-4.6c.4-.2 6 3.8 6 4.2L195.1 39l-13.4 16.6c-.4 1 .4 2 3.4 4.5l3.2 2.7-6.2.1c-6.2.1-6.3.1-7 1-1 1-15 18-15.2 18.5 0 .2 0 .6.3.8.3.4 1.6.5 8 .5h7.6v2h-18l-1 1.1-3.4 4a150 150 0 0 0-13.3 16c0 1 .8 1 8.7 1h7.8l.4 1 .3 1h-19.9l-1 1.3-1.4 2a189 189 0 0 1-12.6 15c-1.5 1.6-1.9 2.1-1.8 2.8 0 .6.3.7 1.3.8 1 .1 1.1.2 1.1 1.1v1h-2.5c-1.6 0-2.8.2-3 .4-1 .7-14 17-14 17.3 0 .5-7.6 9.7-8.2 10A169.7 169.7 0 0 0 81.2 179a18.8 18.8 0 0 0-2.7 4c0 .3.5.7 2 1.4l1.8.8h-3.2c-2.2 0-3.4.2-3.8.4l-5.4 6.5-5.3 6.4c-.3.3-.5.2-1-.8zm-32.2-13.5l.2-1h8v2h-8.3zm103.6 0v-1h42v2h-42zm-103.6-26l.2-1h19.4l.7 1 .6 1h-21zm87.3 0c1.4-1 1.8-1 3.6-1s2 0 2 .4l.2 1c.2.4-.3.5-3.6.5h-3.8zm43 0l.4-1h15v2h-16zM32.1 132.8v-1h6.2c5.8 0 6 0 6 .5 0 .4.2.8.3 1 .1.5-.5.6-6.3.6H32zm24 0v-1h18.2v1l.1 1H56.1zm80.2 0v-1H159v2h-22.6zm33.7 0v-1h7.6v2H170zM31 109l.1-1h8c7.4 0 8.2 0 8 .4l-.2 1c0 .6-.3.6-8 .6h-8zm28 0l.4-1h19.7l-.5 1-.5 1H58.6zm34.5.8c0-.2.4-.6 1-1 .7-.9 1-.9 3.2-.8h2.5l-.7 1c-.7 1-.7 1-3.3 1-1.5 0-2.7 0-2.7-.2zm75.2-.5c-.4-1.4-.4-1.4 3.8-1.4h4v2.1h-3.8c-3.7 0-3.8 0-4-.7zM30.3 84.8l.1-1h31.3l-.9 1-.9 1H30.2zm45.7 1s.6-.7 1.3-1l1.3-1h41.6l-.9 1-.8 1H76zm60-44.5V19.6l.8.5c2.4 2 21 17.4 21 17.6a548.6 548.6 0 0 1-21 25.3c-.7 0-.7-.5-.7-21.7zM30.8 61v-1h92.8v2H30.7zm0-23.4v-1h92.8v2H30.7z"/></svg>