<svg xmlns="http://www.w3.org/2000/svg" xmlns:xlink="http://www.w3.org/1999/xlink" width="225.9" height="235.7"><defs><linearGradient id="a"><stop offset="0" stop-color="#525f7f"/><stop offset="1" stop-color="#525f7f" stop-opacity="0"/></linearGradient><radialGradient id="b" cx="1368.1" cy="631.7" r="332" fx="1368.1" fy="631.7" gradientTransform="matrix(1 0 0 .92457 0 47.7)" gradientUnits="userSpaceOnUse" xlink:href="#a"/></defs><path fill="#fce8aa" d="M91.5 235.2c-4.5-.9-7.5-1.7-14.7-4.3a174.7 174.7 0 0 1-27.6-15.1c0-.2-.7-1.3-1.7-2.5a27.8 27.8 0 0 1-4.6-10c-.2-1.3-.4-1.6-2.8-3.5A112.8 112.8 0 0 1 1.8 135 88.4 88.4 0 0 1 0 113.1c0-10.8.2-13 1.7-21.2a113.2 113.2 0 1 1 174.1 115 12.5 12.5 0 0 0-3.3 2.8l1 2.6.7 2.2-.7 1.2a61 61 0 0 1-11 7.8A104 104 0 0 0 152 231c-.6 1.1-5 2.6-5.7 2-.2-.2-1.2-2.4-2.2-5l-2-4.7c-.2 0-1.4.5-2.8 1.3-2.4 1.4-2.5 1.5-3.7 4.2-1.8 4-2.5 4.1-1.6.5.2-1 .3-1.8.2-2-.1 0-1.7.3-3.6.9a39.5 39.5 0 0 1-14 1.8c-7 0-9.4-.4-14.1-2-1-.3-1.6-.3-1.9-.1-.2.1-1.2 2-2.2 4l-1.9 3.8h-1.3c-.8 0-2.4-.3-3.6-.5z"/><path fill="#fbdc7a" d="M92.7 235.2a95.4 95.4 0 0 1-28.8-10.7c-11-5.9-13.4-7.6-16.9-12.2a28 28 0 0 1-4-9.3c0-.9-.6-1.5-3.6-4-11.7-10.2-21-22-27.7-35.9A110.4 110.4 0 0 1 .4 100.8a112.4 112.4 0 0 1 46.8-79.6 113.9 113.9 0 0 1 81.4-20 112 112 0 0 1 64 32.1c9.9 9.8 16.1 18.6 22 30.9a109 109 0 0 1 11.1 45.8 113.6 113.6 0 0 1-50.2 97c-1.9 1.3-3.1 2.3-3.1 2.7 0 .3.3 1.4.7 2.3.9 2.3.8 3.2-.3 4.4-.5.5-5.3 3.8-10.7 7.3a155.2 155.2 0 0 0-12.7 8.5c-.6 0-1.1.3-1.2.5a2 2 0 0 1-1.1.3c-1 0-1-.3-3.7-6.9a29.2 29.2 0 0 0-3.2-7c-.3 0-.7.5-1.2 1.4a96.3 96.3 0 0 1-5 10.4c-.3 0 0-1.1 2.7-11.7a126 126 0 0 1 6.1-18.7c.5-1 5.2-4.3 10.2-7.1l5.4-3.3 2.5-1.6v-2.9a25.6 25.6 0 0 1 .5-5.7l-3.6 1.6a97 97 0 0 1-23 7.4l-4.6.9-2.7 2.6c-2 1.9-3.4 3-5.3 3.9-2.7 1.3-2.8 1.3-6.5 1.3s-3.8 0-6.6-1.4c-2.1-1-3.5-2-5.1-3.6l-2.2-2.2-4.5-.7a98 98 0 0 1-34.7-11.5c-.5 0-.1 3 .4 3.8 2.6 3.8 17.1 17.3 19.8 18.2 1.3.5 4.8 2.6 8.7 5.3 1.4 1 4 2.5 5.7 3.3 1.9 1 3.4 2 3.9 2.5.4.7 1.5 1.3 3 2 1.3.4 2.3 1 2.3 1.2a258 258 0 0 0 .9 10.3c-.4.3-1-.5-1.8-2.2-.4-1-1-1.8-1.3-1.8-.3 0-1.8 2.6-4 7.2-3.3 6.5-4 7.7-4.6 7.6l-2.9-.4z"/><path fill="#525f7f" d="M92.7 235.2c-3.4-.6-6.6-1.5-6.8-2 0-.2-.7-.4-1.3-.5-.6 0-1.7-.3-2.4-.6s-1.6-.6-1.8-.5c-3.4.4-30.6-14-29.6-15.6 0-.2 0-.3-.2-.3-.6 0-2.6-2-3.9-3.8A30 30 0 0 1 43 203c0-.9-.6-1.5-3.6-4-11.7-10.2-21-22-27.7-35.9A110.4 110.4 0 0 1 .4 100.8a112.4 112.4 0 0 1 46.8-79.6 113.9 113.9 0 0 1 81.4-20 112 112 0 0 1 64 32.1c9.9 9.8 16.1 18.6 22 30.9a109 109 0 0 1 11.1 45.8 113.6 113.6 0 0 1-50.2 97c-1.9 1.3-3.1 2.3-3.1 2.7 0 .3.3 1.4.7 2.3.9 2.3.8 3.2-.3 4.4a289.7 289.7 0 0 1-21.6 14.2c-.1.5-1.5 1.2-2 1 0-.1-.4.2-.7.6-.3.5-.9.8-1.4.8-1 0-1-.3-3.7-6.9a29.2 29.2 0 0 0-3.2-7c-.3 0-.7.5-1.2 1.4a96.3 96.3 0 0 1-5 10.4c-.3 0 0-1.1 2.7-11.7a126 126 0 0 1 6.1-18.7c.5-1 5.2-4.3 10.2-7.1l5.4-3.3 2.5-1.6v-2.7c0-3 .7-6.4 1.5-7.3.3-.3 1.8-1.4 3.4-2.3 22.9-14 33-36.3 26-57.5a47 47 0 0 0-5-10.5c-1.2-2-1.4-2.1-2.2-2-2.2.7-2.5.5-4.4-2.3-3.5-5.3-6.7-13-8.5-20.4-.9-3.7-.8-5.4.5-8.5 1.7-4 1.4-5.8-1.2-7.8-1-.8-1.5-.9-4.5-.9-3.1 0-3.6.1-6 1.2-2.4 1.1-2.5 1.1-4.3.6a167.7 167.7 0 0 0-36.4 1.1c-7.1 1-12.9 1.2-20.3.7a98.3 98.3 0 0 1-28.7-4.8c-1.1-.4-1.3-.3-3.8 1a31.5 31.5 0 0 0-12.5 12.6c-2.3 4.2-3 6.7-3.2 12l-.1 4.7-3.1 3.2A55.3 55.3 0 0 0 37.7 113c-3 6.2-4.4 12.3-4.4 19.2 0 16.3 9.4 31.6 26.2 42.7l3 2v2c0 1.5.1 2.4.5 3a115.7 115.7 0 0 0 19.2 18.4l1.3.8c1 .4 2.5 1.4 8.5 5.3 1.5 1 4 2.4 5.5 3.2 1.6.9 2.9 1.7 3 2.1.1.4.4.6.6.6a15 15 0 0 1 5.3 2.2 258 258 0 0 0 .9 10.3c-.4.3-1-.5-1.8-2.2-.4-1-1-1.8-1.3-1.8-.3 0-1.8 2.6-4 7.2-3.3 6.5-4 7.7-4.6 7.6l-2.9-.4zm12.9-65.4a47.4 47.4 0 0 1-22.4-9.5 9.5 9.5 0 0 0-2.7-1.8c-.7 0-1.7 1.8-2 3.4-.2 1.5-.8 2-1.2 1.3-.5-.6-.2-4 .5-5.3.9-1.7 3.5-4.5 5.2-5.5 1.8-1.1 2.4-1.2 2.7-.4.1.4-.4 1-1.6 2.1l-1.9 1.6.6 1c2.4 3.6 12 8.2 22.2 10.6 3.1.7 3.6 1 3.4 2-.1.6-1.4.8-2.8.5zm34.4-44.4c-.8-.3-.8-.5-.8-5.2l.3-12.2c.2-8.8.2-8.8 3.2-8.8 3.2 0 3-.4 2.8 9.6l-.4 12.2-.2 3.7-1.3.5c-1.5.6-2.5.6-3.6.2zm-56.5-1c-.8-.3-.8-.5-.8-5.2L83 107c.3-8.8.3-8.9 3.3-8.9 3.2 0 3-.3 2.8 9.7l-.4 12.2-.2 3.6-1.3.6c-1.5.6-2.5.6-3.6.2z"/><path fill="#2dce89" d="M82.9 232.4l-1.7-.6.1-2.1c0-1.3 0-2.4-.4-3l-.7-1.8c-.2-.6-.1-.7.6-.7 1 0 1-.1.4-2-.3-.8-.5-1.8-.5-2.2 0-4.7-1.5-5.7-7.1-4.8a16 16 0 0 0-3.6.9c-.5.5-.8.3-.8-.3 0-1.2 3.8-4.1 5.4-4.1.7 0 1-.9.3-1.3a21.8 21.8 0 0 0-6.2 0c-.1-.3-.8-.4-1.4-.4-1.5 0-1.2-.8.7-1.8 1.1-.6 2-.7 5-.8 1.9 0 3.9.1 4.4.3 1.3.4 1.2-.3-.2-1.1-.8-.5-1.5-.7-3-.5l-2.8-.1-1-.3.9-.9c.5-.5 1.7-1.1 2.8-1.4a12 12 0 0 0 3-1.5c.8-.8 1.3-1 3.4-1 3-.2 2.5-.4 11.5 5.5 1.5 1 3.8 2.4 5.1 3 2.4 1.2 3.6 2 3.6 2.6 0 .2-.7 0-1.6-.6a5 5 0 0 0-2.7-.7l-1.2.1 1.5 1c1.7 1.3 3.3 4 3.3 6 0 1.5-.5 1.7-1 .5-.8-1.3-1.9-2.2-2.8-2.2-.5 0-1.1-.3-1.5-.7-.3-.4-1-.7-1.6-.7h-1l1.2 1.3c1.3 1.6 2.5 4.7 2 5.2-.2.2-.7 0-1.5-.5a8 8 0 0 0-1.8-1c-.5-.2-.9-.6-1-1-.3-1-2.4-.9-2.8.2l-1.5 2.2c-.7.8-1.5 2.2-1.8 3.2-.7 2.3-.7 6.8 0 7.3.6.5.7 1.4.1 1.4l-2.1-.6zm-4.3-29.9c-.5-.3-1 0-.8.4.1.1.4.2.7 0 .4 0 .5-.2.1-.4zm70.4 29.2a67 67 0 0 1 .4-9.1c.2-1.3.3-2.7.2-3-.2-.5-.3-.5-1 .2a4 4 0 0 0-1 1.5c-.2.5-.4.8-.6.8-.2 0-.5.5-.7 1-.4 1-1 1.4-1.5.7-.7-1 2.1-8 3.9-9.6.8-.7.8-.8.3-2-.3-.8-.4-.8-1.2-.5l-1.6 1c-.3.4-.7.7-.8.7-.4 0-2.8 2.2-2.8 2.6 0 .2-.1.4-.3.4-.8 0-.3-2.3 1-4.5 1.4-2.4 1.6-2.8 1-2.5-2 .7-2 .7-1.6-.4.2-.6 1.1-1.9 2-3 1.7-1.6 1.7-1.7.9-1.6-.6.2-1 0-1-.1 0-.5 2-2 3-2.2.3 0 .6-.4.6-.7 0-1 2-1.4 4-.8a5 5 0 0 0 3.2.2c1.9-.4 3.8.2 5.9 1.8 1.7 1.3 1.7 2 0 1.8-2-.4-3.6-.3-3.4.2 0 .2.6.6 1.1.7.6.2 1.5.8 2.1 1.4 1.2 1 2.4 3.1 2 3.4 0 .2-1 0-2.2-.2-2-.4-3-.2-2 .4.2.2.8.4 1.3.5l1.4.5c.6.3 2.8 4.7 2.5 5.3-.3.7-1 .6-1.4-.3-.5-1-2.4-2.4-2.7-2l-.6 2.9c-.4 2.5-1 3-1.2 1.2-.3-1.7-1.1-3.2-1.8-3.3-.8-.2-1.6.5-1.6 1.4a6 6 0 0 1-1 2.3c-.6.8-1 2-1 2.4a4 4 0 0 1-.6 1.8c-.4.6-.6 2-.8 4.4 0 2-.2 3.5-.3 3.6-.5.4-2 1-2 .7zm-99-16.4l.7-1.8c1.5-3 2.2-8.6 1.3-9.6-.6-.5-1.3-.5-1.3.1 0 .3-.2.6-.4.6-.1 0-.3-.3-.3-.7 0-1.2-.6-1-1.3.2-.8 1.8-1.6 2-1.3.2.3-1.9-.2-2.1-1.7-.7l-1.2 1c-.1-.2 0-1.2.3-2.4.6-2.8.5-3.5 0-2.2a4 4 0 0 1-.9 1.3c-.5.3-4.4-2.9-9-7.4A112.8 112.8 0 0 1 1 101.4a112.6 112.6 0 0 1 182.7-75.6 114.1 114.1 0 0 1 41 99.3 112 112 0 0 1-52.9 83.4 257 257 0 0 1-7.2-19.4c-.5-.8-1-1.1-1.8-1.2l-1-.1v-3.2c0-4.8.4-5.9 3.7-7.8a66 66 0 0 0 24.5-25.5 43.8 43.8 0 0 0-4.3-45.3c-.2-.1-1 0-1.6.2-.6.2-1.4.2-1.7.1-.5-.2-2.9-3.7-4.7-7a70.5 70.5 0 0 1-5.5-14.8c-1.1-4.3-1.2-4.8-.8-6.4.2-1 .7-2.6 1.2-3.6s.8-2.4.8-3.4c0-1.4-.2-1.7-1.4-3a6 6 0 0 0-2.8-2c-2-.5-5.7 0-8.4 1.1-2 .9-2.6 1-3.8.8l-10-.4a171 171 0 0 0-25.4 1.3 92.4 92.4 0 0 1-19.8 1 112 112 0 0 1-32-5 31 31 0 0 0-18.5 22.3c-.2 1.2-.4 3.5-.4 5v3l-2.4 2.5a57 57 0 0 0-3.8 4.3l-2.4 3a47.2 47.2 0 0 0-8.2 16.5c-5 20 4.3 39.8 25.4 54l2.6 1.7-.2 1.2-.3 1.4s-.5-.4-.9-1c-.4-.5-.8-1-1-1l-4.2 6a93.6 93.6 0 0 1-5.9 8.3c.8-.7 1.1-.8 4.2-.6l6.3.2c2.3.1 3.1.3 3.9.9 1.1.8 1.4 1.5.6 1.5-1 0-.3.4 1.5 1 .9.3 1.6.8 1.7 1 0 .5-.2.6-1.8.4-1.9-.2-4.7.3-5.5 1-.4.3-.2.6.8 1.4 1.8 1.5 3.7 6 2.5 6-.4 0-1.4-1-1.4-1.4 0-.5-2.1-1.3-2.8-1.1-.3.1-.9 0-1.2-.4-.7-.6-2-.4-2 .3 0 .2-.5 1-1 1.7-.5.8-1 2.4-1.4 4.2-.8 3.9-2.5 7.5-3.4 7.5-.4 0-.7-.2-.7-.4zm-4-17.7c.4-.6.4-.6-.1-.2-.4.3-.6.6-.6.8v.2l.6-.8zm1.3-1.9c.5-1 .2-.8-.5.3-.3.5-.4.8-.2.6l.7-.9zm58.4-25.9a47.4 47.4 0 0 1-22.4-9.5 9.5 9.5 0 0 0-2.7-1.8c-.7 0-1.7 1.8-2 3.4-.2 1.5-.8 2-1.2 1.3-.5-.6-.2-4 .5-5.3.9-1.7 3.5-4.5 5.2-5.5 1.8-1.1 2.4-1.2 2.7-.4.1.4-.4 1-1.6 2.1l-1.9 1.6.6 1c2.4 3.6 12 8.2 22.2 10.6 3.1.7 3.6 1 3.4 2-.1.6-1.4.8-2.8.5zm34.4-44.4c-.8-.3-.8-.5-.8-5.2l.3-12.2c.2-8.8.2-8.8 3.2-8.8 3.2 0 3-.4 2.8 9.6l-.4 12.2-.2 3.7-1.3.5c-1.5.6-2.5.6-3.6.2zm-56.5-1c-.8-.3-.8-.5-.8-5.2L83 107c.3-8.8.3-8.9 3.3-8.9 3.2 0 3-.3 2.8 9.7l-.4 12.2-.2 3.6-1.3.6c-1.5.6-2.5.6-3.6.2z"/><path fill="url(#b)" d="M1540.2 933.8c-13.6-35.8-17.2-45.6-17.2-47.3 0-1.1-.9-3.4-2-5.2-1.4-2.4-2.7-3.2-5.2-3.5l-3.3-.3V868c0-14.3 1.5-17.3 11.2-23 29.5-17 59-47.7 72.2-75.3 17-35.3 17.6-75 1.5-110.6a105.2 105.2 0 0 0-14-23.5c-.7-.3-2.8 0-4.7.6-2 .6-4.2.8-5 .5a94 94 0 0 1-14-20.7 219.7 219.7 0 0 1-16.4-43.9c-3.2-12.5-3.4-14-2.3-19 .7-2.9 2.3-7.6 3.6-10.5 1.5-3.1 2.4-7 2.4-9.9 0-4.2-.5-5.3-4.1-9.2a18 18 0 0 0-8.3-5.6 43 43 0 0 0-25 3.3c-5.6 2.4-7.6 2.9-11 2.3-2.2-.4-15.6-.9-29.6-1.2-27.2-.5-48.1.5-75 3.7a273 273 0 0 1-58.6 3c-36.8-1.7-63.5-5.5-83.8-12a81 81 0 0 0-11-3 92.8 92.8 0 0 0-54.5 66.1c-.6 3.5-1 10.3-1 15.1l-.1 8.7-7 7.3c-4 4-9 9.8-11.3 12.8-2.3 3-5.5 6.8-7.2 8.5-7.5 7.2-19.8 32.2-24 49.1-15 59 12.4 117.6 74.8 159.3l7.8 5.2-.7 3.7a21 21 0 0 1-1 4c0 .2-1.2-1-2.4-2.7-1.2-1.7-2.5-3.1-3-3.1-.4 0-6 8-12.5 17.8a275.2 275.2 0 0 1-15.5 21.7 103.6 103.6 0 0 0-16 24.3c-2.3 7.1-3.1 7.2-11.2.6A333.3 333.3 0 0 1 1037 687.2c-1.6-15.2-1.3-48 .4-65a332.8 332.8 0 0 1 294-295.9c17.9-2.2 55.3-2.1 74 .1a337 337 0 0 1 172 72.2 400 400 0 0 1 48.9 48.9 337.3 337.3 0 0 1 72.6 178 439 439 0 0 1-.4 66.6 331.1 331.1 0 0 1-98.3 202 400 400 0 0 1-24.2 21.8 326 326 0 0 1-32.5 22.7c-1 .4-2-1.2-3.4-4.8zm-209-113.8c-20-5.2-36-12.7-48.6-22.8a58 58 0 0 0-10.2-7.2c-2 0-4.3 3.9-6 9.8-.9 2.8-2 5.2-2.5 5.2-1.7 0-1-11.4 1-15.1 4.8-9.6 17.3-20.2 21.7-18.5 1.7.7 1.2 1.3-3.4 5.4-6.3 5.7-6.6 7.7-1.4 12.4 12.3 11.1 34.9 21.5 59.2 27.4 11.5 2.7 14.8 4.3 13.6 6.3-1.2 2-7.7 1.1-23.4-3zm116.4-128.6c-1.4-1.3-1.5-4-1.1-18.2l1-35.2c.5-17.2.7-18.6 2.6-20.3 2.4-2 9-2.3 12-.6 2 1 2 1.6 1.4 35.7a842 842 0 0 1-1.1 36.4c-1 3.5-12 5.1-14.8 2.2zm-167-3c-1.4-1.3-1.5-4-1.1-19l1-35.1c.5-16.6.6-18 2.6-19.5 2.4-2 9-2.4 12-.7 2 1 2 1.6 1.4 35.7a842 842 0 0 1-1.1 36.4c-1 3.5-12 5.1-14.8 2.2z" transform="translate(-350 -109.1) scale(.33836)"/><path fill="#010406" d="M100.4 168.3a42.7 42.7 0 0 1-16.5-7.7 19.4 19.4 0 0 0-3.4-2.4c-.7 0-1.5 1.3-2 3.3-.3 1-.7 1.8-.9 1.8-.6 0-.3-3.9.3-5.2 1.7-3.2 5.9-6.8 7.4-6.2.6.2.4.5-1.1 1.8-2.2 2-2.3 2.7-.5 4.2a49 49 0 0 0 20 9.3c4 1 5 1.4 4.6 2.1-.4.7-2.6.4-8-1zm39.4-43.5c-.5-.4-.6-1.3-.4-6.1l.3-12c.2-5.8.3-6.2 1-6.8.7-.7 3-.8 4-.2.7.4.7.5.5 12l-.4 12.4c-.4 1.2-4 1.7-5 .7zm-56.5-1c-.5-.4-.6-1.3-.4-6.4l.3-11.9c.2-5.6.2-6 1-6.6.7-.7 3-.8 4-.2.7.3.7.5.4 12 0 6.5-.3 12-.3 12.4-.4 1.1-4 1.7-5 .7zm98.5-18a62.8 62.8 0 0 1-9.6-21.3c-1.1-4.3-1.2-4.8-.8-6.4.2-1 .7-2.6 1.2-3.6s.8-2.4.8-3.4c0-1.4-.2-1.7-1.4-3a6 6 0 0 0-2.8-2c-2-.5-5.7 0-8.4 1.1-2 .9-2.6 1-3.8.8l-10-.4a171 171 0 0 0-25.4 1.3 92.4 92.4 0 0 1-19.8 1 112 112 0 0 1-32-5 31 31 0 0 0-18.5 22.3c-.2 1.2-.4 3.4-.4 5V95l-2.6 3a70 70 0 0 0-3.9 4.6c-1.4 1.8-1.8 2.1-2.1 1.6-.3-.5.7-2.7 2.8-6.3 1.8-3 1.8-3 2.1-7l.7-6.2c1.3-7.4 7.1-17 13-21.5.8-.6 1.5-1.3 1.5-1.5 0-.2-.8-1-1.8-1.7a23 23 0 0 1-9.3-13c-1.2-7.6 5.3-15.9 14.5-18.2 3-.7 9-.5 10.3.3 1.2.9 1.1 1.8-.4 2.8-1.8 1-2.2 1.7-2.4 3.3-.3 3.2 3.1 5.7 8.3 6 6 .3 10.7-1.2 21.8-6.8a49.6 49.6 0 0 1 26.5-7c10.1-.2 16.9 1 21.7 3.9 4 2.4 5.8 5 5.4 8l-.2 1.7 1.6-.3a60.3 60.3 0 0 1 28 .8c6.8 2.2 10.4 6.7 10.4 13a13 13 0 0 1-3 8.4 34.7 34.7 0 0 1-8 7c-.8.6-1.6 1.3-1.7 1.6a55.5 55.5 0 0 0 1.3 27.8c.7 2.8 1.1 5.3 1 5.7 0 .5-.6.8-1.7 1.1-2 .6-2.3.5-2.9-.2z"/><path fill="#4e4e4e" d="M101.2 168.4c-7.8-2-12-3.9-16.6-7.4l-3.4-2.6c-1-.7-2.6 1.2-3 3.6-.2.6-.4.9-.6.7-.5-.3-.2-3.5.5-4.7 1.3-2.5 5.5-6.2 7-6.2.8 0 .2.9-1.2 2-2.2 1.6-2.2 2.1-.5 4 3.8 3.8 13 8 22.1 10 2 .5 2.6.7 2.5 1.2-.1.9-1.5.8-6.8-.6zm38.5-43.7v-12c.3-12.8.3-13 2.3-13 2 0 2.1.2 2 4.8-.3 12.9-.7 19.6-1 20-.5.6-3 .7-3.3.2zm-56.5-1v-12c.3-12.8.3-13 2.4-13 .6 0 1.3.2 1.5.4.6.8 0 23.7-.7 24.4-.5.6-2.8.7-3.2.1zm99-18c-3.6-4.4-7.8-14-9.8-22.2-1-3.8-.8-5.5.6-8.8 1.2-2.6 1.3-4 .6-5.4-.8-1.5-3-3.4-4.5-3.7-2.3-.4-6 .1-8.6 1.2-2.4 1.1-2.5 1.1-4.5.7a157.2 157.2 0 0 0-35.7 1.2c-4.7.6-7 .7-15 .6-13.7 0-23.6-1.3-32-4l-3.6-1.2-2 1a31.2 31.2 0 0 0-12.4 11.2 26.6 26.6 0 0 0-4.7 15v3l-2.7 3.1a128 128 0 0 0-3.6 4.4c-1.7 2.3-1.3 1 1-3l2.2-4 .3-4.1a39.3 39.3 0 0 1 13.5-27.2c1.2-1 2.1-2 2.1-2 0-.3-1-1-2-1.8-5-3.4-8.9-8.6-9.4-12.8-1-7 4-14.1 12-17 3.7-1.4 12.3-1.2 12.3.2 0 .3-.6 1-1.4 1.4-2.8 2-3.2 5-.8 7.4 2.6 2.6 7.8 3.5 13.3 2.4a57 57 0 0 0 15.5-6 51 51 0 0 1 31-7.3c6.3.2 7.6.3 10.6 1 4.7 1.3 7.8 3 10 5.2 1.8 2.1 2.3 3.5 1.7 5.6-.6 1.8-.2 2.2 1.5 1.7a76 76 0 0 1 23.2-.8c3.5.6 7.1 1.8 9.3 3 2.1 1.2 4.4 4 5.2 6.2.9 2.3 1 6.2.2 8.4-1.2 3.5-5 7.6-9.6 10.7-2.3 1.5-2.4 1.7-2.8 3.3a50.5 50.5 0 0 0 1.6 27l1.1 5.3c0 .9-3 1.8-3.6 1z"/></svg>