<svg xmlns="http://www.w3.org/2000/svg" xmlns:xlink="http://www.w3.org/1999/xlink" width="236.6" height="228.3"><defs><linearGradient id="a"><stop offset="0" stop-color="#7987a8"/><stop offset="1" stop-color="#7987a8" stop-opacity="0"/></linearGradient><linearGradient id="b" x1="1225" x2="2038.9" y1="490.8" y2="547.8" gradientUnits="userSpaceOnUse" xlink:href="#a"/><filter id="c" width="1.2" height="1.2" x="-.1" y="-.1" color-interpolation-filters="sRGB"><feGaussianBlur stdDeviation="5.4"/></filter></defs><path fill="#525f7f" d="M.3 227.7C0 227-.1 86 .3 85.5c.3-.5 15.1-11.1 15.6-11.2.4 0 .4 1.2.5 10 0 9 .1 10 .6 10.4l6.8 4.2 6.2 3.8h43l3.8-3.8 3.8-3.8c0-.1-11.5-.2-25.6-.2l-25.6-.1v-3c-.1-2.2 0-3 .2-3.3.2-.1 14.1-.2 31-.2H91l2.6-1.2a60.7 60.7 0 0 1 19.3-5.4c.5-.1-18.2-.3-41.6-.3L29 81.2v-3c-.2-3-.1-3.2.5-3.3.4-.1 40.6-.2 89.4-.1h88.7l.2 3v3.3c0 .2-14.6.3-41 .3h-41c.1.2 1.6.4 3.4.7 7 1 12.2 2.5 17 4.8l2.6 1.2 29.6.2 29.5.1.2 3v3.2c0 .2-8.8.3-24.4.3-14.6 0-24.4.1-24.4.3 0 .1.6.8 1.4 1.5l2.6 2.6 2.1 2.5.9 1 20.4-.1 20.4-.1 8.6-5.2 8.7-5.2.1-7.5.3-7.6c.2-.3 1.5.4 6 3.7 4.5 3.2 5.3 3.9 5.6 4.8.5 1.6.2 141.6-.3 142.2-.3.4-16.4.5-118 .5-115.9 0-117.5 0-117.8-.6zm125.3-76.5c4-2.4 7.4-4.5 7.5-4.7.1-.2.2-5.2.2-11.2l-.1-10.8h-13.6l-13.5-.1-1.2 1.3a22.5 22.5 0 0 0-4.2 8.3c-.7 3-1.4 9.6-1 10.2a349 349 0 0 0 18.4 11.3l7.5-4.3zm40-24.3l-.3-1.5-.5-1h-9.7l-9.8.1V139c.2.4 20.2-11.5 20.3-12.1zm-77.7 7.4a42.4 42.4 0 0 1 3-9.8l-9.1-.1h-9.1l-.4.9c-1 2.3-1.3 2 7 7l7.7 4.5c.2 0 .6-1.2.9-2.5zM65.2 115a78.4 78.4 0 0 1 2.7-5.5l-13.2-.1c-12.7 0-13 0-12.4.5.5.5 10.1 6.3 12.2 7.4.6.3 1.8.4 5.1.4l4.3-.1zm32.6 1.2c3-2.7 5.5-4.3 8.8-5.7l2-.9c.2-.1-6-.2-13.6-.2H81.1l-1 1.2a39.4 39.4 0 0 0-4.2 6.7c0 .4 1.8.4 10.1.4h10.1zm64.7 1.2c0-.4-2-4.2-3.1-6.1-.6-1-1.4-1.7-1.7-1.8h-32.9l1.5.5a174 174 0 0 1 6.9 2.8l.1-1.1c0-.6.2-1.3.4-1.5.3-.2 2.1-.3 5.9-.2h5.4l.1 3.5c0 2 .1 3.7.2 3.9.2.4 17.2.5 17.2 0zm25.7-3.6c3.6-2.2 6.6-4 6.6-4.2 0-.1-5.4-.2-12.1-.2-6.7 0-12.1 0-12.1.2s2.7 6.8 3.2 7.6c.2.5.7.5 4 .5h3.9zm-36.7-11.3a31 31 0 0 0-9.4-6.3l-2.3-1.1h-39.2L98 96.3a40.9 40.9 0 0 0-9.7 6.2c0 .1 14.2.2 31.6.2 18 0 31.6 0 31.6-.2zM35.7 67.3c-.5-.4-.1-.9 1.1-1.4 2.4-.9 2.7-1.5 9.7-18.2 3.5-8.5 6.6-15.5 6.9-15.5.2-.1.5 0 .7.2.2.2 3 6.7 6.3 14.5L67 62.6c1 2 2 3 3.5 3.5.8.2 1 .4 1 .8s-.7.5-6.9.5c-5.8 0-6.7-.1-6.7-.5 0-.3.5-.5 1.6-.7 3.1-.5 3.2-1 .6-7.2l-1.7-4H44.9l-1 2.3c-2.4 6-2.2 8 .8 8.8 1 .2 1.2.4 1.1.8 0 .4-.6.5-5 .5h-5.1zM57.4 53c0-.6-5.5-13.8-5.7-13.8-.3 0-5.8 13.2-5.8 13.8 0 .3 1.3.4 5.8.4 4.4 0 5.7-.1 5.7-.4zm20.7 8.4c-.1-.4-.2-1.7-.1-2.8v-2.2h129.1v5.5h-64.5l-64.4.1zM77.5 48l-.1-2.8V43h129.1v5.5H142l-64.5.2zm5-21.8v-.5C82.8 25.2 117 .5 117.8.2c.6-.3 1-.3 1.5 0a2022.8 2022.8 0 0 1 35 25.8c.1.5-1.8.5-35.8.5-19.8 0-36 0-36-.2z"/><path fill="#525f7f" d="M.8 227.2c-.1-.2-.2-32.1-.2-70.8V86l.6-.6C2.4 84.4 15.4 75 15.7 75c0 0 .2 4.4.2 9.8 0 5.3 0 9.8.2 10a439.7 439.7 0 0 1 12.6 7.8 1551.8 1551.8 0 0 0 30.1 18c3.6 2.3 3.5 2.3 4 1a59.8 59.8 0 0 1 61.9-39.4 60 60 0 0 1 22.3 5.6c7.2 3.4 11.7 7 17.3 13.5a58.5 58.5 0 0 1 9.9 18.9c.4 1.3.7 2 1 1.9.2 0 5-2.9 10.7-6.2l24.3-14.6c7.8-4.6 14.4-8.7 14.7-9 .4-.5.5-1.4.5-7.5 0-6.2 0-7 .4-6.8a83.3 83.3 0 0 1 9.9 7.5 8568.8 8568.8 0 0 1 0 142c-.2 0-53 .2-117.5.2-106.7 0-117.3 0-117.4-.5zm125.4-75.7c5-3 7.4-4.7 7.5-5 .3-.9.2-20.9 0-22.2-.2-1.3-.7-1.7-4.7-3-5-1.8-11-2.3-15.3-1.4a18 18 0 0 0-9.6 5.9 24 24 0 0 0-4 8.4 34 34 0 0 0-.8 10.3 203 203 0 0 0 19 11.5c.3 0 3.8-2 7.9-4.5zm29.5-17.7a89 89 0 0 0 10.4-6.5A43.2 43.2 0 0 0 146.7 98a56 56 0 0 0-38-5.6 49.2 49.2 0 0 0-37.1 33.4c-.6 1.8-.6 1.9-.1 2.3.9.9 15.7 9.6 16 9.5.2 0 .6-1.6 1-3.3a29 29 0 0 1 3-9 28.3 28.3 0 0 1 38.5-13.2l3.1 1.2c.7.2.8.1.9-1.2v-1.4l5.3-.1 5.2-.1.2 4.6v14c-.2 9.1-.1 10.8.5 10.8l10.5-6zM83.5 25.7c.4-.6 34-25 34.7-25 .4-.2 5.3 3.2 17.7 12.2 9.5 6.8 17.2 12.5 17.3 12.7 0 .3-7.8.4-34.9.4-22.3 0-34.9-.1-34.8-.3z"/><path fill="url(#b)" d="M1225.7 911.3c-1-.9-.9-488.5 0-490 1.3-1.8 49.5-36.5 50-35.9.4.3.8 15.7 1 34.3.2 18.5.4 33.8.6 33.9l21.7 13.2 41 24.9a531 531 0 0 0 21 12.5c1.5.5 37.1 22 63.8 38.4 13 7.9 12 5.6 7.9 21.9-4.6 17.9-6.1 31-6.1 54 0 39.7 6.7 70 22.4 101.5a171 171 0 0 0 35.3 49.3c33 33.4 75 53 125.7 58.8 12.2 1.4 58 .7 73-1.1a390 390 0 0 0 37.1-6.6 176 176 0 0 0 0-34.8 30 30 0 0 0-9.3 1.4 369 369 0 0 1-42.3 7c-15 1.6-48 1.6-59.5 0-58.8-7.7-102.4-38.1-127-88.5-14-28.8-19.8-57-18.7-92.7.5-17 3.3-38.4 5.5-42.5.6-1 7.5 2.8 27.1 14.6a953.6 953.6 0 0 1 27.2 16.8c.5.5 1 11.4 1.3 24.3.3 20.5.7 25 2.9 35 9 40.8 31.3 66.7 65.2 75.6 10.4 2.8 34 2.5 45-.5a131.8 131.8 0 0 0 37-18.6 47 47 0 0 1 10-6.2c.5.2 2.3 6 4 12.8l3 12.4 53.8.3 53.8.2 5-7.7c29-45.3 39.3-104.2 28.7-163.3l-2.5-14.5c-.4-2.9 0-3.3 9.9-9.4 13-8 57-34.5 66.3-39.8 10.2-5.8 93.8-56.3 95.3-57.5.9-.8 1.2-7.1 1.2-25.3 0-13.3.3-24.4.6-24.8 1-1 31.5 21.5 33.6 24.8 2 3 2 6.4 1.5 246.7-.3 134-.8 244.2-1.2 244.8-.7 1.1-810.7 1.5-811.8.3zm381.8-84.4c-65.7-8-120.7-42.9-150.9-95.7a210.3 210.3 0 0 1-28.3-104.8 207.3 207.3 0 0 1 98.4-188 216.1 216.1 0 0 1 127.3-29.5c31 2.4 52.5 7.8 77.3 19.5a161 161 0 0 1 59.9 46.6c20.3 24 34.8 58.5 41.5 98.5 2.6 15.9 2.6 61.6 0 76a219 219 0 0 1-30.2 79.4l-4.6 7.1h-52.4c-49 0-52.5-.1-53.3-1.8-.5-1-2-6.4-3.2-12.2-1.3-5.8-2.8-11-3.4-11.8-1-1-3 0-9.3 4.7-28.2 20.8-53.9 27.1-83.3 20.6-27.8-6.2-51-29.7-61-62-4.6-15-6.4-28.8-6.4-50 0-28.1 3-43.5 13.3-65a88.2 88.2 0 0 1 21.4-29c31.3-29 71.2-35 112.2-16.8a72 72 0 0 0 10.7 4c2.6.5 2.7.3 3-4.3l.3-4.9 18.3-.3 18.2-.2v4.7l.6 100.3c.2 52.5.6 96 .9 96.8.3 1 6.8 1.2 27.9 1.2 15 0 28.2-.3 29-.6 3.9-1.5 12-23.3 16-42.6 12.9-62.4 2.5-126.2-26.8-165.2-30-39.9-67.5-57.9-127.1-61.1a189 189 0 0 0-85.6 17c-18.3 9.3-30.3 18-45.8 33.5a155.1 155.1 0 0 0-37 56 166 166 0 0 0-13.4 72c.1 35.8 6 62.4 20 90a161.4 161.4 0 0 0 126.8 85.9c30.3 3.5 69.7 1 100.1-6.4a51 51 0 0 1 10.6-1.9c.5.3.8 7.7.8 16.5 0 15.6 0 16-2.3 16.8-3 1.1-17.5 3.7-31.7 5.6a622 622 0 0 1-78.5 1.4zm35.3-128.9c8.8-2.4 26.5-11.2 35.4-17.4l6.5-4.5.6-33.8c.9-42.4.9-82.6 0-87.6-.7-4.4-2.6-5.6-16.4-10.5a106.7 106.7 0 0 0-36-6.2c-17.6 0-30 4-41.4 13.3-19.2 15.6-28 43.7-25.5 81.2 2.8 41.6 16.8 62.2 45.8 67.5a92 92 0 0 0 31-2zm-32.3.6a43.2 43.2 0 0 1-23.8-12.2 70 70 0 0 1-17.5-38.9c-2-12.7-2.3-18.5-1.1-18.5.6 0 15 8.3 31.9 18.5 17 10.2 31 18.5 31.4 18.5.3 0 11.8-6.8 25.6-15 13.9-8.3 25.6-15 26-15 .6 0 1 8.3 1 19.5V675l-10 6.6c-12 7.8-24.4 13.8-33 15.9a83.1 83.1 0 0 1-30.5 1.1zm114.5-39.4v-48.8l35.6-21.3a573 573 0 0 1 36.2-20.6c1.1 1.1 3.2 17.5 4.2 32.8 2 33-4.2 73.2-15.2 98.2l-3.5 8-28.7.3-28.6.2zm-211.8-446.4a4150 4150 0 0 1 117.3-85.8c1.1-.4 2.5-.6 3-.4a8857 8857 0 0 1 118 85.5c0 .4-53.7 1-119.3 1.3-95.6.5-119.3.4-119-.6z" transform="translate(-352.7 -35.8) scale(.2886)"/><path fill="#525f7f" d="M2.9 227c0-.2.3-.5.6-.7A11227.8 11227.8 0 0 1 68.3 187a30 30 0 0 0 4.7-3 1 1 0 0 0-.2-.6l3 2.9a59 59 0 0 0 36.2 16.9c3.5.4 16.7.2 21-.3 3-.4 10.4-1.7 10.8-2 .3-.1.3-9.8 0-10a106.5 106.5 0 0 1-14.9 2.5c-4.4.4-13.9.4-17.2 0a48.5 48.5 0 0 1-23.5-9.3c-3-2.2-7-6.1-6-5.9.4.1 2-.8 5.4-2.8 8.1-4.9 8-4.8 7.6-5.4-.2-.3.4.2 1.3 1a24 24 0 0 0 10.4 5.8c3 .8 9.9.7 13-.2 3-.8 7.5-3 10.7-5.3 1.4-1 2.7-1.9 2.9-1.8l1.1 3.7.9 3.5 9.5.2c5.3 0 9 .2 8.4.3-1 .1-.4.5 16.2 10.5L225 221c8 4.9 9.4 5.6 10 5.1l.3-18.6.2-18.6v38.3l-116.3.1c-93.3 0-116.2 0-116.2-.3zm108.4-24.2A57 57 0 0 1 59.5 145a59.5 59.5 0 0 1 65.2-62.8 60 60 0 0 1 22.3 5.6c7.2 3.4 11.7 7 17.3 13.5 5.8 6.9 10 16.9 12 28.4.7 4.6.7 17.8 0 22a63.2 63.2 0 0 1-8.8 22.8l-1.3 2.1h-15.1c-14.1 0-15.2 0-15.4-.5a30 30 0 0 1-1-3.5 16 16 0 0 0-1-3.4c-.2-.3-.8 0-2.6 1.3a28 28 0 0 1-24 6c-8-1.8-14.7-8.6-17.6-18a45.7 45.7 0 0 1-1.9-14.4c0-8 1-12.5 3.9-18.7a28.3 28.3 0 0 1 38.5-13.2l3.1 1.1c.7.2.8.1.9-1.2v-1.4l5.3-.1 5.3-.1v1.4a23843.6 23843.6 0 0 1 .4 56.8 108.7 108.7 0 0 0 16.4.2c1.2-.4 3.5-6.7 4.7-12.3 3.7-18 .7-36.4-7.8-47.7-8.6-11.5-19.5-16.7-36.7-17.6-7.9-.4-18 1.6-24.7 5a46.3 46.3 0 0 0-13.2 9.6c-5 5-7.5 8.9-10.6 16.2a47 47 0 0 0-4 20.7c.1 10.4 1.8 18 5.9 26 7 13.7 20.5 23 36.5 24.8a89.7 89.7 0 0 0 32-2.4c.1 0 .2 2.2.2 4.8 0 4.5 0 4.6-.6 4.8a100.2 100.2 0 0 1-31.8 2zm10.1-37.2c2.6-.7 7.7-3.2 10.3-5l1.8-1.3.2-9.7c.3-12.3.3-23.9 0-25.3-.2-1.3-.7-1.7-4.7-3a30.8 30.8 0 0 0-10.4-1.8c-5.1 0-8.7 1.1-12 3.8-5.5 4.5-8 12.6-7.3 23.4.8 12 4.8 18 13.2 19.5 2 .4 6.6.1 9-.6zm-9.3.2c-2-.4-4.2-1.2-5.2-2-.5-.5-.5-.5 0-.5.6 0 8.2-4.3 10.6-6 1-.8 2-1 1.8-.4-.1.4 1 1.2 4 3a22 22 0 0 0 4.5 2.4h.3c0 .4-5.4 2.7-7.2 3.2a24 24 0 0 1-8.8.3zm123.1-60.4c0-.3.1-.4.2-.1v.5c-.1.1-.2 0-.2-.4zm0-10c0-.5.1-.7.2-.4v.9l-.1-.5zm-227-5c-3.8-2.2-7-4.2-7-4.5a174 174 0 0 1 14.2-10.5 309.3 309.3 0 0 1 0 19.2c-.1 0-3.4-1.8-7.2-4.1zm227.1 1.2c0-1.4 0-2 .1-1.4v1.4zm-9.7 0c-.3-.6-.3-13.3 0-13.5a75 75 0 0 1 9.2 6.6c.5.5.7 1 .7 2s0 1-.3.5c-.2-.4-.4-.6-.5-.5l-8.8 5.2s-.2 0-.3-.3zM84 25.6c.1-.4 33-24.4 33.8-24.7.3-.2.7-.2.9-.2.7.3 34 24.6 33.8 24.7-.1.4-68.6.5-68.5.1z"/><path fill="#b8c0d1" d="M111.3 202.8A57 57 0 0 1 59.5 145a59.5 59.5 0 0 1 65.2-62.8 60 60 0 0 1 22.3 5.6c7.2 3.4 11.7 7 17.3 13.5 5.8 6.9 10 16.9 12 28.4.7 4.6.7 17.8 0 22a63.2 63.2 0 0 1-8.8 22.8l-1.3 2.1h-15.1c-14.1 0-15.2 0-15.4-.5a30 30 0 0 1-1-3.5 16 16 0 0 0-1-3.4c-.2-.3-.8 0-2.6 1.3a28 28 0 0 1-24 6c-8-1.8-14.7-8.6-17.6-18a45.7 45.7 0 0 1-1.9-14.4c0-8 1-12.5 3.9-18.7a28.3 28.3 0 0 1 38.5-13.2l3.1 1.1c.7.2.8.1.9-1.2v-1.4l5.3-.1 5.3-.1v1.4a23843.6 23843.6 0 0 1 .4 56.8 108.7 108.7 0 0 0 16.4.2c1.2-.4 3.5-6.7 4.7-12.3 3.7-18 .7-36.4-7.8-47.7-8.6-11.5-19.5-16.7-36.7-17.6-7.9-.4-18 1.6-24.7 5a46.3 46.3 0 0 0-13.2 9.6c-5 5-7.5 8.9-10.6 16.2a47 47 0 0 0-4 20.7c.1 10.4 1.8 18 5.9 26 7 13.7 20.5 23 36.5 24.8a89.7 89.7 0 0 0 32-2.4c.1 0 .2 2.2.2 4.8 0 4.5 0 4.6-.6 4.8a100.2 100.2 0 0 1-31.8 2zm10.1-37.2c2.6-.7 7.7-3.2 10.3-5l1.8-1.3.2-9.7c.3-12.3.3-23.9 0-25.3-.2-1.3-.7-1.7-4.7-3a30.8 30.8 0 0 0-10.4-1.8c-5.1 0-8.7 1.1-12 3.8-5.5 4.5-8 12.6-7.3 23.4.8 12 4.8 18 13.2 19.5 2 .4 6.6.1 9-.6zM8.2 90a54.9 54.9 0 0 1-6.6-4.4 130 130 0 0 1 14-10.1v9.4c0 7-.1 9.2-.4 9.1l-7-4zm217.2-5.3c0-3.5 0-6.5.2-6.6.3-.2 9.4 6.5 9.5 7a58.5 58.5 0 0 1-9.2 6c-.5.1-.5-.1-.5-6.4zM84 25.5c.1-.3 33-24.3 33.8-24.6.3-.2.7-.2.9-.2.7.3 34 24.6 33.8 24.7-.1.4-68.6.5-68.5.1z"/><path fill="#525f7f" d="M111.3 202.8A57 57 0 0 1 59.5 145a59.5 59.5 0 0 1 65.2-62.8 60 60 0 0 1 22.3 5.6c7.2 3.4 11.7 7 17.3 13.5 5.8 6.9 10 16.9 12 28.4.7 4.6.7 17.8 0 22a63.2 63.2 0 0 1-8.8 22.8l-1.3 2.1h-15.1c-14.1 0-15.2 0-15.4-.5a30 30 0 0 1-1-3.5 16 16 0 0 0-1-3.4c-.2-.3-.8 0-2.6 1.3a28 28 0 0 1-24 6c-8-1.8-14.7-8.6-17.6-18a45.7 45.7 0 0 1-1.9-14.4c0-8 1-12.5 3.9-18.7a28.3 28.3 0 0 1 38.5-13.2l3.1 1.1c.7.2.8.1.9-1.2v-1.4l5.3-.1 5.3-.1v1.4a23843.6 23843.6 0 0 1 .4 56.8 108.7 108.7 0 0 0 16.4.2c1.2-.4 3.5-6.7 4.7-12.3 3.7-18 .7-36.4-7.8-47.7-8.6-11.5-19.5-16.7-36.7-17.6-7.9-.4-18 1.6-24.7 5a46.3 46.3 0 0 0-13.2 9.6c-5 5-7.5 8.9-10.6 16.2a47 47 0 0 0-4 20.7c.1 10.4 1.8 18 5.9 26 7 13.7 20.5 23 36.5 24.8a89.7 89.7 0 0 0 32-2.4c.1 0 .2 2.2.2 4.8 0 4.5 0 4.6-.6 4.8a100.2 100.2 0 0 1-31.8 2zm10.1-37.2c2.6-.7 7.7-3.2 10.3-5l1.8-1.3.2-9.7c.3-12.3.3-23.9 0-25.3-.2-1.3-.7-1.7-4.7-3a30.8 30.8 0 0 0-10.4-1.8c-5.1 0-8.7 1.1-12 3.8-5.5 4.5-8 12.6-7.3 23.4.8 12 4.8 18 13.2 19.5 2 .4 6.6.1 9-.6z" filter="url(#c)"/><path fill="#2dce89" d="M111.3 202.8A57 57 0 0 1 59.5 145a59.5 59.5 0 0 1 65.2-62.8 60 60 0 0 1 22.3 5.6c7.2 3.4 11.7 7 17.3 13.5 5.8 6.9 10 16.9 12 28.4.7 4.6.7 17.8 0 22a63.2 63.2 0 0 1-8.8 22.8l-1.3 2.1h-15.1c-14.1 0-15.2 0-15.4-.5a30 30 0 0 1-1-3.5 16 16 0 0 0-1-3.4c-.2-.3-.8 0-2.6 1.3a28 28 0 0 1-24 6c-8-1.8-14.7-8.6-17.6-18a45.7 45.7 0 0 1-1.9-14.4c0-8 1-12.5 3.9-18.7a28.3 28.3 0 0 1 38.5-13.2l3.1 1.1c.7.2.8.1.9-1.2v-1.4l5.3-.1 5.3-.1v1.4a23843.6 23843.6 0 0 1 .4 56.8 108.7 108.7 0 0 0 16.4.2c1.2-.4 3.5-6.7 4.7-12.3 3.7-18 .7-36.4-7.8-47.7-8.6-11.5-19.5-16.7-36.7-17.6-7.9-.4-18 1.6-24.7 5a46.3 46.3 0 0 0-13.2 9.6c-5 5-7.5 8.9-10.6 16.2a47 47 0 0 0-4 20.7c.1 10.4 1.8 18 5.9 26 7 13.7 20.5 23 36.5 24.8a89.7 89.7 0 0 0 32-2.4c.1 0 .2 2.2.2 4.8 0 4.5 0 4.6-.6 4.8a100.2 100.2 0 0 1-31.8 2zm10.1-37.2c2.6-.7 7.7-3.2 10.3-5l1.8-1.3.2-9.7c.3-12.3.3-23.9 0-25.3-.2-1.3-.7-1.7-4.7-3a30.8 30.8 0 0 0-10.4-1.8c-5.1 0-8.7 1.1-12 3.8-5.5 4.5-8 12.6-7.3 23.4.8 12 4.8 18 13.2 19.5 2 .4 6.6.1 9-.6z"/></svg>