<?xml version="1.0" encoding="UTF-8" standalone="no"?>
<svg
   xmlns:dc="http://purl.org/dc/elements/1.1/"
   xmlns:cc="http://creativecommons.org/ns#"
   xmlns:rdf="http://www.w3.org/1999/02/22-rdf-syntax-ns#"
   xmlns:svg="http://www.w3.org/2000/svg"
   xmlns="http://www.w3.org/2000/svg"
   xmlns:xlink="http://www.w3.org/1999/xlink"
   xmlns:sodipodi="http://sodipodi.sourceforge.net/DTD/sodipodi-0.dtd"
   xmlns:inkscape="http://www.inkscape.org/namespaces/inkscape"
   width="298.1"
   height="226.8"
   version="1.1"
   id="svg24"
   sodipodi:docname="start_finish_ver2.svg"
   inkscape:version="0.92.2 5c3e80d, 2017-08-06">
  <metadata
     id="metadata28">
    <rdf:RDF>
      <cc:Work
         rdf:about="">
        <dc:format>image/svg+xml</dc:format>
        <dc:type
           rdf:resource="http://purl.org/dc/dcmitype/StillImage" />
        <dc:title />
      </cc:Work>
    </rdf:RDF>
  </metadata>
  <sodipodi:namedview
     pagecolor="#ffffff"
     bordercolor="#666666"
     borderopacity="1"
     objecttolerance="10"
     gridtolerance="10"
     guidetolerance="10"
     inkscape:pageopacity="0"
     inkscape:pageshadow="2"
     inkscape:window-width="2092"
     inkscape:window-height="1339"
     id="namedview26"
     showgrid="false"
     inkscape:zoom="2.0811287"
     inkscape:cx="3.7045598"
     inkscape:cy="91.532575"
     inkscape:window-x="11"
     inkscape:window-y="0"
     inkscape:window-maximized="0"
     inkscape:current-layer="svg24" />
  <defs
     id="defs14">
    <linearGradient
       inkscape:collect="always"
       id="linearGradient842">
      <stop
         style="stop-color:#525f7f;stop-opacity:1;"
         offset="0"
         id="stop838" />
      <stop
         style="stop-color:#525f7f;stop-opacity:0;"
         offset="1"
         id="stop840" />
    </linearGradient>
    <linearGradient
       id="b">
      <stop
         offset="0"
         stop-color="#7089e8"
         id="stop2" />
      <stop
         offset="1"
         stop-color="#7089e8"
         stop-opacity="0"
         id="stop4" />
    </linearGradient>
    <linearGradient
       id="a">
      <stop
         offset="0"
         stop-color="#4400e8"
         id="stop7" />
      <stop
         offset="1"
         stop-color="#4400e8"
         stop-opacity="0"
         id="stop9" />
    </linearGradient>
    <linearGradient
       id="d"
       x1="-983.7"
       x2="143.1"
       y1="1246.7"
       y2="1325.5"
       gradientTransform="translate(1865.8 -689.9)"
       gradientUnits="userSpaceOnUse"
       xlink:href="#a" />
    <linearGradient
       id="c"
       x1="848.6"
       x2="1975.4"
       y1="521.7"
       y2="600.5"
       gradientTransform="translate(.5 10.6)"
       gradientUnits="userSpaceOnUse"
       xlink:href="#b" />
    <linearGradient
       inkscape:collect="always"
       xlink:href="#linearGradient842"
       id="linearGradient844"
       x1="9.4644397"
       y1="109.59909"
       x2="297.68373"
       y2="129.75334"
       gradientUnits="userSpaceOnUse" />
  </defs>
  <path
     fill="url(#c)"
     d="M1492.6 973.7a407 407 0 0 1-179.5-58c-18.7-11.3-46.4-31.4-50.8-36.8-1.9-2.3-1.8-39.2.1-39.2.8 0 5 3.2 9.3 7.1 11.1 10 14.1 12.2 15.9 11.6 1.3-.5 1.5-4.1 1.5-24.4v-23.8l2.2 4c4 7.5 28.8 61.9 28.8 63 0 .8-1 1.6-2.2 1.9-2.2.5-2.2.6-.3 2.7 3.1 3.4 23.7 15.2 42.6 24.4a373.3 373.3 0 0 0 398.3-46.3c9.8-7.8 13-10 13.8-9 .5.8.7 8.8.4 18.7-.6 20.5.6 18.1-16 30a407 407 0 0 1-190.1 72.8 581.6 581.6 0 0 1-74 1.3zm138-84c-8.2-1-25.7-6.5-28.6-8.9l-2-1.6 2.2-8.8c1.2-4.9 2.8-9 3.5-9.4.7-.2 5.3 1 10 2.7 12 4.3 21 6 31.2 6 14.6 0 25.2-4 33.8-12.4 7.1-7.2 9.7-14 9.8-26.6 0-8.8-.2-10-3.2-16.2-5.7-11.6-14-17.6-43.1-31.2-19.3-9-24.8-12.5-32.4-20.4a46.2 46.2 0 0 1-13-40.3c3-20.3 16.4-35.1 38.8-42.6 7.5-2.5 9-2.7 26.5-2.7 15.5 0 20 .4 28 2.2 5.1 1.2 10 2.8 10.7 3.5 1 1 .8 3-1.2 10.1a80 80 0 0 1-2.9 9.3c-.2.3-5.3-.8-11.3-2.3a82.2 82.2 0 0 0-40.9-.6c-14.3 4.4-23 13.9-24.2 26.2-.7 7.9.2 11.9 4 17.5 4.7 7.2 13.1 12.8 34.6 23.2 10.7 5.2 22 11 25 13 12.6 8 23 21.1 26.6 33.3 2 7 2 23.4 0 32-4.7 20.1-23.2 37.6-46 43.6-7.2 1.9-26.4 2.6-36 1.4zm-747-5.2c-.3-1.3-.5-47.5-.3-102.8l.3-100.5h109l.3 8.9c.2 5.6-.2 9.3-1 10.2-.9 1.2-8.2 1.4-42.3 1.4-36.8 0-41.4.2-42 1.6-.3.9-.5 15.5-.5 32.4 0 24.5.2 31 1.3 31.9 1 .8 13.2 1.2 38.8 1.4l37.4.2v20l-38 .3c-28.8.2-38.1.6-38.7 1.5-.4.7-.8 22.5-.8 48.5v47.2h-11.5c-11 0-11.5 0-12-2.2zm185 1c-.4-.8-.5-5.4-.3-10.3l.3-9 17.2-.2 17.3-.3v-164h-16c-8.7 0-16.6-.2-17.4-.6-1.3-.5-1.6-2.4-1.6-10.5v-9.9h31.7c17.5 0 32.4-.4 33-.8 1.1-.7.9-2.8-1-10.8a449 449 0 0 1-3.7-15.6c-1.3-6.4-1.5-6.6-11-7l-5.5-.3-.8-69c-.4-38-.5-69.5-.2-70.2.3-1 5-1.3 19-1.3 11 0 19.4-.4 20.5-1 1.7-.9 2-2.1 2-8.3 0-4.3-.5-7.8-1.2-8.5-1.3-1.2-41-1.8-44.2-.6-1.5.6-1.6 9.6-1.6 91.8 0 69.6-.3 91.5-1.2 92.4-.9.9-6 1.2-16.4 1.2h-15.1l-.6-16.7c-.3-9.2-.3-50 0-90.8.5-58.2.3-74.5-.7-76.3l-1.2-2.4-29.7.4c-16.3.1-30.2 0-30.9-.5-1.6-1-1.7-16.2-.1-17.2.6-.4 32.2-.6 70.2-.5 60 .1 69.4 0 71.2-1.4 1.6-1.2 1.8-1.8.9-3.3-1-1.7-4-1.8-47.7-2l-46.6-.3-.3-20.2c-.2-11.2 0-21.3.4-22.5l.7-2.3h93.1l1.7-4.2c1-2.4 4.9-10.8 8.8-18.8a381 381 0 0 1 76.4-106 375.2 375.2 0 0 1 45.7-39.6c1.8-1 1.9-2.6 2-31.8.1-16.8.4-31.3.8-32.1.4-1.3 9.8-1.5 68.6-1.5 64.5 0 68.3 0 73.8-1.9a390 390 0 0 1 170.6-4c14.7 2.8 16.5 3.4 15.3 4.5-.3.4-22.2.6-48.6.5-34.2-.1-48.7.2-50.2 1l-2.1 1.1.7 114.4.8 114.4H1286V349c0-36-.4-64.4-1-65.2-1.2-2-3.1-.6-17.1 12.2a377 377 0 0 0-65.6 81 266 266 0 0 0-19.3 37.8c0 1.9 1.5 2 50.7 2.2l50.8.2.6 26.5.7 26.5 26.6 81.5 29.2 89.3 2.5 7.7 14.7.3 14.7.2.3 11.2c.3 11.5 1.3 14.3 4.7 13 1.3-.5 1.5-12.4 1.5-102 0-80 .2-101.6 1.2-102.3.8-.6 17.7-.7 42.3-.3 45.3.7 46.6.8 60.3 7.5 17.4 8.5 26.7 24.5 26.4 45.4a50.1 50.1 0 0 1-13.3 34.5 70.5 70.5 0 0 1-24.4 15.5 27.4 27.4 0 0 0-7 3c-.9 1.4 47.4 73.2 49.5 73.8 1.2.3 2 1.3 2 2.7 0 1.2 2.5 6.1 5.6 11a32 32 0 0 1 5 9.3c-.4.3-2.8.9-5.4 1.2-4.1.5-4.8.8-5 3-.2 1.7.5 3.3 1.7 4.5 1.8 1.6 2 3 2 10.5 0 5.4-.4 9-1.1 9.8-.9.9-6 1.2-17 1.2H1487l.2 81.8.3 81.7 16.5.5 16.5.5v20h-93l-.4-2.5c-.7-5-.5-5-31.2-5h-29v-98.3c0-79-.2-98.6-1.2-100-.9-1.2-2.3-1.7-4.3-1.5l-3 .3-.4 103.5-.5 103.5-12.6.3c-9.3.2-13 0-13.7-1-.5-.7-16.8-36.1-36.2-78.8-19.3-42.6-35.6-77.9-36-78.4-.7-.6-1 28-1 77.2 0 43-.3 78.8-.6 79.7-1 2.3-23 2.3-23.8 0-.8-2.1-.8-200.8 0-202.9.5-1.3 2.6-1.6 13.4-1.6 9 0 13 .4 13.7 1.3.5.7 16.7 35.4 35.8 77 19.2 41.7 35.5 76.6 36.2 77.5 1.2 1.5 1.3 1 1-3.8-.5-4.4-4.7-14.6-22.6-54l-22-48.5-.1-38.5V651c0-2.1.4-2.3 6.4-2.3 7.6 0 7.5-.1 12 14 1.6 4.7 3.5 9.3 4.4 10.3 1.8 2.1 4 2.2 4.8.2.6-1.6-20.1-69-21.9-71.2-.7-1-7.7-1.3-28.8-1.3-27.2 0-27.9 0-29 2.1-2.5 4.8-1.8 5 25 5h25.1l-.3 19.2-.2 19.2-31 .3a199 199 0 0 0-32.2 1.4c-.7.6-3 6-4.9 12.2-2 6.1-4.1 11.5-4.8 11.9-1.8 1.1-31.4.9-32.1-.3-.4-.6.7-5.3 2.5-10.5 4.8-14.4 5.2-14-11.3-14.2-12.1-.3-13.8-.1-14.4 1.4-.8 2 3.7 21 8.7 36.3a379 379 0 0 0 56.1 108.8l7 9.3-.4 21.7c-.1 13-.6 21.7-1.2 21.7-2.8 0-31-35.2-43.8-55a437.7 437.7 0 0 1-39.8-79l-3.7-10-6.6-.3-6.6-.3v164l16.7.4 16.8.2v20l-46.3.3c-38 .2-46.4 0-46.8-1zm420.5-214c0-.5-13.2-21.5-29.3-46.4l-29.2-45.4H1414v69h25.9c14.2 0 26.6.3 27.5.6 1.3.5 5.1 6.3 14.2 21.2 1.5 2.4 7.4 3.3 7.4 1zm-202-92.9c0-1.9-7-24.4-16.7-54.1-2-6-3.9-10.8-4.4-10.8-.5 0-1.4 1.9-2 4.1-1.6 5-1.3 6.5 7 34.8 5.2 17.4 6 21.5 5 22.2-.8.5-7.8 1-15.6 1-14.2 0-16.1.4-15 3.5.5 1.2 4.1 1.4 21.1 1.4 20.3 0 20.6 0 20.6-2zm162.4-21.8c17.7-6.2 26.6-17.8 26.6-34.6 0-13.2-5.4-23-15.4-28-9.2-4.4-14.9-5.4-31.4-5.5h-15.2v35c0 27 .3 35 1.2 35.4.7.4 7.3.4 14.8.2a62 62 0 0 0 19.4-2.5zm326.3 328.7c-.2-.7-.2-47 0-103l.5-101.8h11.3c9.3 0 11.4.3 11.9 1.6.3.9.6 19.3.6 41v39.4l2.5.6c1.7.5 53.3 0 66.7-.5.4 0 .9-18.4 1-40.8l.3-40.8 9.4-.8c5.1-.4 10.4-.5 11.7-.2l2.4.6-.3 102.7-.2 102.7h-23l-.3-50.7-.2-50.8h-70v17.1c0 13.2.3 17 1.2 16.7.7-.2 5.6-5.8 11-12.3a921 921 0 0 1 12.2-14.7l2.4-2.8 16.3.3c14.9.2 16.4.4 16.4 2 0 2.3-15.3 23.7-26.7 37.4-5 6-14.3 16.5-20.9 23.5l-12 12.7v9.5c0 5.2-.2 10.2-.5 11-.5 1.4-2.6 1.6-12 1.6-8 0-11.3-.3-11.7-1.2zm-280-28.4c-.4-.4-.7-33.7-.7-74v-73.4h23v21.4l.6 74 .7 52.6h-11.5c-6.3 0-11.8-.3-12.2-.6zm350.3-97.8c0-.9 2.2-5.7 5-10.7 2.8-5 6.9-13 9-17.7 2.7-5.7 4.3-8.2 5-7.5.6.6 1 7.9.7 19l-.2 17.8-9.8.3c-8.2.3-9.7 0-9.7-1.2zm51.6-46.6c-.4-.8-.7-9.1-.9-18.5l-.2-17-6.8-.3c-4.5-.2-7-.7-7.3-1.6a63 63 0 0 1 2.5-13 362.5 362.5 0 0 0 11.2-92.6c0-51-8.6-95.3-27.6-142l-5.4-13.5-57.5-.5c-31.6-.2-57.7-.7-58-1-.2-.2-.6-51.5-1-113.9l-.5-113.4 114.1.7c89.2.5 114.3 1 115 1.9.4.7.6 51.6.5 113.2l-.2 112-40.8.3c-32.9.2-40.7.5-40.7 1.6 0 .7 1.1 4 2.5 7.5a436.2 436.2 0 0 1 26.1 102.6c2.3 17.5 2.6 72.8.6 89.5a445 445 0 0 1-18 82.3c-4.8 14.6-6.7 18.4-7.6 15.7zM877 675.1c-10.7-2-26-7.9-26-10 0-3.7 4.3-18.4 5.4-18.4.7 0 2.7.5 4.4 1.1 2.3.8 3.6.8 4.5.1.9-.8 3.7-.1 10.2 2.3 5 1.9 12.7 4.1 17.3 5 7.8 1.6 8.9 1.6 15 .1 18.3-4.5 28.8-14.1 32-29.4a36.9 36.9 0 0 0-14.3-38.9c-3.3-2.5-16-9.4-28-15.3a263 263 0 0 1-28.1-15.3 48.9 48.9 0 0 1 8.9-84.6c12.5-6.3 19.5-7.3 43.2-6.8 15.7.4 22.1 1 30 2.7a60.4 60.4 0 0 1 10.9 3c.8.9-3 16.8-4.3 18.3-.4.4-2.2.3-4-.2-2.2-.7-3.9-.6-5 .1-1.4.8-4.5.4-13-1.7-19-4.7-33.5-2.4-44.1 7.2-6.8 6.1-9.2 11-9.8 20-.4 6.4-.2 8 2.2 12.8 4.7 9.5 11.3 14.4 35.6 26.3 11.8 5.8 24 12.2 27.2 14.4a61.3 61.3 0 0 1 24.4 31.3c2.2 7.2 2.4 22.3.5 30.5a60 60 0 0 1-41.6 42.8c-7.6 2.5-9.2 2.6-29.5 2.8-11.9.1-22.7 0-24-.2zm729.6-19.6c-.3-9.5-.6-51.1-.6-92.5v-75.2l-2.4-.6a371 371 0 0 0-28.5-.3c-19.6.2-26.3.7-27.3 1.6-2.6 2.7 1.8 3.2 25.8 3.2h24.2l.6 12.3c.4 6.7.6 42 .4 78.2l-.3 66-39.8.3-39.7.3V545a6411 6411 0 0 0-.6-123.8l.6-2.5h225.7l.6 24.2c.4 13.3.7 64.8.7 114.5v90.3h-51.4c-28.3 0-52.2.3-53 .6-1.3.5-1.6 2.5-1.6 11.3 0 7-.4 11.1-1.2 12-.9.8-6 1.1-16.4 1.1h-15.1l-.7-17.2zm76-165.4c.4-.8 0-2-.7-2.5-.8-.4-10-.8-20.4-.8-10.5 0-19.7.4-20.4.8-.8.5-1.1 1.7-.8 2.5.5 1.4 3.2 1.6 21.2 1.6s20.6-.2 21.2-1.6zm-625.6 79.7v-77h9l-.3 76.7-.2 76.7-4.3.3-4.2.3z"
     transform="matrix(.25579 0 0 .27124 -215.8 -44)"
     id="path16"
     style="fill:#d3d3d3;fill-opacity:1" />
  <path
     d="m 170.30344,219.74127 a 104.10653,110.39468 0 0 1 -45.9143,-15.73192 c -4.78328,-3.06501 -11.84308,-8.51694 -12.96856,-9.98163 -0.486,-0.62386 -0.46042,-10.60549 0.0256,-10.60549 0.20464,0 1.27895,0.84085 2.37885,1.89868 2.81369,2.7124 3.60664,3.33625 4.04148,3.14639 0.33253,-0.13562 0.38369,-1.11209 0.40927,-6.61826 v -6.42839 l 0.53716,1.08496 c 1.02316,2.0343 7.36675,16.76263 7.36675,17.08812 0,0.18987 -0.25579,0.40686 -0.56274,0.48823 -0.53716,0.16275 -0.53716,0.16275 -0.0512,0.73235 0.76737,0.92222 6.06222,4.12285 10.89666,6.61826 A 95.486407,101.25389 0 0 0 238.318,188.90128 c 2.50675,-2.1428 3.37643,-2.7124 3.55548,-2.44116 0.1279,0.18987 0.17906,2.35979 0.10232,5.04506 -0.17905,5.56042 0.15347,4.90945 -4.09264,8.1372 a 104.10653,110.39468 0 0 1 -48.62568,19.74628 148.76746,157.75318 0 0 1 -18.92846,0.35261 z m 35.29902,-22.78416 c -2.0719,-0.27124 -6.5738,-1.76306 -7.31559,-2.38691 l -0.51158,-0.46111 0.56274,-2.38691 c 0.30695,-1.32908 0.71621,-2.44116 0.92084,-2.52254 0.17905,-0.0814 1.33011,0.24412 2.5579,0.70523 3.06948,1.16633 5.34601,1.62744 7.98065,1.62744 3.73453,0 6.44591,-1.05784 8.62012,-3.36338 1.84169,-1.9258 2.48117,-3.79736 2.50674,-7.21498 0.0256,-2.38691 -0.0256,-2.7124 -0.79295,-4.39409 -1.48358,-3.14638 -3.60663,-4.77382 -11.02454,-8.46269 -4.93675,-2.44116 -6.36917,-3.3905 -8.2876,-5.50617 a 11.817498,12.531288 0 0 1 -3.32527,-10.93097 c 0.74179,-5.50617 4.19496,-9.54765 9.89907,-11.58195 1.94401,-0.6781 2.32769,-0.73235 6.77844,-0.73235 3.99032,0 5.1158,0.1085 7.16212,0.59673 1.33011,0.35261 2.5579,0.75947 2.73695,0.94934 0.25579,0.27124 0.23021,0.81372 -0.28137,2.73952 a 20.4632,21.6992 0 0 1 -0.74179,2.52254 c -0.0767,0.0814 -1.38127,-0.18987 -2.89043,-0.59673 a 21.025938,22.295928 0 0 0 -10.46181,-0.18987 c -3.65779,1.19346 -5.88317,3.77024 -6.19012,7.10649 -0.17905,2.14279 0.0512,3.22775 1.02317,4.7467 1.20221,1.95293 3.35084,3.47187 8.85033,6.31989 2.73695,1.38332 5.6018,2.98364 6.39475,3.52612 3.22295,2.16992 5.88317,5.69604 6.80401,9.00517 0.51158,1.89868 0.51158,6.34701 0,8.67968 -1.22779,5.45192 -5.93433,10.19862 -11.76634,11.82606 -1.86726,0.54248 -6.75285,0.73235 -9.20844,0.37974 z M 14.527333,195.54666 c -0.07674,-0.32549 -0.102316,-12.8839 -0.05116,-27.85635 l 0.05116,-27.25962 h 27.88111 l 0.07674,2.38691 c 0.05116,1.54607 -0.02558,2.54966 -0.204632,2.76665 -0.25579,0.32549 -2.123057,0.40686 -10.871075,0.40686 -9.387493,0 -10.564127,0.0271 -10.717601,0.40686 -0.07674,0.24412 -0.153474,4.20422 -0.153474,8.78818 0,6.64538 0.07674,8.40844 0.358106,8.67968 0.230211,0.18987 3.350849,0.29836 9.899073,0.35261 l 9.566546,0.0814 v 5.4248 l -9.72002,0.0542 c -7.341173,0.0542 -9.72002,0.16274 -9.873494,0.40686 -0.127895,0.18987 -0.204632,6.1029 -0.204632,13.15514 v 12.82965 h -2.941585 c -2.839269,0 -2.941585,-0.0271 -3.06948,-0.62385 z m 47.32115,0.27124 c -0.07674,-0.21699 -0.102316,-1.4647 -0.07674,-2.79377 l 0.07674,-2.44116 4.425167,-0.0542 4.399588,-0.0814 v -44.48336 h -4.067061 c -2.225373,0 -4.246114,-0.0542 -4.476325,-0.16275 -0.332527,-0.13562 -0.409264,-0.65097 -0.409264,-2.84802 v -2.65815 h 8.134122 c 4.476325,0 8.262017,-0.13562 8.44107,-0.27124 0.281369,-0.16274 0.230211,-0.73235 -0.281369,-2.87514 a 114.84971,121.78676 0 0 1 -0.920844,-4.25847 c -0.332527,-1.73594 -0.383685,-1.76306 -2.81369,-1.89868 L 72.847453,130.93736 72.6684,112.2218 c -0.102316,-10.30712 -0.127895,-18.878302 -0.07674,-19.06817 0.102316,-0.27124 1.304529,-0.325488 4.86001,-0.325488 2.81369,0 4.987905,-0.13562 5.269274,-0.27124 0.409264,-0.27124 0.51158,-0.596728 0.51158,-2.278416 C 83.232527,89.112084 83.104632,88.189868 82.9,88 82.593052,87.647388 72.41261,87.484644 71.594082,87.837256 c -0.358106,0.13562 -0.409264,2.57678 -0.409264,24.899834 0,18.8783 -0.05116,24.79133 -0.306948,25.06257 -0.204632,0.217 -1.509161,0.32549 -4.169377,0.32549 h -3.888008 l -0.153474,-4.55683 c -0.07674,-2.49541 -0.07674,-13.562 0,-24.62859 0.127895,-15.78617 0.102316,-20.207382 -0.153474,-20.695614 l -0.306948,-0.623852 -7.596963,0.08137 c -4.169377,0.05425 -7.724858,0 -7.92949,-0.13562 -0.383685,-0.27124 -0.409264,-4.394088 0,-4.665328 0.127895,-0.108496 8.210859,-0.162744 17.956458,-0.13562 15.321821,0.02712 17.751826,0 18.186669,-0.352612 0.409264,-0.325488 0.460422,-0.515356 0.25579,-0.895092 C 82.797684,81.056256 82.055893,81.002008 70.87787,80.94776 L 58.958056,80.866388 58.85574,75.38734 c -0.02558,-3.010764 0,-5.777412 0.102316,-6.1029 l 0.204632,-0.596728 h 23.814049 l 0.409264,-1.166332 c 0.25579,-0.623852 1.27895,-2.929392 2.276531,-5.072188 A 97.45599,103.34244 0 0 1 105.20489,33.670628 95.972408,101.76925 0 0 1 116.86891,22.929524 c 0.46042,-0.27124 0.51158,-0.705224 0.53716,-8.598308 0,-4.61108 0.10232,-8.516936 0.17905,-8.733928 0.1279,-0.352612 2.50675,-0.379736 17.5472,-0.379736 16.49845,0 17.49603,-0.054248 18.8773,-0.54248 a 99.7581,105.7836 0 0 1 43.63777,-1.08496 c 3.7857,0.786596 4.22054,0.922216 3.93917,1.247704 -0.10232,0.081372 -5.70412,0.13562 -12.45697,0.108496 -8.74802,-0.027124 -12.4314,0.054248 -12.81508,0.27124 l -0.56274,0.298364 0.20463,31.029856 0.17905,31.05698 H 117.48281 V 50.29764 c 0,-9.76464 -0.10232,-17.467856 -0.23021,-17.684848 -0.30695,-0.54248 -0.81853,-0.162744 -4.37401,3.309128 A 96.43283,102.25748 0 0 0 96.098764,57.89236 68.04014,72.14984 0 0 0 91.136438,68.145232 c 0,0.515356 0.409264,0.54248 12.994132,0.596728 l 12.96855,0.08137 0.17906,7.18786 0.15347,7.18786 6.82959,22.10606 7.46907,24.19461 0.63948,2.08855 3.76011,0.0814 3.73453,0.0814 0.0767,3.01077 c 0.0767,3.11926 0.33253,3.87873 1.20221,3.52612 0.35811,-0.13562 0.38369,-3.36338 0.38369,-27.66648 0,-21.699206 0.0767,-27.55799 0.33252,-27.747858 0.17906,-0.162744 4.52749,-0.189868 10.79434,-0.08137 11.61287,0.189868 11.9454,0.244116 15.42414,2.0343 4.47632,2.332664 6.85517,6.64538 6.77843,12.34142 a 12.815079,13.589124 0 0 1 -3.402,9.330658 18.033195,19.12242 0 0 1 -6.26686,4.20422 7.008646,7.431976 0 0 0 -1.79053,0.81372 c -0.20463,0.40686 12.12445,19.85477 12.68719,20.01751 0.30694,0.0814 0.51158,0.37974 0.51158,0.73235 0,0.32549 0.63947,1.68169 1.43242,2.98364 a 8.18528,8.67968 0 0 1 1.27895,2.52253 c -0.10232,0.1085 -0.74179,0.27124 -1.38127,0.32549 -1.07431,0.13562 -1.22779,0.24411 -1.27895,0.84084 -0.0512,0.43399 0.10232,0.89509 0.43485,1.19346 0.46042,0.43398 0.51158,0.81372 0.51158,2.84802 0,1.46469 -0.10232,2.46828 -0.30695,2.68527 -0.20463,0.217 -1.53474,0.32549 -4.34843,0.32549 h -4.04148 l 0.0767,22.16031 0.0512,22.18743 4.22054,0.13562 4.22053,0.13562 v 5.4248 h -23.78847 l -0.0767,-0.6781 c -0.17906,-1.3562 -0.1279,-1.3562 -8.00623,-1.3562 h -7.39233 v -26.69001 c 0,-21.42796 -0.0512,-26.74427 -0.33253,-27.124 -0.20463,-0.32549 -0.56274,-0.46111 -1.07432,-0.40686 l -0.76737,0.10849 -0.12789,28.07334 -0.1279,28.07334 -3.22295,0.0542 c -2.37885,0.0543 -3.27411,0 -3.47875,-0.27124 -0.15347,-0.18987 -4.32285,-9.79176 -9.25959,-21.34659 -4.93675,-11.58195 -9.10613,-21.15672 -9.23402,-21.29234 -0.15348,-0.16274 -0.25579,7.59472 -0.25579,20.93973 0,11.66332 -0.0512,21.37371 -0.15348,21.61783 -0.23021,0.62385 -5.85759,0.62385 -6.0878,0 -0.17905,-0.56961 -0.17905,-54.46499 0,-55.0346 0.15348,-0.35261 0.69064,-0.40686 3.42759,-0.40686 2.30211,0 3.32527,0.0814 3.5299,0.32549 0.12789,0.18987 4.24611,9.6019 9.15728,20.88548 a 892.7071,946.6276 0 0 0 9.2596,21.04822 c 0.30695,0.37974 0.33253,0.27124 0.23021,-1.03071 -0.10231,-1.22058 -1.17663,-3.9601 -5.75527,-14.64696 l -5.62738,-13.18226 -0.0512,-10.44274 v -11.03947 c 0,-0.5696 0.12789,-0.59673 1.66263,-0.59673 1.94401,0 1.89285,-0.0542 3.06948,3.79736 0.40927,1.24771 0.89527,2.49541 1.0999,2.76665 0.486,0.59673 1.04874,0.62385 1.25337,0.0543 0.15348,-0.40686 -5.14138,-18.71556 -5.62738,-19.31229 -0.17905,-0.27124 -1.96958,-0.32549 -7.34117,-0.32549 -6.95749,0 -7.16212,0 -7.41791,0.54248 -0.66506,1.30195 -0.46042,1.3562 6.39475,1.3562 h 6.39475 l -0.0512,5.20781 -0.0767,5.23493 -7.90391,0.0542 a 50.90221,53.97676 0 0 0 -8.23644,0.37974 c -0.17905,0.16274 -0.76737,1.62744 -1.27895,3.30912 -0.511576,1.65457 -1.023156,3.11926 -1.202209,3.22776 -0.460422,0.29836 -8.031806,0.27124 -8.236438,-0.0814 -0.07674,-0.13562 0.204632,-1.41045 0.639475,-2.8209 1.253371,-3.93298 1.355687,-3.79736 -2.864848,-3.87873 -3.120638,-0.0814 -3.555481,-0.0271 -3.683376,0.37974 -0.230211,0.54248 0.946423,5.69604 2.225373,9.87313 a 96.94441,102.79996 0 0 0 14.349823,29.48379 l 1.76495,2.52253 -0.0767,5.88591 c -0.0512,3.52612 -0.15347,5.91303 -0.30695,5.91303 -0.74179,0 -7.929488,-9.57477 -11.2036,-14.9182 A 111.95928,118.72175 0 0 1 81.416418,148.83913 l -0.972002,-2.7124 -1.688214,-0.0814 -1.688214,-0.0814 v 44.48336 l 4.297272,0.0814 4.271693,0.0814 v 5.4248 l -11.817498,0.0542 c -9.72002,0.0543 -11.868656,0 -11.970972,-0.27124 z M 169.3826,137.77254 c 0,-0.16274 -3.35085,-5.85878 -7.46907,-12.61266 l -7.49465,-12.28717 h -4.22053 v 18.68843 h 6.65054 c 3.63222,0 6.80401,0.0814 7.00865,0.16275 0.33252,0.13562 1.3301,1.70881 3.65779,5.75029 0.38369,0.65097 1.86727,0.89509 1.86727,0.29836 z m -51.66958,-25.22532 c 0,-0.51536 -1.76495,-6.61826 -4.24611,-14.674084 -0.51158,-1.62744 -1.02316,-2.902268 -1.12548,-2.902268 -0.1279,0 -0.35811,0.488232 -0.53716,1.08496 -0.38368,1.3562 -0.30695,1.76306 1.81611,9.439152 1.30453,4.71958 1.53474,5.83166 1.27895,6.02153 -0.20463,0.13562 -1.99516,0.27124 -4.0159,0.27124 -3.60664,0 -4.09264,0.10849 -3.81128,0.94934 0.1279,0.32549 1.02316,0.40686 5.39717,0.40686 5.16696,0 5.2437,0 5.2437,-0.59673 z m 41.56587,-5.91303 c 4.50191,-1.68169 6.77844,-4.82807 6.77844,-9.357782 0,-3.607492 -1.38127,-6.292768 -3.93917,-7.59472 -2.32769,-1.22058 -3.78569,-1.49182 -8.00622,-1.49182 h -3.91359 v 9.466276 c 0,7.323476 0.0767,9.493396 0.33253,9.629016 0.17905,0.0814 1.86726,0.0814 3.76011,0.0271 a 15.85898,16.81688 0 0 0 4.9879,-0.6781 z m 83.48986,89.18371 c -0.0512,-0.18987 -0.0512,-12.74828 0,-27.93772 l 0.12789,-27.58511 h 2.89043 c 2.37885,0 2.89043,0.0542 3.01832,0.40686 0.10232,0.24412 0.15348,5.23493 0.15348,11.12084 v 10.68686 l 0.63947,0.16274 c 0.46042,0.13562 13.65919,0 17.08677,-0.13562 0.10232,0 0.20464,-4.99081 0.25579,-11.06659 l 0.0512,-11.03947 2.40443,-0.24411 c 1.33011,-0.1085 2.68579,-0.13562 3.01832,-0.0542 l 0.58832,0.16274 -0.0512,27.85635 -0.0767,27.88347 h -5.88317 l -0.0512,-13.77899 -0.0767,-13.75187 h -17.9053 v 4.61108 c 0,3.58037 0.0767,4.61108 0.33252,4.52971 0.17906,-0.0542 1.43243,-1.57319 2.81369,-3.33625 1.35569,-1.79019 2.76254,-3.58037 3.09506,-3.98723 l 0.63948,-0.75947 4.16938,0.0814 c 3.78569,0.0542 4.16937,0.1085 4.16937,0.54248 0,0.62385 -3.88801,6.42839 -6.80401,10.14438 -1.27895,1.62744 -3.68338,4.47546 -5.37159,6.37414 l -3.0439,3.44474 v 2.57678 c 0,1.41045 -0.0512,2.76665 -0.15348,2.98364 -0.12789,0.37974 -0.63947,0.46111 -3.0439,0.46111 -2.04632,0 -2.916,-0.10849 -2.99274,-0.35261 z m -71.6212,-7.70322 c -0.12789,-0.10849 -0.20463,-9.14078 -0.20463,-20.07176 v -19.88189 h 5.88317 v 5.77741 c 0,3.17351 0.0767,12.2058 0.17905,20.07176 l 0.17905,14.29435 h -2.94158 c -1.63706,0 -3.01832,-0.0814 -3.12064,-0.18987 z m 89.57766,-26.52727 c 0,-0.24411 0.58832,-1.51894 1.27895,-2.90227 0.74179,-1.3562 1.79053,-3.52612 2.32769,-4.77382 0.69063,-1.57319 1.09989,-2.25129 1.27895,-2.06142 0.15347,0.16274 0.23021,2.14279 0.17905,5.15356 l -0.0767,4.85519 -2.48116,0.0542 c -2.09748,0.0814 -2.50674,0 -2.50674,-0.32549 z m 13.19876,-12.61266 c -0.0767,-0.24411 -0.17905,-2.49541 -0.20463,-5.01794 l -0.0767,-4.61108 -1.73937,-0.0814 c -1.12547,-0.0543 -1.79053,-0.21699 -1.86727,-0.46111 a 16.11477,17.08812 0 0 1 0.66506,-3.49899 92.723875,98.3245 0 0 0 2.86485,-25.11683 c 0,-13.833238 -2.22538,-25.876294 -7.05981,-38.516078 l -1.40684,-3.66174 -14.68235,-0.13562 c -8.08296,-0.08137 -14.75908,-0.216992 -14.83582,-0.27124 -0.0512,-0.08137 -0.15347,-13.995984 -0.25579,-30.92136 l -0.12789,-30.758616 29.18564,0.189868 c 22.81646,0.13562 29.23679,0.27124 29.41584,0.54248 0.10232,0.162744 0.15348,13.995984 0.1279,30.704368 l -0.0767,30.37888 -10.41065,0.05425 c -8.44107,0.05425 -10.43623,0.13562 -10.43623,0.433984 0,0.189868 0.30695,1.112084 0.66505,2.0343 a 111.5756,118.31489 0 0 1 6.67612,27.856348 c 0.58832,4.719576 0.66506,19.746266 0.1279,24.275976 a 113.82655,120.7018 0 0 1 -4.57865,22.29593 c -1.22779,3.9601 -1.71379,4.99082 -1.96958,4.28559 z M 12.864698,138.749 c -2.711374,-0.54248 -6.65054,-2.14279 -6.65054,-2.7124 0,-1.00358 1.125476,-4.96369 1.406845,-4.96369 0.179053,0 0.690633,0.1085 1.125476,0.27124 0.562738,0.21699 0.920844,0.21699 1.125476,0.0271 0.25579,-0.18987 0.972002,0 2.634637,0.62385 1.253371,0.51535 3.248533,1.13921 4.425167,1.3562 1.995162,0.46111 2.276531,0.46111 3.83685,0.0542 4.655378,-1.24771 7.366752,-3.85161 8.18528,-7.97446 a 9.438651,10.008756 0 0 0 -3.683376,-10.57836 c -0.844107,-0.6781 -4.067061,-2.54966 -7.16212,-4.14997 a 67.27277,71.33612 0 0 1 -7.16212,-4.14997 12.508131,13.263636 0 0 1 2.276531,-22.946908 c 3.197375,-1.681688 4.987905,-1.980052 11.024549,-1.844432 4.015903,0.108496 5.678538,0.27124 7.6737,0.732348 a 15.424137,16.355772 0 0 1 2.81369,0.81372 c 0.204632,0.244116 -0.76737,4.556832 -1.099897,4.963692 -0.102316,0.108496 -0.562738,0.08137 -1.02316,-0.05425 -0.588317,-0.162744 -0.997581,-0.162744 -1.27895,0.02712 -0.358106,0.244116 -1.151055,0.13562 -3.32527,-0.433984 -4.86001,-1.301952 -8.568965,-0.650976 -11.305918,1.925804 -1.713793,1.654564 -2.353268,2.98364 -2.481163,5.4248 -0.127895,1.735936 -0.05116,2.16992 0.562738,3.471872 1.176634,2.576778 2.864848,3.905848 9.080545,7.133608 3.043901,1.57319 6.164539,3.33625 6.957488,3.90586 a 15.679927,16.627012 0 0 1 6.266855,8.51693 c 0.537159,1.92581 0.613896,6.04865 0.102316,8.27282 a 15.3474,16.2744 0 0 1 -10.640864,11.58195 c -1.918425,0.6781 -2.327689,0.73235 -7.545805,0.7866 -3.018322,0 -5.780854,0 -6.13896,-0.0814 z m 186.649962,-5.3163 c -0.10231,-2.57678 -0.17905,-13.86036 -0.17905,-25.0897 V 87.945752 l -0.6139,-0.162744 a 94.89809,100.63004 0 0 0 -7.26443,-0.08137 c -5.01349,0.08137 -6.75286,0.189868 -7.00865,0.433984 -0.66505,0.732348 0.486,0.867968 6.62496,0.867968 h 6.16454 l 0.17905,3.336252 c 0.10232,1.817308 0.1279,11.392078 0.0767,21.238088 l -0.0767,17.90184 -10.15486,0.0542 -10.18044,0.0814 v -28.15471 a 1639.8697,1738.9196 0 0 0 -0.1279,-33.552386 l 0.15348,-0.6781 h 57.70622 l 0.17905,6.536884 c 0.0767,3.607492 0.15348,17.576352 0.15348,31.056982 v 24.52009 H 221.9986 c -7.23886,0 -13.32666,0.0542 -13.55687,0.16275 -0.33253,0.13562 -0.40926,0.65097 -0.40926,3.06501 0,1.89868 -0.10232,2.98364 -0.30695,3.22775 -0.20463,0.217 -1.50916,0.32549 -4.16938,0.32549 h -3.86243 z M 218.9547,88.569604 c 0.10232,-0.216992 0,-0.54248 -0.20463,-0.650976 -0.17905,-0.13562 -2.5579,-0.27124 -5.21812,-0.27124 -2.66021,0 -5.01348,0.13562 -5.21811,0.27124 -0.17906,0.13562 -0.25579,0.433984 -0.17906,0.650976 0.1279,0.379736 0.81853,0.461108 5.39717,0.461108 4.60422,0 5.29486,-0.08137 5.42275,-0.461108 z M 58.906898,110.18743 V 89.301952 h 2.327689 l -0.07674,20.804108 -0.07674,20.83123 -1.074318,0.0814 -1.099897,0.0814 z"
     id="path18"
     style="opacity:0.41499999;fill:#f1fcf7;fill-opacity:1;stroke-width:0.26340175"
     inkscape:connector-curvature="0" />
  <path
     style="opacity:0.591;fill:url(#linearGradient844);fill-opacity:1;stroke-width:0.26340175"
     id="path823"
     d="m 174.05388,228.69224 a 104.10653,110.39468 0 0 1 -45.91431,-15.73192 c -4.78327,-3.06501 -11.84308,-8.51694 -12.96855,-9.98163 -0.486,-0.62386 -0.46042,-10.60549 0.0256,-10.60549 0.20463,0 1.27895,0.84085 2.37884,1.89868 2.81369,2.7124 3.60664,3.33625 4.04149,3.14639 0.33252,-0.13562 0.38368,-1.11209 0.40926,-6.61826 v -6.42839 l 0.53716,1.08496 c 1.02316,2.0343 7.36675,16.76263 7.36675,17.08812 0,0.18987 -0.25579,0.40686 -0.56274,0.48823 -0.53716,0.16275 -0.53716,0.16275 -0.0512,0.73235 0.76737,0.92222 6.06223,4.12285 10.89666,6.61826 a 95.486407,101.25389 0 0 0 101.85558,-12.53129 c 2.50674,-2.1428 3.37642,-2.7124 3.55548,-2.44116 0.12789,0.18987 0.17905,2.35979 0.10231,5.04506 -0.17905,5.56042 0.15348,4.90945 -4.09264,8.1372 a 104.10653,110.39468 0 0 1 -48.62568,19.74628 148.76746,157.75318 0 0 1 -18.92846,0.35261 z m 35.29902,-22.78416 c -2.0719,-0.27124 -6.57381,-1.76306 -7.3156,-2.38691 l -0.51158,-0.46111 0.56274,-2.38691 c 0.30695,-1.32908 0.71621,-2.44116 0.92084,-2.52254 0.17906,-0.0814 1.33011,0.24412 2.5579,0.70523 3.06948,1.16633 5.34602,1.62744 7.98065,1.62744 3.73454,0 6.44591,-1.05784 8.62013,-3.36338 1.84168,-1.9258 2.48116,-3.79736 2.50674,-7.21498 0.0256,-2.38691 -0.0256,-2.7124 -0.79295,-4.39409 -1.48358,-3.14638 -3.60664,-4.77382 -11.02455,-8.46269 -4.93675,-2.44116 -6.36917,-3.3905 -8.2876,-5.50617 A 11.817498,12.531288 0 0 1 201.24435,160.611 c 0.74179,-5.50617 4.19496,-9.54765 9.89908,-11.58195 1.944,-0.6781 2.32769,-0.73235 6.77843,-0.73235 3.99033,0 5.1158,0.1085 7.16212,0.59673 1.33011,0.35261 2.5579,0.75947 2.73695,0.94934 0.25579,0.27124 0.23022,0.81372 -0.28136,2.73952 a 20.4632,21.6992 0 0 1 -0.7418,2.52254 c -0.0767,0.0814 -1.38126,-0.18987 -2.89042,-0.59673 a 21.025938,22.295928 0 0 0 -10.46181,-0.18987 c -3.6578,1.19346 -5.88317,3.77024 -6.19012,7.10649 -0.17906,2.14279 0.0512,3.22775 1.02316,4.7467 1.20221,1.95293 3.35085,3.47187 8.85033,6.31989 2.73696,1.38332 5.6018,2.98364 6.39475,3.52612 3.22296,2.16992 5.88317,5.69604 6.80402,9.00517 0.51158,1.89868 0.51158,6.34701 0,8.67968 -1.2278,5.45192 -5.93433,10.19862 -11.76634,11.82606 -1.86727,0.54248 -6.75286,0.73235 -9.20844,0.37974 z M 18.277766,204.49763 c -0.07674,-0.32549 -0.102316,-12.8839 -0.05116,-27.85635 l 0.05116,-27.25962 h 27.88111 l 0.07674,2.38691 c 0.05116,1.54607 -0.02558,2.54966 -0.204632,2.76665 -0.25579,0.32549 -2.123057,0.40686 -10.871075,0.40686 -9.387493,0 -10.564127,0.0271 -10.717601,0.40686 -0.07674,0.24412 -0.153474,4.20422 -0.153474,8.78818 0,6.64538 0.07674,8.40844 0.358106,8.67968 0.230211,0.18987 3.350849,0.29836 9.899073,0.35261 l 9.566546,0.0814 v 5.4248 l -9.72002,0.0542 c -7.341173,0.0542 -9.72002,0.16274 -9.873494,0.40686 -0.127895,0.18987 -0.204632,6.1029 -0.204632,13.15514 v 12.82965 h -2.941585 c -2.839269,0 -2.941585,-0.0271 -3.06948,-0.62385 z m 47.32115,0.27124 c -0.07674,-0.21699 -0.102316,-1.4647 -0.07674,-2.79377 l 0.07674,-2.44116 4.425167,-0.0542 4.399588,-0.0814 V 154.91496 H 70.35661 c -2.225373,0 -4.246114,-0.0542 -4.476325,-0.16275 -0.332527,-0.13562 -0.409264,-0.65097 -0.409264,-2.84802 v -2.65815 h 8.134122 c 4.476325,0 8.262017,-0.13562 8.44107,-0.27124 0.281369,-0.16274 0.230211,-0.73235 -0.281369,-2.87514 A 114.84971,121.78676 0 0 1 80.844,141.84119 c -0.332527,-1.73594 -0.383685,-1.76306 -2.81369,-1.89868 l -1.432424,-0.0542 -0.179053,-18.71556 c -0.102316,-10.30712 -0.127895,-18.8783 -0.07674,-19.06817 0.102316,-0.27124 1.304529,-0.32549 4.86001,-0.32549 2.81369,0 4.987907,-0.13562 5.269277,-0.27124 0.40926,-0.27124 0.51158,-0.59673 0.51158,-2.27841 0,-1.16634 -0.12789,-2.08855 -0.33253,-2.27842 -0.30694,-0.35261 -10.48739,-0.51536 -11.305918,-0.16274 -0.358106,0.13562 -0.409264,2.57678 -0.409264,24.89983 0,18.8783 -0.05116,24.79133 -0.306948,25.06257 -0.204632,0.217 -1.509161,0.32549 -4.169377,0.32549 h -3.888005 l -0.153474,-4.55688 c -0.07674,-2.49541 -0.07674,-13.562 0,-24.62859 0.127895,-15.78617 0.102316,-20.20738 -0.153474,-20.69561 l -0.306948,-0.62386 -7.596963,0.0814 c -4.169377,0.0542 -7.724858,0 -7.92949,-0.13562 -0.383685,-0.27124 -0.409264,-4.39409 0,-4.66533 0.127895,-0.1085 8.210859,-0.16275 17.956458,-0.13562 15.321821,0.0271 17.751823,0 18.186673,-0.35261 0.40926,-0.32549 0.46042,-0.51536 0.25579,-0.8951 -0.28137,-0.4611 -1.023164,-0.51535 -12.201187,-0.5696 L 62.708489,89.817358 62.606173,84.33831 c -0.02558,-3.010764 0,-5.777412 0.102316,-6.1029 l 0.204632,-0.596728 H 86.72717 l 0.40926,-1.166332 c 0.25579,-0.623852 1.27895,-2.929392 2.27654,-5.072188 a 97.45599,103.34244 0 0 1 19.54235,-28.778564 95.972408,101.76925 0 0 1 11.66402,-10.741104 c 0.46043,-0.27124 0.51159,-0.705224 0.53716,-8.598308 0,-4.61108 0.10232,-8.516936 0.17906,-8.733928 0.12789,-0.352612 2.50674,-0.379736 17.54719,-0.379736 16.49846,0 17.49604,-0.05425 18.8773,-0.54248 a 99.7581,105.7836 0 0 1 43.63778,-1.08496 c 3.78569,0.786596 4.22053,0.922216 3.93916,1.247704 -0.10231,0.08137 -5.70411,0.13562 -12.45697,0.108496 -8.74802,-0.02712 -12.43139,0.05425 -12.81508,0.27124 l -0.56274,0.298364 0.20463,31.029856 0.17906,31.05698 H 121.23324 V 59.24861 c 0,-9.76464 -0.10232,-17.467856 -0.23021,-17.684848 -0.30695,-0.54248 -0.81853,-0.162744 -4.37401,3.309128 A 96.43283,102.25748 0 0 0 99.8492,66.84333 68.04014,72.14984 0 0 0 94.88687,77.096202 c 0,0.515356 0.40926,0.54248 12.99413,0.596728 l 12.96856,0.08137 0.17905,7.18786 0.15347,7.18786 6.8296,22.10606 7.46906,24.19461 0.63948,2.08855 3.76011,0.0814 3.73454,0.0814 0.0767,3.01077 c 0.0767,3.11926 0.33253,3.87873 1.20222,3.52612 0.3581,-0.13562 0.38368,-3.36338 0.38368,-27.66648 0,-21.6992 0.0767,-27.55799 0.33253,-27.74786 0.17905,-0.16274 4.52748,-0.18986 10.79434,-0.0814 11.61286,0.18987 11.94539,0.24412 15.42413,2.0343 4.47633,2.33267 6.85517,6.64538 6.77844,12.34142 a 12.815079,13.589124 0 0 1 -3.40201,9.33066 18.033195,19.12242 0 0 1 -6.26685,4.20422 7.008646,7.431976 0 0 0 -1.79053,0.81372 c -0.20464,0.40686 12.12444,19.85477 12.68718,20.01751 0.30695,0.0814 0.51158,0.37974 0.51158,0.73235 0,0.32549 0.63947,1.68169 1.43242,2.98364 a 8.18528,8.67968 0 0 1 1.27895,2.52253 c -0.10231,0.1085 -0.74179,0.27124 -1.38126,0.32549 -1.07432,0.13562 -1.22779,0.24411 -1.27895,0.84084 -0.0512,0.43399 0.10231,0.89509 0.43484,1.19346 0.46042,0.43398 0.51158,0.81372 0.51158,2.84802 0,1.46469 -0.10232,2.46828 -0.30695,2.68527 -0.20463,0.217 -1.53474,0.32549 -4.34843,0.32549 H 172.647 l 0.0767,22.16031 0.0512,22.18743 4.22053,0.13562 4.22054,0.13562 v 5.4248 H 157.4275 l -0.0767,-0.6781 c -0.17905,-1.3562 -0.1279,-1.3562 -8.00623,-1.3562 h -7.39233 v -26.69001 c 0,-21.42796 -0.0512,-26.74427 -0.33253,-27.124 -0.20463,-0.32549 -0.56273,-0.46111 -1.07431,-0.40686 l -0.76737,0.10849 -0.1279,28.07334 -0.12789,28.07334 -3.22296,0.0542 c -2.37885,0.0543 -3.27411,0 -3.47874,-0.27124 -0.15348,-0.18987 -4.32285,-9.79176 -9.2596,-21.34659 -4.93675,-11.58195 -9.10612,-21.15672 -9.23402,-21.29234 -0.15347,-0.16274 -0.25579,7.59472 -0.25579,20.93973 0,11.66332 -0.0512,21.37371 -0.15347,21.61783 -0.23021,0.62385 -5.85759,0.62385 -6.0878,0 -0.17906,-0.56961 -0.17906,-54.46499 0,-55.0346 0.15347,-0.35261 0.69063,-0.40686 3.42758,-0.40686 2.30211,0 3.32527,0.0814 3.5299,0.32549 0.1279,0.18987 4.24612,9.6019 9.15729,20.88548 a 892.7071,946.6276 0 0 0 9.25959,21.04822 c 0.30695,0.37974 0.33253,0.27124 0.23021,-1.03071 -0.10231,-1.22058 -1.17663,-3.9601 -5.75527,-14.64696 l -5.62738,-13.18226 -0.0512,-10.44274 v -11.03945 c 0,-0.5696 0.1279,-0.59673 1.66264,-0.59673 1.944,0 1.89284,-0.0542 3.06948,3.79736 0.40926,1.24771 0.89526,2.49541 1.09989,2.76665 0.486,0.59673 1.04874,0.62385 1.25337,0.0543 0.15348,-0.40686 -5.14137,-18.71556 -5.62738,-19.31229 -0.17905,-0.27124 -1.96958,-0.32549 -7.34117,-0.32549 -6.95749,0 -7.16212,0 -7.41791,0.54248 -0.66505,1.30195 -0.46042,1.3562 6.39475,1.3562 h 6.39475 l -0.0512,5.20781 -0.0767,5.23493 -7.90391,0.0542 a 50.90221,53.97676 0 0 0 -8.23644,0.37974 c -0.17906,0.16274 -0.76737,1.62744 -1.27895,3.30912 -0.51158,1.65457 -1.02316,3.11926 -1.20222,3.22776 -0.46042,0.29836 -8.0318,0.27124 -8.23643,-0.0814 -0.0767,-0.13562 0.20463,-1.41045 0.63947,-2.8209 1.25337,-3.93298 1.35569,-3.79736 -2.86485,-3.87873 -3.12064,-0.0814 -3.55548,-0.0271 -3.68337,0.37974 -0.23021,0.54248 0.94642,5.69604 2.22537,9.87313 a 96.94441,102.79996 0 0 0 14.34982,29.48379 l 1.76495,2.52253 -0.0767,5.88591 c -0.0512,3.52612 -0.15347,5.91303 -0.30695,5.91303 -0.74179,0 -7.92949,-9.57477 -11.2036,-14.9182 A 111.95928,118.72175 0 0 1 85.166851,157.7901 l -0.972002,-2.7124 -1.688214,-0.0814 -1.688214,-0.0814 v 44.48336 l 4.297272,0.0814 4.271697,0.0814 v 5.4248 l -11.817502,0.0542 c -9.72002,0.0543 -11.868656,0 -11.970972,-0.27124 z M 173.13303,146.72351 c 0,-0.16274 -3.35085,-5.85878 -7.46907,-12.61266 l -7.49464,-12.28717 h -4.22054 v 18.68843 h 6.65054 c 3.63222,0 6.80402,0.0814 7.00865,0.16275 0.33253,0.13562 1.33011,1.70881 3.6578,5.75029 0.38368,0.65097 1.86726,0.89509 1.86726,0.29836 z m -51.66958,-25.22532 c 0,-0.51536 -1.76495,-6.61826 -4.24611,-14.67408 -0.51158,-1.62744 -1.02316,-2.90227 -1.12548,-2.90227 -0.12789,0 -0.3581,0.48823 -0.53716,1.08496 -0.38368,1.3562 -0.30694,1.76306 1.81611,9.43915 1.30453,4.71958 1.53474,5.83166 1.27895,6.02153 -0.20463,0.13562 -1.99516,0.27124 -4.0159,0.27124 -3.60664,0 -4.09264,0.10849 -3.81127,0.94934 0.12789,0.32549 1.02316,0.40686 5.39717,0.40686 5.16695,0 5.24369,0 5.24369,-0.59673 z m 41.56588,-5.91303 c 4.5019,-1.68169 6.77843,-4.82807 6.77843,-9.35778 0,-3.60749 -1.38126,-6.29277 -3.93916,-7.59472 -2.32769,-1.22058 -3.7857,-1.49182 -8.00623,-1.49182 h -3.91359 v 9.46627 c 0,7.32348 0.0767,9.4934 0.33253,9.62902 0.17905,0.0814 1.86727,0.0814 3.76011,0.0271 a 15.85898,16.81688 0 0 0 4.98791,-0.6781 z m 83.48985,89.18371 c -0.0512,-0.18987 -0.0512,-12.74828 0,-27.93772 l 0.1279,-27.58511 h 2.89043 c 2.37884,0 2.89042,0.0542 3.01832,0.40686 0.10231,0.24412 0.15347,5.23493 0.15347,11.12084 v 10.68686 l 0.63948,0.16274 c 0.46042,0.13562 13.65918,0 17.08677,-0.13562 0.10231,0 0.20463,-4.99081 0.25579,-11.06659 l 0.0512,-11.03947 2.40442,-0.24411 c 1.33011,-0.1085 2.6858,-0.13562 3.01832,-0.0542 l 0.58832,0.16274 -0.0512,27.85635 -0.0767,27.88347 h -5.88317 l -0.0512,-13.77899 -0.0767,-13.75187 h -17.9053 v 4.61108 c 0,3.58037 0.0767,4.61108 0.33253,4.52971 0.17905,-0.0543 1.43242,-1.57319 2.81369,-3.33625 1.35568,-1.79019 2.76253,-3.58037 3.09506,-3.98723 l 0.63947,-0.75947 4.16938,0.0814 c 3.78569,0.0542 4.16938,0.1085 4.16938,0.54248 0,0.62385 -3.88801,6.42839 -6.80402,10.14438 -1.27895,1.62744 -3.68337,4.47546 -5.37159,6.37414 l -3.0439,3.44474 v 2.57678 c 0,1.41045 -0.0512,2.76665 -0.15347,2.98364 -0.1279,0.37974 -0.63948,0.46111 -3.0439,0.46111 -2.04632,0 -2.91601,-0.10849 -2.99275,-0.35261 z m -71.6212,-7.70322 c -0.12789,-0.10849 -0.20463,-9.14078 -0.20463,-20.07176 V 157.112 h 5.88317 v 5.77741 c 0,3.17351 0.0767,12.2058 0.17905,20.07176 l 0.17906,14.29435 h -2.94159 c -1.63705,0 -3.01832,-0.0814 -3.12064,-0.18987 z m 89.57766,-26.52727 c 0,-0.24411 0.58832,-1.51894 1.27895,-2.90227 0.74179,-1.3562 1.79053,-3.52612 2.32769,-4.77382 0.69063,-1.57319 1.0999,-2.25129 1.27895,-2.06142 0.15347,0.16274 0.23021,2.14279 0.17905,5.15356 l -0.0767,4.85519 -2.48117,0.0542 c -2.09747,0.0814 -2.50674,0 -2.50674,-0.32549 z m 13.19877,-12.61266 c -0.0767,-0.24411 -0.17906,-2.49541 -0.20464,-5.01794 l -0.0767,-4.61108 -1.73938,-0.0814 c -1.12547,-0.0543 -1.79053,-0.21699 -1.86726,-0.46111 a 16.11477,17.08812 0 0 1 0.66505,-3.49899 92.723875,98.3245 0 0 0 2.86485,-25.11683 c 0,-13.83324 -2.22537,-25.87629 -7.0598,-38.516078 l -1.40685,-3.66174 -14.68235,-0.13562 c -8.08296,-0.08137 -14.75908,-0.216992 -14.83582,-0.27124 -0.0512,-0.08137 -0.15347,-13.995984 -0.25579,-30.92136 l -0.12789,-30.758616 29.18564,0.189868 c 22.81647,0.13562 29.2368,0.27124 29.41585,0.54248 0.10231,0.162744 0.15347,13.995984 0.12789,30.704368 l -0.0767,30.37888 -10.41066,0.05425 c -8.44107,0.05425 -10.43623,0.13562 -10.43623,0.433984 0,0.189868 0.30695,1.112084 0.66506,2.0343 a 111.5756,118.31489 0 0 1 6.67611,27.856344 c 0.58832,4.71958 0.66506,19.74627 0.1279,24.27598 a 113.82655,120.7018 0 0 1 -4.57864,22.29593 c -1.22779,3.9601 -1.7138,4.99082 -1.96958,4.28559 z M 16.615131,147.69997 c -2.711374,-0.54248 -6.65054,-2.14279 -6.65054,-2.7124 0,-1.00358 1.125476,-4.96369 1.406845,-4.96369 0.179053,0 0.690633,0.1085 1.125476,0.27124 0.562738,0.21699 0.920844,0.21699 1.125476,0.0271 0.25579,-0.18987 0.972002,0 2.634637,0.62385 1.253371,0.51535 3.248533,1.13921 4.425167,1.3562 1.995162,0.46111 2.276531,0.46111 3.83685,0.0542 4.655378,-1.24771 7.366752,-3.85161 8.18528,-7.97446 a 9.438651,10.008756 0 0 0 -3.683376,-10.57836 c -0.844107,-0.6781 -4.067061,-2.54966 -7.16212,-4.14997 a 67.27277,71.33612 0 0 1 -7.16212,-4.14997 12.508131,13.263636 0 0 1 2.276531,-22.94691 c 3.197375,-1.68169 4.987905,-1.98005 11.024549,-1.84443 4.015903,0.1085 5.678538,0.27124 7.6737,0.73235 a 15.424137,16.355772 0 0 1 2.81369,0.81372 c 0.204632,0.24411 -0.76737,4.55683 -1.099897,4.96369 -0.102316,0.1085 -0.562738,0.0814 -1.02316,-0.0543 -0.588317,-0.16274 -0.997581,-0.16274 -1.27895,0.0271 -0.358106,0.24411 -1.151055,0.13562 -3.32527,-0.43399 -4.86001,-1.30195 -8.568965,-0.65097 -11.305918,1.92581 -1.713793,1.65456 -2.353268,2.98364 -2.481163,5.4248 -0.127895,1.73593 -0.05116,2.16992 0.562738,3.47187 1.176634,2.57678 2.864848,3.90585 9.080545,7.13361 3.043901,1.57319 6.164539,3.33625 6.957488,3.90586 a 15.679927,16.627012 0 0 1 6.266855,8.51693 c 0.537159,1.92581 0.613896,6.04865 0.102316,8.27282 a 15.3474,16.2744 0 0 1 -10.640864,11.58195 c -1.918425,0.6781 -2.327689,0.73235 -7.545805,0.7866 -3.018322,0 -5.780854,0 -6.13896,-0.0814 z m 186.649959,-5.3163 c -0.10231,-2.57678 -0.17905,-13.86036 -0.17905,-25.0897 V 96.89672 l -0.6139,-0.16274 a 94.89809,100.63004 0 0 0 -7.26443,-0.0814 c -5.01348,0.0814 -6.75286,0.18986 -7.00865,0.43398 -0.66505,0.73235 0.486,0.86797 6.62496,0.86797 h 6.16454 l 0.17906,3.33625 c 0.10231,1.81731 0.12789,11.39208 0.0767,21.23809 l -0.0767,17.90184 -10.15487,0.0542 -10.18044,0.0814 V 112.4116 a 1639.8697,1738.9196 0 0 0 -0.12789,-33.552388 l 0.15347,-0.6781 h 57.70622 l 0.17906,6.536884 c 0.0767,3.607492 0.15347,17.576354 0.15347,31.056984 v 24.52009 h -13.14761 c -7.23885,0 -13.32665,0.0543 -13.55687,0.16275 -0.33252,0.13562 -0.40926,0.65097 -0.40926,3.06501 0,1.89868 -0.10232,2.98364 -0.30695,3.22775 -0.20463,0.217 -1.50916,0.32549 -4.16937,0.32549 h -3.86243 z m 19.44004,-44.8631 c 0.10232,-0.21699 0,-0.54248 -0.20463,-0.65097 -0.17905,-0.13562 -2.5579,-0.27124 -5.21811,-0.27124 -2.66022,0 -5.01349,0.13562 -5.21812,0.27124 -0.17905,0.13562 -0.25579,0.43398 -0.17905,0.65097 0.12789,0.37974 0.81853,0.46111 5.39717,0.46111 4.60422,0 5.29485,-0.0814 5.42274,-0.46111 z M 62.657331,119.1384 V 98.25292 h 2.327689 l -0.07674,20.80411 -0.07674,20.83123 -1.074318,0.0814 -1.099897,0.0814 z"
     inkscape:connector-curvature="0" />
  <path
     fill="#2ccc88"
     d="M166.2 220a100 100 0 0 1-58.9-25.7c-.5-.6-.4-10.6 0-10.6.2 0 1.3.9 2.4 2l3 2.6c1.3 1 1.4 1.3 1.4 3.8v2.1l3.2.1c2.9 0 3.3.2 4 .7a90.5 90.5 0 0 0 113-5.8c2.4-2.2 3.3-2.8 3.5-2.5v5c-.1 5.6.2 5-4 8.2a103.7 103.7 0 0 1-48.7 19.7c-4 .5-15 .8-18.9.4zm35.3-22.8a26 26 0 0 1-7.3-2.4l-.5-.4.5-2.4c.3-1.3.8-2.5 1-2.5.1-.1 1.3.2 2.5.7 3 1.2 5.4 1.6 8 1.6 3.7 0 6.4-1 8.6-3.4 1.8-1.9 2.5-3.8 2.5-7.2 0-2.4 0-2.7-.8-4.3-1.4-3.2-3.6-4.8-11-8.5-5-2.5-6.4-3.4-8.3-5.5a13 13 0 0 1-3.3-11c.7-5.5 4.2-9.5 9.9-11.5 2-.7 2.3-.8 6.8-.8 4 0 5 .1 7.1.6 1.4.4 2.6.8 2.8 1 .2.3.2.8-.3 2.7l-.8 2.5-2.9-.6c-3.6-1-7.7-1-10.4-.2-3.7 1.2-6 3.8-6.2 7.2-.2 2 0 3.2 1 4.7 1.2 2 3.4 3.5 8.9 6.3l6.4 3.5c3.2 2.2 5.9 5.8 6.8 9 .5 2 .5 6.4 0 8.7-1.2 5.5-6 10.2-11.8 11.9-1.9.5-6.8.7-9.2.3zm-191-1.4c-.1-.3-.2-12.9-.1-27.8v-27.3h28v2.4c0 1.5 0 2.5-.2 2.8-.3.3-2.1.4-10.9.4-9.4 0-10.6 0-10.7.4a136.5 136.5 0 0 0 .2 17.4c.2.2 3.4.3 9.9.4h9.6v5.5h-9.7c-7.4.1-9.8.2-10 .5l-.1 13.1v12.8h-3c-2.8 0-3 0-3-.6zm47.2.3V190.9l4.5-.1h4.4v-44.5h-4a36 36 0 0 1-4.6-.2c-.3-.1-.4-.7-.4-2.9v-2.6h8.2c4.4 0 8.2-.2 8.4-.3.3-.2.3-.5 0-2-1.1-4-1.5-6.3-1.2-6.6.3-.4 6.5-.5 7-.1.3 0 .9 2 1.4 4.2 3.1 12.9 8.4 24.6 16 35.4l1.7 2.5v5.9c-.1 3.5-.3 5.9-.4 5.9-.7 0-8-9.6-11.2-15-3.7-6-7.6-14.2-10.2-21.4l-1-2.7h-1.6l-1.7-.2v44.5l4.3.1h4.2v5.5H69.7a52 52 0 0 1-12-.2zm42.3 0c-.2-.7-.2-54.6 0-55.1.1-.4.7-.4 3.4-.4 2.3 0 3.4 0 3.5.3.2.2 4.3 9.6 9.2 20.9l9.2 21c.2.2.2-5.6.2-20.2v-21.4l.2-1h6.1v28l-.1 28.1h-3.2c-2.4.1-3.3 0-3.5-.2-.2-.2-4.3-9.8-9.3-21.4l-9.2-21.2c-.2-.2-.3 7.6-.3 20.9l-.1 21.6c-.2.4-.7.4-3 .4-2.5 0-3 0-3.1-.4zm49.5-.1l-.2-3v-2.4h4.4l4.5-.1v-44H154c-3.3 0-4.3 0-4.5-.4-.2-.2-.3-1.3-.2-3v-2.7h11.8c8.4-.1 11.8 0 12 .2.5.4.5 4.9 0 5.3-.1.3-1.5.4-4.3.4h-4v22.1l.1 22.2 4.3.1 4.2.2v5.4h-11.9c-11 .1-11.8.1-12-.3zm89.2.1v-55.5h3c2.4 0 2.9 0 3 .4 0 .2.2 5.2.2 11.1v10.7l.6.2c.5 0 13.6 0 17-.2.2 0 .3-5 .3-11l.1-11.1 2.4-.2c1.3-.2 2.7-.2 3 0h.6v28l-.1 27.8h-5.9v-13.8l-.1-13.7h-18v4.6c0 3.6.1 4.6.4 4.5.2 0 1.4-1.5 2.8-3.3l3.1-4 .6-.8 4.2.1c3.8 0 4.2.1 4.2.6 0 .6-4 6.4-6.8 10.1l-5.4 6.4-3 3.4v2.6l-.2 3c-.1.4-.6.4-3 .4-2.1 0-3 0-3-.3zm18-34.2c0-.3.5-1.6 1.2-3 .7-1.3 1.8-3.4 2.3-4.7.7-1.6 1.1-2.3 1.3-2 .2 0 .2 2 .2 5v5H259c-2 0-2.5 0-2.5-.3zm13.1-12.7c0-.2-.2-2.4-.2-5v-4.6h-1.8c-1.1-.1-1.8-.3-1.9-.5l.7-3.5c2-8 2.9-16 2.9-25.1a103.8 103.8 0 0 0-8.3-42c0-.3.6-.4 3.8-.3h3.7l.6 1.7c3.2 8.2 5.8 18.8 7 28.5.5 4.7.6 19.7 0 24.3a127 127 0 0 1-4.5 22.3c-1.3 4-1.7 5-2 4.2zM8.8 139C6 138.5 2 137 2 136.3c0-1 1.1-5 1.4-5l1.1.3c.6.2 1 .3 1.2 0 .2-.2 1 0 2.6.7l4.4 1.4c2 .4 2.3.4 3.8 0 4.7-1.3 7.4-3.9 8.3-8 .8-4.2-.5-8-3.7-10.6-.9-.6-4-2.5-7.2-4.1a66.2 66.2 0 0 1-7.2-4.2 13.2 13.2 0 0 1-5.2-10.3c0-5.7 2.6-10 7.5-12.6 3.2-1.7 5-2 11-1.9a34 34 0 0 1 10.5 1.6c.2.2-.7 4.5-1 5l-1.1-.1c-.6-.2-1-.2-1.3 0-.3.3-1.1.1-3.3-.4-4.9-1.3-8.6-.7-11.3 2a7 7 0 0 0-2.5 5.4c-.1 1.7 0 2.1.6 3.4 1.2 2.6 2.9 4 9 7.1 3.1 1.6 6.2 3.4 7 4 3 2.1 5.4 5.3 6.3 8.5.5 1.9.6 6 .1 8.2-1.2 5.5-5 9.6-10.6 11.6-2 .7-2.4.7-7.6.8H8.8zm112.7-.5l-2.9-9.6c-1.5-5.2-2.8-9.5-3-9.7-.2-.3-1.9-.3-7.4-.3l-7.2.1-.2.7c-1 3.8-5.7 18.3-6 18.5-.4.3-8 .2-8.1 0-.1-.2.2-1.7.7-3.3l1-3.4c0-.8 14.7-48.5 15-48.7.4-.2 8.3 0 9.4.1.4.1 1.6 3.8 8 24.5A10157.6 10157.6 0 0 0 130 138c-.3.3-8.5.6-8.6.4zm-7.9-25.6a230.6 230.6 0 0 0-5.3-17.6c-.2 0-.4.5-.6 1.1a836.6 836.6 0 0 1-4.7 16.8c.1.1 2.5.2 5.4.2 5.2 0 5.2 0 5.2-.5zm24 25.6c0-.1-.2-12.6-.2-27.7 0-21.6.1-27.5.4-27.7h10.8c11.6.2 11.9.2 15.4 2 4.4 2.3 6.8 6.6 6.7 12.3a14 14 0 0 1-3.4 9.4 18 18 0 0 1-6.2 4.2c-1 .3-1.7.7-1.8.8-.1.2 4 6.8 12.8 20.7 2.4 3.8 3.3 5.4 3 5.6-.6.4-9.1.6-9.4.2l-7.8-12.7-7.5-12.4h-4.2v12.5c0 9.7-.1 12.5-.4 12.5-.6.2-8 .5-8.2.3zm17.6-31.6c4.5-1.6 6.8-4.8 6.8-9.3 0-3.6-1.4-6.3-4-7.6-2.3-1.2-3.8-1.5-8-1.5h-3.9V98c0 7.3.1 9.5.4 9.6h3.7a15 15 0 0 0 5-.7zm-96.6 27c-.1-2.6-.1-13.6 0-24.7.1-15.8 0-20.2-.2-20.7l-.3-.6H42.6c-.4-.3-.5-4.5 0-4.7 0 0 9.2-.2 20.3-.2h20.2v2.4c.1 1.7 0 2.4-.2 2.6h-7.4a89 89 0 0 0-7.7 0l-.7.2V113c0 18.9 0 24.8-.3 25-.2.3-1.5.4-4.2.4h-3.9l-.1-4.6zm136.8-.2l-.2-25c0-18.4 0-20.4-.4-20.6a115.3 115.3 0 0 0-15.6 0c-.4-.3-.5-4.9 0-5.2.2-.1 9.2-.2 20.5-.1l20.2.1.1 2.4c0 1.8 0 2.5-.3 2.7h-15.1l-.7.2V113c0 18.9 0 24.8-.3 25-.2.3-1.5.4-4.1.4h-4v-4.7zM79.1 68.5a106.6 106.6 0 0 1 33.7-45c.4 0 .5.5.5 4.3v4.3l-1 .9A96.5 96.5 0 0 0 88 65.8l-1.4 3.1h-3.8c-3.4 0-3.8 0-3.8-.4zm70.6-63.1c0-.4 1.8-1 5-1.6A94 94 0 0 1 197.5 5l-47.8.3z"
     id="path20"
     style="fill:#f1fcf7;fill-opacity:1" />
  <path
     d="m 165,220 a 98,98 0 0 1 -57.2,-24.3 l -1.7,-1.5 v -4.8 c 0,-2.7 0,-5 0.2,-5 l 2.3,1.9 a 86,86 0 0 0 3,2.7 c 0.8,0.7 0.9,0.7 0.9,3 0,1.5 0,2.5 0.3,2.7 0.2,0.2 1.3,0.3 3.3,0.3 h 3 l 2.9,2 a 91.7,91.7 0 0 0 111.2,-7.4 l 3,-2.3 c 0.2,0.1 0.3,2.1 0.3,4.6 0,3.3 0,4.5 -0.3,5 l -3.3,2.7 A 99.5,99.5 0 0 1 165,220 Z m 36.1,-22.8 c -3.4,-0.4 -7.7,-1.8 -8,-2.6 -0.1,-0.4 0.7,-4.7 0.9,-4.7 l 3,1 c 5.9,2.2 10.6,2 14.3,-0.3 3.1,-2 4.7,-5.1 4.7,-9.1 0,-3.4 -1.2,-6.2 -3.8,-8.3 -0.8,-0.8 -3.8,-2.5 -7.3,-4.3 -7.8,-4 -9.8,-5.7 -11.5,-9.5 a 15.2,15.2 0 0 1 -0.2,-10.2 c 1.5,-4.2 5,-7.2 10,-8.6 2.7,-0.8 9,-0.7 12.7,0.2 2.4,0.5 2.7,0.7 2.7,1.2 0,0.5 -0.9,4.2 -1,4.4 l -2.6,-0.6 c -6.5,-1.8 -12.3,-0.8 -15.2,2.6 -2,2.4 -2.5,6 -1.3,8.6 1.2,2.5 3.3,4.2 9.3,7.3 6.5,3.3 7.6,4 9.6,6.2 2.8,3 4,6.2 4,10.3 0,6.9 -3,11.7 -8.8,14.7 l -3.3,1.3 c -2,0.5 -5.6,0.7 -8.2,0.4 z M 9.7,168.7 v -27.6 h 13.6 l 13.7,0.1 v 4.6 l -10.6,0.1 c -5.9,0.1 -10.8,0.3 -11,0.4 -0.4,0.3 -0.4,17.8 0,18.3 0.2,0.3 2.8,0.3 10,0.3 h 9.7 l -0.1,2.5 v 2.6 h -9.8 c -7.4,0 -9.7,0.2 -9.9,0.4 -0.1,0.2 -0.2,6.1 -0.2,13.2 v 12.7 H 9.6 Z M 56.9,196 v -4.6 h 4.4 c 3,-0.1 4.4,-0.3 4.5,-0.5 0.1,-0.2 0.2,-10.2 0.2,-22.2 0,-19.6 0,-22 -0.4,-22.3 -0.3,-0.4 -1.1,-0.5 -4.6,-0.5 h -4.3 v -4.8 H 65 c 6.6,0 8.4,-0.1 8.5,-0.4 L 72.8,137 72,132.9 v -0.8 h 6.9 l 0.3,0.9 0.9,3.7 a 104.7,104.7 0 0 0 16.3,35.5 l 1.2,1.7 v 5.7 a 36,36 0 0 1 -0.2,5.7 c -0.5,0 -6.3,-7.5 -9.5,-12.5 A 119.1,119.1 0 0 1 75,146.2 c -0.5,-0.4 -2.9,-0.3 -3.3,0.2 -0.4,0.4 -0.4,2.7 -0.4,22.3 0,12 0,22 0.2,22.2 0.1,0.2 1.4,0.4 4.4,0.4 h 4.2 v 5 H 68.5 c -9.5,0 -11.6,0 -11.7,-0.3 z m 42.4,-27.3 v -27.6 h 6.2 l 9.3,21.5 c 5.4,12.5 9.4,21.5 9.6,21.5 0.3,0 0.4,-4 0.4,-21.6 v -21.6 h 5.4 v 55.4 h -3 l -3.2,0.1 -9.2,-21.6 c -5.1,-12 -9.4,-21.7 -9.6,-21.8 -0.1,-0.2 -0.4,-0.1 -0.5,0 0,0.3 -0.2,10 -0.2,21.9 v 21.5 h -5.3 z m 49.4,27.6 c -0.1,0 -0.2,-1.2 -0.2,-2.6 v -2.4 h 4.2 c 2.3,0 4.3,0 4.5,-0.2 0.2,-0.2 0.3,-4.8 0.2,-22.4 v -22.4 l -4.5,-0.1 h -4.4 v -2.7 l 0.1,-2.7 H 160 a 74,74 0 0 1 11.7,0.2 c 0.3,0.2 0.4,0.9 0.3,2.5 v 2.2 l -4.2,0.1 c -3.4,0.2 -4.3,0.3 -4.5,0.6 -0.2,0.5 -0.3,44 0,44.4 0.1,0.2 1.4,0.4 4.4,0.4 h 4.2 v 5 h -23.2 z m 89,-27.5 v -27.6 h 5.5 v 10.7 c 0,6.9 0,11 0.2,11.3 0.3,0.5 0.6,0.5 9,0.5 4.9,0 9,-0.1 9.1,-0.2 0.3,-0.2 0.3,-2.9 0.4,-11.2 v -11 h 2.8 l 2.8,-0.2 -0.1,27.7 v 27.5 H 262 l -0.1,-13.8 c 0,-10.7 -0.1,-13.8 -0.4,-13.8 -15.8,-0.1 -17.9,0 -18,0.3 -0.2,0.2 -0.3,2.5 -0.3,5 0,3.9 0,4.5 0.4,4.7 0.4,0.2 0.4,0.2 3.6,-4 l 2.7,-3.6 0.6,-0.7 h 4 c 2.2,0 4,0 4.1,0.2 0.2,0.2 -2,3.6 -4,6.6 -2.4,3.3 -5.2,6.6 -8.3,10 l -3.1,3.4 v 5.8 h -5.5 z m 18,-6.8 1.3,-2.7 a 68.6,68.6 0 0 0 3,-6 c 0.2,-0.2 0.3,1.3 0.3,4.4 v 4.6 H 258 c -1.4,0 -2.3,0 -2.3,-0.3 z m 13,-17.5 c 0,-3 0,-4.4 -0.3,-4.6 -0.1,-0.2 -1,-0.4 -1.9,-0.4 -0.9,0 -1.6,0 -1.6,-0.2 l 0.8,-3.5 c 2,-8.4 2.8,-15.9 2.8,-25 0,-13.7 -2.3,-26.2 -7,-38.3 -0.6,-1.8 -1.1,-3.4 -1,-3.5 0,-0.1 1.6,-0.3 3.4,-0.3 h 3.3 l 0.6,1.5 a 101.8,101.8 0 0 1 7.5,39 c 0.2,9.8 -0.2,15.1 -2,24.2 a 69.1,69.1 0 0 1 -4.3,15.4 c -0.2,0 -0.3,-2 -0.3,-4.3 z m -264,-6.4 c -1.8,-0.5 -3.5,-1.3 -3.5,-1.5 0,-0.7 1.1,-4.8 1.3,-4.8 l 1,0.4 0.7,0.4 -0.3,1.5 c -0.7,2.6 -0.6,2.8 1.2,3.7 1.8,1 1.7,1 -0.5,0.3 z m 53,-24.7 V 88.3 l 1,0.1 h 1 v 49.9 h -2 z m 28.1,24.8 0.7,-3.2 c 1.6,-5.4 15.5,-50.7 15.8,-51.2 0.1,-0.4 0.5,-0.5 1.2,-0.5 0.6,0 1,0 1,0.2 l -8.4,27.5 -8.4,27.2 -0.9,0.1 h -1 z m 32,-9.1 -2.8,-9.5 c 0,-0.4 1.7,-0.3 2,0.1 0.3,0.4 5.4,17.8 5.4,18.3 0,0.2 -0.3,0.4 -1,0.4 h -0.9 z m 18.8,9 v -27.4 c 0,-29.6 0,-27.7 1.5,-27.3 l 0.7,0.2 v 54.7 h -1 c -0.6,0 -1.1,-0.2 -1.2,-0.4 z m 20.6,-12 c -4,-6.7 -7.3,-12.3 -7.3,-12.5 0.2,-0.3 1.3,-0.3 1.7,0.1 l 15,24.3 c 0,0.3 -0.2,0.4 -0.9,0.4 h -1 z m 37.4,-12.7 V 88.3 l 1,0.1 h 0.9 v 25 l 0.1,24.9 h -2 z M 19.2,132.8 a 9.2,9.2 0 0 0 3.6,-3.5 c 2.2,-4.1 1.8,-9.4 -1.2,-12.8 -1.4,-1.7 -3.4,-2.9 -9.8,-6.2 -5.2,-2.7 -5.7,-3 -7.3,-4.7 a 13.3,13.3 0 0 1 5.3,-22 c 2.4,-0.9 2.5,-0.7 0.3,0.5 A 14.7,14.7 0 0 0 4.4,89.7 13.8,13.8 0 0 0 3,97.1 c 0.2,4 1,5.8 3.8,8.7 1.8,2 2.3,2.3 6,4.2 8.4,4.3 9.9,5.2 11.5,7.2 3.2,4 2.5,11.2 -1.3,14.2 -1,0.9 -3.2,2 -4.4,2.2 -0.8,0.2 -0.8,0.1 0.6,-0.8 z m 93.1,-21.6 -2.8,-9.4 -2.1,-7.2 0.4,-1.4 c 0.2,-0.9 0.5,-1.5 0.7,-1.4 0.2,0 6.5,20.7 6.5,21.4 0,0.1 -0.4,0.2 -1,0.2 h -1 z m 42.9,-3.9 1.7,-1.2 c 2.8,-2 4.2,-4.8 4.2,-8.3 0,-3.5 -1.3,-6 -3.9,-7.8 -1.3,-0.9 -0.8,-1 1.1,-0.2 a 8,8 0 0 1 4.3,4.1 c 0.9,2.2 0.9,5.8 0,7.8 -1,2 -2.5,3.7 -4.4,4.6 -1.5,0.8 -3.3,1.4 -3,1 z M 178.4,88 c -0.1,-0.1 -0.2,-1.2 -0.2,-2.5 v -2.2 h 1 l 1.2,0.1 v 2.2 c 0,1.5 0,2.2 -0.2,2.3 -0.4,0.3 -1.6,0.3 -1.8,0 z m -137,-0.5 v -2 c 0,-2 0.4,-2.4 1.6,-2.1 0.6,0.2 0.6,0.2 0.6,2.3 v 2.2 h -1 c -0.6,0 -1,-0.1 -1.1,-0.4 z M 78.3,68.6 a 103.1,103.1 0 0 1 33.2,-44.7 c 0.1,0 0.2,1.9 0.2,4.2 v 4.1 L 109,34.8 A 101,101 0 0 0 85.3,68.6 c -0.3,0.4 -6.8,0.5 -7,0 z M 150.2,5.3 c 0.3,-0.4 4.5,-1.3 8.8,-2 10.6,-1.5 23,-1.1 33.4,1.2 2.4,0.5 3.2,0.8 2.4,0.8 a 15042.2,15042.2 0 0 1 -44.6,0 z"
     id="path22"
     inkscape:connector-curvature="0"
     style="fill:#525f7f;fill-opacity:1" />
  <path
     style="fill:#d3d3d3;fill-opacity:1"
     inkscape:connector-curvature="0"
     id="path825"
     d="m 165,220 c -110,4.53334 -55,2.26667 0,0 z m 103.4,-80.1 c -0.1,-0.2 -1,-0.4 -1.9,-0.4 -0.9,0 -1.6,0 -1.6,-0.2 l 0.8,-3.5 c 2,-8.4 2.8,-15.9 2.8,-25 0,-13.7 -2.3,-26.2 -7,-38.3 -0.6,-1.8 -1.1,-3.4 -1,-3.5 0,-0.1 1.6,-0.3 3.4,-0.3 h 3.3 l 0.6,1.5 c 5.03615,12.381546 7.58464,25.633686 7.5,39 0.2,9.8 -0.2,15.1 -2,24.2 -4.4601,10.2914 -1.92172,20.45457 -4.9,6.5 z M 4.7,138.1 c -1.8,-0.5 -3.5,-1.3 -3.5,-1.5 0,-0.7 1.1,-4.8 1.3,-4.8 l 1,0.4 0.7,0.4 -0.3,1.5 c -0.7,2.6 -0.6,2.8 1.2,3.7 1.8,1 1.7,1 -0.5,0.3 z m 53,-24.7 V 88.3 l 1,0.1 h 1 v 49.9 h -2 z m 28.1,24.8 0.7,-3.2 c 1.6,-5.4 15.5,-50.7 15.8,-51.2 0.1,-0.4 0.5,-0.5 1.2,-0.5 0.6,0 1,0 1,0.2 l -8.4,27.5 -8.4,27.2 -0.9,0.1 h -1 z m 32,-9.1 -2.8,-9.5 c 0,-0.4 1.7,-0.3 2,0.1 0.3,0.4 5.4,17.8 5.4,18.3 0,0.2 -0.3,0.4 -1,0.4 h -0.9 z m 18.8,9 v -27.4 c 0,-29.6 0,-27.7 1.5,-27.3 l 0.7,0.2 v 54.7 h -1 c -0.6,0 -1.1,-0.2 -1.2,-0.4 z m 20.6,-12 c -4,-6.7 -7.3,-12.3 -7.3,-12.5 0.2,-0.3 1.3,-0.3 1.7,0.1 l 15,24.3 c 0,0.3 -0.2,0.4 -0.9,0.4 h -1 z m 37.4,-12.7 V 88.3 l 1,0.1 h 0.9 v 25 l 0.1,24.9 h -2 z M 19.2,132.8 c 1.501304,-0.81031 2.747727,-2.02211 3.6,-3.5 2.2,-4.1 1.8,-9.4 -1.2,-12.8 -1.4,-1.7 -3.4,-2.9 -9.8,-6.2 -5.2,-2.7 -5.7,-3 -7.3,-4.7 -6.9613316,-7.023295 -4.09595222,-18.917323 5.3,-22 2.4,-0.9 2.5,-0.7 0.3,0.5 -2.3806259,1.304552 -4.3535203,3.242835 -5.7,5.6 -1.1437435,2.289154 -1.6284626,4.85124 -1.4,7.4 0.2,4 1,5.8 3.8,8.7 1.8,2 2.3,2.3 6,4.2 8.4,4.3 9.9,5.2 11.5,7.2 3.2,4 2.5,11.2 -1.3,14.2 -1,0.9 -3.2,2 -4.4,2.2 -0.8,0.2 -0.8,0.1 0.6,-0.8 z m 93.1,-21.6 -2.8,-9.4 -2.1,-7.2 0.4,-1.4 c 0.2,-0.9 0.5,-1.5 0.7,-1.4 0.2,0 6.5,20.7 6.5,21.4 0,0.1 -0.4,0.2 -1,0.2 h -1 z m 42.9,-3.9 1.7,-1.2 c 2.8,-2 4.2,-4.8 4.2,-8.3 0,-3.5 -1.3,-6 -3.9,-7.8 -1.3,-0.9 -0.8,-1 1.1,-0.2 1.9065,0.764013 3.44612,2.232022 4.3,4.1 0.9,2.2 0.9,5.8 0,7.8 -1,2 -2.5,3.7 -4.4,4.6 -1.5,0.8 -3.3,1.4 -3,1 z M 178.4,88 c -0.1,-0.1 -0.2,-1.2 -0.2,-2.5 v -2.2 h 1 l 1.2,0.1 v 2.2 c 0,1.5 0,2.2 -0.2,2.3 -0.4,0.3 -1.6,0.3 -1.8,0 z m -137,-0.5 v -2 c 0,-2 0.4,-2.4 1.6,-2.1 0.6,0.2 0.6,0.2 0.6,2.3 v 2.2 h -1 c -0.6,0 -1,-0.1 -1.1,-0.4 z M 78.3,68.6 c 6.757595,-17.662916 18.243154,-33.126907 33.2,-44.7 0.1,0 0.2,1.9 0.2,4.2 v 4.1 l -2.7,2.6 c -10.142781,9.514832 -18.211286,21.021813 -23.7,33.8 -0.3,0.4 -6.8,0.5 -7,0 z M 150.2,5.3 c 0.3,-0.4 4.5,-1.3 8.8,-2 10.6,-1.5 23,-1.1 33.4,1.2 2.4,0.5 3.2,0.8 2.4,0.8 -14.86666,0.02204 -29.73334,0.02204 -44.6,0 z"
     sodipodi:nodetypes="cccsccsccsccccccscccccccccccccccccsccccccccssscccscccsccccccscccccccccccccccccccccsccccccccssccccssccccccscccsccccscscsccccsccccccccc" />
</svg>
