<?xml version="1.0" encoding="UTF-8" standalone="no"?>
<svg
   xmlns:dc="http://purl.org/dc/elements/1.1/"
   xmlns:cc="http://creativecommons.org/ns#"
   xmlns:rdf="http://www.w3.org/1999/02/22-rdf-syntax-ns#"
   xmlns:svg="http://www.w3.org/2000/svg"
   xmlns="http://www.w3.org/2000/svg"
   xmlns:xlink="http://www.w3.org/1999/xlink"
   xmlns:sodipodi="http://sodipodi.sourceforge.net/DTD/sodipodi-0.dtd"
   xmlns:inkscape="http://www.inkscape.org/namespaces/inkscape"
   width="354.22412"
   height="271.07675"
   version="1.1"
   id="svg24"
   sodipodi:docname="start_finish_ver2_1.svg"
   inkscape:version="0.92.2 5c3e80d, 2017-08-06">
  <metadata
     id="metadata28">
    <rdf:RDF>
      <cc:Work
         rdf:about="">
        <dc:format>image/svg+xml</dc:format>
        <dc:type
           rdf:resource="http://purl.org/dc/dcmitype/StillImage" />
        <dc:title></dc:title>
      </cc:Work>
    </rdf:RDF>
  </metadata>
  <sodipodi:namedview
     pagecolor="#ffffff"
     bordercolor="#666666"
     borderopacity="1"
     objecttolerance="10"
     gridtolerance="10"
     guidetolerance="10"
     inkscape:pageopacity="0"
     inkscape:pageshadow="2"
     inkscape:window-width="2092"
     inkscape:window-height="1339"
     id="namedview26"
     showgrid="false"
     inkscape:zoom="2.0811287"
     inkscape:cx="50.423641"
     inkscape:cy="14.807449"
     inkscape:window-x="11"
     inkscape:window-y="0"
     inkscape:window-maximized="0"
     inkscape:current-layer="svg24"
     fit-margin-top="0"
     fit-margin-left="0"
     fit-margin-right="0"
     fit-margin-bottom="0" />
  <defs
     id="defs14">
    <linearGradient
       inkscape:collect="always"
       id="linearGradient842">
      <stop
         style="stop-color:#525f7f;stop-opacity:1;"
         offset="0"
         id="stop838" />
      <stop
         style="stop-color:#525f7f;stop-opacity:0;"
         offset="1"
         id="stop840" />
    </linearGradient>
    <linearGradient
       id="b">
      <stop
         offset="0"
         stop-color="#7089e8"
         id="stop2" />
      <stop
         offset="1"
         stop-color="#7089e8"
         stop-opacity="0"
         id="stop4" />
    </linearGradient>
    <linearGradient
       id="a">
      <stop
         offset="0"
         stop-color="#4400e8"
         id="stop7" />
      <stop
         offset="1"
         stop-color="#4400e8"
         stop-opacity="0"
         id="stop9" />
    </linearGradient>
    <linearGradient
       id="d"
       x1="-983.70001"
       x2="143.10001"
       y1="1246.7"
       y2="1325.5"
       gradientTransform="translate(1865.8,-689.9)"
       gradientUnits="userSpaceOnUse"
       xlink:href="#a" />
    <linearGradient
       id="c"
       x1="848.59998"
       x2="1975.4"
       y1="521.70001"
       y2="600.5"
       gradientTransform="translate(0.5,10.6)"
       gradientUnits="userSpaceOnUse"
       xlink:href="#b" />
    <linearGradient
       inkscape:collect="always"
       xlink:href="#linearGradient842"
       id="linearGradient844"
       x1="9.4644394"
       y1="109.59909"
       x2="297.68372"
       y2="129.75334"
       gradientUnits="userSpaceOnUse"
       gradientTransform="matrix(1.1924987,0,0,1.1924987,-0.76327476,-1.8383401)" />
  </defs>
  <path
     d="m 197.18215,260.63823 a 124.1469,131.64551 0 0 1 -54.75274,-18.76029 c -5.70406,-3.65502 -14.15337,-10.15643 -15.4955,-11.90308 -0.57955,-0.74394 -0.54905,-12.67937 0.0305,-12.67937 0.24402,0 1.52514,1.03505 2.83677,2.29652 3.38583,3.23453 4.30092,3.94612 4.84997,3.75205 0.39654,-0.16172 0.45755,-1.32615 0.45755,-7.89226 v -7.69819 l 0.67105,1.29381 c 1.22012,2.4259 8.78485,20.02177 8.78485,20.37757 0,0.25876 -0.30503,0.51753 -0.67106,0.61456 -0.67107,0.16173 -0.67107,0.19407 -0.0915,0.87333 0.94559,1.09973 7.22919,4.91648 12.99424,7.89225 a 113.86741,120.74513 0 0 0 121.49315,-14.97589 c 2.98928,-2.52293 3.96538,-3.23453 4.2094,-2.91108 0.15252,0.25877 0.21353,2.84639 0.12202,6.04858 -0.18302,6.6308 0.18301,5.85451 -4.88047,9.7036 a 124.1469,131.64551 0 0 1 -57.98606,23.54741 177.405,188.12046 0 0 1 -22.57216,0.42048 z m 42.09403,-27.17008 c -2.50124,-0.32345 -7.83925,-2.10244 -8.72383,-2.87873 l -0.61006,-0.51753 0.67106,-2.84639 c 0.36603,-1.58492 0.85409,-2.91108 1.0676,-3.04046 0.21352,-0.0646 1.61666,0.32345 3.0503,0.87333 3.66035,1.39084 6.40561,1.94072 9.51691,1.94072 4.45342,0 7.68674,-1.29382 10.30999,-4.01082 2.16571,-2.32887 2.95878,-4.52835 2.98928,-8.60387 0,-2.84638 -0.0611,-3.23453 -0.9761,-5.23994 -1.73866,-3.75206 -4.2704,-5.69278 -13.14676,-10.09174 -5.88705,-2.91108 -7.56472,-4.04316 -9.88294,-6.59845 a 14.092351,14.943544 0 0 1 -3.96538,-13.03517 c 0.91509,-6.5661 5.00248,-11.35322 11.83514,-13.77912 2.28772,-0.80863 2.74526,-0.87331 8.08328,-0.87331 4.72794,0 6.10058,0.12937 8.54081,0.71159 1.55564,0.38814 3.0503,0.90568 3.26381,1.13208 0.30503,0.32346 0.24402,0.97036 -0.36603,3.26689 a 24.402339,25.876267 0 0 1 -0.88459,3.00811 c -0.0611,0.0971 -1.61666,-0.25876 -3.44683,-0.74394 a 25.073403,26.587864 0 0 0 -12.4757,-0.19408 c -4.36192,1.4232 -7.01567,4.49601 -7.38171,8.47448 -0.21351,2.55529 0.0611,3.8491 1.22012,5.66044 1.43365,2.32886 3.99589,4.1402 10.55402,7.50412 3.26381,1.68196 6.71064,3.55798 7.62573,4.20489 3.84336,2.58763 7.01567,6.82486 8.11377,10.77099 0.61006,2.26418 0.61006,7.56882 0,10.35051 -1.43363,6.50142 -7.07668,12.16185 -14.03134,14.10257 -2.19621,0.61456 -8.05277,0.84098 -10.98105,0.45283 z M 11.419344,231.78619 c -0.09151,-0.42048 -0.152515,-15.36403 -0.09151,-33.251 l 0.09151,-32.50706 h 33.248187 l 0.09151,2.87874 c 0.06101,1.81133 -0.06101,3.00811 -0.305029,3.29923 -0.274526,0.38813 -2.50124,0.45282 -12.902736,0.45282 -11.225076,0 -12.628211,0.0646 -12.811228,0.51754 -0.09151,0.2911 -0.152515,5.01352 -0.152515,10.47988 0,7.9246 0.06101,10.02705 0.396538,10.31816 0.305029,0.25876 4.026386,0.38815 11.835134,0.45283 l 11.408094,0.0646 v 6.46906 l -11.591111,0.0971 c -8.784842,0.0646 -11.621614,0.19408 -11.804631,0.48518 -0.122012,0.22642 -0.244024,7.2777 -0.244024,15.68749 v 15.267 h -3.507836 c -3.355322,0 -3.507837,0 -3.660351,-0.7116 z m 56.430409,0.32346 c -0.122012,-0.25876 -0.152515,-1.74665 -0.09151,-3.33157 l 0.09151,-2.91108 5.246503,-0.0646 5.277005,-0.0971 v -53.04635 h -4.880467 c -2.653755,0 -5.063486,-0.0646 -5.307509,-0.19407 -0.396538,-0.16173 -0.488047,-0.77629 -0.488047,-3.39626 v -3.20219 h 9.669427 c 5.338011,0 9.882947,-0.12938 10.065965,-0.25876 0.335532,-0.22642 0.274526,-0.90567 -0.30503,-3.4933 a 136.95813,145.23055 0 0 1 -1.128608,-5.04588 c -0.396538,-2.07009 -0.457544,-2.13478 -3.355321,-2.26417 l -1.677661,-0.0971 -0.244024,-22.31828 c -0.122011,-12.29122 -0.152514,-22.48 -0.06101,-22.70642 0.09151,-0.32345 1.525146,-0.42049 5.795556,-0.42049 3.355321,0 5.917567,-0.12938 6.253099,-0.32345 0.51855,-0.29111 0.610058,-0.67925 0.610058,-2.68467 0,-1.39084 -0.152514,-2.52293 -0.366035,-2.74935 -0.396538,-0.38814 -12.506198,-0.58221 -13.482292,-0.19407 -0.457544,0.19407 -0.488047,3.10515 -0.488047,29.69302 0,22.51235 -0.09151,29.59598 -0.366035,29.88708 -0.274526,0.29111 -1.830175,0.38815 -5.002479,0.38815 h -4.605942 l -0.183017,-5.40168 c -0.09151,-2.97576 -0.09151,-16.17266 0,-29.36956 0.152515,-18.82498 0.09151,-24.09727 -0.213521,-24.67949 l -0.366035,-0.77628 -9.059368,0.12938 c -4.971976,0.0323 -9.211883,0 -9.425403,-0.16173 -0.488047,-0.32345 -0.51855,-5.239943 -0.0305,-5.563396 0.183017,-0.129382 9.821941,-0.194072 21.413052,-0.161727 18.301754,0.03234 21.169029,0 21.718081,-0.452835 0.488047,-0.388144 0.549053,-0.582216 0.274527,-1.067396 -0.30503,-0.54987 -1.220117,-0.582216 -14.549895,-0.646906 l -14.214362,-0.09703 -0.09151,-6.533757 c -0.06101,-3.622678 0,-6.889556 0.122011,-7.2777 L 64.61644,80.47469 h 28.398221 l 0.51855,-1.358504 c 0.305029,-0.776288 1.494643,-3.493296 2.684257,-6.080923 A 116.21614,123.23572 0 0 1 119.5217,38.749235 114.44697,121.35969 0 0 1 133.46153,25.940483 c 0.54905,-0.323453 0.57955,-0.840979 0.61006,-10.285816 0.0305,-5.434017 0.12201,-10.1240903 0.24402,-10.382853 0.12201,-0.4204893 2.98928,-0.48518 20.92501,-0.48518 19.67438,0 20.83349,0 22.51116,-0.6145613 a 118.9614,126.1468 0 0 1 52.03798,-1.2938134 c 4.48392,0.9056694 5.03299,1.0997414 4.66695,1.45554 -0.0915,0.1293814 -6.77165,0.194072 -14.82443,0.1617267 -10.43199,-0.032345 -14.85492,0.064691 -15.31246,0.3234533 l -0.64056,0.3557987 0.21352,37.003063 0.24402,37.003062 H 134.16311 V 58.576934 c 0,-11.64432 -0.12201,-20.830395 -0.30503,-21.089157 -0.36603,-0.646907 -0.94559,-0.194072 -5.216,3.946131 a 114.99602,121.94191 0 0 0 -20.00992,26.19972 81.137776,86.038588 0 0 0 -5.88706,12.226536 c 0,0.614561 0.45754,0.646907 15.46498,0.711597 l 15.49548,0.06469 0.18303,8.571514 0.21351,8.571513 8.11378,26.361442 8.90685,28.88438 0.76258,2.4906 4.48393,0.0971 4.48392,0.0646 0.0915,3.62268 c 0.0915,3.71971 0.39654,4.62538 1.43363,4.20489 0.39654,-0.16172 0.45755,-4.01082 0.45755,-32.99224 0,-25.87626 0.0611,-32.862857 0.36603,-33.089274 0.24403,-0.194072 5.39902,-0.226417 12.90274,-0.09703 13.81783,0.226418 14.21437,0.258763 18.39326,2.4259 5.30751,2.749354 8.14428,7.924604 8.05277,14.684784 a 15.281965,16.205012 0 0 1 -4.05688,11.15913 21.504561,22.80346 0 0 1 -7.44272,5.01353 8.357801,8.8626215 0 0 0 -2.1352,0.97036 c -0.27453,0.45284 14.45839,23.67678 15.09895,23.87085 0.36602,0.0971 0.61006,0.4205 0.61006,0.87333 0,0.38814 0.76256,1.97307 1.70816,3.55798 a 9.7609355,10.350507 0 0 1 1.52514,3.00812 c -0.12201,0.0971 -0.85408,0.29111 -1.64716,0.38814 -1.25061,0.16173 -1.46414,0.25876 -1.52515,0.97036 -0.061,0.54988 0.15252,1.0674 0.51856,1.45554 0.54905,0.51754 0.61006,0.97036 0.61006,3.39626 0,1.74666 -0.12202,2.91108 -0.33553,3.16984 -0.27453,0.29112 -1.83018,0.38815 -5.1855,0.38815 h -4.81946 l 0.0611,26.45848 0.0915,26.42614 5.03299,0.16173 5.03298,0.16172 v 6.46907 h -28.36772 l -0.12201,-0.80863 c -0.21353,-1.61727 -0.15252,-1.61727 -9.51691,-1.61727 h -8.84585 v -31.79546 c 0,-25.55281 -0.0611,-31.89249 -0.36604,-32.34533 -0.27452,-0.38815 -0.70157,-0.54988 -1.31163,-0.48518 l -0.91508,0.0971 -0.12201,33.47742 -0.15252,33.47742 -3.84336,0.0971 c -2.83678,0.0646 -3.96538,0 -4.17891,-0.32346 -0.15251,-0.2264 -5.12449,-11.67666 -11.04205,-25.48812 -5.88707,-13.7791 -10.85905,-25.19701 -10.98105,-25.35873 -0.21353,-0.19408 -0.30503,9.05669 -0.30503,24.97059 0,13.90849 -0.0915,25.48813 -0.18303,25.77923 -0.30503,0.74394 -7.01567,0.74394 -7.25969,0 -0.24402,-0.67925 -0.24402,-64.94943 0,-65.62868 0.15252,-0.42049 0.79308,-0.51753 4.0874,-0.51753 2.74526,0 3.96538,0.12939 4.17889,0.42049 0.15251,0.22642 5.09399,11.45025 10.92005,24.90591 5.85656,13.488 10.82854,24.77653 11.04206,25.06763 0.36604,0.48518 0.39654,0.32345 0.30503,-1.22912 -0.15252,-1.42319 -1.43364,-4.72241 -6.89366,-17.46648 l -6.71064,-15.68749 -0.0305,-12.45295 v -13.16455 c 0,-0.67925 0.122,-0.74394 1.95218,-0.74394 2.31823,0 2.28772,-0.0323 3.66035,4.52834 0.48805,1.52023 1.06761,3.00812 1.34213,3.33157 0.54905,0.67926 1.22012,0.7116 1.46414,0.0646 0.18301,-0.51752 -6.13109,-22.31828 -6.68014,-23.02988 -0.21351,-0.32345 -2.34872,-0.42048 -8.78484,-0.42048 -8.29679,0 -8.51031,0 -8.84585,0.67925 -0.76257,1.55258 -0.54905,1.61727 7.62574,1.61727 h 7.65623 l -0.0915,6.2103 -0.0611,6.2103 -9.45591,0.0971 a 60.700817,64.367214 0 0 0 -9.82193,0.45284 c -0.21352,0.19407 -0.91509,1.94072 -1.49465,3.94613 -0.61006,1.97306 -1.25062,3.71972 -1.46414,3.84909 -0.54905,0.35581 -9.57792,0.29111 -9.79144,-0.0971 -0.12201,-0.19406 0.21352,-1.7143 0.76258,-3.39626 1.46414,-4.65772 1.58615,-4.52834 -3.446834,-4.59304 -3.690853,-0.0971 -4.209403,-0.0323 -4.392421,0.45284 -0.244023,0.64691 1.128609,6.79252 2.653755,11.74136 a 115.60608,122.58882 0 0 0 17.11214,35.19172 l 2.1352,3.00812 -0.12201,7.01893 c -0.0305,4.20489 -0.18301,7.01894 -0.36603,7.01894 -0.85408,0 -9.45591,-11.38556 -13.36028,-17.78993 A 133.51129,141.57553 0 0 1 91.123483,176.05518 l -1.128608,-3.23453 -2.013193,-0.0971 -2.013193,-0.0971 v 53.04635 l 5.093988,0.12937 5.124492,0.0646 v 6.46906 l -14.122854,0.0971 c -11.591111,0.0646 -14.153356,0 -14.275368,-0.32345 z M 196.11455,162.89063 c 0,-0.16173 -4.02639,-6.95425 -8.93736,-15.00823 l -8.90686,-14.68478 h -5.06348 v 22.31828 h 7.90026 c 4.33142,0 8.11377,0.0971 8.3883,0.19408 0.39654,0.16172 1.55565,2.03775 4.33142,6.8572 0.45754,0.77629 2.25722,1.0674 2.25722,0.32345 z m -61.6159,-30.04881 c 0,-0.61456 -2.13521,-7.89226 -5.094,-17.49882 -0.61006,-1.94072 -1.18961,-3.4933 -1.34212,-3.4933 -0.15252,0 -0.42705,0.61456 -0.61006,1.32616 -0.48806,1.61726 -0.39654,2.10244 2.1352,11.25618 1.58615,5.62808 1.83018,6.95424 1.52515,7.18066 -0.24403,0.16173 -2.37924,0.32346 -4.75846,0.32346 -4.33142,0 -4.91098,0.12937 -4.57544,1.13208 0.15252,0.38814 1.25062,0.45283 6.43612,0.45283 6.19209,0 6.28361,0 6.28361,-0.64691 z m 49.53674,-7.05128 c 5.39901,-2.00541 8.11378,-5.75748 8.11378,-11.19149 0,-4.26958 -1.64716,-7.43942 -4.69745,-9.05669 -2.80628,-1.4232 -4.54494,-1.74665 -9.57793,-1.77899 h -4.63643 v 11.32086 c 0,8.73324 0.0915,11.32087 0.36602,11.45025 0.21353,0.12938 2.22672,0.12938 4.51445,0.0646 a 18.911812,20.054107 0 0 0 5.91756,-0.80864 z m 99.53104,106.31911 c -0.0611,-0.22641 -0.0611,-15.20231 0,-33.3157 l 0.15251,-32.92755 h 3.44683 c 2.83678,0 3.47734,0.0971 3.62985,0.51754 0.0915,0.2911 0.18302,6.24264 0.18302,13.26158 v 12.74406 l 0.76257,0.19408 c 0.51855,0.16172 16.25806,0 20.34545,-0.16173 0.12201,0 0.27452,-5.95155 0.30502,-13.19691 l 0.0915,-13.19689 2.86728,-0.25876 c 1.55565,-0.12939 3.1723,-0.16173 3.56884,-0.0646 l 0.73207,0.19408 -0.0915,33.21864 -0.0611,33.21866 h -7.01567 l -0.0915,-16.39908 -0.0611,-16.43143 h -21.35205 v 5.53106 c 0,4.26957 0.0915,5.49871 0.36603,5.40166 0.21353,-0.0646 1.70817,-1.87603 3.35532,-3.97847 a 280.93192,297.90052 0 0 1 3.72136,-4.75477 l 0.73207,-0.90567 4.97197,0.0971 c 4.54495,0.0646 5.00249,0.12939 5.00249,0.64691 0,0.74395 -4.66696,7.66585 -8.14428,12.09716 -1.52515,1.94072 -4.36192,5.33698 -6.37511,7.60115 l -3.66035,4.10786 v 3.07281 c 0,1.68196 -0.0611,3.29923 -0.15252,3.55799 -0.15251,0.45282 -0.79307,0.51752 -3.66035,0.51752 -2.44024,0 -3.44684,-0.0971 -3.56884,-0.38815 z m -85.40819,-9.18607 c -0.12201,-0.12939 -0.21351,-10.90038 -0.21351,-23.93555 v -23.74148 h 7.01567 v 6.92191 l 0.18301,23.93554 0.21352,17.01365 h -3.50783 c -1.92169,0 -3.59935,-0.0971 -3.72136,-0.19407 z m 106.85175,-31.63374 c 0,-0.29111 0.67105,-1.84368 1.52514,-3.46095 0.85408,-1.61727 2.1047,-4.20489 2.74527,-5.72513 0.82357,-1.84368 1.31161,-2.65232 1.52514,-2.4259 0.18301,0.19407 0.30503,2.55529 0.21352,6.14562 l -0.0611,5.75746 -2.98928,0.0971 c -2.50124,0.0971 -2.95878,0 -2.95878,-0.38813 z m 15.7395,-15.07293 c -0.12202,-0.25876 -0.21352,-2.94342 -0.27452,-5.98389 l -0.0611,-5.4987 -2.0742,-0.0971 c -1.37263,-0.0646 -2.1352,-0.22642 -2.22671,-0.51752 a 19.216842,20.37756 0 0 1 0.76257,-4.2049 110.5731,117.25184 0 0 0 3.41632,-29.95178 c 0,-16.49612 -2.62324,-30.825103 -8.4188,-45.930374 l -1.64716,-4.36662 -17.53918,-0.161726 c -9.63892,-0.06469 -17.60018,-0.226418 -17.69169,-0.323454 -0.0611,-0.06469 -0.18302,-16.657847 -0.30503,-36.841335 L 274.53747,5.6599018 309.3413,5.8863191 c 27.20861,0.1617267 34.86485,0.3234534 35.07837,0.6145614 0.12201,0.2264173 0.18302,16.6901925 0.15252,36.6149185 l -0.0611,36.226774 -12.44519,0.09703 c -10.03546,0.06469 -12.41469,0.161726 -12.41469,0.517525 0,0.226417 0.33553,1.293813 0.76257,2.4259 a 133.05375,141.09035 0 0 1 7.96127,33.186312 c 0.70157,5.66044 0.79307,23.54741 0.18301,28.94908 a 135.73801,143.93674 0 0 1 -5.49053,26.62021 c -1.46414,4.72242 -2.04369,5.95154 -2.31822,5.07822 z M 9.4061511,164.05507 c -3.2638128,-0.64691 -7.93076,-2.55529 -7.93076,-3.23453 0,-1.19678 1.3116257,-5.95155 1.6471578,-5.95155 0.2135205,0 0.823579,0.16173 1.3421287,0.35581 0.7015672,0.25876 1.0981052,0.25876 1.3726315,0.0323 0.2745263,-0.25876 1.1286082,-0.0323 3.1112982,0.74394 1.5251457,0.61457 3.8738717,1.32617 5.2770067,1.61727 2.379228,0.51753 2.71476,0.51753 4.575438,0.0323 5.582035,-1.45554 8.784842,-4.5607 9.760935,-9.50954 a 11.255579,11.935428 0 0 0 -4.361918,-12.58234 c -1.006596,-0.80863 -4.880467,-3.04045 -8.540818,-4.94883 A 80.222688,85.068228 0 0 1 7.087929,125.6611 14.91593,15.816868 0 0 1 9.8026891,98.296945 c 3.8128659,-2.037756 5.9480709,-2.36121 13.1772639,-2.199483 4.788958,0.129381 6.741146,0.323453 9.150877,0.873324 a 18.423766,19.536582 0 0 1 3.324818,0.97036 c 0.244024,0.291108 -0.915088,5.434014 -1.311626,5.919194 -0.122011,0.12938 -0.671064,0.097 -1.220116,-0.0647 -0.671065,-0.22642 -1.189614,-0.19407 -1.525147,0.0323 -0.427041,0.25876 -1.372631,0.12938 -3.96538,-0.54987 -5.795555,-1.52023 -10.218479,-0.77629 -13.451789,2.32886 -2.074199,1.97307 -2.806269,3.55799 -2.989287,6.46907 -0.122012,2.0701 -0.06101,2.58763 0.671064,4.1402 1.433638,3.0728 3.446831,4.65773 10.859042,8.50682 3.599345,1.87603 7.320701,3.94613 8.296795,4.65773 a 18.698292,19.82769 0 0 1 7.442713,10.12409 c 0.671064,2.32886 0.73207,7.213 0.152515,9.86532 a 18.301754,19.4072 0 0 1 -12.689216,13.8438 c -2.318223,0.80864 -2.806269,0.84099 -8.998363,0.90568 -3.629848,0.0323 -6.9241639,0 -7.3207019,-0.0646 z M 231.95548,157.71538 c -0.0915,-3.07281 -0.18301,-16.52846 -0.18301,-29.91944 v -24.32368 l -0.73208,-0.19407 a 113.16585,120.00119 0 0 0 -8.69333,-0.097 c -5.97858,0.0647 -8.02227,0.22642 -8.3273,0.51753 -0.79308,0.87332 0.54905,1.03505 7.86975,1.03505 h 7.38171 l 0.18302,3.97847 c 0.12201,2.16714 0.18302,13.58504 0.12201,25.29405 l -0.0915,21.34792 -12.14016,0.0971 -12.10966,0.0971 v -33.57447 a 1955.5424,2073.6593 0 0 0 -0.18302,-40.043513 l 0.18302,-0.808633 h 68.8451 l 0.18301,7.827571 c 0.12201,4.301929 0.21353,20.959775 0.21353,37.035405 V 155.1925 H 258.7981 c -8.63233,0 -15.92253,0.0971 -16.16655,0.19408 -0.39654,0.16173 -0.48804,0.80864 -0.48804,3.65502 0,2.26418 -0.12202,3.59033 -0.36604,3.88144 -0.27452,0.25876 -1.83017,0.3558 -5.00248,0.3558 h -4.60595 z M 255.1377,104.2162 c 0.12202,-0.25876 0,-0.64691 -0.21352,-0.80863 -0.24402,-0.12938 -3.05029,-0.25877 -6.2226,-0.25877 -3.2028,0 -6.00907,0.12939 -6.22259,0.25877 -0.24403,0.16172 -0.33553,0.54987 -0.24403,0.80863 0.15252,0.45284 0.9761,0.51753 6.46662,0.51753 5.49053,0 6.28361,-0.0647 6.46663,-0.51753 z M 64.311414,129.99544 v -24.90592 h 2.745263 l -0.09151,24.80887 -0.06101,24.80887 -1.311626,0.0971 -1.281122,0.0971 z"
     id="path16"
     style="fill:#d3d3d3;fill-opacity:1;stroke-width:0.31410623"
     inkscape:connector-curvature="0" />
  <path
     d="m 202.32335,260.20283 a 124.1469,131.64551 0 0 1 -54.75274,-18.7603 c -5.70405,-3.65502 -14.12285,-10.15644 -15.46499,-11.90308 -0.57955,-0.74395 -0.54905,-12.64703 0.0305,-12.64703 0.24403,0 1.52515,1.00271 2.83678,2.26417 3.35532,3.23454 4.30091,3.97848 4.81946,3.75207 0.39654,-0.16173 0.45754,-1.32617 0.48805,-7.89227 v -7.66584 l 0.64056,1.29381 c 1.22012,2.4259 8.78484,19.98941 8.78484,20.37756 0,0.22642 -0.30503,0.48518 -0.67107,0.58221 -0.64056,0.19408 -0.64056,0.19408 -0.0611,0.87333 0.91509,1.09975 7.22919,4.91649 12.99425,7.89227 a 113.86741,120.74513 0 0 0 121.46266,-14.94355 c 2.98929,-2.55529 4.02638,-3.23453 4.2399,-2.91108 0.15252,0.22642 0.21353,2.81405 0.12202,6.01623 -0.21352,6.63079 0.18301,5.85451 -4.88047,9.7036 a 124.1469,131.64551 0 0 1 -57.98606,23.54741 177.405,188.12046 0 0 1 -22.57216,0.42049 z m 42.09404,-27.17008 c -2.47074,-0.32346 -7.83925,-2.10245 -8.72383,-2.84639 l -0.61006,-0.54987 0.67107,-2.84639 c 0.36603,-1.58493 0.85407,-2.91108 1.0981,-3.00813 0.21351,-0.0971 1.58615,0.29112 3.05029,0.84099 3.66035,1.39085 6.37511,1.94072 9.51691,1.94072 4.45342,0 7.68674,-1.26147 10.27948,-4.01083 2.19622,-2.29651 2.9588,-4.52834 2.98929,-8.60385 0.0305,-2.84639 -0.0305,-3.23453 -0.94559,-5.23995 -1.76917,-3.75205 -4.3009,-5.69277 -13.14675,-10.09174 -5.88707,-2.91108 -7.59523,-4.04317 -9.88295,-6.5661 a 14.092351,14.943544 0 0 1 -3.96538,-13.03517 c 0.88458,-6.5661 5.00248,-11.38556 11.80462,-13.81146 2.31823,-0.80863 2.77577,-0.87333 8.08328,-0.87333 4.75846,0 6.10059,0.12939 8.54082,0.7116 1.58616,0.42049 3.05029,0.90567 3.26381,1.13209 0.30503,0.32345 0.27453,0.97036 -0.33553,3.26687 a 24.402339,25.876267 0 0 1 -0.88459,3.00813 c -0.0915,0.0971 -1.64716,-0.22642 -3.44683,-0.7116 a 25.073403,26.587864 0 0 0 -12.47569,-0.22642 c -4.36191,1.4232 -7.01568,4.49601 -7.38171,8.47448 -0.21352,2.55527 0.0611,3.84909 1.22013,5.66043 1.43363,2.32887 3.99587,4.1402 10.554,7.53646 3.26381,1.64961 6.68014,3.55799 7.62573,4.2049 3.84337,2.58762 7.01568,6.79252 8.11378,10.73865 0.61005,2.26417 0.61005,7.5688 0,10.35051 -1.46414,6.5014 -7.07668,12.16184 -14.03135,14.10256 -2.2267,0.6469 -8.05276,0.87332 -10.98105,0.45284 z M 16.560551,231.35079 c -0.09151,-0.38815 -0.122012,-15.36404 -0.06101,-33.21866 l 0.06101,-32.50706 h 33.248186 l 0.09151,2.84638 c 0.06101,1.84369 -0.0305,3.04047 -0.244024,3.29923 -0.305029,0.38815 -2.531742,0.48518 -12.963742,0.48518 -11.194573,0 -12.597707,0.0323 -12.780725,0.48518 -0.09151,0.29111 -0.183017,5.01353 -0.183017,10.47989 0,7.92461 0.09151,10.02706 0.42704,10.35051 0.274527,0.22642 3.995883,0.35579 11.804632,0.42049 l 11.408093,0.0971 v 6.46906 l -11.591111,0.0646 c -8.754339,0.0646 -11.591111,0.19406 -11.774128,0.48518 -0.152515,0.22642 -0.244024,7.2777 -0.244024,15.68748 v 15.29934 h -3.507836 c -3.385824,0 -3.507836,-0.0323 -3.660351,-0.74394 z m 56.430408,0.32345 c -0.09151,-0.25876 -0.122012,-1.74665 -0.09151,-3.33157 l 0.09151,-2.91108 5.277006,-0.0646 5.246503,-0.0971 v -53.04635 h -4.849965 c -2.653754,0 -5.063485,-0.0646 -5.338012,-0.19408 -0.396538,-0.16172 -0.488046,-0.77628 -0.488046,-3.39626 v -3.16984 h 9.699929 c 5.338012,0 9.852444,-0.16172 10.065965,-0.32345 0.335532,-0.19407 0.274526,-0.87333 -0.335532,-3.4286 a 136.95813,145.23055 0 0 1 -1.098106,-5.07822 c -0.396538,-2.07011 -0.457543,-2.10245 -3.355321,-2.26417 l -1.708164,-0.0646 -0.21352,-22.31828 c -0.122012,-12.29122 -0.152515,-22.51234 -0.09151,-22.73876 0.122012,-0.32345 1.555649,-0.38814 5.795556,-0.38814 3.355321,0 5.94807,-0.16173 6.283602,-0.32346 0.488047,-0.32345 0.610059,-0.71159 0.610059,-2.71701 3e-6,-1.39093 -0.152512,-2.49067 -0.396535,-2.71709 -0.366035,-0.42049 -12.506198,-0.61456 -13.482292,-0.19407 -0.427041,0.16173 -0.488047,3.07281 -0.488047,29.69302 0,22.51234 -0.06101,29.56362 -0.366035,29.88708 -0.244023,0.25877 -1.799672,0.38814 -4.971976,0.38814 H 74.15007 l -0.183017,-5.43401 c -0.09151,-2.97577 -0.09151,-16.17267 0,-29.36956 0.152514,-18.82498 0.122011,-24.09727 -0.183018,-24.67949 l -0.366035,-0.74394 -9.059368,0.097 c -4.971977,0.0647 -9.211883,0 -9.455906,-0.16172 -0.457544,-0.32346 -0.488047,-5.239948 0,-5.563402 0.152514,-0.129381 9.791438,-0.194072 21.413052,-0.161727 18.271251,0.03234 21.169029,0 21.687578,-0.420489 0.488047,-0.388144 0.549053,-0.614561 0.30503,-1.067396 -0.335533,-0.549868 -1.220117,-0.614559 -14.549895,-0.679249 l -14.214362,-0.09703 -0.122012,-6.533758 c -0.0305,-3.590332 0,-6.889556 0.122012,-7.2777 l 0.244023,-0.711597 h 28.398222 l 0.488047,-1.390849 c 0.305029,-0.743943 1.525149,-3.493296 2.714759,-6.048578 A 116.21614,123.23572 0 0 1 124.69342,38.31384 114.44697,121.35969 0 0 1 138.60275,25.505088 c 0.54905,-0.323454 0.61006,-0.840979 0.64056,-10.253471 0,-5.4987078 0.12202,-10.1564359 0.21352,-10.4151986 0.15252,-0.4204893 2.98929,-0.4528346 20.92501,-0.4528346 19.67438,0 20.86399,-0.064691 22.51116,-0.6469067 a 118.9614,126.1468 0 0 1 52.03798,-1.2938134 c 4.51444,0.9380147 5.03299,1.0997414 4.69745,1.4878854 -0.12201,0.097036 -6.80215,0.1617267 -14.85492,0.1293813 -10.432,-0.032345 -14.82442,0.064691 -15.28196,0.3234534 l -0.67107,0.3557986 0.24402,37.0030626 0.21352,37.035407 h -69.9432 V 58.141529 c 0,-11.64432 -0.12201,-20.830395 -0.27452,-21.089157 -0.36604,-0.646907 -0.9761,-0.194072 -5.216,3.94613 a 114.99602,121.94191 0 0 0 -20.00993,26.199721 81.137776,86.038588 0 0 0 -5.91756,12.226536 c 0,0.614561 0.48804,0.646907 15.49549,0.711597 l 15.46497,0.09703 0.21353,8.571513 0.18302,8.571514 8.14427,26.361447 8.90686,28.85204 0.76258,2.49059 4.48392,0.0971 4.45343,0.0971 0.0915,3.59034 c 0.0915,3.71971 0.39654,4.62538 1.43363,4.20489 0.42705,-0.16172 0.45755,-4.01082 0.45755,-32.99224 0,-25.87627 0.0915,-32.862862 0.39653,-33.08928 0.21353,-0.194072 5.39903,-0.226417 12.87224,-0.09703 13.84833,0.226417 14.24487,0.291108 18.39327,2.4259 5.338,2.7817 8.17478,7.92461 8.08326,14.71713 a 15.281965,16.205012 0 0 1 -4.05688,11.12679 21.504561,22.80346 0 0 1 -7.47322,5.01353 8.357801,8.8626215 0 0 0 -2.1352,0.97036 c -0.24402,0.48518 14.45839,23.67678 15.12945,23.87085 0.36603,0.0971 0.61006,0.45284 0.61006,0.87333 0,0.38814 0.76257,2.00541 1.70816,3.55798 a 9.7609355,10.350507 0 0 1 1.52515,3.00812 c -0.12202,0.12938 -0.88459,0.32345 -1.64716,0.38814 -1.28112,0.16173 -1.46414,0.2911 -1.52515,1.0027 -0.0611,0.51754 0.12202,1.0674 0.51856,1.4232 0.54905,0.51752 0.61006,0.97036 0.61006,3.39626 0,1.74664 -0.12202,2.94342 -0.36604,3.20218 -0.24402,0.25878 -1.83018,0.38815 -5.1855,0.38815 h -4.81946 l 0.0915,26.42614 0.061,26.45848 5.03299,0.16173 5.03298,0.16173 v 6.46906 h -28.36772 l -0.0915,-0.80863 c -0.21353,-1.61727 -0.15252,-1.61727 -9.54741,-1.61727 h -8.81535 v -31.8278 c 0,-25.55281 -0.061,-31.89251 -0.39654,-32.34533 -0.24402,-0.38815 -0.67107,-0.54988 -1.28113,-0.48518 l -0.91508,0.12937 -0.15251,33.47742 -0.15252,33.47742 -3.84337,0.0646 c -2.83677,0.0647 -3.90437,0 -4.1484,-0.32346 -0.18301,-0.22642 -5.15499,-11.67666 -11.04205,-25.45578 -5.88707,-13.81146 -10.85905,-25.22936 -11.01156,-25.39108 -0.18302,-0.19407 -0.30503,9.05669 -0.30503,24.9706 0,13.90849 -0.0611,25.48812 -0.18302,25.77923 -0.27452,0.74394 -6.98517,0.74394 -7.25969,0 -0.21352,-0.67926 -0.21352,-64.94943 0,-65.62869 0.18302,-0.42049 0.82358,-0.48518 4.08739,-0.48518 2.74527,0 3.96538,0.0971 4.2094,0.38815 0.15251,0.22642 5.06348,11.45025 10.92005,24.90591 a 1064.552,1128.8521 0 0 0 11.04206,25.09997 c 0.36604,0.45284 0.39654,0.32345 0.27452,-1.22912 -0.122,-1.45554 -1.40313,-4.72241 -6.86315,-17.46648 l -6.71064,-15.71983 -0.0611,-12.45295 v -13.16456 c 0,-0.67924 0.15251,-0.7116 1.98269,-0.7116 2.31823,0 2.25722,-0.0646 3.66035,4.52835 0.48805,1.48789 1.06761,2.97577 1.31163,3.29923 0.57955,0.7116 1.25062,0.74394 1.49464,0.0648 0.18302,-0.48518 -6.13109,-22.31828 -6.71064,-23.02988 -0.21352,-0.32345 -2.34873,-0.38815 -8.75434,-0.38815 -8.2968,0 -8.54082,0 -8.84585,0.64691 -0.79308,1.55257 -0.54905,1.61727 7.62573,1.61727 h 7.62573 l -0.061,6.2103 -0.0915,6.24265 -9.4254,0.0646 a 60.700817,64.367214 0 0 0 -9.82194,0.45284 c -0.21352,0.19407 -0.91509,1.94072 -1.52515,3.94613 -0.61005,1.97307 -1.22011,3.71971 -1.43363,3.84909 -0.54906,0.3558 -9.57792,0.32346 -9.82195,-0.0971 -0.0915,-0.16173 0.24403,-1.68196 0.76258,-3.36392 1.49464,-4.69008 1.61665,-4.52835 -3.41633,-4.62538 -3.72136,-0.0971 -4.23991,-0.0323 -4.39242,0.45283 -0.27453,0.64691 1.12861,6.79252 2.65375,11.7737 a 115.60608,122.58882 0 0 0 17.11215,35.15938 l 2.1047,3.00811 -0.0915,7.01894 c -0.0611,4.2049 -0.18301,7.05128 -0.36604,7.05128 -0.88458,0 -9.45591,-11.4179 -13.36028,-17.78993 A 133.51129,141.57553 0 0 1 96.325696,175.65212 l -1.159112,-3.23453 -2.013192,-0.0971 -2.013193,-0.0971 v 53.04635 l 5.124491,0.0971 5.09399,0.0971 v 6.46907 l -14.092353,0.0646 c -11.591111,0.0648 -14.153356,0 -14.275368,-0.32345 z M 201.22525,162.45523 c 0,-0.19407 -3.99588,-6.98659 -8.90685,-15.04058 l -8.93736,-14.65244 h -5.03298 v 22.28593 h 7.93076 c 4.33142,0 8.11377,0.0971 8.35781,0.19408 0.39653,0.16173 1.58614,2.03775 4.36191,6.85721 0.45755,0.77628 2.22671,1.0674 2.22671,0.3558 z m -61.6159,-30.08116 c 0,-0.61457 -2.1047,-7.89227 -5.06348,-17.49883 -0.61006,-1.94072 -1.22012,-3.46095 -1.34214,-3.46095 -0.15252,0 -0.42704,0.58222 -0.64056,1.29382 -0.45754,1.61726 -0.36604,2.10244 2.16571,11.25617 1.55565,5.62809 1.83018,6.95425 1.52515,7.18067 -0.24402,0.16172 -2.37923,0.32345 -4.78896,0.32345 -4.30091,0 -4.88047,0.12937 -4.54494,1.13209 0.15252,0.38814 1.22011,0.48518 6.43611,0.48518 6.1616,0 6.25311,0 6.25311,-0.7116 z m 49.56724,-7.05128 c 5.36852,-2.00542 8.08328,-5.75747 8.08328,-11.15914 0,-4.30193 -1.64716,-7.50412 -4.69745,-9.0567 -2.77577,-1.45554 -4.51443,-1.77899 -9.54741,-1.77899 h -4.66695 v 11.28852 c 0,8.73323 0.0915,11.32086 0.39654,11.48259 0.21352,0.0971 2.22671,0.0971 4.48393,0.0323 a 18.911812,20.054107 0 0 0 5.94806,-0.80863 z m 99.56155,106.35145 c -0.0611,-0.22642 -0.0611,-15.20231 0,-33.31569 l 0.15251,-32.89521 h 3.44683 c 2.83678,0 3.44684,0.0646 3.59934,0.48518 0.12202,0.29111 0.18303,6.24265 0.18303,13.26159 v 12.74406 l 0.76257,0.19407 c 0.54905,0.16173 16.28856,0 20.37595,-0.16173 0.12201,0 0.24403,-5.95153 0.30503,-13.19689 l 0.0611,-13.16455 2.86728,-0.2911 c 1.58616,-0.12939 3.2028,-0.16173 3.59934,-0.0646 l 0.70158,0.19407 -0.0611,33.21866 -0.0915,33.251 h -7.01567 l -0.0611,-16.43143 -0.0915,-16.39908 h -21.35204 v 5.4987 c 0,4.26959 0.0915,5.49871 0.39652,5.40168 0.21353,-0.0646 1.70818,-1.87603 3.35533,-3.97848 1.61666,-2.1348 3.29432,-4.26958 3.69085,-4.75476 l 0.76258,-0.90567 4.97198,0.0971 c 4.51443,0.0646 4.97197,0.12938 4.97197,0.64691 0,0.74394 -4.63645,7.66584 -8.11377,12.09715 -1.52515,1.94072 -4.39243,5.33699 -6.40562,7.60116 l -3.62984,4.10785 v 3.0728 c 0,1.68196 -0.0611,3.29923 -0.18303,3.55799 -0.15251,0.45284 -0.76257,0.54987 -3.62985,0.54987 -2.44023,0 -3.47732,-0.12937 -3.56883,-0.42048 z m -85.40819,-9.18608 c -0.1525,-0.12937 -0.24402,-10.90037 -0.24402,-23.93555 v -23.70912 h 7.01568 v 6.88955 c 0,3.78441 0.0915,14.5554 0.21351,23.93555 l 0.21352,17.04599 h -3.50783 c -1.95219,0 -3.59934,-0.0971 -3.72136,-0.22642 z m 106.82124,-31.63373 c 0,-0.2911 0.70158,-1.81134 1.52515,-3.46096 0.88458,-1.61726 2.13521,-4.20489 2.77577,-5.69277 0.82357,-1.87603 1.31162,-2.68466 1.52514,-2.45824 0.18302,0.19407 0.27453,2.55527 0.21352,6.14561 l -0.0915,5.78981 -2.95878,0.0646 c -2.50125,0.0971 -2.98929,0 -2.98929,-0.38814 z m 15.73951,-15.04058 c -0.0915,-0.2911 -0.21352,-2.97578 -0.24402,-5.98389 l -0.0915,-5.49871 -2.07419,-0.0971 c -1.34213,-0.0648 -2.13521,-0.25876 -2.22672,-0.54987 a 19.216842,20.37756 0 0 1 0.79308,-4.17254 110.5731,117.25184 0 0 0 3.41633,-29.95179 c 0,-16.49611 -2.65376,-30.857438 -8.41881,-45.930363 l -1.67766,-4.36662 -17.50868,-0.161727 c -9.63892,-0.09703 -17.60018,-0.258763 -17.6917,-0.323453 -0.061,-0.09703 -0.18301,-16.690193 -0.30502,-36.873681 L 279.7093,5.2244967 314.51313,5.450914 c 27.2086,0.1617267 34.86484,0.3234534 35.07835,0.6469067 0.12202,0.194072 0.18303,16.6901933 0.15252,36.6149183 l -0.0915,36.226774 -12.41469,0.06469 c -10.06596,0.06469 -12.44519,0.161727 -12.44519,0.517526 0,0.226417 0.36604,1.326158 0.79307,2.4259 a 133.05375,141.09035 0 0 1 7.96127,33.218661 c 0.70157,5.62808 0.79308,23.54739 0.15252,28.94906 a 135.73801,143.93674 0 0 1 -5.46004,26.58787 c -1.46413,4.72241 -2.04369,5.95155 -2.34872,5.11056 z M 14.577861,163.61965 c -3.23331,-0.6469 -7.9307606,-2.55527 -7.9307606,-3.23453 0,-1.19677 1.3421286,-5.91919 1.6776608,-5.91919 0.2135204,0 0.8235789,0.12938 1.3421286,0.32345 0.6710642,0.25876 1.0981052,0.25876 1.3421282,0.0323 0.30503,-0.22642 1.159112,0 3.141802,0.74394 1.494643,0.61455 3.873871,1.3585 5.277006,1.61726 2.379228,0.54988 2.71476,0.54988 4.575438,0.0646 5.551532,-1.4879 8.784842,-4.59304 9.760936,-9.50954 a 11.255579,11.935428 0 0 0 -4.392421,-12.61468 c -1.006597,-0.80863 -4.849965,-3.04046 -8.540819,-4.94883 a 80.222688,85.068228 0 0 1 -8.540818,-4.94883 14.91593,15.816868 0 0 1 2.71476,-27.364156 c 3.812865,-2.005411 5.94807,-2.36121 13.14676,-2.199483 4.788959,0.129381 6.771649,0.323453 9.150877,0.873324 a 18.393263,19.504236 0 0 1 3.355321,0.97036 c 0.244024,0.291108 -0.915087,5.434015 -1.311625,5.919195 -0.122012,0.12938 -0.671065,0.097 -1.220117,-0.0647 -0.701567,-0.19407 -1.189614,-0.19407 -1.525146,0.0323 -0.427041,0.29111 -1.372632,0.16173 -3.96538,-0.51753 -5.795556,-1.55257 -10.21848,-0.77628 -13.482293,2.29652 -2.043695,1.97307 -2.806269,3.55799 -2.958783,6.46907 -0.152515,2.0701 -0.06101,2.58763 0.671064,4.1402 1.403135,3.07281 3.416328,4.65772 10.828538,8.50681 3.629848,1.87603 7.351204,3.97848 8.296795,4.65774 a 18.698292,19.82769 0 0 1 7.473216,10.15643 c 0.640562,2.29652 0.732071,7.213 0.122012,9.86532 a 18.301754,19.4072 0 0 1 -12.689216,13.81146 c -2.287719,0.80864 -2.775766,0.87333 -8.998362,0.93802 -3.599345,0 -6.893661,0 -7.320702,-0.0971 z M 237.1577,157.27997 c -0.12201,-3.0728 -0.21352,-16.52846 -0.21352,-29.91943 v -24.32369 l -0.73208,-0.19407 a 113.16585,120.00119 0 0 0 -8.66282,-0.097 c -5.97858,0.097 -8.05278,0.22641 -8.35781,0.51752 -0.79307,0.87333 0.57956,1.03505 7.90026,1.03505 h 7.35121 l 0.21351,3.97848 c 0.12202,2.16714 0.15252,13.58503 0.0915,25.32639 l -0.0915,21.34792 -12.10965,0.0646 -12.14017,0.0971 v -33.57446 a 1955.5424,2073.6593 0 0 0 -0.15252,-40.011166 l 0.18303,-0.808633 h 68.81459 l 0.21352,7.795225 c 0.0915,4.30193 0.18302,20.959774 0.18302,37.035404 v 29.24018 h -15.67851 c -8.63233,0 -15.89202,0.0646 -16.16655,0.19407 -0.39654,0.16173 -0.48804,0.77629 -0.48804,3.65503 0,2.26417 -0.12201,3.55798 -0.36604,3.84908 -0.24402,0.25877 -1.79967,0.38815 -4.97198,0.38815 h -4.60594 z m 23.18222,-53.49917 c 0.12201,-0.25877 0,-0.64691 -0.24402,-0.77629 -0.21352,-0.16173 -3.0503,-0.32346 -6.22261,-0.32346 -3.17229,0 -5.97856,0.16173 -6.22258,0.32346 -0.21353,0.16172 -0.30503,0.51752 -0.21353,0.77629 0.15252,0.45283 0.97609,0.54987 6.43611,0.54987 5.49053,0 6.31412,-0.097 6.46663,-0.54987 z M 69.483123,129.56002 v -24.9059 h 2.775766 l -0.09151,24.80887 -0.09151,24.84121 -1.281122,0.0971 -1.311626,0.0971 z"
     id="path18"
     style="opacity:0.41499999;fill:#f1fcf7;fill-opacity:1;stroke-width:0.31410623"
     inkscape:connector-curvature="0" />
  <path
     style="opacity:0.59100001;fill:url(#linearGradient844);fill-opacity:1;stroke-width:0.31410623"
     id="path823"
     d="M 206.79575,270.87685 A 124.1469,131.64551 0 0 1 152.043,252.11655 c -5.70405,-3.65502 -14.12286,-10.15644 -15.46498,-11.90308 -0.57956,-0.74395 -0.54905,-12.64703 0.0305,-12.64703 0.24403,0 1.52515,1.00271 2.83677,2.26417 3.35532,3.23454 4.30091,3.97848 4.81947,3.75207 0.39653,-0.16173 0.45754,-1.32617 0.48804,-7.89227 v -7.66584 l 0.64056,1.29381 c 1.22012,2.4259 8.78484,19.98941 8.78484,20.37756 0,0.22642 -0.30503,0.48518 -0.67106,0.58221 -0.64057,0.19408 -0.64057,0.19408 -0.0611,0.87333 0.91509,1.09975 7.2292,4.91649 12.99425,7.89227 A 113.86741,120.74513 0 0 0 287.903,234.1002 c 2.98928,-2.55529 4.02637,-3.23453 4.2399,-2.91108 0.15251,0.22642 0.21352,2.81405 0.12201,6.01623 -0.21352,6.63079 0.18302,5.85451 -4.88047,9.7036 a 124.1469,131.64551 0 0 1 -57.98606,23.54741 177.405,188.12046 0 0 1 -22.57216,0.42049 z m 42.09403,-27.17008 c -2.47073,-0.32346 -7.83926,-2.10245 -8.72384,-2.84639 l -0.61006,-0.54987 0.67107,-2.84639 c 0.36604,-1.58493 0.85408,-2.91108 1.0981,-3.00813 0.21353,-0.0971 1.58615,0.29112 3.05029,0.84099 3.66035,1.39085 6.37512,1.94072 9.51692,1.94072 4.45343,0 7.68673,-1.26147 10.27949,-4.01083 2.1962,-2.29651 2.95878,-4.52834 2.98928,-8.60385 0.0305,-2.84639 -0.0305,-3.23453 -0.94559,-5.23995 -1.76917,-3.75205 -4.30091,-5.69277 -13.14676,-10.09174 -5.88707,-2.91108 -7.59523,-4.04317 -9.88295,-6.5661 a 14.092351,14.943544 0 0 1 -3.96538,-13.03517 c 0.88458,-6.5661 5.00248,-11.38556 11.80464,-13.81146 2.31822,-0.80863 2.77577,-0.87333 8.08327,-0.87333 4.75846,0 6.10058,0.12939 8.54082,0.7116 1.58615,0.42049 3.05029,0.90567 3.2638,1.13209 0.30503,0.32345 0.27454,0.97036 -0.33552,3.26687 a 24.402339,25.876267 0 0 1 -0.88459,3.00813 c -0.0915,0.0971 -1.64715,-0.22642 -3.44682,-0.7116 a 25.073403,26.587864 0 0 0 -12.4757,-0.22642 c -4.36192,1.4232 -7.01567,4.49601 -7.38171,8.47448 -0.21353,2.55527 0.0611,3.84909 1.22012,5.66043 1.43363,2.32887 3.99588,4.1402 10.554,7.53646 3.26383,1.64961 6.68014,3.55799 7.62574,4.2049 3.84337,2.58762 7.01567,6.79252 8.11378,10.73865 0.61006,2.26417 0.61006,7.5688 0,10.35051 -1.46415,6.5014 -7.07668,12.16184 -14.03134,14.10256 -2.22672,0.6469 -8.05278,0.87332 -10.98106,0.45284 z M 21.032937,242.02481 c -0.09151,-0.38815 -0.122011,-15.36404 -0.06101,-33.21866 l 0.06101,-32.50706 h 33.248187 l 0.09151,2.84638 c 0.06101,1.84369 -0.0305,3.04047 -0.244023,3.29923 -0.30503,0.38815 -2.531743,0.48518 -12.963743,0.48518 -11.194573,0 -12.597707,0.0323 -12.780725,0.48518 -0.09151,0.29111 -0.183017,5.01353 -0.183017,10.47989 0,7.92461 0.09151,10.02706 0.427041,10.35051 0.274526,0.22642 3.995883,0.35579 11.804631,0.42049 l 11.408093,0.0971 v 6.46906 l -11.59111,0.0646 c -8.754339,0.0646 -11.591111,0.19406 -11.774129,0.48518 -0.152514,0.22642 -0.244023,7.2777 -0.244023,15.68748 v 15.29934 h -3.507836 c -3.385825,0 -3.507837,-0.0323 -3.660351,-0.74394 z m 56.430409,0.32345 c -0.09151,-0.25876 -0.122012,-1.74665 -0.09151,-3.33157 l 0.09151,-2.91108 5.277005,-0.0646 5.246503,-0.0971 v -53.04637 h -4.849965 c -2.653754,0 -5.063485,-0.0646 -5.338011,-0.19408 -0.396538,-0.16173 -0.488047,-0.77628 -0.488047,-3.39626 v -3.16984 h 9.69993 c 5.338011,0 9.852444,-0.16173 10.065964,-0.32345 0.335532,-0.19407 0.274527,-0.87333 -0.335532,-3.4286 a 136.95813,145.23055 0 0 1 -1.098105,-5.07822 c -0.396538,-2.07011 -0.457544,-2.10245 -3.355322,-2.26418 L 90.579603,164.97828 90.366082,142.66 c -0.122012,-12.29123 -0.152515,-22.51235 -0.09151,-22.73877 0.122011,-0.32345 1.555649,-0.38815 5.795555,-0.38815 3.355322,0 5.948073,-0.16172 6.283603,-0.32344 0.48804,-0.32346 0.61006,-0.7116 0.61006,-2.717 0,-1.39086 -0.15251,-2.4906 -0.39654,-2.71702 -0.36603,-0.42048 -12.506199,-0.61456 -13.482292,-0.19406 -0.427041,0.16172 -0.488047,3.0728 -0.488047,29.693 0,22.51235 -0.06101,29.56363 -0.366035,29.88709 -0.244024,0.25877 -1.799673,0.38814 -4.971977,0.38814 h -4.63644 l -0.183018,-5.43407 c -0.09151,-2.97577 -0.09151,-16.17267 0,-29.36956 0.152515,-18.82499 0.122012,-24.09727 -0.183017,-24.67948 l -0.366036,-0.74396 -9.059368,0.0971 c -4.971976,0.0646 -9.211883,0 -9.455906,-0.16172 -0.457544,-0.32346 -0.488047,-5.23995 0,-5.5634 0.152515,-0.12939 9.791438,-0.19408 21.413052,-0.16173 18.271251,0.0323 21.169024,0 21.687584,-0.42049 0.48804,-0.38814 0.54905,-0.61456 0.30503,-1.0674 -0.33554,-0.54986 -1.22013,-0.61456 -14.549901,-0.67925 l -14.214362,-0.0971 -0.122012,-6.533757 c -0.0305,-3.590332 0,-6.889556 0.122012,-7.2777 l 0.244024,-0.711598 h 28.398219 l 0.48804,-1.390849 c 0.30503,-0.743943 1.52515,-3.493296 2.71477,-6.048577 a 116.21614,123.23572 0 0 1 23.30423,-34.3184 114.44697,121.35969 0 0 1 13.90933,-12.808752 c 0.54906,-0.323453 0.61007,-0.840978 0.64056,-10.253471 0,-5.498706 0.12202,-10.156434 0.21353,-10.415197 0.15251,-0.420489 2.98929,-0.452835 20.925,-0.452835 19.67439,0 20.86401,-0.06469 22.51116,-0.646906 a 118.9614,126.1468 0 0 1 52.03799,-1.293814 c 4.51443,0.938015 5.03298,1.099742 4.69745,1.487886 -0.12201,0.09703 -6.80215,0.161726 -14.85492,0.129381 -10.43201,-0.03234 -14.82442,0.06469 -15.28197,0.323453 l -0.67107,0.355799 0.24402,37.003062 0.21353,37.035407 h -69.9432 V 68.815549 c 0,-11.64432 -0.12202,-20.830395 -0.27453,-21.089158 -0.36604,-0.646906 -0.97609,-0.194072 -5.216,3.946131 a 114.99602,121.94191 0 0 0 -20.00992,26.199721 81.137776,86.038588 0 0 0 -5.91757,12.226536 c 0,0.614561 0.48804,0.646906 15.49549,0.711597 l 15.46499,0.09703 0.21352,8.571513 0.18301,8.571521 8.14429,26.36144 8.90684,28.85204 0.76258,2.49059 4.48393,0.0971 4.45343,0.0971 0.0915,3.59034 c 0.0915,3.71971 0.39655,4.62538 1.43365,4.20489 0.42703,-0.16172 0.45754,-4.01082 0.45754,-32.99224 0,-25.87626 0.0915,-32.86286 0.39654,-33.08928 0.21352,-0.19407 5.39901,-0.22641 12.87224,-0.0971 13.84832,0.22642 14.24486,0.29112 18.39325,2.4259 5.33802,2.78171 8.17478,7.92461 8.08328,14.71712 a 15.281965,16.205012 0 0 1 -4.05689,11.1268 21.504561,22.80346 0 0 1 -7.47321,5.01353 8.357801,8.8626215 0 0 0 -2.13521,0.97036 c -0.24403,0.48518 14.45838,23.67679 15.12945,23.87085 0.36604,0.0971 0.61006,0.45284 0.61006,0.87333 0,0.38815 0.76256,2.00541 1.70816,3.55799 a 9.7609355,10.350507 0 0 1 1.52514,3.00811 c -0.122,0.12939 -0.88458,0.32345 -1.64715,0.38815 -1.28112,0.16172 -1.46414,0.2911 -1.52514,1.0027 -0.0611,0.51753 0.122,1.06739 0.51854,1.4232 0.54905,0.51752 0.61006,0.97036 0.61006,3.39626 0,1.74664 -0.12202,2.94342 -0.36604,3.20218 -0.24402,0.25877 -1.83017,0.38815 -5.18549,0.38815 h -4.81946 l 0.0915,26.42614 0.0611,26.45848 5.03297,0.16172 5.03299,0.16173 v 6.46907 h -28.36772 l -0.0915,-0.80864 c -0.21352,-1.61726 -0.15252,-1.61726 -9.54742,-1.61726 h -8.81534 v -31.82781 c 0,-25.55281 -0.0611,-31.8925 -0.39655,-32.34533 -0.24402,-0.38815 -0.67105,-0.54987 -1.28111,-0.48518 l -0.91509,0.12938 -0.15252,33.47742 -0.15251,33.47742 -3.84337,0.0646 c -2.83678,0.0647 -3.90437,0 -4.14839,-0.32345 -0.18303,-0.22642 -5.155,-11.67666 -11.04206,-25.45578 -5.88707,-13.81146 -10.85904,-25.22936 -11.01156,-25.39109 -0.18301,-0.19407 -0.30503,9.05669 -0.30503,24.9706 0,13.90849 -0.0611,25.48812 -0.18301,25.77923 -0.27453,0.74394 -6.98517,0.74394 -7.2597,0 -0.21353,-0.67926 -0.21353,-64.94943 0,-65.62868 0.18302,-0.42049 0.82358,-0.48518 4.08739,-0.48518 2.74526,0 3.96538,0.0971 4.2094,0.38814 0.15252,0.22642 5.06349,11.45025 10.92006,24.90591 a 1064.552,1128.8521 0 0 0 11.04204,25.09997 c 0.36604,0.45284 0.39655,0.32346 0.27453,-1.22912 -0.12201,-1.45554 -1.40313,-4.72241 -6.86315,-17.46648 l -6.71065,-15.71982 -0.061,-12.45296 v -13.16453 c 0,-0.67924 0.15252,-0.7116 1.98269,-0.7116 2.31822,0 2.25721,-0.0646 3.66035,4.52835 0.48805,1.48789 1.0676,2.97577 1.31162,3.29923 0.57956,0.7116 1.25062,0.74394 1.49464,0.0648 0.18303,-0.48518 -6.13107,-22.31828 -6.71064,-23.02988 -0.21352,-0.32345 -2.34872,-0.38815 -8.75433,-0.38815 -8.2968,0 -8.54082,0 -8.84585,0.64691 -0.79307,1.55257 -0.54905,1.61727 7.62573,1.61727 h 7.62573 l -0.0611,6.2103 -0.0915,6.24265 -9.4254,0.0646 a 60.700817,64.367214 0 0 0 -9.82195,0.45284 c -0.21353,0.19407 -0.91508,1.94072 -1.52514,3.94612 -0.61006,1.97308 -1.22012,3.71972 -1.43365,3.8491 -0.54905,0.3558 -9.57791,0.32346 -9.82193,-0.0971 -0.0915,-0.16172 0.24402,-1.68196 0.76256,-3.36392 1.49465,-4.69007 1.61666,-4.52834 -3.41633,-4.62538 -3.72136,-0.0971 -4.2399,-0.0323 -4.39241,0.45284 -0.27453,0.64691 1.1286,6.79252 2.65375,11.7737 a 115.60608,122.58882 0 0 0 17.11215,35.15938 l 2.1047,3.00811 -0.0915,7.01894 c -0.0611,4.20489 -0.18301,7.05128 -0.36604,7.05128 -0.88458,0 -9.45591,-11.4179 -13.36028,-17.78993 A 133.51129,141.57553 0 0 1 100.7981,186.32613 l -1.159107,-3.23453 -2.013193,-0.0971 -2.013193,-0.0971 v 53.04634 l 5.124493,0.0971 5.09399,0.0971 v 6.46907 l -14.092354,0.0646 c -11.591111,0.0648 -14.153357,0 -14.275368,-0.32345 z M 205.69764,173.12925 c 0,-0.19407 -3.99589,-6.98659 -8.90686,-15.04058 l -8.93735,-14.65244 h -5.03299 v 22.28593 h 7.93076 c 4.33142,0 8.11379,0.0971 8.35781,0.19408 0.39654,0.16173 1.58615,2.03775 4.36192,6.85721 0.45754,0.77628 2.22671,1.0674 2.22671,0.3558 z m -61.61591,-30.08116 c 0,-0.61457 -2.1047,-7.89227 -5.06348,-17.49883 -0.61006,-1.94072 -1.22012,-3.46095 -1.34213,-3.46095 -0.15251,0 -0.42704,0.58222 -0.64057,1.29381 -0.45753,1.61727 -0.36602,2.10245 2.16571,11.25618 1.55565,5.62809 1.83018,6.95425 1.52515,7.18067 -0.24402,0.16172 -2.37923,0.32345 -4.78896,0.32345 -4.30091,0 -4.88046,0.12937 -4.54493,1.13209 0.15251,0.38814 1.22012,0.48518 6.43612,0.48518 6.16158,0 6.25309,0 6.25309,-0.7116 z m 49.56726,-7.05128 c 5.36851,-2.00542 8.08327,-5.75747 8.08327,-11.15915 0,-4.30192 -1.64715,-7.50411 -4.69745,-9.05668 -2.77576,-1.45554 -4.51444,-1.779 -9.54742,-1.779 h -4.66695 v 11.28851 c 0,8.73324 0.0915,11.32087 0.39655,11.4826 0.21351,0.0971 2.22671,0.0971 4.48392,0.0323 a 18.911812,20.054107 0 0 0 5.94808,-0.80863 z m 99.56153,106.35145 c -0.061,-0.22642 -0.061,-15.20231 0,-33.31569 l 0.15252,-32.89521 h 3.44684 c 2.83676,0 3.44682,0.0646 3.59934,0.48518 0.122,0.29111 0.18301,6.24265 0.18301,13.26159 v 12.74406 l 0.76258,0.19407 c 0.54905,0.16173 16.28856,0 20.37595,-0.16173 0.12201,0 0.24402,-5.95153 0.30503,-13.19689 l 0.0611,-13.16455 2.86726,-0.2911 c 1.58616,-0.12939 3.20282,-0.16173 3.59935,-0.0646 l 0.70157,0.19407 -0.0611,33.21866 -0.0915,33.251 h -7.01568 l -0.0611,-16.43143 -0.0915,-16.39908 h -21.35204 v 5.4987 c 0,4.26959 0.0915,5.49871 0.39654,5.40168 0.21352,-0.0648 1.70816,-1.87603 3.35532,-3.97848 1.61665,-2.1348 3.29431,-4.26958 3.69086,-4.75476 l 0.76256,-0.90567 4.97198,0.0971 c 4.51443,0.0646 4.97198,0.12938 4.97198,0.64691 0,0.74394 -4.63644,7.66584 -8.11378,12.09715 -1.52515,1.94072 -4.39242,5.33698 -6.40562,7.60116 l -3.62984,4.10785 v 3.0728 c 0,1.68196 -0.0611,3.29923 -0.18301,3.55799 -0.15253,0.45284 -0.76258,0.54987 -3.62985,0.54987 -2.44024,0 -3.47734,-0.12937 -3.56885,-0.42048 z m -85.40818,-9.18608 c -0.15251,-0.12937 -0.24402,-10.90037 -0.24402,-23.93555 v -23.70912 h 7.01567 v 6.88955 c 0,3.78441 0.0915,14.5554 0.21352,23.93555 l 0.21352,17.04599 h -3.50784 c -1.95218,0 -3.59934,-0.0971 -3.72136,-0.22642 z m 106.82124,-31.63373 c 0,-0.2911 0.70157,-1.81134 1.52514,-3.46096 0.88459,-1.61726 2.13521,-4.20489 2.77577,-5.69277 0.82358,-1.87603 1.31163,-2.68466 1.52515,-2.45824 0.18301,0.19407 0.27452,2.55527 0.21351,6.14561 l -0.0915,5.78981 -2.95879,0.0646 c -2.50123,0.0971 -2.98929,0 -2.98929,-0.38814 z m 15.73951,-15.04058 c -0.0915,-0.2911 -0.21353,-2.97578 -0.24403,-5.98389 l -0.0915,-5.49871 -2.07421,-0.0971 c -1.34212,-0.0648 -2.13521,-0.25876 -2.22671,-0.54987 a 19.216842,20.37756 0 0 1 0.79307,-4.17254 110.5731,117.25184 0 0 0 3.41633,-29.95179 c 0,-16.49612 -2.65375,-30.85743 -8.4188,-45.930364 l -1.67767,-4.36662 -17.50868,-0.161726 c -9.63892,-0.09703 -17.60018,-0.258763 -17.69169,-0.323454 -0.0611,-0.09703 -0.18302,-16.690192 -0.30503,-36.87368 l -0.15251,-36.679609 34.80383,0.226418 c 27.20861,0.161726 34.86485,0.323453 35.07837,0.646906 0.122,0.194072 0.18301,16.690192 0.1525,36.614918 l -0.0915,36.226774 -12.4147,0.06469 c -10.06596,0.06469 -12.44519,0.161727 -12.44519,0.517525 0,0.226418 0.36604,1.326159 0.79308,2.4259 a 133.05375,141.09035 0 0 1 7.96126,33.218652 c 0.70157,5.62809 0.79308,23.5474 0.15252,28.94907 a 135.73801,143.93674 0 0 1 -5.46002,26.58787 c -1.46414,4.72241 -2.04371,5.95155 -2.34873,5.11056 z M 19.050247,174.29367 c -3.23331,-0.6469 -7.93076,-2.55527 -7.93076,-3.23453 0,-1.19677 1.342129,-5.91919 1.677661,-5.91919 0.21352,0 0.823579,0.12938 1.342129,0.32345 0.671064,0.25876 1.098105,0.25876 1.342128,0.0323 0.305029,-0.22642 1.159111,0 3.141801,0.74394 1.494644,0.61455 3.873872,1.3585 5.277006,1.61726 2.379228,0.54988 2.71476,0.54988 4.575439,0.0646 5.551532,-1.4879 8.784842,-4.59304 9.760935,-9.50954 a 11.255579,11.935428 0 0 0 -4.392421,-12.61468 c -1.006596,-0.80863 -4.849965,-3.04046 -8.540818,-4.94883 a 80.222688,85.068228 0 0 1 -8.540819,-4.94883 14.91593,15.816868 0 0 1 2.71476,-27.36416 c 3.812866,-2.00541 5.94807,-2.36121 13.14676,-2.19948 4.788959,0.12939 6.771649,0.32345 9.150877,0.87333 a 18.393263,19.504236 0 0 1 3.355322,0.97036 c 0.244023,0.2911 -0.915088,5.43401 -1.311626,5.91919 -0.122012,0.12939 -0.671064,0.0971 -1.220117,-0.0648 -0.701567,-0.19407 -1.189614,-0.19407 -1.525146,0.0323 -0.427041,0.2911 -1.372632,0.16172 -3.96538,-0.51754 -5.795556,-1.55257 -10.218479,-0.77628 -13.482292,2.29653 -2.043696,1.97306 -2.806269,3.55798 -2.958784,6.46906 -0.152514,2.07009 -0.06101,2.58763 0.671065,4.1402 1.403134,3.07281 3.416327,4.65772 10.828537,8.50682 3.629848,1.87603 7.351205,3.97847 8.296795,4.65773 a 18.698292,19.82769 0 0 1 7.473217,10.15643 c 0.640561,2.29653 0.73207,7.21301 0.122011,9.86533 a 18.301754,19.4072 0 0 1 -12.689216,13.81146 c -2.287719,0.80863 -2.775766,0.87332 -8.998362,0.93802 -3.599345,0 -6.893661,0 -7.320702,-0.0971 z m 222.579833,-6.33968 c -0.12201,-3.0728 -0.21352,-16.52846 -0.21352,-29.91943 v -24.32369 l -0.73207,-0.19407 a 113.16585,120.00119 0 0 0 -8.66283,-0.0971 c -5.97857,0.0971 -8.05277,0.22641 -8.3578,0.51752 -0.79307,0.87333 0.57955,1.03506 7.90025,1.03506 h 7.35121 l 0.21353,3.97847 c 0.122,2.16714 0.15251,13.58504 0.0915,25.32639 l -0.0915,21.34792 -12.10967,0.0646 -12.14016,0.0971 v -33.57445 a 1955.5424,2073.6593 0 0 0 -0.15251,-40.011174 l 0.18301,-0.808634 h 68.81459 l 0.21353,7.795226 c 0.0915,4.301932 0.18301,20.959772 0.18301,37.035412 v 29.24017 h -15.6785 c -8.63232,0 -15.89202,0.0648 -16.16655,0.19408 -0.39653,0.16173 -0.48805,0.77628 -0.48805,3.65502 0,2.26417 -0.12201,3.55799 -0.36603,3.84909 -0.24402,0.25877 -1.79967,0.38814 -4.97197,0.38814 h -4.60594 z m 23.18222,-53.49918 c 0.12202,-0.25876 0,-0.64691 -0.24402,-0.77628 -0.21352,-0.16173 -3.05029,-0.32345 -6.22259,-0.32345 -3.17231,0 -5.97858,0.16172 -6.2226,0.32345 -0.21352,0.16173 -0.30503,0.51752 -0.21352,0.77628 0.15251,0.45284 0.9761,0.54987 6.43612,0.54987 5.49053,0 6.3141,-0.0971 6.46661,-0.54987 z M 73.955509,140.23404 v -24.9059 h 2.775766 l -0.09151,24.80887 -0.09151,24.84121 -1.281123,0.0971 -1.311626,0.0971 z"
     inkscape:connector-curvature="0" />
  <path
     d="m 197.43001,260.51136 a 119.24987,119.24987 0 0 1 -70.23817,-30.64721 c -0.59625,-0.7155 -0.477,-12.64049 0,-12.64049 0.2385,0 1.55024,1.07325 2.86199,2.385 l 3.5775,3.10049 c 1.55025,1.1925 1.6695,1.55025 1.6695,4.5315 v 2.50425 l 3.81599,0.11925 c 3.45825,0 3.93525,0.2385 4.77,0.83475 a 107.92113,107.92113 0 0 0 134.75235,-6.9165 c 2.86199,-2.62349 3.93524,-3.33899 4.17374,-2.98124 v 5.96249 c -0.11925,6.67799 0.2385,5.96249 -4.76999,9.77849 a 123.66211,123.66211 0 0 1 -58.07469,23.49222 c -4.76999,0.59625 -17.88748,0.954 -22.53822,0.477 z m 42.0952,-27.18897 a 31.004965,31.004965 0 0 1 -8.70524,-2.86199 l -0.59625,-0.477 0.59625,-2.862 c 0.35775,-1.55025 0.954,-2.98125 1.1925,-2.98125 0.11925,-0.11925 1.55025,0.2385 2.98125,0.83475 3.57749,1.431 6.43949,1.908 9.53998,1.908 4.41225,0 7.632,-1.1925 10.25549,-4.0545 2.1465,-2.26574 2.98125,-4.53149 2.98125,-8.58599 0,-2.86199 0,-3.21974 -0.954,-5.12774 -1.6695,-3.816 -4.29299,-5.72399 -13.11748,-10.13624 -5.9625,-2.98125 -7.632,-4.05449 -9.89774,-6.55874 a 15.502483,15.502483 0 0 1 -3.93525,-13.11749 c 0.83475,-6.55874 5.0085,-11.32873 11.80574,-13.71373 2.385,-0.83475 2.74274,-0.954 8.10899,-0.954 4.76999,0 5.96249,0.11925 8.46674,0.7155 1.6695,0.477 3.1005,0.954 3.339,1.1925 0.2385,0.35775 0.2385,0.954 -0.35775,3.21974 l -0.954,2.98125 -3.45825,-0.7155 c -4.29299,-1.1925 -9.18224,-1.1925 -12.40199,-0.2385 -4.41224,1.431 -7.15499,4.5315 -7.39349,8.58599 -0.2385,2.385 0,3.816 1.1925,5.60475 1.431,2.38499 4.0545,4.17374 10.61324,7.51274 l 7.63199,4.17374 c 3.816,2.6235 7.03574,6.91649 8.10899,10.73249 0.59625,2.385 0.59625,7.63199 0,10.37474 -1.431,6.55874 -7.15499,12.16349 -14.07148,14.19073 -2.26575,0.59625 -8.10899,0.83475 -10.97099,0.35775 z m -227.767249,-1.6695 c -0.11925,-0.35774 -0.238499,-15.38323 -0.11925,-33.15146 v -32.55521 h 33.389963 v 2.862 c 0,1.78874 0,2.98124 -0.238499,3.33899 -0.35775,0.35775 -2.504247,0.477 -12.998236,0.477 -11.209487,0 -12.640486,0 -12.759735,0.477 a 162.77607,162.77607 0 0 0 0.238499,20.74948 c 0.2385,0.2385 4.054496,0.35775 11.805737,0.477 h 11.447987 v 6.55874 H 30.95719 c -8.82449,0.11925 -11.686487,0.2385 -11.924986,0.59625 l -0.11925,15.62173 v 15.26398 h -3.577496 c -3.338997,0 -3.577497,0 -3.577497,-0.7155 z m 56.285938,0.35775 v -6.20099 l 5.366244,-0.11925 h 5.246994 v -53.06619 h -4.769995 a 42.929952,42.929952 0 0 1 -5.485494,-0.2385 c -0.357749,-0.11925 -0.476999,-0.83475 -0.476999,-3.45825 v -3.10049 h 9.778489 c 5.246994,0 9.778489,-0.2385 10.016989,-0.35775 0.357749,-0.2385 0.357749,-0.59625 0,-2.385 -1.311749,-4.76999 -1.788748,-7.51274 -1.430999,-7.87049 0.35775,-0.477 7.751242,-0.59625 8.347491,-0.11925 0.35775,0 1.073249,2.385 1.669498,5.00849 3.696743,15.38324 10.016993,29.33547 19.079983,42.21446 l 2.02724,2.98124 v 7.03575 c -0.11925,4.17374 -0.35775,7.03574 -0.477,7.03574 -0.83475,0 -9.53999,-11.44799 -13.35598,-17.88748 -4.412246,-7.15499 -9.062991,-16.93348 -12.163487,-25.51947 l -1.192499,-3.21975 h -1.907998 l -2.027248,-0.2385 v 53.06619 l 5.127745,0.11925 h 5.008494 v 6.55874 H 82.353883 a 62.009931,62.009931 0 0 1 -14.309984,-0.2385 z m 50.442691,0 c -0.2385,-0.83474 -0.2385,-65.11042 0,-65.70667 0.11925,-0.477 0.83475,-0.477 4.0545,-0.477 2.74275,0 4.0545,0 4.17375,0.35775 0.2385,0.2385 5.12774,11.44799 10.97098,24.92322 l 10.97099,25.04247 c 0.2385,0.2385 0.2385,-6.67799 0.2385,-24.08847 v -25.51947 l 0.2385,-1.1925 h 7.27424 v 33.38996 l -0.11925,33.50921 h -3.81599 c -2.862,0.11925 -3.93525,0 -4.17375,-0.2385 -0.2385,-0.2385 -5.12774,-11.68648 -11.09024,-25.51947 L 126.23784,181.2102 c -0.2385,-0.2385 -0.35775,9.06299 -0.35775,24.92322 l -0.11925,25.75797 c -0.2385,0.477 -0.83475,0.477 -3.5775,0.477 -2.98125,0 -3.5775,0 -3.69675,-0.477 z m 59.02869,-0.11925 -0.2385,-3.57749 v -2.862 h 5.24699 l 5.36625,-0.11925 v -52.46994 h -5.0085 c -3.93524,0 -5.12774,0 -5.36624,-0.477 -0.2385,-0.2385 -0.35775,-1.55025 -0.2385,-3.57749 v -3.21975 h 14.07148 c 10.01699,-0.11925 14.07149,0 14.30999,0.2385 0.59625,0.477 0.59625,5.84324 0,6.32024 -0.11925,0.35775 -1.78875,0.477 -5.12775,0.477 h -4.76999 v 26.35422 l 0.11925,26.47347 5.12774,0.11925 5.0085,0.2385 v 6.43949 h -14.19074 c -13.11748,0.11925 -14.07148,0.11925 -14.30998,-0.35775 z m 106.37088,0.11925 v -66.18367 h 3.5775 c 2.86199,0 3.45824,0 3.57749,0.477 0,0.2385 0.2385,6.20099 0.2385,13.23673 v 12.75974 l 0.7155,0.2385 c 0.59625,0 16.21798,0 20.27248,-0.2385 0.2385,0 0.35775,-5.96249 0.35775,-13.11749 l 0.11925,-13.23673 2.862,-0.2385 c 1.55024,-0.2385 3.21974,-0.2385 3.57749,0 h 0.7155 v 33.38996 l -0.11925,33.15146 h -7.03574 v -16.45648 l -0.11925,-16.33723 H 291.1604 v 5.48549 c 0,4.293 0.11925,5.4855 0.477,5.36625 0.2385,0 1.6695,-1.78875 3.339,-3.93525 l 3.69674,-4.76999 0.7155,-0.954 5.0085,0.11925 c 4.53149,0 5.00849,0.11925 5.00849,0.7155 0,0.7155 -4.76999,7.63199 -8.10899,12.04423 l -6.43949,7.632 -3.5775,4.05449 v 3.1005 l -0.2385,3.57749 c -0.11925,0.477 -0.7155,0.477 -3.57749,0.477 -2.50425,0 -3.5775,0 -3.5775,-0.35775 z m 21.46498,-40.78345 c 0,-0.35775 0.59625,-1.908 1.431,-3.5775 0.83474,-1.55024 2.14649,-4.05449 2.74274,-5.60474 0.83475,-1.908 1.31175,-2.74275 1.55025,-2.385 0.2385,0 0.2385,2.385 0.2385,5.9625 v 5.96249 h -3.21975 c -2.38499,0 -2.98124,0 -2.98124,-0.35775 z m 15.62173,-15.14473 c 0,-0.2385 -0.2385,-2.862 -0.2385,-5.9625 v -5.48549 h -2.1465 c -1.31175,-0.11925 -2.1465,-0.35775 -2.26575,-0.59625 l 0.83475,-4.17374 c 2.385,-9.53999 3.45825,-19.07998 3.45825,-29.93172 a 123.78136,123.78136 0 0 0 -9.89774,-50.084941 c 0,-0.357749 0.7155,-0.476999 4.5315,-0.357749 h 4.41224 l 0.7155,2.027247 c 3.816,9.77849 6.91649,22.418973 8.34749,33.986213 0.59625,5.60474 0.7155,23.49222 0,28.97771 a 151.44733,151.44733 0 0 1 -5.36624,26.59272 c -1.55025,4.77 -2.02725,5.9625 -2.385,5.0085 z M 9.7307135,163.91897 c -3.3389963,-0.59625 -8.1089909,-2.385 -8.1089909,-3.21975 0,-1.19249 1.3117485,-5.96249 1.6694981,-5.96249 l 1.3117485,0.35775 c 0.7154992,0.2385 1.1924987,0.35775 1.4309984,0 0.2384998,-0.2385 1.1924987,0 3.1004966,0.83475 l 5.2469948,1.6695 c 2.384997,0.477 2.742747,0.477 4.531495,0 5.604743,-1.55025 8.82449,-4.65075 9.897739,-9.53999 0.953999,-5.0085 -0.59625,-9.53999 -4.412245,-12.64049 -1.073249,-0.7155 -4.769995,-2.98124 -8.585991,-4.88924 a 78.943412,78.943412 0 0 1 -8.5859907,-5.0085 15.740982,15.740982 0 0 1 -6.2009931,-12.28273 c 0,-6.79724 3.1004966,-11.92498 8.94374,-15.025481 3.8159958,-2.027248 5.9624938,-2.384998 13.1174858,-2.265748 a 40.544955,40.544955 0 0 1 12.521236,1.907998 c 0.2385,0.2385 -0.834749,5.366241 -1.192499,5.962491 l -1.311748,-0.11925 c -0.715499,-0.2385 -1.192499,-0.2385 -1.550248,0 -0.35775,0.35775 -1.311749,0.11925 -3.935246,-0.477 -5.843243,-1.55025 -10.255489,-0.83475 -13.475235,2.385 a 8.3474907,8.3474907 0 0 0 -2.981247,6.43949 c -0.11925,2.02725 0,2.50425 0.715499,4.0545 1.430999,3.1005 3.458247,4.76999 10.732489,8.46673 3.696745,1.908 7.393491,4.0545 8.34749,4.77 3.577496,2.50425 6.439493,6.32024 7.512742,10.13624 0.596249,2.26575 0.715499,7.15499 0.11925,9.77849 -1.430999,6.55874 -5.962494,11.44798 -12.640486,13.83298 -2.384998,0.83475 -2.861997,0.83475 -9.06299,0.954 H 9.7307135 Z m 134.3946065,-0.59625 -3.45825,-11.44799 c -1.78875,-6.20099 -3.339,-11.32873 -3.57749,-11.56723 -0.2385,-0.35775 -2.26575,-0.35775 -8.8245,-0.35775 l -8.58599,0.11925 -0.2385,0.83475 c -1.1925,4.53149 -6.79724,21.82272 -7.15499,22.06122 -0.477,0.35775 -9.53999,0.2385 -9.65924,0 -0.11925,-0.2385 0.2385,-2.02725 0.83475,-3.93524 l 1.1925,-4.0545 c 0,-0.954 17.52973,-57.83618 17.88748,-58.07468 0.477,-0.238499 9.89774,0 11.20949,0.11925 0.477,0.11925 1.908,4.5315 9.53999,29.21621 a 12112.924,12112.924 0 0 0 10.97099,36.49046 c -0.35775,0.35775 -10.13624,0.7155 -10.25549,0.477 z m -9.42074,-30.52796 a 274.99019,274.99019 0 0 0 -6.32025,-20.98798 c -0.23849,0 -0.47699,0.59625 -0.71549,1.31175 a 997.64438,997.64438 0 0 1 -5.60475,20.03397 c 0.11925,0.11925 2.98125,0.2385 6.43949,0.2385 6.201,0 6.201,0 6.201,-0.59624 z m 28.61997,30.52796 c 0,-0.11925 -0.2385,-15.02548 -0.2385,-33.03221 0,-25.75797 0.11925,-32.79371 0.477,-33.03221 h 12.87898 c 13.83299,0.2385 14.19074,0.2385 18.36448,2.384997 5.24699,2.742743 8.10899,7.870493 7.98974,14.667733 a 16.694981,16.694981 0 0 1 -4.05449,11.20948 21.464976,21.464976 0 0 1 -7.3935,5.0085 c -1.19249,0.35775 -2.02724,0.83475 -2.14649,0.954 -0.11925,0.2385 4.76999,8.10899 15.26398,24.68472 2.862,4.53149 3.93525,6.43949 3.5775,6.67799 -0.7155,0.477 -10.85174,0.7155 -11.20949,0.2385 l -9.30149,-15.14473 -8.94374,-14.78699 h -5.0085 v 14.90624 c 0,11.56724 -0.11925,14.90623 -0.477,14.90623 -0.71549,0.2385 -9.53998,0.59625 -9.77848,0.35775 z m 20.98797,-37.68296 c 5.36625,-1.90799 8.10899,-5.72399 8.10899,-11.09023 0,-4.29299 -1.6695,-7.51274 -4.76999,-9.06299 -2.74275,-1.431 -4.5315,-1.78875 -9.53999,-1.78875 h -4.65075 v 11.32874 c 0,8.70524 0.11925,11.32873 0.477,11.44798 h 4.41225 a 17.88748,17.88748 0 0 0 5.96249,-0.83475 z M 69.117148,157.83723 c -0.11925,-3.1005 -0.11925,-16.21798 0,-29.45472 0.119249,-18.84147 0,-24.08847 -0.2385,-24.68472 l -0.35775,-0.7155 H 50.037169 c -0.477,-0.35775 -0.596249,-5.366241 0,-5.60474 0,0 10.970988,-0.2385 24.207723,-0.2385 h 24.088473 v 2.862 c 0.11925,2.02724 0,2.86199 -0.2385,3.10049 h -8.82449 a 106.13238,106.13238 0 0 0 -9.18224,0 l -0.834749,0.2385 v 29.57397 c 0,22.53822 0,29.57396 -0.357749,29.81246 -0.2385,0.35775 -1.788748,0.477 -5.008495,0.477 h -4.650745 l -0.119249,-5.48549 z m 163.133822,-0.2385 -0.2385,-29.81247 c 0,-21.94197 0,-24.32697 -0.477,-24.56547 a 137.4951,137.4951 0 0 0 -18.60298,0 c -0.477,-0.35775 -0.59625,-5.84324 0,-6.20099 0.2385,-0.11925 10.97099,-0.2385 24.44622,-0.11925 l 24.08848,0.11925 0.11925,2.861997 c 0,2.146493 0,2.981243 -0.35775,3.219743 h -18.00673 l -0.83475,0.2385 v 29.57397 c 0,22.53822 0,29.57396 -0.35775,29.81246 -0.2385,0.35775 -1.78875,0.477 -4.88925,0.477 h -4.76999 v -5.60474 z M 93.56337,79.847819 a 127.12036,127.12036 0 0 1 40.18721,-53.66244 c 0.477,0 0.59625,0.59625 0.59625,5.127745 v 5.127744 l -1.1925,1.073249 a 115.07612,115.07612 0 0 0 -28.97772,39.113956 l -1.6695,3.696746 h -4.531495 c -4.054495,0 -4.531495,0 -4.531495,-0.477 z M 177.75378,4.6011528 c 0,-0.4769995 2.1465,-1.1924987 5.96249,-1.9079979 a 112.09487,112.09487 0 0 1 51.03895,1.4309984 l -57.00144,0.3577496 z"
     id="path20"
     style="fill:#f1fcf7;fill-opacity:1;stroke-width:1.19249868"
     inkscape:connector-curvature="0" />
  <path
     d="m 195.99901,260.51136 a 116.86487,116.86487 0 0 1 -68.21092,-28.97772 l -2.02725,-1.78874 v -5.724 c 0,-3.21974 0,-5.96249 0.2385,-5.96249 l 2.74274,2.26575 a 102.55489,102.55489 0 0 0 3.5775,3.21974 c 0.954,0.83475 1.07325,0.83475 1.07325,3.5775 0,1.78875 0,2.98125 0.35775,3.21975 0.2385,0.2385 1.55025,0.35775 3.93524,0.35775 h 3.5775 l 3.45825,2.38499 a 109.35213,109.35213 0 0 0 132.60585,-8.82449 l 3.57749,-2.74274 c 0.2385,0.11925 0.35775,2.50424 0.35775,5.48549 0,3.93525 0,5.36624 -0.35775,5.96249 l -3.93524,3.21975 a 118.65362,118.65362 0 0 1 -80.97066,24.32697 z m 43.0492,-27.18897 c -4.05449,-0.477 -9.18224,-2.14649 -9.53999,-3.10049 -0.11925,-0.477 0.83475,-5.60475 1.07325,-5.60475 l 3.5775,1.1925 c 7.03574,2.6235 12.64048,2.385 17.05273,-0.35775 3.69674,-2.385 5.60474,-6.08174 5.60474,-10.85174 0,-4.05449 -1.431,-7.39349 -4.53149,-9.89774 -0.954,-0.95399 -4.5315,-2.98124 -8.70524,-5.12774 -9.30149,-4.76999 -11.68649,-6.79724 -13.71374,-11.32874 a 18.12598,18.12598 0 0 1 -0.2385,-12.16348 c 1.78875,-5.0085 5.96249,-8.58599 11.92499,-10.25549 3.21974,-0.954 10.73249,-0.83475 15.14473,0.2385 2.862,0.59625 3.21975,0.83475 3.21975,1.431 0,0.59625 -1.07325,5.00849 -1.1925,5.24699 l -3.1005,-0.7155 c -7.75124,-2.1465 -14.66773,-0.954 -18.12598,3.1005 -2.38499,2.86199 -2.98124,7.15499 -1.55025,10.25549 1.431,2.98124 3.93525,5.00849 11.09024,8.70524 7.75124,3.93524 9.06299,4.76999 11.44799,7.39349 3.339,3.57749 4.76999,7.39349 4.76999,12.28273 0,8.22825 -3.57749,13.95224 -10.49398,17.52974 l -3.93525,1.55024 c -2.385,0.59625 -6.67799,0.83475 -9.77849,0.477 z M 10.803962,199.33618 v -32.91296 h 16.217983 l 16.337231,0.11925 v 5.48549 l -12.640486,0.11925 c -7.035742,0.11925 -12.878985,0.35775 -13.117485,0.477 -0.476999,0.35775 -0.476999,21.22648 0,21.82273 0.2385,0.35775 3.338996,0.35775 11.924987,0.35775 h 11.567237 l -0.11925,2.98124 v 3.1005 H 29.287692 c -8.82449,0 -11.567237,0.2385 -11.805737,0.477 -0.11925,0.2385 -0.238499,7.27424 -0.238499,15.74098 v 15.14473 H 10.684712 Z M 67.0899,231.89139 v -5.48549 h 5.246994 c 3.577496,-0.11925 5.246994,-0.35775 5.366244,-0.59625 0.11925,-0.2385 0.2385,-12.16349 0.2385,-26.47347 0,-23.37297 0,-26.23497 -0.477,-26.59272 -0.357749,-0.477 -1.311748,-0.59625 -5.485494,-0.59625 H 66.8514 v -5.72399 h 9.897739 c 7.870491,0 10.016989,-0.11925 10.136239,-0.477 l -0.834749,-4.41225 -0.953999,-4.88924 v -0.954 h 8.22824 l 0.35775,1.07325 1.073249,4.41224 a 124.85461,124.85461 0 0 0 19.437731,42.33371 l 1.431,2.02724 v 6.79725 a 42.929952,42.929952 0 0 1 -0.2385,6.79724 c -0.59625,0 -7.51275,-8.94374 -11.32874,-14.90623 A 142.02659,142.02659 0 0 1 88.674126,172.50496 c -0.59625,-0.477 -3.458246,-0.35775 -3.935246,0.2385 -0.476999,0.477 -0.476999,3.21975 -0.476999,26.59272 0,14.30998 0,26.23497 0.238499,26.47347 0.11925,0.2385 1.669498,0.477 5.246994,0.477 h 5.008495 v 5.96249 H 80.922884 c -11.328737,0 -13.832984,0 -13.952234,-0.35775 z m 50.56194,-32.55521 v -32.91296 h 7.3935 l 11.09024,25.63872 c 6.43949,14.90623 11.20948,25.63872 11.44798,25.63872 0.35775,0 0.477,-4.76999 0.477,-25.75797 v -25.75797 h 6.4395 v 66.06442 h -3.5775 l -3.816,0.11925 -10.97098,-25.75797 c -6.08175,-14.30998 -11.20949,-25.87722 -11.44799,-25.99647 -0.11925,-0.2385 -0.477,-0.11925 -0.59625,0 0,0.35775 -0.2385,11.92499 -0.2385,26.11572 v 25.63872 h -6.32025 z m 58.90944,32.91296 c -0.11925,0 -0.2385,-1.43099 -0.2385,-3.10049 v -2.862 h 5.0085 c 2.74274,0 5.12774,0 5.36624,-0.2385 0.2385,-0.2385 0.35775,-5.72399 0.2385,-26.71197 v -26.71197 l -5.36624,-0.11925 h -5.247 v -3.21975 l 0.11925,-3.21974 h 13.59449 a 88.244901,88.244901 0 0 1 13.95223,0.2385 c 0.35775,0.2385 0.477,1.07325 0.35775,2.98124 v 2.6235 l -5.00849,0.11925 c -4.0545,0.2385 -5.12775,0.35775 -5.36625,0.7155 -0.2385,0.59625 -0.35775,52.46994 0,52.94694 0.11925,0.2385 1.6695,0.477 5.247,0.477 h 5.00849 v 5.96249 h -27.66597 z m 106.13238,-32.79371 v -32.91296 h 6.55874 v 12.75973 c 0,8.22824 0,13.11749 0.2385,13.47524 0.35775,0.59625 0.7155,0.59625 10.73249,0.59625 5.84325,0 10.73249,-0.11925 10.85174,-0.2385 0.35775,-0.2385 0.35775,-3.45825 0.477,-13.35599 v -13.11748 h 3.339 l 3.33899,-0.2385 -0.11925,33.03221 v 32.79371 h -6.43949 l -0.11925,-16.45648 c 0,-12.75973 -0.11925,-16.45648 -0.477,-16.45648 -18.84148,-0.11925 -21.34573,0 -21.46498,0.35775 -0.2385,0.2385 -0.35775,2.98125 -0.35775,5.96249 0,4.65075 0,5.36625 0.477,5.60475 0.477,0.2385 0.477,0.2385 4.293,-4.77 l 3.21975,-4.29299 0.71549,-0.83475 h 4.77 c 2.6235,0 4.76999,0 4.88924,0.2385 0.2385,0.2385 -2.38499,4.29299 -4.76999,7.87049 -2.862,3.93525 -6.20099,7.87049 -9.89774,11.92499 l -3.69675,4.05449 v 6.91649 h -6.55874 z m 21.46498,-8.10899 1.55025,-3.21975 a 81.805408,81.805408 0 0 0 3.57749,-7.15499 c 0.2385,-0.2385 0.35775,1.55025 0.35775,5.247 v 5.48549 h -2.74275 c -1.66949,0 -2.74274,0 -2.74274,-0.35775 z m 15.50248,-20.86873 c 0,-3.57749 0,-5.24699 -0.35775,-5.48549 -0.11925,-0.2385 -1.1925,-0.477 -2.26575,-0.477 -1.07325,0 -1.90799,0 -1.90799,-0.2385 l 0.95399,-4.17375 c 2.385,-10.01698 3.339,-18.96072 3.339,-29.81246 0,-16.33723 -2.74275,-31.243462 -8.34749,-45.672696 -0.7155,-2.146498 -1.31175,-4.054495 -1.1925,-4.173745 0,-0.11925 1.908,-0.35775 4.0545,-0.35775 h 3.93524 l 0.7155,1.788748 a 121.39636,121.39636 0 0 1 8.94374,46.507443 c 0.2385,11.68649 -0.2385,18.00673 -2.385,28.85847 a 82.401658,82.401658 0 0 1 -5.12774,18.36448 c -0.2385,0 -0.35775,-2.385 -0.35775,-5.12775 z M 4.841469,162.84572 c -2.1464976,-0.59625 -4.17374534,-1.55025 -4.17374534,-1.78875 0,-0.83475 1.31174854,-5.72399 1.55024824,-5.72399 l 1.1924987,0.477 0.834749,0.477 -0.3577496,1.78875 c -0.834749,3.10049 -0.7154992,3.33899 1.4309984,4.41224 2.1464976,1.1925 2.0272478,1.1925 -0.5962493,0.35775 z M 68.043899,133.391 v -29.93171 l 1.192498,0.11925 h 1.192499 v 59.50568 h -2.384997 z m 33.509211,29.57397 0.83475,-3.81599 c 1.908,-6.4395 18.48373,-60.459682 18.84148,-61.055931 0.11925,-0.477 0.59625,-0.596249 1.431,-0.596249 0.7155,0 1.1925,0 1.1925,0.238499 l -10.01699,32.793711 -10.01699,32.43596 -1.07325,0.11925 h -1.1925 z m 38.15996,-10.85174 -3.33899,-11.32873 c 0,-0.477 2.02724,-0.35775 2.38499,0.11925 0.35775,0.477 6.4395,21.22647 6.4395,21.82272 0,0.2385 -0.35775,0.477 -1.1925,0.477 h -1.07325 z m 22.41898,10.73249 v -32.67446 c 0,-35.297957 0,-33.03221 1.78874,-32.555211 l 0.83475,0.2385 v 65.229671 h -1.19249 c -0.7155,0 -1.31175,-0.2385 -1.431,-0.477 z m 24.56547,-14.30998 c -4.77,-7.98974 -8.70524,-14.66774 -8.70524,-14.90624 0.2385,-0.35775 1.55025,-0.35775 2.02725,0.11925 l 17.88748,28.97772 c 0,0.35775 -0.2385,0.477 -1.07325,0.477 h -1.1925 z M 231.29697,133.391 v -29.93171 l 1.1925,0.11925 h 1.07325 V 133.391 l 0.11925,29.69322 h -2.385 z M 22.1327,156.52548 a 10.970988,10.970988 0 0 0 4.292995,-4.17375 c 2.623497,-4.88924 2.146498,-11.20948 -1.430998,-15.26398 -1.669498,-2.02725 -4.054496,-3.45825 -11.686487,-7.39349 -6.2009936,-3.21975 -6.7972429,-3.5775 -8.7052408,-5.60474 A 15.860232,15.860232 0 0 1 10.923212,97.854549 c 2.861997,-1.073249 2.981247,-0.834749 0.35775,0.59625 a 17.52973,17.52973 0 0 0 -6.7972426,6.677991 16.456482,16.456482 0 0 0 -1.6694982,8.82449 c 0.2384998,4.77 1.1924987,6.91649 4.531495,10.37473 2.1464976,2.385 2.7427468,2.74275 7.1549928,5.0085 10.016988,5.12774 11.805736,6.20099 13.713734,8.58599 3.815996,4.76999 2.981247,13.35598 -1.550248,16.93348 -1.192499,1.07325 -3.815996,2.385 -5.246994,2.6235 -0.953999,0.2385 -0.953999,0.11925 0.715499,-0.954 z m 111.02163,-25.75797 -3.339,-11.20949 -2.50424,-8.58599 0.477,-1.66949 c 0.2385,-1.07325 0.59624,-1.78875 0.83474,-1.6695 0.2385,0 7.75125,24.68472 7.75125,25.51946 0,0.11925 -0.477,0.2385 -1.1925,0.2385 h -1.1925 z m 51.15819,-4.65075 2.02725,-1.431 c 3.339,-2.38499 5.00849,-5.72398 5.00849,-9.89773 0,-4.17375 -1.55024,-7.15499 -4.65074,-9.30149 -1.55025,-1.07325 -0.954,-1.1925 1.31175,-0.2385 a 9.5399893,9.5399893 0 0 1 5.12774,4.88925 c 1.07325,2.62349 1.07325,6.91649 0,9.30148 -1.1925,2.385 -2.98124,4.41225 -5.24699,5.48549 -1.78875,0.954 -3.93525,1.6695 -3.5775,1.1925 z m 27.66597,-23.01522 c -0.11925,-0.11925 -0.2385,-1.431 -0.2385,-2.98124 v -2.6235 h 1.1925 l 1.431,0.119249 v 2.623501 c 0,1.78874 0,2.62349 -0.2385,2.74274 -0.477,0.35775 -1.908,0.35775 -2.1465,0 z M 48.60617,102.50529 v -2.38499 c 0,-2.385001 0.477,-2.862 1.907998,-2.504251 0.7155,0.2385 0.7155,0.2385 0.7155,2.742751 v 2.62349 h -1.192499 c -0.715499,0 -1.192499,-0.11925 -1.311749,-0.477 z M 92.609371,79.967069 a 122.94661,122.94661 0 0 1 39.590959,-53.30469 c 0.11925,0 0.2385,2.265747 0.2385,5.008494 v 4.889245 l -3.21975,3.100496 a 120.44237,120.44237 0 0 0 -28.26222,40.306455 c -0.35775,0.477 -8.108989,0.59625 -8.347489,0 z M 178.35003,4.4819029 c 0.35775,-0.4769995 5.36624,-1.5502483 10.49399,-2.3849973 12.64048,-1.78874798 27.42747,-1.31174851 39.82945,1.4309984 2.862,0.5962493 3.816,0.9539989 2.862,0.9539989 a 17937.803,17937.803 0 0 1 -53.18544,0 z"
     id="path22"
     inkscape:connector-curvature="0"
     style="fill:#525f7f;fill-opacity:1;stroke-width:1.19249868" />
  <path
     style="fill:#525f7f;fill-opacity:1;stroke-width:1.19249868"
     inkscape:connector-curvature="0"
     id="path825"
     d="m 319.30337,164.99222 c -0.11925,-0.2385 -1.1925,-0.477 -2.26575,-0.477 -1.07325,0 -1.90799,0 -1.90799,-0.2385 l 0.95399,-4.17375 c 2.385,-10.01698 3.339,-18.96072 3.339,-29.81246 0,-16.33723 -2.74275,-31.243462 -8.34749,-45.672696 -0.7155,-2.146498 -1.31175,-4.054495 -1.1925,-4.173745 0,-0.11925 1.908,-0.35775 4.0545,-0.35775 h 3.93524 l 0.7155,1.788748 c 6.0056,14.764977 9.04467,30.568133 8.94374,46.507443 0.2385,11.68649 -0.2385,18.00673 -2.385,28.85847 -5.31866,12.27248 -2.29164,24.39205 -5.84324,7.75124 z M 4.841469,162.84572 c -2.1464976,-0.59625 -4.17374534,-1.55025 -4.17374534,-1.78875 0,-0.83475 1.31174854,-5.72399 1.55024824,-5.72399 l 1.1924987,0.477 0.834749,0.477 -0.3577496,1.78875 c -0.834749,3.10049 -0.7154992,3.33899 1.4309984,4.41224 2.1464976,1.1925 2.0272478,1.1925 -0.5962493,0.35775 z M 68.043899,133.391 v -29.93171 l 1.192498,0.11925 h 1.192499 v 59.50568 h -2.384997 z m 33.509211,29.57397 0.83475,-3.81599 c 1.908,-6.4395 18.48373,-60.459682 18.84148,-61.055931 0.11925,-0.477 0.59625,-0.596249 1.431,-0.596249 0.7155,0 1.1925,0 1.1925,0.238499 l -10.01699,32.793711 -10.01699,32.43596 -1.07325,0.11925 h -1.1925 z m 38.15996,-10.85174 -3.33899,-11.32873 c 0,-0.477 2.02724,-0.35775 2.38499,0.11925 0.35775,0.477 6.4395,21.22647 6.4395,21.82272 0,0.2385 -0.35775,0.477 -1.1925,0.477 h -1.07325 z m 22.41898,10.73249 v -32.67446 c 0,-35.297957 0,-33.03221 1.78874,-32.555211 l 0.83475,0.2385 v 65.229671 h -1.19249 c -0.7155,0 -1.31175,-0.2385 -1.431,-0.477 z m 24.56547,-14.30998 c -4.77,-7.98974 -8.70524,-14.66774 -8.70524,-14.90624 0.2385,-0.35775 1.55025,-0.35775 2.02725,0.11925 l 17.88748,28.97772 c 0,0.35775 -0.2385,0.477 -1.07325,0.477 h -1.1925 z M 231.29697,133.391 v -29.93171 l 1.1925,0.11925 h 1.07325 V 133.391 l 0.11925,29.69322 h -2.385 z M 22.1327,156.52548 c 1.790303,-0.96629 3.276661,-2.41136 4.292995,-4.17375 2.623497,-4.88924 2.146498,-11.20948 -1.430998,-15.26398 -1.669498,-2.02725 -4.054496,-3.45825 -11.686487,-7.39349 -6.2009936,-3.21975 -6.7972429,-3.5775 -8.7052408,-5.60474 -8.3013786,-8.37527 -4.8844175,-22.55888 6.3202428,-26.234971 2.861997,-1.073249 2.981247,-0.834749 0.35775,0.59625 -2.8388934,1.555681 -5.1915674,3.867071 -6.7972426,6.677991 -1.3639126,2.72981 -1.9419395,5.7851 -1.6694982,8.82449 0.2384998,4.77 1.1924987,6.91649 4.531495,10.37473 2.1464976,2.385 2.7427468,2.74275 7.1549928,5.0085 10.016988,5.12774 11.805736,6.20099 13.713734,8.58599 3.815996,4.76999 2.981247,13.35598 -1.550248,16.93348 -1.192499,1.07325 -3.815996,2.385 -5.246994,2.6235 -0.953999,0.2385 -0.953999,0.11925 0.715499,-0.954 z m 111.02163,-25.75797 -3.339,-11.20949 -2.50424,-8.58599 0.477,-1.66949 c 0.2385,-1.07325 0.59624,-1.78875 0.83474,-1.6695 0.2385,0 7.75125,24.68472 7.75125,25.51946 0,0.11925 -0.477,0.2385 -1.1925,0.2385 h -1.1925 z m 51.15819,-4.65075 2.02725,-1.431 c 3.339,-2.38499 5.00849,-5.72398 5.00849,-9.89773 0,-4.17375 -1.55024,-7.15499 -4.65074,-9.30149 -1.55025,-1.07325 -0.954,-1.1925 1.31175,-0.2385 2.2735,0.91109 4.10949,2.66168 5.12774,4.88925 1.07325,2.62349 1.07325,6.91649 0,9.30148 -1.1925,2.385 -2.98124,4.41225 -5.24699,5.48549 -1.78875,0.954 -3.93525,1.6695 -3.5775,1.1925 z m 27.66597,-23.01522 c -0.11925,-0.11925 -0.2385,-1.431 -0.2385,-2.98124 v -2.6235 h 1.1925 l 1.431,0.119249 v 2.623501 c 0,1.78874 0,2.62349 -0.2385,2.74274 -0.477,0.35775 -1.908,0.35775 -2.1465,0 z M 48.60617,102.50529 v -2.38499 c 0,-2.385001 0.477,-2.862 1.907998,-2.504251 0.7155,0.2385 0.7155,0.2385 0.7155,2.742751 v 2.62349 h -1.192499 c -0.715499,0 -1.192499,-0.11925 -1.311749,-0.477 z M 92.609371,79.967069 c 8.058419,-21.063004 21.754939,-39.503792 39.590959,-53.30469 0.11925,0 0.2385,2.265747 0.2385,5.008494 v 4.889245 l -3.21975,3.100496 c -12.09525,11.346425 -21.71693,25.068484 -28.26222,40.306455 -0.35775,0.477 -8.108989,0.59625 -8.347489,0 z M 178.35003,4.4819029 c 0.35775,-0.4769995 5.36624,-1.5502483 10.49399,-2.3849973 12.64048,-1.78874798 27.42747,-1.31174851 39.82945,1.4309984 2.862,0.5962493 3.816,0.9539989 2.862,0.9539989 -17.72847,0.026283 -35.45697,0.026283 -53.18544,0 z"
     sodipodi:nodetypes="csccsccsccccccscccccccccccccccccsccccccccssscccscccsccccccscccccccccccccccccccccsccccccccssccccssccccccscccsccccscscsccccsccccccccc" />
</svg>
