<svg xmlns="http://www.w3.org/2000/svg" xmlns:xlink="http://www.w3.org/1999/xlink" width="388.8" height="297.6"><defs><linearGradient id="c"><stop offset="0" stop-color="#525f7f"/><stop offset="1" stop-color="#525f7f" stop-opacity="0"/></linearGradient><linearGradient id="b"><stop offset="0" stop-color="#7089e8"/><stop offset="1" stop-color="#7089e8" stop-opacity="0"/></linearGradient><linearGradient id="a"><stop offset="0" stop-color="#4400e8"/><stop offset="1" stop-color="#4400e8" stop-opacity="0"/></linearGradient><linearGradient id="d" x1="9.5" x2="297.7" y1="109.6" y2="129.8" gradientTransform="matrix(1.30897 0 0 1.30897 -.8 -2)" gradientUnits="userSpaceOnUse" xlink:href="#c"/></defs><path fill="#d3d3d3" d="M216.4 286a136.3 144.5 0 0 1-60-20.5c-6.3-4-15.6-11.1-17-13-.7-.9-.7-14 0-14 .2 0 1.6 1.2 3 2.5 3.8 3.6 4.8 4.4 5.4 4.2.4-.2.5-1.5.5-8.7V228l.7 1.5c1.4 2.6 9.7 22 9.7 22.3 0 .3-.4.6-.8.7-.7.2-.7.2 0 1 1 1.2 7.9 5.4 14.2 8.6a125 132.5 0 0 0 133.4-16.4c3.3-2.8 4.3-3.6 4.6-3.2.2.3.2 3.1.1 6.6-.2 7.3.2 6.5-5.3 10.7a136.3 144.5 0 0 1-63.7 25.8 194.7 206.5 0 0 1-24.8.5zm46.2-29.7c-2.7-.4-8.6-2.3-9.5-3.2l-.7-.6.7-3a10 10 0 0 1 1.2-3.4c.2 0 1.8.3 3.4 1 4 1.5 7 2 10.4 2 4.9 0 8.4-1.4 11.3-4.3 2.4-2.6 3.3-5 3.3-9.5 0-3.1 0-3.5-1-5.7-2-4.1-4.8-6.3-14.5-11.1a29.8 29.8 0 0 1-10.8-7.2 15.5 16.4 0 0 1-4.4-14.4c1-7.2 5.5-12.4 13-15 2.5-1 3-1 8.9-1 5.2 0 6.7.1 9.3.7 1.7.5 3.4 1 3.6 1.3.4.3.3 1-.4 3.6a26.8 28.4 0 0 1-1 3.3l-3.7-.8a27.5 29.2 0 0 0-13.7-.3c-4.8 1.6-7.7 5-8.1 9.3-.3 2.8 0 4.3 1.3 6.3 1.6 2.5 4.4 4.5 11.6 8.2 3.6 1.8 7.4 3.9 8.4 4.6 4.2 2.8 7.7 7.5 8.9 11.8.6 2.5.6 8.3 0 11.4a21.8 21.8 0 0 1-15.4 15.5 43 43 0 0 1-12 .5zm-250-1.9c-.2-.4-.2-16.8-.2-36.5l.1-35.7H49l.1 3.2c.1 2 0 3.3-.3 3.6-.3.5-2.7.5-14.2.5-12.3 0-13.8 0-14 .6a208 208 0 0 0 .2 22.8c.4.3 4.5.4 13 .5h12.6v7.2l-12.8.1c-9.6 0-12.7.2-13 .5 0 .3-.2 8-.2 17.2v16.8h-3.8c-3.7 0-3.9 0-4-.8zm61.9.4c-.2-.3-.2-2-.1-3.7V248h5.8l5.8-.2v-58.2h-5.3c-3 0-5.6 0-5.9-.2-.4-.2-.5-.8-.5-3.7V182H85c5.9 0 10.9-.2 11-.3.4-.3.4-1-.3-3.9a150.3 159.4 0 0 1-1.2-5.5c-.4-2.3-.5-2.3-3.7-2.5H89l-.3-24.6c-.1-13.5-.2-24.7 0-24.9 0-.4 1.6-.5 6.3-.5 3.7 0 6.5-.1 6.9-.3.5-.3.6-.8.6-3 0-1.5-.1-2.7-.4-3-.4-.4-13.7-.6-14.8-.2-.5.2-.5 3.4-.5 32.6 0 24.7-.1 32.5-.4 32.8-.3.3-2 .4-5.5.4h-5l-.3-5.9v-32.2c.2-20.7.1-26.5-.2-27.1l-.4-.9-10 .2c-5.4 0-10 0-10.3-.2-.5-.4-.5-5.8 0-6.1.2-.2 10.8-.2 23.5-.2 20 0 23.2 0 23.8-.5.6-.4.6-.6.3-1.2s-1.3-.6-16-.7H70.8l-.1-7.3v-8l.3-.8h31.2l.6-1.5c.3-.8 1.6-3.8 3-6.6a127.6 135.3 0 0 1 25.5-37.7 125.6 133.2 0 0 1 15.3-14c.6-.4.6-1 .7-11.3 0-6 .1-11.1.2-11.4.2-.5 3.3-.5 23-.5 21.6 0 22.9 0 24.7-.7a130.6 138.5 0 0 1 57.1-1.4c5 1 5.6 1.2 5.2 1.6-.1.1-7.5.2-16.3.1-11.5 0-16.3.1-16.8.4l-.7.4.2 40.6.3 40.6h-76.8V64.3c0-12.8-.2-22.9-.4-23.2-.4-.7-1-.2-5.7 4.4a126.2 133.9 0 0 0-22 28.7 89 94.4 0 0 0-6.4 13.5c0 .6.5.7 17 .7l17 .1.2 9.4.2 9.4 9 29 9.7 31.7.8 2.7 5 .1h4.9v4c.2 4.1.5 5.1 1.6 4.7.5-.2.5-4.4.5-36.2 0-28.4.1-36.1.4-36.4.3-.2 6-.2 14.2 0 15.2.2 15.6.2 20.2 2.6 5.8 3 9 8.7 8.8 16.1A16.8 17.8 0 0 1 218 138a23.6 25 0 0 1-8.2 5.5 9.2 9.7 0 0 0-2.3 1 320.3 320.3 0 0 0 17.2 27.2c0 .4.8 2.2 1.9 3.9a10.7 11.4 0 0 1 1.7 3.3l-1.8.4c-1.4.2-1.7.3-1.7 1s.1 1.3.5 1.7c.6.6.7 1 .7 3.7 0 2-.1 3.2-.4 3.5-.3.3-2 .4-5.6.4h-5.3v29l.1 29 5.6.2 5.5.2v7.1h-31.2v-.9c-.3-1.7-.3-1.7-10.5-1.7h-9.7v-35c0-28-.1-35-.4-35.4-.3-.5-.8-.6-1.5-.6l-1 .1-.1 36.8-.2 36.7-4.2.1c-3.1.1-4.4 0-4.6-.3l-12.1-28-12-27.8c-.3-.2-.4 10-.4 27.4 0 15.2-.1 28-.2 28.3-.3.8-7.7.8-8 0-.2-.8-.2-71.3 0-72 .2-.5.9-.6 4.5-.6 3 0 4.4.1 4.6.4l12 27.4c6.4 14.8 11.9 27.2 12.1 27.5.4.5.4.3.3-1.4-.1-1.5-1.5-5.2-7.5-19.1l-7.4-17.3v-28.1c0-.7.1-.8 2.1-.8 2.6 0 2.5 0 4 5 .6 1.6 1.2 3.3 1.5 3.6.6.8 1.3.8 1.6.1.2-.6-6.7-24.5-7.3-25.3a33 33 0 0 0-9.7-.4c-9 0-9.3 0-9.7.7-.8 1.7-.6 1.8 8.4 1.8h8.4l-.1 6.8v6.8l-10.4.1a66.6 70.7 0 0 0-10.8.5c-.3.2-1 2.2-1.7 4.4-.6 2.1-1.3 4-1.6 4.2a47 47 0 0 1-10.7-.1c-.2-.2.2-2 .8-3.8 1.6-5 1.8-5-3.8-5-4-.1-4.6 0-4.8.5-.3.7 1.2 7.5 3 12.9a126.9 134.6 0 0 0 18.7 38.6l2.4 3.3-.2 7.7a39 39 0 0 1-.4 7.7 122 122 0 0 1-14.7-19.5 146.6 155.4 0 0 1-13.3-28l-1.2-3.6-2.2-.1-2.2-.1v58.2l5.6.2h5.6v7.1l-15.5.1c-12.7.1-15.6 0-15.7-.3zm140.8-76c0-.2-4.5-7.6-9.8-16.5l-9.8-16H190v24.4h8.7c4.8 0 8.9.1 9.2.2a39 39 0 0 1 4.8 7.5c.5.9 2.4 1.2 2.4.4zm-67.7-33a314.9 314.9 0 0 0-7-23c-.2 0-.5.6-.7 1.4-.5 1.8-.4 2.3 2.3 12.4 1.8 6.2 2 7.6 1.7 7.9-.2.1-2.6.3-5.2.3-4.8 0-5.4.2-5 1.3.1.4 1.3.5 7 .5 6.8 0 7 0 7-.7zm54.4-7.7c6-2.2 9-6.3 9-12.3 0-4.7-1.9-8.2-5.2-10-3.1-1.5-5-1.9-10.6-1.9h-5v12.4c0 9.6 0 12.5.4 12.6h5a20.8 22 0 0 0 6.4-.8zm109.3 116.7v-36.6l.1-36.1h3.8c3.1 0 3.8 0 4 .5.1.4.2 6.9.2 14.6v14l.8.2c.6.2 17.9 0 22.4-.2.1 0 .3-6.5.3-14.5l.1-14.5 3.2-.2c1.7-.2 3.4-.2 3.9-.1l.8.2-.1 36.5-.1 36.4H343l-.1-18v-18h-23.5v6c0 4.7.1 6.1.4 6 .2 0 1.9-2 3.7-4.4a308.4 327 0 0 1 4-5.2l.9-1 5.4.1c5 0 5.5.2 5.5.7 0 .8-5.1 8.4-9 13.3-1.6 2.1-4.7 5.9-7 8.4l-4 4.5v3.3l-.1 4c-.2.4-.9.5-4 .5-2.7 0-3.8-.1-4-.4zm-93.8-10.1c-.1-.1-.2-12-.2-26.3v-26h7.7v7.6l.2 26.2.2 18.7h-3.8c-2.1 0-4-.1-4.1-.2zM334.8 210c0-.3.7-2 1.7-3.8a98 98 0 0 0 3-6.3c.9-2 1.4-3 1.7-2.7.2.2.3 2.8.2 6.8v6.3l-3.4.1c-2.7.1-3.2 0-3.2-.4zm17.3-16.6c-.2-.3-.3-3.2-.3-6.5v-6l-2.4-.2c-1.5 0-2.3-.2-2.4-.6a21 22.4 0 0 1 .8-4.6 121.4 128.7 0 0 0 3.8-32.8c0-18.2-3-33.9-9.3-50.5l-1.8-4.8-19.2-.1c-10.6-.1-19.3-.3-19.4-.4l-.4-40.4-.1-40.3 38.2.3c29.8.1 38.2.3 38.5.6 0 .3.2 18.4.1 40.2v39.8l-13.7.1c-11 0-13.6.2-13.6.6 0 .2.3 1.4.8 2.6a146 154.9 0 0 1 8.7 36.5c.8 6.2 1 25.8.2 31.7a149 158 0 0 1-6 29.3c-1.6 5.1-2.2 6.5-2.5 5.5zM10.3 180.1c-3.6-.7-8.7-2.8-8.7-3.6 0-1.3 1.5-6.5 1.8-6.5l1.5.4c.8.3 1.2.3 1.5 0 .3-.3 1.2 0 3.4.8 1.7.7 4.3 1.5 5.8 1.8 2.6.6 3 .6 5 0 6.2-1.5 9.7-5 10.8-10.4a12.4 13.1 0 0 0-4.8-13.8c-1.1-.9-5.4-3.3-9.4-5.4a88 93.4 0 0 1-9.4-5.5 16.4 17.4 0 0 1 3-30c4.1-2.2 6.5-2.6 14.4-2.4 5.3.1 7.4.3 10 1a20.2 21.4 0 0 1 3.7 1c.3.3-1 6-1.4 6.5H36c-.7-.3-1.3-.3-1.6 0-.5.3-1.5.1-4.4-.6-6.3-1.7-11.2-.9-14.8 2.5-2.2 2.2-3 4-3.2 7.1-.2 2.3-.1 2.9.7 4.6 1.6 3.3 3.8 5 12 9.3 3.9 2 8 4.3 9 5.1a20.5 21.8 0 0 1 8.2 11.1c.7 2.6.8 8 .2 10.9a20 21.3 0 0 1-14 15.2c-2.5.8-3 .9-9.8 1l-8-.1zm244.3-7l-.2-32.8v-26.7l-.8-.2a124.2 131.7 0 0 0-9.5-.1 33 33 0 0 0-9.2.5c-.8 1 .6 1.2 8.7 1.2h8l.3 4.3c.1 2.4.2 15 .1 27.8l-.1 23.4-13.3.1-13.3.1V134a2146.5 2276.2 0 0 0-.2-44l.2-.9h75.5l.2 8.6c.2 4.8.3 23 .3 40.7v32H284c-9.5 0-17.5.2-17.8.3-.4.1-.5.9-.5 4 0 2.5-.1 4-.4 4.2-.3.3-2 .4-5.5.4h-5zm25.5-58.7c0-.3 0-.7-.3-.9-.2-.1-3.3-.3-6.8-.3s-6.6.2-6.8.3c-.3.2-.4.6-.3.9.2.5 1 .6 7 .6 6.1 0 7-.1 7.2-.6zM70.6 142.7v-27.3h3v27.2l-.2 27.2-1.4.1-1.4.1z"/><path fill="#f1fcf7" d="M222 285.6a136.3 144.5 0 0 1-60-20.6c-6.3-4-15.5-11.1-17-13-.6-.9-.6-14 0-14 .3 0 1.7 1.2 3.2 2.6 3.6 3.5 4.7 4.3 5.2 4 .5-.1.5-1.4.6-8.6v-8.4l.7 1.4c1.3 2.7 9.6 22 9.6 22.4 0 .2-.3.5-.7.6-.7.2-.7.2 0 1 1 1.2 7.9 5.4 14.2 8.7A125 132.5 0 0 0 311 245.2c3.3-2.8 4.4-3.5 4.7-3.1.1.2.2 3 .1 6.6-.2 7.2.2 6.4-5.4 10.6a136.3 144.5 0 0 1-63.6 25.9 194.7 206.5 0 0 1-24.8.4zm46.3-29.8c-2.7-.4-8.6-2.3-9.6-3.1l-.7-.6.8-3.2c.4-1.7 1-3.2 1.2-3.3.2 0 1.7.4 3.3 1 4 1.5 7 2 10.5 2 4.9 0 8.4-1.3 11.3-4.3 2.4-2.5 3.2-5 3.2-9.5 0-3 0-3.5-1-5.7-2-4.1-4.7-6.3-14.4-11a30 30 0 0 1-10.9-7.3 15.5 16.4 0 0 1-4.3-14.3c1-7.2 5.5-12.5 13-15.2 2.5-.8 3-1 8.8-1 5.2 0 6.7.2 9.4.9 1.7.4 3.3 1 3.6 1.2.3.4.3 1-.4 3.6a26.8 28.4 0 0 1-1 3.3l-3.8-.8a27.5 29.2 0 0 0-13.7-.2c-4.7 1.5-7.7 4.9-8 9.3-.3 2.8 0 4.2 1.3 6.2 1.6 2.5 4.4 4.5 11.6 8.3 3.6 1.8 7.3 3.9 8.3 4.6 4.3 2.8 7.7 7.4 9 11.8.6 2.4.6 8.3 0 11.3a21.8 21.8 0 0 1-15.5 15.5c-2.4.7-8.8 1-12 .5zm-250.1-1.9c-.1-.4-.2-16.8 0-36.4v-35.7h36.5v3.1c.1 2 0 3.4-.2 3.6-.3.5-2.8.6-14.2.6-12.3 0-13.9 0-14 .5a190.8 190.8 0 0 0 .2 22.9c.3.2 4.4.4 13 .4l12.5.1v7.1l-12.7.1a62 62 0 0 0-13 .5c-.1.3-.2 8-.2 17.3v16.8h-3.9c-3.7 0-3.8 0-4-.9zm62 .4c-.2-.3-.2-2-.2-3.7l.1-3.2H86l5.8-.1V189h-5.4c-2.9 0-5.5 0-5.8-.2-.4-.1-.5-.8-.5-3.7v-3.5h10.6c5.9 0 10.8-.2 11-.3.4-.2.4-1-.3-3.8a150.3 159.4 0 0 1-1.2-5.6c-.5-2.2-.5-2.3-3.7-2.5h-1.9l-.2-24.5c-.2-13.5-.2-24.7-.1-25 .1-.3 1.7-.4 6.3-.4a40 40 0 0 0 7-.4c.5-.3.6-.7.6-3 0-1.5-.2-2.7-.4-3-.4-.4-13.8-.6-14.8-.1-.5.1-.6 3.3-.6 32.6 0 24.7 0 32.4-.4 32.8-.2.2-2 .4-5.4.4h-5.1l-.2-6c-.1-3.2-.1-17.7 0-32.2.2-20.7.1-26.5-.2-27.1l-.4-.8h-10c-5.4.2-10 0-10.3-.1-.5-.4-.6-5.7 0-6.1.1-.1 10.7-.2 23.5-.2 20 0 23.2 0 23.8-.4.5-.5.6-.7.3-1.2-.4-.6-1.3-.7-16-.8H76.3l-.1-7.2.1-8 .3-.8h31.2l.5-1.5 3-6.7a127.6 135.3 0 0 1 25.6-37.6A125.6 133.2 0 0 1 152 28c.6-.4.7-1 .7-11.3 0-6 .2-11.1.3-11.4.1-.5 3.3-.5 23-.5 21.5 0 22.8 0 24.7-.7a130.6 138.5 0 0 1 57-1.4c5 1 5.6 1.2 5.2 1.6-.1.1-7.4.2-16.3.2-11.4 0-16.2 0-16.7.3l-.8.4.3 40.6.2 40.7H153V63.8c0-12.8 0-22.8-.3-23.1-.4-.7-1-.2-5.7 4.3a126.2 133.9 0 0 0-22 28.8 89 94.4 0 0 0-6.4 13.4c0 .7.5.7 17 .8h17l.2 9.5.2 9.4 9 29 9.7 31.6.8 2.7 5 .1 4.8.1.1 4c.1 4 .5 5 1.6 4.6.5-.2.5-4.4.5-36.2 0-28.4.1-36 .5-36.3.2-.3 5.9-.3 14-.1 15.3.2 15.7.3 20.3 2.6 5.8 3 9 8.7 8.8 16.2a16.8 17.8 0 0 1-4.4 12.2 23.6 25 0 0 1-8.2 5.5 9.2 9.7 0 0 0-2.4 1 314.8 314.8 0 0 0 17.3 27.2c0 .4.9 2.2 1.9 4a10.7 11.4 0 0 1 1.7 3.2c-.2.2-1 .4-1.8.4-1.4.2-1.6.4-1.7 1.1 0 .6.1 1.2.6 1.6.6.6.6 1 .6 3.7 0 2-.1 3.3-.4 3.6-.2.2-2 .4-5.7.4h-5.3l.1 29 .1 29 5.5.2 5.6.2v7h-31.2v-.8c-.3-1.8-.2-1.8-10.6-1.8h-9.6v-35c0-28-.1-35-.5-35.4-.2-.4-.7-.6-1.4-.6l-1 .2-.1 36.7-.2 36.8h-4.2c-3.1.1-4.3 0-4.6-.3-.2-.2-5.6-12.8-12.1-28l-12.1-27.8c-.2-.2-.3 10-.3 27.4 0 15.3-.1 28-.2 28.3-.3.8-7.7.8-8 0-.2-.8-.2-71.3 0-72 .2-.5.9-.6 4.5-.6 3 0 4.3.1 4.6.4l12 27.4a1168.5 1239.1 0 0 0 12.1 27.5c.4.5.4.4.3-1.3-.1-1.6-1.5-5.2-7.5-19.2l-7.4-17.2V171c0-.7.1-.7 2.1-.7 2.6 0 2.5-.1 4 5 .6 1.6 1.2 3.2 1.5 3.6.6.7 1.4.8 1.6 0 .2-.5-6.7-24.5-7.3-25.3-.3-.3-2.6-.4-9.7-.4-9 0-9.3 0-9.7.7-.8 1.7-.6 1.8 8.4 1.8h8.4v6.8l-.2 6.9h-10.3a66.6 70.7 0 0 0-10.8.5c-.3.3-1 2.2-1.7 4.4-.7 2.1-1.3 4-1.6 4.2-.6.4-10.5.4-10.7-.1-.1-.2.2-1.9.8-3.7 1.6-5.1 1.8-5-3.8-5-4-.2-4.6-.1-4.8.4-.3.7 1.3 7.5 3 13a126.9 134.6 0 0 0 18.7 38.5l2.3 3.3v7.7c-.1 4.7-.3 7.8-.5 7.8-1 0-10.4-12.5-14.6-19.5a146.6 155.4 0 0 1-13.4-28l-1.2-3.6-2.2-.1-2.3-.2v58.3h5.7l5.6.2v7l-15.5.2c-12.7 0-15.5 0-15.7-.4zm140.7-76c0-.2-4.4-7.6-9.8-16.5l-9.8-16h-5.5v24.4h8.7c4.7 0 8.9.1 9.1.2a38 38 0 0 1 4.8 7.5c.5.9 2.5 1.2 2.5.4zm-67.7-33a300.6 300.6 0 0 0-7-23c-.2 0-.5.6-.7 1.4-.5 1.8-.4 2.3 2.4 12.4 1.7 6.1 2 7.6 1.7 7.9-.3.1-2.6.3-5.3.3-4.7 0-5.4.2-5 1.3.2.4 1.4.5 7 .5 6.8 0 7 0 7-.8zm54.5-7.7c5.8-2.2 8.8-6.4 8.8-12.3 0-4.7-1.8-8.2-5.1-10-3-1.5-5-1.9-10.5-1.9h-5.1v12.4c0 9.6 0 12.4.4 12.6h5a20.8 22 0 0 0 6.5-.8zm109.2 116.7v-36.6l.2-36h3.8c3.1 0 3.8 0 4 .5l.1 14.5v14l.9.2c.6.2 17.9 0 22.3-.2.2 0 .3-6.5.4-14.4v-14.5l3.2-.3c1.7-.2 3.5-.2 4 0l.7.1v36.5l-.2 36.5h-7.7v-18l-.1-18H325v6c0 4.7.1 6 .5 6 .2-.2 1.9-2.1 3.7-4.5l4-5.2.8-1 5.5.1c5 .1 5.5.2 5.5.8 0 .8-5.1 8.4-9 13.2a219 219 0 0 1-7 8.4l-4 4.5v3.4c0 1.8 0 3.6-.2 3.9-.1.5-.8.6-4 .6-2.6 0-3.8-.2-3.9-.5zm-93.7-10c-.2-.2-.3-12-.3-26.4v-26h7.7v7.6l.3 26.3.2 18.7h-3.9c-2.1 0-4-.1-4-.3zm117.2-34.8c0-.3.8-2 1.7-3.8 1-1.8 2.4-4.6 3-6.3 1-2 1.5-2.9 1.7-2.7.2.3.3 2.9.3 6.8l-.1 6.3-3.3.1c-2.7.1-3.3 0-3.3-.4zm17.3-16.5l-.2-6.6-.1-6-2.3-.1c-1.5-.1-2.4-.3-2.5-.6a21 22.4 0 0 1 .9-4.6 121.4 128.7 0 0 0 3.8-32.9c0-18-3-33.9-9.3-50.4l-1.8-4.8-19.3-.2c-10.5 0-19.3-.3-19.4-.3l-.3-40.5-.2-40.3 38.2.3c29.9.2 38.3.3 38.5.7.2.2.2 18.3.2 40.2l-.1 39.7-13.6.1a51 51 0 0 0-13.7.6l.9 2.7a146 154.9 0 0 1 8.7 36.4c.8 6.2.9 25.9.2 31.8a149 158 0 0 1-6 29.2c-1.6 5.2-2.2 6.5-2.6 5.6zM16 179.6c-3.5-.7-8.7-2.8-8.7-3.6 0-1.3 1.5-6.4 1.8-6.4.3 0 1 0 1.5.3.7.3 1.2.3 1.5 0 .3-.2 1.3 0 3.4.9 1.7.6 4.3 1.5 5.8 1.7 2.6.6 3 .6 5 .1 6.1-1.6 9.7-5 10.8-10.4a12.4 13.1 0 0 0-4.9-13.9c-1-.9-5.3-3.3-9.3-5.4a88 93.4 0 0 1-9.4-5.4 16.4 17.4 0 0 1 3-30c4.2-2.3 6.5-2.7 14.4-2.5 5.3.1 7.4.4 10 1a20.2 21.4 0 0 1 3.7 1c.3.3-1 6-1.4 6.5-.1.2-.7.1-1.4 0-.7-.3-1.3-.3-1.6 0-.5.3-1.5.2-4.4-.6-6.3-1.7-11.2-.8-14.8 2.5-2.2 2.2-3 4-3.2 7.1-.2 2.3 0 2.9.7 4.6 1.6 3.4 3.8 5.1 11.9 9.3 4 2 8 4.4 9.1 5.1a20.5 21.8 0 0 1 8.2 11.2c.7 2.5.8 8 .1 10.8A20 21.3 0 0 1 34 178.7c-2.5.9-3 1-9.9 1l-8-.1zm244.3-7l-.2-32.8v-26.7l-.8-.2a124.2 131.7 0 0 0-9.5-.1c-6.6 0-8.9.2-9.2.5-.9 1 .6 1.2 8.7 1.2h8l.3 4.4V170h-13.3l-13.3.2v-36.9a2146.5 2276.2 0 0 0-.2-44l.2-.8h75.5l.3 8.6.2 40.6V170h-17.2c-9.5 0-17.5 0-17.8.2-.4.2-.5.9-.5 4 0 2.5-.2 4-.4 4.3-.3.2-2 .4-5.5.4h-5zm25.5-58.7c.1-.3 0-.7-.3-.8-.2-.2-3.3-.4-6.8-.4s-6.6.2-6.9.4c-.2.1-.3.5-.2.8.2.5 1 .6 7 .6 6.1 0 7 0 7.2-.6zM76.3 142.2V115h3V142l-.2 27.3h-1.4l-1.4.2z" opacity=".4"/><path fill="url(#d)" d="M227 297.3a136.3 144.5 0 0 1-60.1-20.6c-6.3-4-15.5-11.1-17-13-.6-.8-.6-14 0-14 .3 0 1.7 1.2 3.2 2.6 3.6 3.5 4.7 4.3 5.3 4.1.4-.2.5-1.5.5-8.7v-8.4l.7 1.4c1.3 2.7 9.6 22 9.6 22.4 0 .3-.3.5-.7.6-.7.3-.7.3 0 1 1 1.2 7.9 5.4 14.2 8.7A125 132.5 0 0 0 316 257c3.3-2.8 4.4-3.6 4.7-3.2.1.2.2 3 .1 6.6-.2 7.3.2 6.4-5.3 10.6a136.3 144.5 0 0 1-63.7 25.9 194.7 206.5 0 0 1-24.8.4zm46.2-29.8c-2.7-.3-8.6-2.3-9.6-3.1l-.6-.6.7-3.1c.4-1.8 1-3.2 1.2-3.3.2-.2 1.7.3 3.3.9 4 1.5 7 2.1 10.5 2.1 4.9 0 8.4-1.4 11.3-4.4 2.4-2.5 3.2-5 3.3-9.4 0-3.2 0-3.6-1-5.8-2-4.1-4.8-6.2-14.5-11a30 30 0 0 1-10.9-7.3 15.5 16.4 0 0 1-4.3-14.3c1-7.2 5.5-12.5 13-15.1 2.5-1 3-1 8.8-1 5.2 0 6.7.1 9.4.8 1.7.4 3.3 1 3.6 1.2.3.4.3 1-.4 3.6a26.8 28.4 0 0 1-1 3.3c0 .1-1.8-.2-3.8-.8a27.5 29.2 0 0 0-13.6-.2c-4.8 1.5-7.7 5-8.1 9.3-.3 2.8 0 4.2 1.3 6.2 1.6 2.6 4.4 4.5 11.6 8.3 3.6 1.8 7.3 3.9 8.3 4.6 4.3 2.8 7.7 7.4 9 11.8.6 2.5.6 8.3 0 11.3a21.8 21.8 0 0 1-15.4 15.5c-2.5.7-8.9 1-12.1.5zm-250.1-1.8c-.1-.5-.1-16.9 0-36.5v-35.7h36.5v3.1c.2 2 0 3.4-.2 3.7-.3.4-2.8.5-14.2.5-12.3 0-13.8 0-14 .5a190.8 190.8 0 0 0 .2 22.9c.3.2 4.4.4 13 .5h12.5v7.2H44.2a62 62 0 0 0-13 .6c-.1.2-.2 8-.2 17.2v16.8H27c-3.7 0-3.8 0-4-.8zm62 .3c-.2-.3-.2-1.9-.2-3.6l.1-3.2 5.8-.1 5.8-.1v-58.2h-5.3c-3 0-5.6-.1-5.9-.3-.4-.1-.5-.8-.5-3.7v-3.5h10.6c5.9 0 10.8-.1 11-.3.4-.2.4-1-.3-3.8a150.3 159.4 0 0 1-1.2-5.6c-.5-2.2-.5-2.3-3.7-2.4l-1.9-.1-.2-24.5c-.1-13.5-.2-24.7-.1-25 .1-.3 1.7-.4 6.4-.4a40 40 0 0 0 6.9-.3c.5-.4.6-.8.6-3 0-1.6-.1-2.8-.4-3-.4-.5-13.7-.7-14.8-.2-.5.2-.5 3.3-.5 32.6 0 24.7-.1 32.4-.5 32.8-.2.3-2 .4-5.4.4h-5.1l-.2-6c-.1-3.2-.1-17.7 0-32.2.2-20.7.1-26.5-.2-27l-.4-1-10 .2c-5.4 0-10 0-10.3-.2-.5-.3-.6-5.7 0-6 .1-.2 10.7-.3 23.5-.3 20 0 23.2 0 23.8-.4.5-.5.6-.7.3-1.2-.3-.6-1.3-.7-16-.7l-15.6-.1v-15.2l.3-.8h31.2l.5-1.5 3-6.7a127.6 135.3 0 0 1 25.6-37.6 125.6 133.2 0 0 1 15.2-14c.7-.4.7-1 .8-11.3 0-6 0-11.2.2-11.5.2-.4 3.3-.5 23-.5 21.6 0 22.9 0 24.7-.7a130.6 138.5 0 0 1 57-1.4c5 1 5.6 1.2 5.2 1.6 0 .1-7.4.2-16.3.2-11.4 0-16.2 0-16.7.3l-.8.4.3 40.6.2 40.7H158V75.5c0-12.7-.2-22.8-.3-23.1-.5-.7-1.1-.2-5.8 4.3a126.2 133.9 0 0 0-22 28.8 89 94.4 0 0 0-6.4 13.4c0 .7.5.7 17 .8h17l.2 9.5.2 9.4 9 29 9.7 31.6.8 2.7 5 .2h4.8l.1 4c.2 4 .5 5 1.6 4.6.5-.2.5-4.4.5-36.2 0-28.4.1-36 .5-36.3.2-.2 5.9-.3 14-.1 15.3.2 15.7.3 20.3 2.6 5.8 3 9 8.7 8.9 16.2a16.8 17.8 0 0 1-4.5 12.2 23.6 25 0 0 1-8.2 5.5 9.2 9.7 0 0 0-2.3 1 314.8 314.8 0 0 0 17.2 27.2c0 .5.9 2.2 1.9 4a10.7 11.4 0 0 1 1.7 3.2c-.2.2-1 .4-1.8.5-1.4.1-1.6.3-1.7 1 0 .6.1 1.2.6 1.6.6.6.6 1 .6 3.8 0 1.9-.1 3.2-.4 3.5-.2.3-2 .4-5.7.4h-5.2v29l.1 29 5.5.2 5.6.2v7.1h-31.2v-.9c-.3-1.8-.2-1.8-10.6-1.8H185v-34.9c0-28 0-35-.5-35.5-.2-.4-.7-.6-1.4-.5l-1 .1-.1 36.8-.2 36.7h-4.2c-3.1.1-4.3 0-4.6-.3-.2-.2-5.6-12.8-12.1-28l-12-27.8c-.3-.2-.4 10-.4 27.4 0 15.3 0 28-.2 28.3-.3.8-7.7.8-8 0-.2-.7-.2-71.3 0-72 .2-.5 1-.6 4.5-.6 3 0 4.3.1 4.6.5.2.2 5.6 12.5 12 27.3a1168.5 1239.1 0 0 0 12.1 27.6c.4.5.5.3.3-1.4-.1-1.6-1.5-5.2-7.5-19.2l-7.4-17.2v-28.1c0-.8.1-.8 2.1-.8 2.6 0 2.5 0 4 5 .6 1.6 1.2 3.2 1.5 3.6.6.8 1.4.8 1.6 0 .2-.5-6.7-24.5-7.3-25.2-.3-.4-2.6-.5-9.6-.5-9.2 0-9.4 0-9.8.7-.8 1.8-.6 1.8 8.4 1.8h8.4v6.8l-.2 6.9h-10.3a66.6 70.7 0 0 0-10.8.6c-.2.2-1 2-1.7 4.3-.7 2.2-1.3 4-1.6 4.2-.6.4-10.5.4-10.7 0-.1-.3.2-2 .8-3.8 1.6-5.1 1.8-5-3.7-5-4.1-.2-4.7-.1-4.9.4-.3.7 1.3 7.5 3 13a126.9 134.6 0 0 0 18.7 38.6l2.3 3.3v7.7c-.1 4.6-.3 7.7-.5 7.7-1 0-10.3-12.5-14.6-19.5a146.6 155.4 0 0 1-13.4-28l-1.2-3.6-2.2-.1-2.2-.1V259h5.6l5.6.2v7.1h-15.5c-12.7.1-15.5 0-15.7-.3zm140.7-76c0-.2-4.4-7.6-9.8-16.5l-9.8-16h-5.5v24.4h8.7c4.7 0 8.9.1 9.2.2a38 38 0 0 1 4.7 7.5c.5.9 2.5 1.2 2.5.4zm-67.6-33a300.6 300.6 0 0 0-7-23c-.2 0-.5.7-.8 1.4-.5 1.8-.4 2.3 2.4 12.4 1.7 6.2 2 7.6 1.7 7.9-.3.1-2.6.3-5.3.3-4.7 0-5.3.2-5 1.3.2.4 1.4.5 7 .5 6.9 0 7 0 7-.8zm54.4-7.7c5.9-2.2 8.8-6.3 8.8-12.3 0-4.7-1.8-8.2-5.1-10-3-1.5-5-1.9-10.5-1.9h-5.1v12.4c0 9.6 0 12.5.4 12.6h5a20.8 22 0 0 0 6.5-.8zM321.8 266v-36.6l.2-36h3.8c3.1 0 3.8 0 4 .5 0 .3.2 6.8.2 14.5v14l.8.2c.6.2 17.9 0 22.4-.1l.3-14.5v-14.5l3.2-.3c1.7-.1 3.5-.2 4 0l.7.1v36.5l-.1 36.5h-7.7l-.1-18-.1-18H330v6c0 4.7 0 6 .4 6 .2-.1 1.9-2.1 3.7-4.4l4-5.3.9-1 5.4.2c5 0 5.5.1 5.5.7 0 .8-5.1 8.4-9 13.2a219 219 0 0 1-7 8.4l-4 4.5v3.4c0 1.8 0 3.6-.2 3.9-.1.5-.8.6-4 .6-2.6 0-3.8-.2-3.9-.5zm-93.7-10c-.2-.2-.3-12-.3-26.3v-26h7.7v7.5l.3 26.3.2 18.7h-3.9c-2 0-3.9-.1-4-.3zm117.3-34.8c0-.3.7-2 1.6-3.8 1-1.8 2.4-4.6 3-6.2 1-2.1 1.5-3 1.7-2.7.2.2.3 2.8.3 6.7l-.1 6.4h-3.3c-2.7.1-3.2 0-3.2-.4zm17.2-16.5l-.2-6.6-.1-6-2.3-.1c-1.5 0-2.4-.3-2.5-.6a21 22.4 0 0 1 1-4.6 121.4 128.7 0 0 0 3.7-32.9c0-18-3-33.8-9.3-50.4l-1.8-4.8-19.2-.2c-10.6 0-19.4-.2-19.5-.3l-.3-40.5-.2-40.2 38.2.2c30 .2 38.3.4 38.5.7.2.2.2 18.3.2 40.2v39.8H375a51 51 0 0 0-13.7.6l.9 2.7A146 154.9 0 0 1 371 138c.8 6.2.9 25.9.2 31.8a149 158 0 0 1-6 29.2c-1.6 5.2-2.2 6.5-2.6 5.6zM21 191.3c-3.5-.7-8.7-2.8-8.7-3.5 0-1.3 1.5-6.5 1.8-6.5l1.5.3c.8.3 1.2.3 1.5 0 .3-.2 1.3 0 3.4.9 1.7.7 4.3 1.5 5.8 1.8 2.6.6 3 .6 5 0 6.2-1.6 9.7-5 10.8-10.4A12.4 13.1 0 0 0 37 160c-1-.9-5.3-3.3-9.3-5.4a88 93.4 0 0 1-9.4-5.4 16.4 17.4 0 0 1 3-30c4.2-2.3 6.5-2.7 14.4-2.5 5.3.2 7.4.4 10 1a20.2 21.4 0 0 1 3.7 1c.3.4-1 6-1.4 6.5-.1.2-.7.1-1.3 0-.8-.2-1.3-.2-1.7 0-.5.3-1.5.2-4.4-.6-6.3-1.7-11.2-.8-14.8 2.6-2.2 2.1-3 3.9-3.2 7-.2 2.3 0 2.9.7 4.6 1.6 3.4 3.8 5.1 12 9.3 3.9 2.1 8 4.4 9 5.2a20.5 21.8 0 0 1 8.2 11.1c.7 2.5.8 8 .2 10.8a20 21.3 0 0 1-14 15.2c-2.5.9-3 1-9.9 1h-8zm244.3-7l-.2-32.8v-26.7l-.8-.2a124.2 131.7 0 0 0-9.5-.1c-6.6.1-8.9.2-9.2.6-.9 1 .6 1.1 8.7 1.1h8l.3 4.4c.1 2.3.2 14.9 0 27.8v23.4h-13.3l-13.3.2V145a2146.5 2276.2 0 0 0-.2-43.9l.2-.9h75.5l.3 8.6.2 40.6v32.1h-17.2c-9.5 0-17.5 0-17.8.2-.4.2-.5.9-.5 4 0 2.5-.2 4-.4 4.3-.3.3-2 .4-5.5.4h-5zm25.5-58.7c.1-.3 0-.7-.3-.8-.2-.2-3.3-.4-6.8-.4s-6.6.2-6.9.4c-.2.2-.3.5-.2.8.2.5 1 .6 7 .6 6.1 0 7 0 7.2-.6zM81.2 154v-27.3h3v27.2l-.2 27.3-1.4.1-1.4.1z" opacity=".6"/><path fill="#4ed99a" d="M216.7 286a130.9 130.9 0 0 1-77-33.7c-.7-.8-.6-13.9 0-13.9.2 0 1.6 1.2 3 2.7l4 3.4c1.7 1.3 1.8 1.7 1.8 5v2.7l4.2.1c3.8 0 4.3.3 5.2 1a118.5 118.5 0 0 0 148-7.7c3.1-2.8 4.3-3.6 4.5-3.2v6.5c-.1 7.3.3 6.6-5.2 10.7a135.7 135.7 0 0 1-63.7 25.8c-5.3.7-19.7 1-24.8.6zM263 256a34 34 0 0 1-9.5-3.1l-.7-.6.7-3.1c.4-1.7 1-3.3 1.3-3.3.1-.1 1.7.3 3.2 1 4 1.5 7.1 2 10.5 2 4.9 0 8.4-1.3 11.3-4.4 2.3-2.5 3.2-5 3.2-9.4 0-3.2 0-3.6-1-5.7-1.8-4.2-4.7-6.2-14.4-11a30.3 30.3 0 0 1-10.9-7.3 17 17 0 0 1-4.3-14.4c1-7.2 5.5-12.4 13-15 2.6-1 3-1 8.9-1 5.2 0 6.5 0 9.3.7 1.8.5 3.4 1 3.6 1.3.3.4.3 1-.4 3.5l-1 3.3-3.8-.8c-4.7-1.3-10-1.3-13.6-.2-4.9 1.5-7.9 5-8.1 9.4-.3 2.6 0 4.2 1.3 6.1 1.6 2.7 4.4 4.6 11.6 8.3l8.4 4.6c4.2 2.9 7.7 7.6 9 11.8.6 2.6.6 8.3 0 11.3a22 22 0 0 1-15.5 15.6c-2.5.7-9 1-12 .4zm-250-1.8c-.1-.4-.3-17-.1-36.4v-35.7h36.6v3.1c0 2 0 3.3-.2 3.7-.4.4-2.8.5-14.3.5-12.3 0-13.9 0-14 .5a178.7 178.7 0 0 0 .3 22.8c.2.2 4.4.4 13 .5h12.5v7.2H34c-9.7.1-12.8.3-13.1.7l-.1 17.1v16.8h-4c-3.6 0-3.9 0-3.9-.8zm61.8.4v-6.8l5.9-.2h5.7v-58.2h-5.2a47.1 47.1 0 0 1-6-.3c-.4-.1-.5-.9-.5-3.8V182h10.7c5.8 0 10.7-.2 11-.4.4-.2.4-.6 0-2.6-1.5-5.2-2-8.2-1.6-8.6.4-.6 8.5-.7 9.2-.2.4 0 1.2 2.7 1.8 5.5 4 17 11 32.2 21 46.4l2.2 3.2v7.8c-.1 4.6-.4 7.7-.5 7.7-1 0-10.5-12.6-14.7-19.6-4.8-7.9-10-18.6-13.4-28l-1.3-3.6h-2l-2.3-.2v58.2l5.6.1h5.5v7.2H90.4a68 68 0 0 1-15.7-.2zm55.4 0c-.3-1-.3-71.5 0-72.2 0-.5.9-.5 4.4-.5 3 0 4.5 0 4.6.4.3.3 5.6 12.6 12 27.4l12 27.5c.3.2.3-7.4.3-26.5v-28l.3-1.3h8v36.7l-.1 36.7h-4.2c-3.2.2-4.4 0-4.6-.2-.3-.3-5.6-12.9-12.2-28l-12-27.8c-.3-.3-.4 10-.4 27.4l-.2 28.2c-.2.6-.9.6-3.9.6-3.3 0-4 0-4-.6zm64.8-.2l-.3-3.9v-3.1h5.8l5.8-.2v-57.6h-5.5c-4.3 0-5.6 0-5.8-.5-.3-.2-.4-1.7-.3-3.9v-3.5H210c11-.2 15.5 0 15.7.2.7.5.7 6.4 0 7 0 .4-2 .5-5.6.5H215v29l.1 29 5.6.1 5.5.3v7h-15.5c-14.4.2-15.5.2-15.7-.4zm116.7.2V182h4c3 0 3.7 0 3.9.5 0 .3.2 6.9.2 14.6v14l.8.2c.7 0 17.8 0 22.3-.2.2 0 .4-6.6.4-14.4v-14.5l3.2-.3c1.7-.3 3.6-.3 4 0h.7v73h-7.8v-18l-.1-18h-23.6v6c0 4.8.1 6 .5 6 .3 0 1.9-2 3.7-4.4l4-5.2.8-1h5.5c5 0 5.5.2 5.5.9s-5.2 8.3-8.9 13.2l-7 8.4-4 4.4v3.4l-.2 4c-.2.5-.8.5-4 .5-2.7 0-3.9 0-3.9-.4zm23.6-44.8c0-.4.6-2 1.5-4 1-1.6 2.4-4.4 3-6 1-2.2 1.5-3 1.8-2.7.2 0 .2 2.6.2 6.6v6.5h-3.5c-2.6 0-3.3 0-3.3-.4zm17.1-16.6c0-.3-.2-3.2-.2-6.6v-6h-2.4c-1.4-.1-2.4-.4-2.5-.6l1-4.6c2.6-10.5 3.7-21 3.7-32.9a135.9 135.9 0 0 0-10.8-55c0-.3.8-.5 5-.3h4.8l.8 2.2c4.2 10.7 7.6 24.6 9.1 37.3.7 6.1.8 25.8 0 31.8a166.2 166.2 0 0 1-5.9 29.2c-1.7 5.2-2.2 6.5-2.6 5.5zM10.7 179.9c-3.7-.6-9-2.6-9-3.5 0-1.3 1.5-6.6 2-6.6l1.4.4c.7.3 1.3.4 1.5 0 .3-.2 1.3 0 3.4 1l5.8 1.8c2.6.5 3 .5 5 0 6.1-1.7 9.6-5.1 10.8-10.5 1-5.5-.6-10.5-4.8-13.9-1.2-.7-5.3-3.2-9.4-5.3a86.7 86.7 0 0 1-9.5-5.5 17.3 17.3 0 0 1-6.8-13.5c0-7.5 3.4-13 9.8-16.5 4.2-2.2 6.6-2.6 14.4-2.5a44.5 44.5 0 0 1 13.8 2.1c.2.3-1 5.9-1.3 6.6l-1.5-.2c-.7-.2-1.3-.2-1.7 0-.4.4-1.4.2-4.3-.5-6.4-1.7-11.2-1-14.8 2.6a9.2 9.2 0 0 0-3.2 7 7 7 0 0 0 .7 4.5c1.6 3.4 3.8 5.3 11.8 9.3 4 2.1 8.1 4.5 9.2 5.3 4 2.7 7 7 8.2 11 .7 2.6.8 8 .2 10.8a20.6 20.6 0 0 1-14 15.2c-2.5 1-3 1-9.9 1h-7.8zm147.5-.6l-3.8-12.6c-2-6.8-3.7-12.4-4-12.7-.2-.4-2.4-.4-9.6-.4l-9.4.1-.3 1c-1.3 5-7.5 24-7.8 24.2-.6.4-10.5.2-10.7 0a15 15 0 0 1 1-4.3l1.3-4.5c0-1 19.2-63.5 19.6-63.7.5-.3 10.9 0 12.3.1.5.1 2.1 5 10.5 32a13296 13296 0 0 0 12 40.1 66 66 0 0 1-11.2.5zm-10.3-33.5a301.8 301.8 0 0 0-7-23c-.2 0-.5.6-.8 1.4a1095 1095 0 0 1-6.1 22c.1 0 3.3.2 7 .2 6.9 0 6.9 0 6.9-.6zm31.4 33.5c0-.2-.3-16.5-.3-36.3 0-28.3.1-36 .5-36.2h14.2c15.2.2 15.6.2 20.1 2.6 5.8 3 9 8.6 8.8 16a18.3 18.3 0 0 1-4.4 12.4 23.6 23.6 0 0 1-8.2 5.5c-1.3.4-2.2.9-2.3 1-.2.3 5.2 9 16.7 27.1 3.2 5 4.4 7 4 7.4-.8.5-12 .7-12.3.2l-10.3-16.6-9.8-16.2h-5.5v16.3c0 12.7-.1 16.4-.5 16.4-.8.2-10.5.6-10.7.4zm23-41.4c5.9-2 9-6.3 9-12.2 0-4.7-2-8.2-5.3-10-3-1.5-5-1.9-10.5-1.9h-5.1v12.5c0 9.5.1 12.4.5 12.5h4.9a19.6 19.6 0 0 0 6.5-.9zM76 173.3c-.2-3.5-.2-17.8 0-32.4.1-20.7 0-26.4-.3-27l-.4-.9H55c-.5-.4-.6-5.8 0-6.1 0 0 12-.3 26.6-.3h26.4v3.2c.2 2.2 0 3.1-.2 3.4H98a116.5 116.5 0 0 0-10 0l-1 .2V146c0 24.7 0 32.5-.4 32.7-.3.4-2 .5-5.5.5H76l-.1-6zm179-.3l-.2-32.7c0-24.1 0-26.7-.6-27a151 151 0 0 0-20.4 0c-.5-.4-.6-6.4 0-6.8.3-.1 12-.3 26.9-.1l26.4.1.1 3.1c0 2.4 0 3.3-.4 3.6H267l-1 .2V146c0 24.7 0 32.5-.3 32.7-.3.4-2 .5-5.4.5h-5.2V173zM102.7 87.6a139.5 139.5 0 0 1 44.1-58.9c.5 0 .7.7.7 5.7V40l-1.3 1.2a126.3 126.3 0 0 0-31.8 43l-1.9 4h-5c-4.4 0-5 0-5-.6zm92.4-82.5c0-.6 2.4-1.4 6.6-2.1a123 123 0 0 1 56 1.5L195 5z"/><path fill="#525f7f" d="M215.1 286a128.3 128.3 0 0 1-74.8-31.9l-2.3-2V246c0-3.5 0-6.5.3-6.5l3 2.4a112.6 112.6 0 0 0 4 3.6c1 .9 1.1.9 1.1 3.9 0 2 0 3.3.4 3.5.3.3 1.7.4 4.3.4h4l3.8 2.6a120 120 0 0 0 145.5-9.6l4-3c.2 0 .3 2.7.3 6 0 4.3 0 5.9-.4 6.5l-4.3 3.6a130.2 130.2 0 0 1-88.9 26.7zm47.3-29.9c-4.5-.5-10-2.3-10.5-3.4a27 27 0 0 1 1.2-6.1l4 1.3c7.7 2.8 13.8 2.6 18.6-.4 4.1-2.6 6.2-6.7 6.2-12 0-4.4-1.6-8-5-10.8-1-1-5-3.3-9.5-5.6-10.2-5.3-12.9-7.5-15-12.5a19.9 19.9 0 0 1-.3-13.3c2-5.5 6.5-9.4 13-11.3a42 42 0 0 1 16.7.3c3.1.6 3.5.9 3.5 1.6 0 .6-1.2 5.5-1.3 5.7l-3.4-.8c-8.5-2.3-16.1-1-20 3.4a11.1 11.1 0 0 0-1.6 11.3c1.6 3.3 4.3 5.5 12.2 9.5 8.5 4.4 10 5.3 12.5 8.2 3.7 3.9 5.3 8 5.3 13.4 0 9-4 15.4-11.6 19.3l-4.3 1.7c-2.6.6-7.3.9-10.7.5zM11.9 218.8v-36.1h17.8l17.9.1v6l-13.9.2c-7.7 0-14.1.4-14.4.5-.5.4-.5 23.3 0 24 .3.3 3.7.3 13.1.3h12.7l-.1 3.3v3.4H32c-9.6 0-12.6.3-13 .5 0 .3-.2 8-.2 17.3V255h-7.2zm61.7 35.7v-6h5.8c4-.1 5.8-.4 5.9-.6.1-.3.3-13.4.3-29 0-25.8 0-28.9-.6-29.3-.4-.5-1.4-.6-6-.6h-5.6v-6.3h10.8c8.7 0 11-.2 11.2-.5l-1-4.9-1-5.4v-1h9l.4 1.2 1.2 4.8a137 137 0 0 0 21.3 46.5l1.6 2.2v7.5a47.1 47.1 0 0 1-.2 7.4c-.7 0-8.3-9.8-12.5-16.3a155.9 155.9 0 0 1-16.9-34.8c-.6-.6-3.8-.4-4.3.2-.5.5-.5 3.5-.5 29.2 0 15.7 0 28.8.3 29 0 .3 1.8.6 5.7.6h5.5v6.5H88.8c-12.4 0-15.2 0-15.3-.4zm55.5-35.7v-36.1h8.2l12.1 28.1c7.1 16.4 12.3 28.2 12.6 28.2.4 0 .5-5.3.5-28.3v-28.3h7V255h-3.8l-4.2.2-12-28.3a664.5 664.5 0 0 0-12.6-28.5c-.2-.3-.6-.2-.7 0 0 .3-.3 13-.3 28.6v28.2H129zm64.7 36.1c-.1 0-.3-1.5-.3-3.4v-3.1h5.5c3 0 5.7 0 6-.3.2-.2.3-6.3.2-29.3v-29.3l-5.9-.1h-5.8v-3.6l.2-3.5h14.9a96.9 96.9 0 0 1 15.3.2c.4.3.5 1.2.4 3.3v2.9l-5.5.1c-4.4.3-5.6.4-5.9.8-.2.7-.4 57.6 0 58.1.1.3 1.8.6 5.8.6h5.5v6.5h-30.4zm116.5-36v-36h7.2v14c0 9 0 14.3.3 14.7.4.7.8.7 11.7.7 6.5 0 11.8-.2 12-.3.4-.3.4-3.8.5-14.7V183h3.6l3.7-.2-.1 36.2v36h-7l-.2-18c0-14-.1-18-.5-18-20.7-.2-23.5 0-23.6.3-.3.3-.4 3.3-.4 6.5 0 5.1 0 6 .5 6.2.6.3.6.3 4.7-5.2l3.6-4.8.8-.9h5.2c2.9 0 5.2 0 5.4.3.2.3-2.7 4.7-5.3 8.6-3.1 4.4-6.8 8.7-10.8 13.1l-4.1 4.5v7.6h-7.2zm23.6-8.9l1.7-3.5a89.8 89.8 0 0 0 3.9-7.9c.3-.2.4 1.7.4 5.8v6h-3c-1.9 0-3 0-3-.4zm17-22.9c0-3.9 0-5.7-.4-6-.1-.3-1.3-.5-2.5-.5s-2 0-2-.3l1-4.6c2.6-11 3.6-20.8 3.6-32.7 0-18-3-34.3-9.1-50.1-.8-2.4-1.5-4.5-1.4-4.6 0-.1 2.1-.4 4.5-.4h4.3l.8 2a133.3 133.3 0 0 1 9.8 51 126 126 0 0 1-2.6 31.7 90.4 90.4 0 0 1-5.6 20.2c-.3 0-.4-2.7-.4-5.7zM5.3 178.8a13 13 0 0 1-4.6-2c0-1 1.5-6.3 1.7-6.3l1.3.5 1 .6-.4 2c-1 3.3-.8 3.6 1.5 4.8 2.4 1.3 2.3 1.3-.6.4zm69.4-32.4v-32.8h2.6V179h-2.6zm36.8 32.5l.9-4.2c2-7 20.3-66.4 20.7-67 .1-.5.6-.7 1.5-.7.8 0 1.3 0 1.3.3l-11 36-11 35.6-1.1.1h-1.3zm41.9-12l-3.7-12.4c0-.5 2.2-.4 2.6.2.4.5 7 23.3 7 24 0 .2-.3.4-1.2.4h-1.2zm24.6 11.9v-36c0-38.7 0-36.2 2-35.6l.8.2V179h-1.3c-.7 0-1.4-.2-1.5-.5zm27-15.8a438 438 0 0 1-9.6-16.3c.2-.4 1.7-.4 2.2.1l19.6 31.8c0 .4-.2.5-1.1.5h-1.4zm48.9-16.6v-32.8h2.5v32.8l.1 32.6H254zM24.3 171.8a12 12 0 0 0 4.7-4.6 15 15 0 0 0-1.6-16.7c-1.8-2.2-4.4-3.8-12.8-8.1-6.8-3.6-7.5-4-9.5-6.2a17.4 17.4 0 0 1 6.9-28.8c3.1-1.2 3.3-.9.4.7a19.2 19.2 0 0 0-7.5 7.3 18 18 0 0 0-1.8 9.7c.3 5.2 1.3 7.6 5 11.4 2.3 2.6 3 3 7.8 5.5 11 5.6 13 6.8 15 9.4 4.3 5.2 3.3 14.7-1.6 18.6a15 15 0 0 1-5.8 2.9c-1 .2-1 0 .8-1zm121.9-28.3l-3.7-12.3-2.8-9.4.6-1.8c.2-1.2.6-2 .9-1.9.2 0 8.5 27.1 8.5 28 0 .2-.5.3-1.3.3H147zm56.1-5l2.2-1.6c3.7-2.7 5.5-6.3 5.5-10.9 0-4.6-1.7-7.9-5-10.2-1.8-1.2-1.1-1.3 1.4-.3a10.5 10.5 0 0 1 5.6 5.4c1.2 2.9 1.2 7.6 0 10.2a12.9 12.9 0 0 1-5.8 6c-2 1-4.3 1.9-3.9 1.3zm30.4-25.3c-.1-.2-.3-1.6-.3-3.3V107h1.3l1.6.2v2.8c0 2 0 3-.3 3-.5.4-2 .4-2.3 0zm-179.3-.7V110c0-2.6.5-3.1 2-2.7.8.2.8.2.8 3v2.8H55c-.8 0-1.3 0-1.4-.5zm48.3-24.7A135 135 0 0 1 145 29.3c.1 0 .3 2.5.3 5.5V40l-3.6 3.4a132.2 132.2 0 0 0-31 44.3c-.4.5-8.9.6-9.1 0zm94-82.9c.5-.5 6-1.7 11.6-2.6A129 129 0 0 1 251 3.9c3.1.6 4.2 1 3.1 1a19689.8 19689.8 0 0 1-58.3 0z"/><path fill="#2dce89" fill-opacity=".9" d="M350.5 181.1c-.1-.3-1.3-.5-2.5-.5s-2 0-2-.3l1-4.6c2.6-11 3.6-20.8 3.6-32.7 0-18-3-34.3-9.1-50.1-.8-2.4-1.5-4.5-1.4-4.6 0-.1 2.1-.4 4.5-.4h4.3l.8 2c6.6 16.2 10 33.5 9.8 51a126 126 0 0 1-2.6 31.7c-5.8 13.5-2.5 26.8-6.4 8.5zM5.3 178.8a13 13 0 0 1-4.6-2c0-1 1.5-6.3 1.7-6.3l1.3.5 1 .6-.4 2c-1 3.3-.8 3.6 1.5 4.8 2.4 1.3 2.3 1.3-.6.4zm69.4-32.4v-32.8h2.6V179h-2.6zm36.8 32.5l.9-4.2c2-7 20.3-66.4 20.7-67 .1-.5.6-.7 1.5-.7.8 0 1.3 0 1.3.3l-11 36-11 35.6-1.1.1h-1.3zm41.9-12l-3.7-12.4c0-.5 2.2-.4 2.6.2.4.5 7 23.3 7 24 0 .2-.3.4-1.2.4h-1.2zm24.6 11.9v-36c0-38.7 0-36.2 2-35.6l.8.2V179h-1.3c-.7 0-1.4-.2-1.5-.5zm27-15.8a438 438 0 0 1-9.6-16.3c.2-.4 1.7-.4 2.2.1l19.6 31.8c0 .4-.2.5-1.1.5h-1.4zm48.9-16.6v-32.8h2.5v32.8l.1 32.6H254zM24.3 171.8c2-1 3.6-2.6 4.7-4.6a15 15 0 0 0-1.6-16.7c-1.8-2.2-4.4-3.8-12.8-8.1-6.8-3.6-7.5-4-9.5-6.2a17.4 17.4 0 0 1 6.9-28.8c3.1-1.2 3.3-.9.4.7a19.2 19.2 0 0 0-7.5 7.3 18 18 0 0 0-1.8 9.7c.3 5.2 1.3 7.6 5 11.4 2.3 2.6 3 3 7.8 5.5 11 5.6 13 6.8 15 9.4 4.3 5.2 3.3 14.7-1.6 18.6a15 15 0 0 1-5.8 2.9c-1 .2-1 0 .8-1zm121.9-28.3l-3.7-12.3-2.8-9.4.6-1.8c.2-1.2.6-2 .9-1.9.2 0 8.5 27.1 8.5 28 0 .2-.5.3-1.3.3H147zm56.1-5l2.2-1.6c3.7-2.7 5.5-6.3 5.5-10.9 0-4.6-1.7-7.9-5-10.2-1.8-1.2-1.1-1.3 1.4-.3s4.5 3 5.6 5.4c1.2 2.9 1.2 7.6 0 10.2a12.9 12.9 0 0 1-5.8 6c-2 1-4.3 1.9-3.9 1.3zm30.4-25.3c-.1-.2-.3-1.6-.3-3.3V107h1.3l1.6.2v2.8c0 2 0 3-.3 3-.5.4-2 .4-2.3 0zm-179.3-.7V110c0-2.6.5-3.1 2-2.7.8.2.8.2.8 3v2.8H55c-.8 0-1.3 0-1.4-.5zm48.3-24.7A135 135 0 0 1 145 29.3c.1 0 .3 2.5.3 5.5V40l-3.6 3.4a132.2 132.2 0 0 0-31 44.3c-.4.5-8.9.6-9.1 0zm94-82.9c.5-.5 6-1.7 11.6-2.6A129 129 0 0 1 251 3.9c3.1.6 4.2 1 3.1 1h-58.3z"/></svg>